<svg width="388" height="390" viewBox="0 0 388 390" fill="none" xmlns="http://www.w3.org/2000/svg">
<path fill-rule="evenodd" clip-rule="evenodd" d="M102.312 26.1242L43.0845 59.6306C42.6181 59.9061 42.2606 60.5544 42.2606 61.1055V143.245C42.2606 143.78 42.6337 144.007 43.0845 143.731L102.39 110.192C102.856 109.916 103.213 109.268 103.213 108.717L103.151 26.6104C103.151 26.0756 102.778 25.8487 102.312 26.1242Z" fill="url(#paint0_linear_1385_11175)"/>
<path fill-rule="evenodd" clip-rule="evenodd" d="M111.252 28.5623L52.0242 62.0687C51.5578 62.3442 51.2003 62.9925 51.2003 63.5436V145.683C51.2003 146.218 51.5734 146.445 52.0242 146.169L111.329 112.63C111.796 112.354 112.153 111.706 112.153 111.155L112.091 29.0485C112.091 28.5136 111.718 28.2867 111.252 28.5623Z" fill="url(#paint1_linear_1385_11175)"/>
<path fill-rule="evenodd" clip-rule="evenodd" d="M278.786 94.3328L334.065 125.101C334.501 125.239 334.834 125.565 334.834 125.842V167.114C334.834 167.382 334.486 167.496 334.065 167.358L278.714 136.574C278.279 136.435 277.945 136.109 277.945 135.833L278.003 94.5771C278.003 94.3083 278.351 94.1943 278.786 94.3328Z" fill="url(#paint2_linear_1385_11175)"/>
<path fill-rule="evenodd" clip-rule="evenodd" d="M282.037 91.8947L337.316 122.662C337.751 122.801 338.085 123.127 338.085 123.404V164.676C338.085 164.837 337.959 164.943 337.767 164.971L338.085 165.385L334.834 167.417L334.75 167.309C334.804 167.259 334.834 167.193 334.834 167.114V125.842C334.834 125.565 334.501 125.239 334.065 125.101L278.786 94.3327C278.626 94.2818 278.478 94.265 278.354 94.2776L278.351 94.2737L281.257 92.0943C281.279 91.9526 281.408 91.8622 281.596 91.8406L281.602 91.8356L281.605 91.8395C281.729 91.827 281.877 91.8437 282.037 91.8947Z" fill="url(#paint3_linear_1385_11175)"/>
<g opacity="0.22">
<g opacity="0.22">
<g opacity="0.22">
<path opacity="0.22" d="M286.726 105.89H286.858V129.544H286.726V105.89Z" fill="#384061"/>
</g>
<g opacity="0.22">
<path opacity="0.22" d="M289.613 107.526H289.745V131.18H289.613V107.526Z" fill="#384061"/>
</g>
<g opacity="0.22">
<path opacity="0.22" d="M292.499 109.162H292.631V132.816H292.499V109.162Z" fill="#384061"/>
</g>
<g opacity="0.22">
<path opacity="0.22" d="M295.387 110.798H295.519V134.452H295.387V110.798Z" fill="#384061"/>
</g>
<g opacity="0.22">
<path opacity="0.22" d="M298.273 112.435H298.405V136.089H298.273V112.435Z" fill="#384061"/>
</g>
<g opacity="0.22">
<path opacity="0.22" d="M301.158 114.071H301.29V137.725H301.158V114.071Z" fill="#384061"/>
</g>
<g opacity="0.22">
<path opacity="0.22" d="M304.046 115.708H304.178V139.361H304.046V115.708Z" fill="#384061"/>
</g>
<g opacity="0.22">
<path opacity="0.22" d="M306.915 117.344H307.047V140.998H306.915V117.344Z" fill="#384061"/>
</g>
<g opacity="0.22">
<path opacity="0.22" d="M309.801 118.98H309.933V142.634H309.801V118.98Z" fill="#384061"/>
</g>
<g opacity="0.22">
<path opacity="0.22" d="M312.688 120.616H312.82V144.27H312.688V120.616Z" fill="#384061"/>
</g>
<g opacity="0.22">
<path opacity="0.22" d="M315.575 122.253H315.707V145.907H315.575V122.253Z" fill="#384061"/>
</g>
<g opacity="0.22">
<path opacity="0.22" d="M318.461 123.89H318.593V147.543H318.461V123.89Z" fill="#384061"/>
</g>
<g opacity="0.22">
<path opacity="0.22" d="M321.347 125.526H321.479V149.18H321.347V125.526Z" fill="#384061"/>
</g>
<g opacity="0.22">
<path opacity="0.22" d="M324.217 127.162H324.349V150.816H324.217V127.162Z" fill="#384061"/>
</g>
<g opacity="0.22">
<path opacity="0.22" d="M327.103 128.782H327.235V152.436H327.103V128.782Z" fill="#384061"/>
</g>
</g>
</g>
<path opacity="0.8" fill-rule="evenodd" clip-rule="evenodd" d="M285.754 119.677C287.618 121.67 290.389 124.181 293.44 125.056C298.966 126.643 298.9 120.795 302.759 123.614C305.992 125.963 307.345 134.533 309.819 135.927C312.672 137.547 312.458 131.844 315.212 132.946C318.033 134.064 319.418 140.447 323.311 143.023C325.29 144.335 327.022 144.06 328.209 143.574V153.246L285.738 129.155V119.677H285.754Z" fill="url(#paint4_linear_1385_11175)"/>
<path d="M326.246 144.125C325.24 144.125 324.25 143.801 323.26 143.136C321.248 141.792 319.896 139.443 318.692 137.353C317.537 135.344 316.531 133.594 315.195 133.059C313.958 132.573 313.364 133.561 312.737 134.598C312.094 135.684 311.352 136.931 309.769 136.024C308.548 135.327 307.608 132.994 306.618 130.516C305.563 127.891 304.359 124.894 302.693 123.695C300.845 122.35 299.938 123.047 298.817 123.954C297.679 124.861 296.244 125.979 293.407 125.169C290.982 124.472 288.393 122.674 285.737 119.823C285.688 119.774 285.688 119.693 285.737 119.644C285.787 119.596 285.869 119.596 285.919 119.644C288.558 122.464 291.098 124.229 293.489 124.926C296.194 125.704 297.514 124.667 298.668 123.76C299.839 122.836 300.845 122.042 302.858 123.5C304.573 124.748 305.744 127.632 306.866 130.435C307.839 132.865 308.762 135.165 309.917 135.813C311.286 136.591 311.863 135.603 312.539 134.469C313.166 133.432 313.859 132.249 315.294 132.816C316.712 133.383 317.735 135.149 318.923 137.207C320.11 139.264 321.446 141.597 323.425 142.91C324.992 143.946 326.543 144.141 328.143 143.477C328.209 143.444 328.275 143.477 328.307 143.541C328.34 143.606 328.307 143.671 328.242 143.703C327.549 143.979 326.889 144.125 326.246 144.125Z" fill="white"/>
<path fill-rule="evenodd" clip-rule="evenodd" d="M301.769 120.989L301.241 120.681C300.845 120.454 300.515 119.839 300.515 119.32C300.515 118.802 300.845 118.559 301.241 118.786L301.769 119.093C302.165 119.32 302.495 119.936 302.495 120.454C302.511 120.973 302.181 121.216 301.769 120.989Z" fill="url(#paint5_linear_1385_11175)"/>
<path fill-rule="evenodd" clip-rule="evenodd" d="M315.888 131.957L315.13 131.536C314.701 131.293 314.371 130.661 314.371 130.094V129.916C314.371 129.365 314.717 129.106 315.13 129.349L315.888 129.77C316.317 130.013 316.647 130.645 316.647 131.212V131.39C316.647 131.941 316.301 132.2 315.888 131.957Z" fill="url(#paint6_linear_1385_11175)"/>
<path d="M282.686 126.319V127.518L282.505 127.421V126.498H282.34V126.303L282.67 126.319H282.686Z" fill="white"/>
<path d="M283.197 126.611C283.279 126.659 283.345 126.741 283.395 126.854C283.444 126.967 283.461 127.097 283.461 127.259V127.47C283.461 127.632 283.444 127.745 283.395 127.81C283.345 127.875 283.279 127.875 283.197 127.826C283.114 127.777 283.048 127.696 282.999 127.583C282.949 127.47 282.933 127.34 282.933 127.178V126.951C282.933 126.789 282.949 126.676 282.999 126.611C283.048 126.562 283.114 126.562 283.197 126.611ZM283.114 127.308C283.114 127.405 283.114 127.486 283.131 127.534C283.147 127.583 283.164 127.632 283.197 127.648C283.23 127.664 283.246 127.648 283.263 127.615C283.279 127.583 283.279 127.518 283.279 127.421V127.129C283.279 127.032 283.279 126.967 283.263 126.903C283.246 126.854 283.23 126.805 283.197 126.789C283.147 126.757 283.114 126.822 283.114 127V127.308Z" fill="white"/>
<path d="M284.121 127.793C284.17 127.826 284.22 127.874 284.253 127.923C284.286 127.988 284.302 128.053 284.302 128.134V128.199C284.302 128.28 284.286 128.328 284.253 128.344C284.22 128.377 284.187 128.377 284.121 128.344C284.071 128.312 284.022 128.263 283.989 128.199C283.956 128.134 283.939 128.069 283.939 127.988V127.923C283.939 127.842 283.956 127.793 283.989 127.777C284.022 127.761 284.071 127.761 284.121 127.793ZM284.055 128.069C284.055 128.101 284.055 128.134 284.071 128.15C284.088 128.182 284.088 128.199 284.104 128.199C284.137 128.215 284.154 128.199 284.154 128.134V128.053C284.154 128.02 284.154 127.988 284.137 127.972C284.121 127.939 284.121 127.923 284.104 127.923C284.071 127.907 284.055 127.939 284.055 128.02V128.069Z" fill="white"/>
<path d="M283.758 126.919C283.808 126.951 283.857 127 283.89 127.065C283.923 127.129 283.939 127.194 283.939 127.275V127.34C283.939 127.421 283.923 127.47 283.89 127.486C283.857 127.518 283.824 127.518 283.775 127.486C283.725 127.453 283.676 127.405 283.643 127.356C283.61 127.291 283.593 127.227 283.593 127.146V127.081C283.593 127.016 283.61 126.951 283.643 126.935C283.659 126.886 283.709 126.886 283.758 126.919ZM283.709 127.194C283.709 127.227 283.709 127.259 283.725 127.275C283.742 127.308 283.742 127.324 283.758 127.324C283.775 127.34 283.791 127.324 283.791 127.324C283.807 127.308 283.808 127.291 283.808 127.259V127.194C283.808 127.162 283.807 127.129 283.791 127.113C283.775 127.081 283.775 127.065 283.758 127.065C283.742 127.048 283.725 127.065 283.725 127.065C283.709 127.081 283.709 127.097 283.709 127.129V127.194Z" fill="white"/>
<path d="M284.171 127.34L283.792 128.053L283.709 127.939L284.089 127.226L284.171 127.34Z" fill="white"/>
<path d="M282.554 122.01C282.521 121.994 282.504 121.994 282.488 122.026C282.471 122.058 282.455 122.091 282.455 122.156L282.273 122.058C282.273 121.977 282.29 121.929 282.306 121.88C282.323 121.832 282.356 121.799 282.405 121.799C282.455 121.783 282.488 121.799 282.554 121.832C282.636 121.88 282.702 121.945 282.735 122.026C282.784 122.107 282.801 122.204 282.801 122.318C282.801 122.382 282.785 122.447 282.768 122.496C282.752 122.544 282.702 122.609 282.636 122.674L282.521 122.82L282.834 122.998V123.192L282.306 122.885V122.723L282.554 122.447C282.587 122.415 282.603 122.366 282.62 122.334C282.636 122.301 282.636 122.269 282.636 122.22C282.636 122.172 282.636 122.123 282.62 122.091C282.603 122.042 282.57 122.026 282.554 122.01Z" fill="white"/>
<path d="M283.197 122.188C283.279 122.236 283.345 122.317 283.395 122.431C283.444 122.544 283.461 122.674 283.461 122.836V123.046C283.461 123.208 283.444 123.322 283.395 123.387C283.345 123.451 283.279 123.451 283.197 123.403C283.114 123.354 283.048 123.273 282.999 123.16C282.949 123.046 282.933 122.917 282.933 122.755V122.528C282.933 122.366 282.949 122.253 282.999 122.188C283.048 122.123 283.114 122.139 283.197 122.188ZM283.114 122.884C283.114 122.982 283.114 123.063 283.131 123.111C283.147 123.16 283.164 123.208 283.197 123.225C283.23 123.241 283.246 123.225 283.263 123.192C283.279 123.16 283.279 123.095 283.279 122.998V122.706C283.279 122.609 283.279 122.544 283.263 122.479C283.246 122.431 283.23 122.382 283.197 122.366C283.147 122.334 283.114 122.398 283.114 122.577V122.884Z" fill="white"/>
<path d="M284.236 123.516C284.269 123.581 284.286 123.646 284.286 123.727V123.792C284.286 123.873 284.269 123.922 284.236 123.938C284.203 123.97 284.17 123.97 284.104 123.938C284.055 123.905 284.005 123.857 283.972 123.792C283.939 123.727 283.923 123.662 283.923 123.581V123.516C283.923 123.435 283.939 123.387 283.972 123.371C284.005 123.338 284.038 123.338 284.088 123.371C284.17 123.403 284.203 123.452 284.236 123.516ZM284.055 123.646C284.055 123.678 284.055 123.711 284.071 123.727C284.088 123.759 284.088 123.776 284.104 123.776C284.137 123.792 284.154 123.776 284.154 123.711V123.63C284.154 123.597 284.154 123.565 284.137 123.549C284.121 123.516 284.121 123.5 284.104 123.5C284.071 123.484 284.055 123.516 284.055 123.597V123.646Z" fill="white"/>
<path d="M283.758 122.496C283.808 122.528 283.857 122.577 283.89 122.642C283.923 122.706 283.939 122.771 283.939 122.852V122.917C283.939 122.998 283.923 123.047 283.89 123.063C283.857 123.095 283.824 123.095 283.775 123.063C283.725 123.03 283.676 122.982 283.643 122.933C283.61 122.868 283.593 122.804 283.593 122.723V122.658C283.593 122.593 283.61 122.528 283.643 122.512C283.659 122.463 283.709 122.463 283.758 122.496ZM283.709 122.771C283.709 122.804 283.709 122.836 283.725 122.852C283.742 122.885 283.742 122.901 283.758 122.901C283.775 122.917 283.791 122.901 283.791 122.901C283.807 122.885 283.808 122.868 283.808 122.836V122.771C283.808 122.739 283.807 122.706 283.791 122.69C283.775 122.658 283.775 122.642 283.758 122.642C283.742 122.625 283.725 122.642 283.725 122.642C283.709 122.658 283.709 122.674 283.709 122.706V122.771Z" fill="white"/>
<path d="M283.709 123.533L284.089 122.803L284.171 122.917L283.792 123.63L283.709 123.533Z" fill="white"/>
<path d="M282.752 117.538V118.283L282.834 118.332V118.526L282.752 118.478V118.737L282.57 118.64V118.381L282.273 118.202V118.04L282.587 117.425L282.752 117.538ZM282.438 118.089L282.57 118.17V117.765L282.438 118.089Z" fill="white"/>
<path d="M283.197 117.765C283.279 117.814 283.345 117.895 283.395 118.008C283.444 118.121 283.461 118.251 283.461 118.413V118.624C283.461 118.786 283.444 118.899 283.395 118.964C283.345 119.029 283.279 119.029 283.197 118.98C283.114 118.931 283.048 118.85 282.999 118.737C282.949 118.624 282.933 118.494 282.933 118.332V118.121C282.933 117.959 282.949 117.846 282.999 117.781C283.048 117.733 283.114 117.716 283.197 117.765ZM283.114 118.462C283.114 118.559 283.114 118.64 283.131 118.688C283.147 118.737 283.164 118.786 283.197 118.802C283.23 118.818 283.246 118.802 283.263 118.769C283.279 118.737 283.279 118.672 283.279 118.575V118.283C283.279 118.186 283.279 118.121 283.263 118.057C283.246 118.008 283.23 117.959 283.197 117.943C283.147 117.911 283.114 117.976 283.114 118.154V118.462Z" fill="white"/>
<path d="M283.709 119.11L284.089 118.397L284.171 118.494L283.792 119.223L283.709 119.11Z" fill="white"/>
<path d="M283.758 118.089C283.808 118.121 283.857 118.17 283.89 118.235C283.923 118.299 283.939 118.364 283.939 118.445V118.51C283.939 118.591 283.923 118.64 283.89 118.656C283.857 118.672 283.824 118.688 283.775 118.656C283.725 118.623 283.676 118.575 283.643 118.526C283.61 118.461 283.593 118.397 283.593 118.316V118.251C283.593 118.186 283.61 118.121 283.643 118.105C283.659 118.056 283.709 118.056 283.758 118.089ZM283.709 118.364C283.709 118.397 283.709 118.429 283.725 118.445C283.742 118.478 283.742 118.494 283.758 118.494C283.775 118.51 283.791 118.494 283.791 118.494C283.807 118.478 283.808 118.461 283.808 118.429V118.364C283.808 118.332 283.807 118.299 283.791 118.283C283.775 118.251 283.775 118.235 283.758 118.235C283.742 118.218 283.725 118.235 283.725 118.235C283.709 118.251 283.709 118.267 283.709 118.299V118.364Z" fill="white"/>
<path d="M284.121 118.947C284.17 118.98 284.22 119.028 284.253 119.077C284.286 119.142 284.302 119.207 284.302 119.288V119.352C284.302 119.433 284.286 119.482 284.253 119.498C284.22 119.531 284.187 119.531 284.121 119.498C284.071 119.466 284.022 119.417 283.989 119.352C283.956 119.288 283.939 119.223 283.939 119.142V119.077C283.939 118.996 283.956 118.947 283.989 118.931C284.022 118.931 284.071 118.931 284.121 118.947ZM284.055 119.239C284.055 119.271 284.055 119.304 284.071 119.32C284.088 119.352 284.088 119.369 284.104 119.369C284.137 119.385 284.154 119.369 284.154 119.304V119.223C284.154 119.19 284.154 119.158 284.137 119.142C284.121 119.126 284.121 119.093 284.104 119.093C284.071 119.077 284.055 119.109 284.055 119.19V119.239Z" fill="white"/>
<path d="M282.768 113.633C282.801 113.731 282.834 113.844 282.834 113.957C282.834 114.038 282.817 114.103 282.801 114.152C282.784 114.2 282.752 114.233 282.702 114.249C282.669 114.265 282.62 114.249 282.57 114.217C282.488 114.168 282.422 114.087 282.372 113.974C282.323 113.86 282.29 113.731 282.29 113.585V113.504C282.29 113.374 282.306 113.261 282.339 113.18C282.372 113.099 282.422 113.05 282.471 113.034C282.537 113.018 282.603 113.034 282.686 113.066L282.719 113.083V113.277H282.702C282.636 113.245 282.587 113.228 282.537 113.261C282.504 113.293 282.471 113.342 282.471 113.439C282.504 113.407 282.554 113.407 282.62 113.439C282.686 113.471 282.735 113.536 282.768 113.633ZM282.504 113.585C282.488 113.601 282.471 113.617 282.471 113.633V113.714C282.471 113.795 282.488 113.86 282.504 113.925C282.521 113.974 282.537 114.006 282.57 114.022C282.603 114.038 282.62 114.038 282.636 114.006C282.653 113.974 282.669 113.925 282.669 113.86C282.669 113.795 282.653 113.747 282.636 113.682C282.62 113.633 282.603 113.601 282.57 113.585C282.537 113.569 282.521 113.569 282.504 113.585Z" fill="white"/>
<path d="M283.197 113.342C283.279 113.391 283.345 113.472 283.395 113.585C283.444 113.698 283.461 113.828 283.461 113.99V114.201C283.461 114.363 283.444 114.476 283.395 114.541C283.345 114.606 283.279 114.606 283.197 114.557C283.114 114.509 283.048 114.428 282.999 114.314C282.949 114.201 282.933 114.071 282.933 113.909V113.682C282.933 113.52 282.949 113.407 282.999 113.342C283.048 113.277 283.114 113.31 283.197 113.342ZM283.114 114.055C283.114 114.152 283.114 114.233 283.131 114.282C283.147 114.33 283.164 114.379 283.197 114.395C283.23 114.411 283.246 114.395 283.263 114.363C283.279 114.33 283.279 114.266 283.279 114.168V113.877C283.279 113.779 283.279 113.715 283.263 113.65C283.246 113.601 283.23 113.553 283.197 113.536C283.147 113.504 283.114 113.569 283.114 113.747V114.055Z" fill="white"/>
<path d="M283.758 113.666C283.808 113.698 283.857 113.747 283.89 113.812C283.923 113.877 283.939 113.941 283.939 114.022V114.087C283.939 114.168 283.923 114.217 283.89 114.233C283.857 114.265 283.824 114.265 283.775 114.233C283.725 114.201 283.676 114.152 283.643 114.103C283.61 114.039 283.593 113.974 283.593 113.893V113.828C283.593 113.763 283.61 113.698 283.643 113.682C283.659 113.633 283.709 113.633 283.758 113.666ZM283.709 113.941C283.709 113.974 283.709 114.006 283.725 114.022C283.742 114.055 283.742 114.071 283.758 114.071C283.775 114.087 283.791 114.071 283.791 114.071C283.807 114.055 283.808 114.039 283.808 114.006V113.941C283.808 113.909 283.807 113.877 283.791 113.86C283.775 113.828 283.775 113.812 283.758 113.812C283.742 113.796 283.725 113.812 283.725 113.812C283.709 113.828 283.709 113.844 283.709 113.877V113.941Z" fill="white"/>
<path d="M283.709 114.687L284.089 113.974L284.171 114.087L283.792 114.8L283.709 114.687Z" fill="white"/>
<path d="M284.121 114.541C284.17 114.573 284.22 114.622 284.253 114.67C284.286 114.735 284.302 114.8 284.302 114.881V114.946C284.302 115.027 284.286 115.075 284.253 115.092C284.22 115.124 284.187 115.124 284.121 115.092C284.071 115.059 284.022 115.011 283.989 114.946C283.956 114.881 283.939 114.816 283.939 114.735V114.67C283.939 114.589 283.956 114.541 283.989 114.525C284.022 114.508 284.071 114.508 284.121 114.541ZM284.055 114.816C284.055 114.849 284.055 114.881 284.071 114.897C284.088 114.93 284.088 114.946 284.104 114.946C284.137 114.962 284.154 114.946 284.154 114.881V114.8C284.154 114.768 284.154 114.735 284.137 114.719C284.121 114.687 284.121 114.67 284.104 114.67C284.071 114.654 284.055 114.687 284.055 114.768V114.816Z" fill="white"/>
<path d="M282.801 109.032C282.801 109.097 282.784 109.129 282.768 109.178C282.751 109.21 282.718 109.227 282.685 109.243C282.718 109.291 282.751 109.34 282.768 109.405C282.784 109.47 282.801 109.534 282.801 109.599C282.801 109.713 282.784 109.777 282.735 109.81C282.685 109.842 282.619 109.842 282.537 109.794C282.455 109.745 282.389 109.68 282.339 109.599C282.29 109.518 282.273 109.421 282.273 109.308C282.273 109.243 282.29 109.194 282.306 109.146C282.323 109.113 282.356 109.081 282.389 109.081C282.356 109.032 282.323 108.984 282.306 108.935C282.29 108.886 282.273 108.822 282.273 108.773C282.273 108.676 282.29 108.595 282.339 108.562C282.389 108.53 282.438 108.53 282.521 108.579C282.603 108.627 282.652 108.692 282.702 108.773C282.784 108.838 282.801 108.935 282.801 109.032ZM282.603 108.822C282.586 108.789 282.57 108.757 282.553 108.757C282.537 108.741 282.521 108.741 282.504 108.773C282.488 108.789 282.488 108.822 282.488 108.87C282.488 108.919 282.488 108.951 282.504 109C282.521 109.032 282.537 109.065 282.553 109.065C282.57 109.081 282.586 109.081 282.603 109.048C282.619 109.032 282.619 108.984 282.619 108.951C282.619 108.903 282.619 108.87 282.603 108.822ZM282.619 109.34C282.603 109.308 282.586 109.275 282.553 109.259C282.521 109.243 282.504 109.243 282.488 109.275C282.471 109.291 282.471 109.34 282.471 109.389C282.471 109.437 282.471 109.486 282.488 109.518C282.504 109.551 282.521 109.583 282.553 109.599C282.586 109.615 282.603 109.615 282.619 109.583C282.636 109.567 282.636 109.518 282.636 109.47C282.636 109.421 282.636 109.372 282.619 109.34Z" fill="white"/>
<path d="M283.197 108.935C283.279 108.984 283.345 109.065 283.395 109.178C283.444 109.292 283.461 109.421 283.461 109.583V109.794C283.461 109.956 283.444 110.069 283.395 110.134C283.345 110.199 283.279 110.199 283.197 110.15C283.114 110.102 283.048 110.021 282.999 109.907C282.949 109.794 282.933 109.664 282.933 109.502V109.275C282.933 109.113 282.949 109 282.999 108.935C283.048 108.886 283.114 108.886 283.197 108.935ZM283.114 109.632C283.114 109.729 283.114 109.81 283.131 109.859C283.147 109.907 283.164 109.956 283.197 109.972C283.23 109.988 283.246 109.972 283.263 109.94C283.279 109.907 283.279 109.842 283.279 109.745V109.454C283.279 109.356 283.279 109.292 283.263 109.227C283.246 109.178 283.23 109.129 283.197 109.113C283.147 109.081 283.114 109.146 283.114 109.324V109.632Z" fill="white"/>
<path d="M283.709 110.28L284.089 109.551L284.171 109.664L283.792 110.377L283.709 110.28Z" fill="white"/>
<path d="M284.121 110.118C284.17 110.15 284.22 110.199 284.253 110.248C284.286 110.312 284.302 110.377 284.302 110.458V110.523C284.302 110.604 284.286 110.653 284.253 110.669C284.22 110.701 284.187 110.701 284.121 110.669C284.071 110.636 284.022 110.588 283.989 110.523C283.956 110.458 283.939 110.393 283.939 110.312V110.248C283.939 110.167 283.956 110.118 283.989 110.102C284.022 110.086 284.071 110.086 284.121 110.118ZM284.055 110.393C284.055 110.426 284.055 110.458 284.071 110.474C284.088 110.507 284.088 110.523 284.104 110.523C284.137 110.539 284.154 110.523 284.154 110.458V110.377C284.154 110.345 284.154 110.312 284.137 110.296C284.121 110.264 284.121 110.248 284.104 110.248C284.071 110.231 284.055 110.264 284.055 110.345V110.393Z" fill="white"/>
<path d="M283.758 109.243C283.808 109.275 283.857 109.324 283.89 109.389C283.923 109.453 283.939 109.518 283.939 109.599V109.664C283.939 109.745 283.923 109.794 283.89 109.81C283.857 109.826 283.824 109.842 283.775 109.81C283.725 109.777 283.676 109.729 283.643 109.68C283.61 109.615 283.593 109.551 283.593 109.47V109.405C283.593 109.34 283.61 109.275 283.643 109.259C283.659 109.21 283.709 109.21 283.758 109.243ZM283.709 109.518C283.709 109.551 283.709 109.583 283.725 109.599C283.742 109.632 283.742 109.648 283.758 109.648C283.775 109.664 283.791 109.648 283.791 109.648C283.807 109.632 283.808 109.615 283.808 109.583V109.518C283.808 109.486 283.807 109.453 283.791 109.437C283.775 109.405 283.775 109.389 283.758 109.389C283.742 109.372 283.725 109.389 283.725 109.389C283.709 109.405 283.709 109.421 283.709 109.453V109.518Z" fill="white"/>
<path d="M282.339 104.042H282.355V105.241L282.174 105.144V104.237L282.009 104.221V104.026L282.339 104.042Z" fill="white"/>
<path d="M282.62 104.917V104.69C282.62 104.528 282.636 104.415 282.686 104.35C282.735 104.285 282.801 104.285 282.883 104.334C282.966 104.383 283.032 104.464 283.081 104.577C283.131 104.69 283.147 104.82 283.147 104.982V105.193C283.147 105.355 283.131 105.468 283.081 105.533C283.032 105.598 282.966 105.598 282.883 105.549C282.801 105.5 282.735 105.419 282.686 105.306C282.636 105.209 282.62 105.079 282.62 104.917ZM282.784 105.031C282.784 105.128 282.784 105.209 282.801 105.257C282.817 105.306 282.834 105.355 282.867 105.371C282.9 105.387 282.916 105.371 282.933 105.338C282.949 105.306 282.949 105.241 282.949 105.144V104.852C282.949 104.755 282.949 104.69 282.933 104.626C282.916 104.577 282.9 104.528 282.867 104.512C282.817 104.48 282.784 104.545 282.784 104.723V105.031Z" fill="white"/>
<path d="M283.263 105.274V105.047C283.263 104.885 283.279 104.772 283.329 104.707C283.378 104.642 283.444 104.642 283.527 104.691C283.609 104.739 283.675 104.82 283.725 104.934C283.774 105.047 283.791 105.177 283.791 105.339V105.549C283.791 105.711 283.774 105.825 283.725 105.889C283.675 105.954 283.609 105.954 283.527 105.906C283.444 105.857 283.378 105.776 283.329 105.663C283.296 105.582 283.263 105.436 283.263 105.274ZM283.444 105.387C283.444 105.484 283.444 105.565 283.461 105.614C283.477 105.663 283.494 105.711 283.527 105.727C283.56 105.744 283.576 105.727 283.593 105.695C283.609 105.663 283.609 105.598 283.609 105.501V105.209C283.609 105.112 283.609 105.047 283.593 104.982C283.576 104.934 283.56 104.885 283.527 104.869C283.477 104.836 283.444 104.901 283.444 105.079V105.387Z" fill="white"/>
<path d="M284.038 106.035L284.401 105.322L284.483 105.436L284.12 106.149L284.038 106.035Z" fill="white"/>
<path d="M284.269 106.035C284.269 105.954 284.286 105.906 284.319 105.89C284.352 105.873 284.385 105.857 284.434 105.89C284.484 105.922 284.533 105.971 284.566 106.019C284.599 106.084 284.616 106.149 284.616 106.23V106.295C284.616 106.376 284.599 106.424 284.566 106.44C284.533 106.473 284.5 106.473 284.434 106.44C284.385 106.408 284.335 106.359 284.302 106.295C284.269 106.23 284.253 106.165 284.253 106.084V106.035H284.269ZM284.385 106.165C284.385 106.197 284.385 106.23 284.401 106.246C284.418 106.278 284.418 106.295 284.434 106.295C284.467 106.311 284.484 106.295 284.484 106.23V106.149C284.484 106.116 284.484 106.084 284.467 106.068C284.451 106.035 284.451 106.019 284.434 106.019C284.401 106.003 284.385 106.035 284.385 106.116V106.165Z" fill="white"/>
<path d="M284.088 105.565C284.038 105.533 283.989 105.484 283.956 105.436C283.923 105.371 283.906 105.306 283.906 105.225V105.16C283.906 105.096 283.923 105.031 283.956 105.015C283.989 104.982 284.022 104.982 284.088 105.015C284.137 105.047 284.187 105.096 284.22 105.16C284.253 105.225 284.269 105.29 284.269 105.371V105.436C284.269 105.517 284.253 105.565 284.22 105.582C284.17 105.598 284.137 105.598 284.088 105.565ZM284.137 105.29C284.137 105.258 284.137 105.225 284.121 105.209C284.104 105.177 284.104 105.16 284.088 105.16C284.071 105.144 284.055 105.16 284.055 105.16C284.038 105.177 284.038 105.193 284.038 105.225V105.29C284.038 105.322 284.038 105.355 284.055 105.371C284.071 105.403 284.071 105.42 284.088 105.42C284.104 105.436 284.121 105.42 284.121 105.42C284.137 105.403 284.137 105.387 284.137 105.355V105.29Z" fill="white"/>
<path d="M286.199 131.568V132.767L286.034 132.67V131.747H285.852V131.552L286.182 131.568H286.199Z" fill="white"/>
<path d="M289.036 133.351C289.003 133.334 288.987 133.334 288.97 133.367C288.954 133.399 288.937 133.432 288.937 133.496L288.756 133.399C288.756 133.318 288.772 133.269 288.789 133.221C288.805 133.172 288.838 133.14 288.888 133.14C288.937 133.124 288.97 133.14 289.036 133.172C289.118 133.221 289.184 133.286 289.217 133.367C289.267 133.448 289.283 133.545 289.283 133.658C289.283 133.723 289.267 133.788 289.25 133.837C289.217 133.885 289.184 133.95 289.118 134.015L289.003 134.161L289.316 134.339V134.533L288.789 134.225V134.063L289.036 133.788C289.069 133.756 289.085 133.707 289.102 133.675C289.118 133.642 289.118 133.61 289.118 133.561C289.118 133.513 289.118 133.464 289.102 133.432C289.069 133.383 289.052 133.367 289.036 133.351Z" fill="white"/>
<path d="M291.907 135.781C291.923 135.813 291.94 135.846 291.973 135.862C292.006 135.878 292.022 135.878 292.039 135.862C292.055 135.846 292.072 135.813 292.072 135.765C292.072 135.651 292.039 135.57 291.973 135.522L291.89 135.473V135.279L291.973 135.327C292.006 135.343 292.022 135.343 292.039 135.327C292.055 135.311 292.055 135.279 292.055 135.214C292.055 135.165 292.055 135.133 292.039 135.084C292.022 135.052 292.006 135.019 291.973 135.003C291.956 134.987 291.923 134.987 291.907 135.003C291.89 135.019 291.89 135.052 291.89 135.084L291.709 134.987C291.709 134.922 291.725 134.874 291.742 134.841C291.758 134.809 291.791 134.776 291.841 134.776C291.874 134.776 291.923 134.776 291.973 134.809C292.055 134.857 292.121 134.922 292.171 135.003C292.22 135.084 292.237 135.181 292.237 135.295C292.237 135.343 292.22 135.392 292.204 135.424C292.187 135.457 292.154 135.473 292.121 135.489C292.171 135.538 292.204 135.586 292.22 135.651C292.237 135.716 292.253 135.781 292.253 135.846C292.253 135.959 292.22 136.024 292.171 136.056C292.121 136.089 292.055 136.089 291.973 136.04C291.89 135.992 291.824 135.927 291.791 135.846C291.742 135.748 291.725 135.651 291.725 135.554L291.907 135.651C291.89 135.7 291.89 135.748 291.907 135.781Z" fill="white"/>
<path d="M295.155 136.639V137.385L295.237 137.433V137.628L295.155 137.579V137.838L294.973 137.741V137.482L294.676 137.304V137.142L294.99 136.526L295.155 136.639ZM294.841 137.206L294.973 137.287V136.882L294.841 137.206Z" fill="white"/>
<path d="M297.844 139.151C297.86 139.183 297.877 139.215 297.91 139.232C297.943 139.248 297.959 139.248 297.976 139.215C297.992 139.183 297.992 139.134 297.992 139.07C297.992 139.005 297.976 138.94 297.959 138.891C297.943 138.843 297.91 138.81 297.877 138.794C297.844 138.778 297.811 138.778 297.794 138.794L297.778 138.81L297.63 138.681L297.679 138.097L298.124 138.34V138.535L297.827 138.373L297.811 138.616C297.844 138.6 297.877 138.616 297.91 138.632C297.992 138.681 298.042 138.746 298.091 138.843C298.124 138.94 298.157 139.053 298.157 139.167C298.157 139.28 298.141 139.361 298.091 139.41C298.042 139.458 297.976 139.458 297.893 139.41C297.844 139.377 297.794 139.345 297.762 139.296C297.729 139.248 297.696 139.183 297.663 139.118C297.646 139.053 297.63 138.989 297.63 138.924L297.811 139.021C297.811 139.07 297.827 139.118 297.844 139.151Z" fill="white"/>
<path d="M300.78 139.912C300.846 139.896 300.912 139.912 300.994 139.944L301.027 139.96V140.155H301.011C300.945 140.122 300.895 140.106 300.846 140.139C300.813 140.171 300.78 140.22 300.78 140.317C300.813 140.284 300.862 140.284 300.928 140.317C300.994 140.349 301.044 140.414 301.093 140.511C301.126 140.608 301.159 140.722 301.159 140.835C301.159 140.916 301.143 140.981 301.126 141.03C301.11 141.078 301.077 141.111 301.027 141.127C300.978 141.143 300.945 141.127 300.895 141.095C300.813 141.046 300.747 140.965 300.697 140.852C300.648 140.738 300.615 140.608 300.615 140.463V140.382C300.615 140.252 300.631 140.139 300.664 140.058C300.681 139.977 300.73 139.928 300.78 139.912ZM300.78 140.592C300.78 140.673 300.796 140.738 300.813 140.803C300.829 140.852 300.846 140.884 300.879 140.9C300.912 140.916 300.928 140.916 300.945 140.884C300.961 140.852 300.978 140.803 300.978 140.738C300.978 140.673 300.961 140.625 300.945 140.56C300.928 140.511 300.912 140.479 300.879 140.463C300.862 140.446 300.829 140.446 300.829 140.463C300.813 140.479 300.796 140.495 300.796 140.511V140.592H300.78Z" fill="white"/>
<path d="M304.078 141.84L303.798 142.747L303.616 142.634L303.897 141.808L303.534 141.597V141.403L304.078 141.71V141.84Z" fill="white"/>
<path d="M306.634 143.736C306.601 143.687 306.568 143.638 306.552 143.59C306.535 143.541 306.519 143.476 306.519 143.428C306.519 143.331 306.535 143.25 306.585 143.217C306.634 143.185 306.684 143.185 306.766 143.233C306.849 143.282 306.898 143.347 306.948 143.428C306.997 143.509 307.014 143.606 307.014 143.703C307.014 143.768 306.997 143.8 306.981 143.849C306.964 143.881 306.931 143.898 306.898 143.914C306.931 143.962 306.964 144.011 306.981 144.076C306.997 144.141 307.014 144.205 307.014 144.27C307.014 144.384 306.997 144.448 306.948 144.481C306.898 144.513 306.832 144.513 306.75 144.465C306.667 144.416 306.601 144.351 306.552 144.27C306.502 144.189 306.486 144.092 306.486 143.979C306.486 143.914 306.502 143.865 306.519 143.817C306.568 143.768 306.601 143.736 306.634 143.736ZM306.832 143.476C306.816 143.444 306.799 143.412 306.783 143.412C306.766 143.395 306.75 143.395 306.733 143.428C306.717 143.444 306.717 143.476 306.717 143.525C306.717 143.574 306.717 143.606 306.733 143.655C306.75 143.687 306.766 143.719 306.783 143.719C306.799 143.736 306.816 143.736 306.832 143.703C306.849 143.687 306.849 143.638 306.849 143.606C306.849 143.557 306.832 143.525 306.832 143.476ZM306.717 144.173C306.733 144.205 306.75 144.238 306.783 144.254C306.816 144.27 306.832 144.27 306.849 144.238C306.865 144.222 306.865 144.173 306.865 144.124C306.865 144.076 306.865 144.027 306.849 143.995C306.832 143.962 306.816 143.93 306.783 143.914C306.75 143.898 306.733 143.898 306.717 143.93C306.7 143.946 306.7 143.995 306.7 144.043C306.684 144.092 306.7 144.141 306.717 144.173Z" fill="white"/>
<path d="M309.588 144.87C309.621 144.854 309.67 144.87 309.72 144.886C309.769 144.919 309.819 144.967 309.852 145.016C309.885 145.081 309.918 145.145 309.951 145.243C309.967 145.324 309.984 145.421 309.984 145.518V145.599C309.984 145.81 309.951 145.939 309.885 146.02C309.819 146.101 309.72 146.101 309.588 146.036L309.571 146.02V145.826H309.588C309.654 145.858 309.703 145.874 309.736 145.842C309.769 145.81 309.786 145.761 309.802 145.68C309.769 145.712 309.72 145.712 309.687 145.68C309.621 145.648 309.571 145.567 309.522 145.486C309.489 145.388 309.456 145.275 309.456 145.162C309.456 145.081 309.472 145.016 309.489 144.967C309.522 144.919 309.555 144.886 309.588 144.87ZM309.67 145.437C309.687 145.486 309.703 145.518 309.736 145.534C309.769 145.55 309.802 145.534 309.819 145.486V145.372C309.819 145.291 309.819 145.226 309.802 145.178C309.786 145.129 309.769 145.097 309.736 145.081C309.703 145.064 309.687 145.081 309.67 145.113C309.654 145.145 309.654 145.194 309.654 145.259C309.637 145.34 309.654 145.388 309.67 145.437Z" fill="white"/>
<path d="M312.803 146.652V147.851L312.638 147.754V146.846L312.457 146.83V146.636L312.787 146.652H312.803Z" fill="white"/>
<path d="M313.331 146.944C313.414 146.992 313.48 147.073 313.529 147.187C313.579 147.3 313.595 147.43 313.595 147.592V147.802C313.595 147.964 313.579 148.078 313.529 148.142C313.48 148.207 313.414 148.207 313.331 148.159C313.249 148.11 313.183 148.029 313.134 147.916C313.084 147.802 313.068 147.673 313.068 147.511V147.284C313.068 147.122 313.084 147.008 313.134 146.944C313.183 146.895 313.249 146.895 313.331 146.944ZM313.249 147.64C313.249 147.737 313.249 147.818 313.265 147.867C313.282 147.916 313.298 147.964 313.331 147.98C313.364 147.997 313.381 147.98 313.397 147.948C313.414 147.916 313.414 147.851 313.414 147.754V147.462C313.414 147.365 313.414 147.3 313.397 147.235C313.381 147.187 313.364 147.138 313.331 147.122C313.282 147.089 313.249 147.154 313.249 147.332V147.64Z" fill="white"/>
<path d="M315.773 148.337V149.52L315.592 149.422V148.515H315.41V148.321H315.74L315.773 148.337Z" fill="white"/>
<path d="M316.415 148.709V149.892L316.234 149.795V148.888L316.069 148.871V148.677L316.399 148.693L316.415 148.709Z" fill="white"/>
<path d="M318.725 150.006V151.204L318.544 151.107V150.2L318.379 150.184V149.989L318.709 150.006H318.725Z" fill="white"/>
<path d="M319.236 150.475C319.203 150.459 319.186 150.459 319.17 150.492C319.153 150.524 319.137 150.556 319.137 150.621L318.955 150.524C318.955 150.443 318.972 150.394 318.988 150.346C319.005 150.297 319.038 150.265 319.087 150.265C319.137 150.249 319.17 150.265 319.236 150.297C319.318 150.346 319.384 150.411 319.417 150.492C319.467 150.573 319.483 150.67 319.483 150.783C319.483 150.848 319.467 150.913 319.45 150.961C319.417 151.01 319.384 151.075 319.318 151.14L319.203 151.286L319.516 151.464V151.658L318.988 151.35V151.188L319.236 150.913C319.269 150.88 319.285 150.832 319.302 150.799C319.318 150.767 319.318 150.735 319.318 150.686C319.318 150.637 319.318 150.589 319.302 150.556C319.285 150.524 319.269 150.492 319.236 150.475Z" fill="white"/>
<path d="M321.677 151.691V152.873L321.496 152.776V151.869L321.331 151.853V151.674H321.661L321.677 151.691Z" fill="white"/>
<path d="M322.122 152.906C322.138 152.938 322.155 152.97 322.188 152.987C322.221 153.003 322.237 153.003 322.254 152.987C322.27 152.97 322.287 152.938 322.287 152.889C322.287 152.776 322.254 152.695 322.188 152.646L322.105 152.598V152.403L322.171 152.468C322.204 152.484 322.221 152.484 322.237 152.468C322.254 152.452 322.254 152.42 322.254 152.355C322.254 152.306 322.254 152.274 322.237 152.225C322.221 152.193 322.204 152.16 322.171 152.144C322.155 152.128 322.122 152.128 322.105 152.144C322.089 152.16 322.089 152.193 322.089 152.225L321.907 152.128C321.907 152.063 321.924 152.015 321.94 151.982C321.957 151.95 321.99 151.917 322.039 151.917C322.072 151.917 322.122 151.917 322.171 151.95C322.254 151.998 322.32 152.063 322.369 152.144C322.419 152.225 322.435 152.322 322.435 152.436C322.435 152.484 322.419 152.533 322.402 152.565C322.386 152.598 322.353 152.614 322.32 152.63C322.369 152.679 322.402 152.727 322.419 152.792C322.435 152.857 322.452 152.922 322.452 152.987C322.452 153.1 322.419 153.165 322.369 153.197C322.32 153.23 322.254 153.23 322.171 153.181C322.089 153.132 322.023 153.068 321.99 152.987C321.94 152.889 321.924 152.792 321.924 152.695L322.089 152.792C322.089 152.841 322.105 152.873 322.122 152.906Z" fill="white"/>
<path d="M324.63 153.359V154.558L324.465 154.461V153.553L324.283 153.537V153.343L324.613 153.359H324.63Z" fill="white"/>
<path d="M325.355 153.78V154.526L325.437 154.574V154.769L325.355 154.72V154.979L325.173 154.882V154.623L324.876 154.445V154.283L325.19 153.667L325.355 153.78ZM325.041 154.331L325.173 154.412V154.007L325.041 154.331Z" fill="white"/>
<path d="M327.582 155.044V156.227L327.417 156.13V155.222L327.235 155.206V155.012L327.565 155.028L327.582 155.044Z" fill="white"/>
<path d="M328.044 156.275C328.06 156.308 328.077 156.34 328.11 156.356C328.143 156.373 328.159 156.373 328.176 156.34C328.192 156.308 328.192 156.259 328.192 156.194C328.192 156.13 328.176 156.065 328.159 156.016C328.143 155.968 328.11 155.935 328.077 155.919C328.044 155.903 328.011 155.903 327.994 155.919L327.978 155.935L327.829 155.806L327.879 155.222L328.324 155.465V155.66L328.027 155.498L328.011 155.741C328.044 155.725 328.077 155.741 328.11 155.757C328.192 155.806 328.242 155.87 328.275 155.968C328.308 156.065 328.341 156.178 328.341 156.292C328.341 156.405 328.324 156.486 328.275 156.535C328.225 156.583 328.159 156.583 328.077 156.535C328.027 156.502 327.978 156.47 327.945 156.421C327.912 156.373 327.879 156.308 327.846 156.243C327.829 156.178 327.813 156.113 327.813 156.049L327.994 156.146C328.027 156.194 328.027 156.243 328.044 156.275Z" fill="white"/>
<g opacity="0.2">
<path fill-rule="evenodd" clip-rule="evenodd" d="M58.2005 110.067L99.8173 86.4936C100.028 86.3728 100.209 85.9932 100.22 85.6392C100.232 85.2852 100.062 85.0939 99.8514 85.2147L58.2346 108.788C58.0237 108.908 57.8426 109.288 57.8314 109.642C57.8201 109.996 57.9729 110.186 58.2005 110.067Z" fill="white"/>
<path fill-rule="evenodd" clip-rule="evenodd" d="M57.9817 113.046L99.5985 89.4728C99.8094 89.352 99.9905 88.9724 100.002 88.6184C100.013 88.2644 99.8435 88.0731 99.6326 88.1939L58.0158 111.767C57.8049 111.888 57.6238 112.267 57.6126 112.621C57.6014 112.975 57.7708 113.166 57.9817 113.046Z" fill="white"/>
<path fill-rule="evenodd" clip-rule="evenodd" d="M73.2586 107.235L99.6274 92.2943C99.767 92.2268 99.8434 91.8979 99.803 91.5594C99.7611 91.2405 99.6266 91.0323 99.5037 91.1011L73.1349 106.042C72.9953 106.109 72.919 106.438 72.9593 106.776C72.983 107.114 73.1191 107.302 73.2586 107.235Z" fill="white"/>
</g>
<g opacity="0.5">
<path fill-rule="evenodd" clip-rule="evenodd" d="M64.7029 116.568L106.32 92.9951C106.531 92.8743 106.712 92.4948 106.723 92.1408C106.734 91.7868 106.565 91.5955 106.354 91.7163L64.737 115.289C64.5261 115.41 64.345 115.79 64.3338 116.144C64.3226 116.498 64.4753 116.688 64.7029 116.568Z" fill="white"/>
<path fill-rule="evenodd" clip-rule="evenodd" d="M64.4842 119.547L106.101 95.9743C106.312 95.8535 106.493 95.474 106.504 95.12C106.515 94.766 106.346 94.5747 106.135 94.6954L64.5183 118.268C64.3073 118.389 64.1263 118.769 64.1151 119.123C64.1038 119.477 64.2733 119.668 64.4842 119.547Z" fill="white"/>
<path fill-rule="evenodd" clip-rule="evenodd" d="M79.7611 113.736L106.13 98.7959C106.269 98.7284 106.346 98.3994 106.305 98.0609C106.264 97.742 106.129 97.5339 106.006 97.6027L79.6373 112.543C79.4978 112.611 79.4214 112.94 79.4617 113.278C79.4854 113.615 79.6215 113.804 79.7611 113.736Z" fill="white"/>
</g>
<g opacity="0.3">
<g opacity="0.5">
<path d="M58.2298 98.7413L66.1533 94.2602L65.8532 93.7492L57.9297 98.2303L58.2298 98.7413Z" fill="white"/>
</g>
<g opacity="0.5">
<path d="M91.6445 79.9718L99.568 75.4906L99.2679 74.9796L91.3243 79.4608L91.6445 79.9718Z" fill="white"/>
</g>
<g opacity="0.5">
<path d="M75.0186 89.3074L82.9421 84.8262L82.642 84.2955L74.7185 88.7767L75.0186 89.3074Z" fill="white"/>
</g>
<path opacity="0.29" d="M93.7058 70.8712C93.8859 70.8712 94.046 70.8319 94.206 70.7337C97.0273 69.122 99.2483 65.0143 99.2483 61.3586C99.2483 59.2753 98.4879 57.644 97.1673 56.8972C96.0068 56.2486 94.6062 56.3272 93.1856 57.133C92.7054 57.4082 92.5253 58.0174 92.8054 58.5088C93.0855 58.9805 93.7058 59.1574 94.206 58.8822C94.7463 58.5678 95.5266 58.2926 96.1469 58.6464C96.8072 59.0198 97.2074 60.0418 97.2074 61.3783C97.2074 64.2871 95.3665 67.7855 93.1856 69.0238C92.7054 69.2989 92.5253 69.9082 92.8054 70.3996C93.0055 70.6944 93.3457 70.8712 93.7058 70.8712Z" fill="white"/>
<path fill-rule="evenodd" clip-rule="evenodd" d="M92.325 58.7841C92.325 59.7668 92.9452 60.2189 93.6856 59.8061C94.4459 59.3737 95.0462 58.2338 95.0462 57.2511C95.0462 56.2684 94.4259 55.8163 93.6856 56.2291C92.9452 56.6418 92.325 57.7817 92.325 58.7841Z" fill="url(#paint7_linear_1385_11175)"/>
<g opacity="0.5">
<path d="M91.484 78.0647C91.604 78.0647 91.7441 78.0254 91.8641 77.9664L93.3048 77.1606C93.6649 76.9444 93.805 76.4924 93.5849 76.1386C93.3648 75.7848 92.9046 75.6472 92.5444 75.8634L91.1038 76.6693C90.7436 76.8855 90.6036 77.3375 90.8237 77.6913C90.9637 77.9271 91.2238 78.0647 91.484 78.0647Z" fill="white"/>
<path d="M94.7055 76.2369C94.8256 76.2369 94.9656 76.1976 95.0857 76.1387L95.9461 75.6473C96.3062 75.4311 96.4463 74.9791 96.2262 74.6253C96.0061 74.2715 95.5459 74.1339 95.1857 74.3501L94.3253 74.8415C93.9652 75.0577 93.8251 75.5097 94.0452 75.8635C94.1853 76.0994 94.4454 76.2369 94.7055 76.2369Z" fill="white"/>
<path d="M97.3458 74.7433C97.4658 74.7433 97.6059 74.704 97.7259 74.645L99.2066 73.7999C99.5668 73.5837 99.7068 73.1316 99.4867 72.7779C99.2666 72.4241 98.8064 72.2865 98.4463 72.5027L96.9656 73.3478C96.6054 73.564 96.4654 74.0161 96.6855 74.3698C96.8255 74.6057 97.0857 74.7433 97.3458 74.7433Z" fill="white"/>
</g>
<path opacity="0.29" d="M75.2552 79.5387C75.5554 79.5387 75.8555 79.4011 76.0556 79.1456C76.3957 78.7132 76.3357 78.0843 75.8755 77.7305C75.2953 77.2981 74.9751 76.3351 74.9751 75.0969C74.9751 72.1881 76.8159 68.6896 78.9969 67.4514C79.5371 67.1369 80.3175 66.8618 80.9378 67.2156C81.5981 67.589 81.9982 68.611 81.9982 69.9475C81.9982 72.8563 80.1574 76.3547 77.9764 77.5929C77.4962 77.8681 77.3162 78.4774 77.5963 78.9687C77.8764 79.4404 78.4967 79.6173 78.9969 79.3422C81.8182 77.7305 84.0391 73.6228 84.0391 69.9671C84.0391 67.8838 83.2788 66.2525 81.9582 65.5056C80.7977 64.8571 79.3971 64.9357 77.9764 65.7415C75.1552 67.3531 72.9342 71.4608 72.9342 75.1165C72.9342 76.9837 73.5345 78.4774 74.615 79.3225C74.815 79.4797 75.0351 79.5387 75.2552 79.5387Z" fill="white"/>
<path fill-rule="evenodd" clip-rule="evenodd" d="M73.8953 79.3225C73.8953 80.3052 74.5155 80.7573 75.2559 80.3445C76.0162 79.9121 76.6165 78.7722 76.6165 77.7895C76.6165 76.8068 75.9962 76.3547 75.2559 76.7675C74.4955 77.1802 73.8953 78.3201 73.8953 79.3225Z" fill="url(#paint8_linear_1385_11175)"/>
<path d="M74.7363 87.5578C74.8563 87.5578 74.9964 87.5185 75.1164 87.4596L76.5571 86.6537C76.9173 86.4376 77.0573 85.9855 76.8372 85.6317C76.6171 85.278 76.1569 85.1404 75.7967 85.3566L74.3561 86.1624C73.9959 86.3786 73.8559 86.8306 74.076 87.1844C74.216 87.4203 74.4762 87.5578 74.7363 87.5578Z" fill="white" fill-opacity="0.5"/>
<path d="M77.9578 85.7299C78.0779 85.7299 78.2179 85.6906 78.338 85.6316L79.1984 85.1402C79.5585 84.924 79.6986 84.472 79.4785 84.1182C79.2584 83.7644 78.7982 83.6269 78.438 83.8431L77.5777 84.3344C77.2175 84.5506 77.0774 85.0027 77.2975 85.3564C77.4376 85.5923 77.6977 85.7299 77.9578 85.7299Z" fill="white" fill-opacity="0.5"/>
<path d="M80.5974 84.236C80.7174 84.236 80.8575 84.1967 80.9775 84.1377L82.4582 83.2926C82.8183 83.0764 82.9584 82.6244 82.7383 82.2706C82.5182 81.9168 82.058 81.7792 81.6979 81.9954L80.2172 82.8406C79.857 83.0568 79.717 83.5088 79.9371 83.8626C80.0771 84.0984 80.3372 84.236 80.5974 84.236Z" fill="white" fill-opacity="0.5"/>
<g opacity="0.8">
<path opacity="0.29" d="M62.1312 88.7766C62.3113 88.7766 62.4713 88.7373 62.6314 88.639C65.4526 87.0274 67.6736 82.9196 67.6736 79.264C67.6736 77.1806 66.9133 75.5493 65.5927 74.8025C64.4322 74.1539 63.0316 74.2325 61.6109 75.0383C59.8101 76.0603 58.1894 78.1633 57.269 80.6398C57.0689 81.1704 57.3491 81.7404 57.8893 81.9173C58.4095 82.1138 59.0098 81.8387 59.1899 81.308C59.9302 79.2836 61.2508 77.5344 62.6314 76.7679C63.1716 76.4534 63.952 76.1783 64.5723 76.532C65.2325 76.9055 65.6327 77.9275 65.6327 79.264C65.6327 82.1728 63.7919 85.6712 61.6109 86.9094C61.1307 87.1846 60.9506 87.7939 61.2308 88.2852C61.4309 88.5997 61.771 88.7766 62.1312 88.7766Z" fill="white"/>
</g>
<path fill-rule="evenodd" clip-rule="evenodd" d="M56.8885 81.6618C56.8885 82.6445 57.5088 83.0966 58.2492 82.6839C59.0095 82.2515 59.6097 81.1115 59.6097 80.1288C59.6097 79.1461 58.9895 78.6941 58.2492 79.1068C57.4888 79.5195 56.8885 80.6791 56.8885 81.6618Z" fill="url(#paint9_linear_1385_11175)"/>
<path d="M58.809 96.5791C58.9291 96.5791 59.0691 96.5398 59.1892 96.4808L60.6298 95.675C60.99 95.4588 61.1301 95.0068 60.91 94.653C60.6899 94.2992 60.2297 94.1617 59.8695 94.3779L58.4289 95.1837C58.0687 95.3999 57.9286 95.8519 58.1487 96.2057C58.2888 96.4415 58.5489 96.5791 58.809 96.5791Z" fill="white" fill-opacity="0.5"/>
<path d="M62.0512 94.7513C62.1713 94.7513 62.3113 94.712 62.4314 94.6531L63.2918 94.1617C63.6519 93.9455 63.792 93.4935 63.5719 93.1397C63.3518 92.7859 62.8916 92.6484 62.5314 92.8646L61.671 93.3559C61.3109 93.5721 61.1708 94.0241 61.3909 94.3779C61.511 94.6138 61.7711 94.7513 62.0512 94.7513Z" fill="white" fill-opacity="0.5"/>
<path d="M64.671 93.2577C64.791 93.2577 64.9311 93.2184 65.0511 93.1594L66.5318 92.3143C66.8919 92.0981 67.032 91.6461 66.8119 91.2923C66.5918 90.9385 66.1316 90.8009 65.7715 91.0171L64.2908 91.8622C63.9306 92.0784 63.7906 92.5305 64.0107 92.8843C64.1507 93.1201 64.4109 93.2577 64.671 93.2577Z" fill="white" fill-opacity="0.5"/>
</g>
<g opacity="0.5">
<path d="M64.7323 105.243L72.6558 100.762L72.3557 100.251L64.4321 104.732L64.7323 105.243Z" fill="white"/>
</g>
<g opacity="0.5">
<path d="M98.1469 86.4733L106.07 81.9922L105.77 81.4812L97.8268 85.9623L98.1469 86.4733Z" fill="white"/>
</g>
<g opacity="0.5">
<path d="M81.5211 95.8089L89.4446 91.3278L89.1444 90.7971L81.2209 95.2783L81.5211 95.8089Z" fill="white"/>
</g>
<path opacity="0.29" d="M100.208 77.3727C100.388 77.3727 100.548 77.3334 100.708 77.2351C103.53 75.6234 105.751 71.5157 105.751 67.8601C105.751 65.7767 104.99 64.1454 103.67 63.3986C102.509 62.75 101.109 62.8286 99.688 63.6344C99.2078 63.9096 99.0277 64.5189 99.3078 65.0102C99.588 65.4819 100.208 65.6588 100.708 65.3836C101.249 65.0692 102.029 64.794 102.649 65.1478C103.31 65.5212 103.71 66.5432 103.71 67.8797C103.71 70.7885 101.869 74.287 99.688 75.5252C99.2078 75.8003 99.0277 76.4096 99.3078 76.901C99.5079 77.1958 99.8481 77.3727 100.208 77.3727Z" fill="white"/>
<path fill-rule="evenodd" clip-rule="evenodd" d="M98.8274 65.2855C98.8274 66.2682 99.4477 66.7202 100.188 66.3075C100.948 65.8751 101.549 64.7352 101.549 63.7525C101.549 62.7698 100.928 62.3177 100.188 62.7304C99.4477 63.1432 98.8274 64.2831 98.8274 65.2855Z" fill="url(#paint10_linear_1385_11175)"/>
<g opacity="0.5">
<path d="M97.9864 84.5664C98.1065 84.5664 98.2465 84.5271 98.3666 84.4681L99.8072 83.6623C100.167 83.4461 100.307 82.994 100.087 82.6403C99.8672 82.2865 99.407 82.1489 99.0469 82.3651L97.6062 83.1709C97.2461 83.3871 97.106 83.8392 97.3261 84.1929C97.4662 84.4288 97.7263 84.5664 97.9864 84.5664Z" fill="white"/>
<path d="M101.208 82.7386C101.328 82.7386 101.468 82.6993 101.588 82.6403L102.449 82.149C102.809 81.9328 102.949 81.4807 102.729 81.127C102.509 80.7732 102.048 80.6356 101.688 80.8518L100.828 81.3432C100.468 81.5593 100.328 82.0114 100.548 82.3652C100.688 82.601 100.948 82.7386 101.208 82.7386Z" fill="white"/>
<path d="M103.848 81.2449C103.968 81.2449 104.108 81.2056 104.228 81.1467L105.709 80.3015C106.069 80.0853 106.209 79.6333 105.989 79.2795C105.769 78.9257 105.309 78.7882 104.949 79.0044L103.468 79.8495C103.108 80.0657 102.968 80.5177 103.188 80.8715C103.328 81.1073 103.588 81.2449 103.848 81.2449Z" fill="white"/>
</g>
<path opacity="0.29" d="M81.7577 86.0403C82.0578 86.0403 82.3579 85.9027 82.558 85.6472C82.8982 85.2148 82.8382 84.5859 82.378 84.2321C81.7977 83.7997 81.4776 82.8366 81.4776 81.5984C81.4776 78.6896 83.3184 75.1912 85.4993 73.953C86.0396 73.6385 86.8199 73.3633 87.4402 73.7171C88.1005 74.0905 88.5007 75.1126 88.5007 76.449C88.5007 79.3579 86.6599 82.8563 84.4789 84.0945C83.9987 84.3697 83.8186 84.9789 84.0987 85.4703C84.3788 85.942 84.9991 86.1189 85.4993 85.8437C88.3206 84.2321 90.5416 80.1244 90.5416 76.4687C90.5416 74.3854 89.7812 72.7541 88.4607 72.0072C87.3001 71.3586 85.8995 71.4372 84.4789 72.2431C81.6576 73.8547 79.4366 77.9624 79.4366 81.6181C79.4366 83.4852 80.0369 84.9789 81.1174 85.8241C81.3175 85.9813 81.5376 86.0403 81.7577 86.0403Z" fill="white"/>
<path fill-rule="evenodd" clip-rule="evenodd" d="M80.3977 85.8242C80.3977 86.807 81.018 87.259 81.7583 86.8463C82.5186 86.4139 83.1189 85.2739 83.1189 84.2912C83.1189 83.3085 82.4986 82.8565 81.7583 83.2692C80.998 83.6819 80.3977 84.8219 80.3977 85.8242Z" fill="url(#paint11_linear_1385_11175)"/>
<path d="M81.2387 94.0595C81.3588 94.0595 81.4988 94.0202 81.6189 93.9612L83.0595 93.1554C83.4197 92.9392 83.5598 92.4872 83.3397 92.1334C83.1196 91.7796 82.6593 91.642 82.2992 91.8582L80.8585 92.6641C80.4984 92.8803 80.3583 93.3323 80.5784 93.6861C80.7185 93.9219 80.9786 94.0595 81.2387 94.0595Z" fill="white" fill-opacity="0.5"/>
<path d="M84.4603 92.2316C84.5803 92.2316 84.7204 92.1923 84.8404 92.1334L85.7008 91.642C86.061 91.4258 86.201 90.9738 85.9809 90.62C85.7608 90.2662 85.3006 90.1286 84.9405 90.3448L84.0801 90.8362C83.72 91.0524 83.5799 91.5044 83.8 91.8582C83.94 92.0941 84.2002 92.2316 84.4603 92.2316Z" fill="white" fill-opacity="0.5"/>
<path d="M87.0998 90.7376C87.2199 90.7376 87.3599 90.6982 87.48 90.6393L88.9606 89.7942C89.3208 89.578 89.4608 89.1259 89.2408 88.7721C89.0207 88.4184 88.5605 88.2808 88.2003 88.497L86.7196 89.3421C86.3595 89.5583 86.2194 90.0104 86.4395 90.3641C86.5796 90.6 86.8397 90.7376 87.0998 90.7376Z" fill="white" fill-opacity="0.5"/>
<g opacity="0.8">
<path opacity="0.29" d="M68.6336 95.2783C68.8137 95.2783 68.9738 95.239 69.1338 95.1407C71.9551 93.5291 74.1761 89.4214 74.1761 85.7657C74.1761 83.6824 73.4157 82.0511 72.0951 81.3042C70.9346 80.6556 69.534 80.7342 68.1134 81.5401C66.3126 82.5621 64.6919 84.6651 63.7715 87.1415C63.5714 87.6721 63.8515 88.2421 64.3917 88.419C64.912 88.6155 65.5122 88.3404 65.6923 87.8097C66.4326 85.7853 67.7532 84.0361 69.1338 83.2696C69.6741 82.9551 70.4544 82.68 71.0747 83.0338C71.735 83.4072 72.1352 84.4292 72.1352 85.7657C72.1352 88.6745 70.2943 92.1729 68.1134 93.4112C67.6332 93.6863 67.4531 94.2956 67.7332 94.787C67.9333 95.1014 68.2735 95.2783 68.6336 95.2783Z" fill="white"/>
</g>
<path fill-rule="evenodd" clip-rule="evenodd" d="M63.391 88.1636C63.391 89.1463 64.0113 89.5983 64.7516 89.1856C65.5119 88.7532 66.1122 87.6133 66.1122 86.6305C66.1122 85.6478 65.4919 85.1958 64.7516 85.6085C63.9913 86.0213 63.391 87.1809 63.391 88.1636Z" fill="url(#paint12_linear_1385_11175)"/>
<path d="M65.3115 103.081C65.4315 103.081 65.5716 103.042 65.6916 102.983L67.1323 102.177C67.4924 101.961 67.6325 101.509 67.4124 101.155C67.1923 100.801 66.7321 100.664 66.3719 100.88L64.9313 101.686C64.5711 101.902 64.4311 102.354 64.6512 102.708C64.7912 102.943 65.0514 103.081 65.3115 103.081Z" fill="white" fill-opacity="0.5"/>
<path d="M68.5537 101.253C68.6737 101.253 68.8138 101.214 68.9338 101.155L69.7942 100.664C70.1544 100.448 70.2944 99.9955 70.0743 99.6417C69.8542 99.288 69.394 99.1504 69.0339 99.3666L68.1735 99.8579C67.8133 100.074 67.6733 100.526 67.8934 100.88C68.0134 101.116 68.2735 101.253 68.5537 101.253Z" fill="white" fill-opacity="0.5"/>
<path d="M71.1734 99.7596C71.2935 99.7596 71.4335 99.7203 71.5536 99.6613L73.0342 98.8162C73.3944 98.6 73.5344 98.148 73.3144 97.7942C73.0943 97.4404 72.6341 97.3028 72.2739 97.519L70.7932 98.3641C70.4331 98.5803 70.293 99.0324 70.5131 99.3862C70.6532 99.622 70.9133 99.7596 71.1734 99.7596Z" fill="white" fill-opacity="0.5"/>
<g opacity="0.5">
<ellipse cx="195.049" cy="287.193" rx="148.725" ry="102.807" fill="url(#paint13_linear_1385_11175)"/>
</g>
<ellipse cx="195.049" cy="287.144" rx="109.715" ry="75.8413" fill="url(#paint14_linear_1385_11175)"/>
<path d="M243.633 194.304L214.358 177.297C203.908 171.213 187.022 171.213 176.572 177.297L147.297 194.304H47.1559V227.628C47.1559 231.569 49.7857 235.579 54.9762 238.621L176.572 309.141C187.022 315.225 203.908 315.225 214.358 309.141L335.954 238.621C341.144 235.579 343.774 231.638 343.774 227.628V194.304H243.633Z" fill="url(#paint15_linear_1385_11175)"/>
<path d="M243.632 194.304L214.358 177.297C203.908 171.213 187.021 171.213 176.571 177.297L147.297 194.304H47.1553V202.462C47.1553 206.403 49.7851 210.413 54.9756 213.455L176.571 283.975C187.021 290.059 203.908 290.059 214.358 283.975L335.953 213.455C341.144 210.413 343.774 206.472 343.774 202.462V194.304H243.632Z" fill="url(#paint16_linear_1385_11175)"/>
<path d="M335.952 183.312L214.357 112.792C203.907 106.708 187.02 106.708 176.57 112.792L54.9745 183.312C44.5243 189.396 44.5243 199.144 54.9745 205.228L176.57 275.748C187.02 281.832 203.907 281.832 214.357 275.748L335.952 205.228C346.333 199.213 346.333 189.396 335.952 183.312Z" fill="url(#paint17_linear_1385_11175)"/>
<path d="M72.2059 230.947L65.0776 226.799L65.0084 235.026L72.2059 239.174V230.947Z" fill="white"/>
<path d="M81.9663 236.582L74.838 232.433L74.7688 240.661L81.9663 244.809V236.582Z" fill="white"/>
<path d="M92.5314 243.083L85.4032 238.935L85.334 247.162L92.5314 251.311V243.083Z" fill="white"/>
<path opacity="0.21" d="M113.107 192.914C107.463 189.669 98.334 189.645 92.7378 192.89C87.0942 196.159 87.1654 201.442 92.809 204.687C98.4526 207.933 107.558 207.933 113.178 204.664C118.774 201.442 118.751 196.159 113.107 192.914Z" fill="black"/>
<path d="M103.837 194.833C104.382 194.241 104.951 191.493 104.951 191.493C104.951 191.493 105.259 190.474 105.212 190.048C105.165 189.622 104.714 186.708 104.714 186.708L107.56 186.424C107.56 186.424 107.394 188.816 107.394 189.574C107.37 190.332 107.465 191.375 107.726 192.156C107.583 192.559 106.018 195.378 106.018 195.378L104.335 195.804L103.528 195.473L103.837 194.833Z" fill="#EDA9A9"/>
<path d="M103.409 196.42C103.006 196.325 101.749 195.449 102.532 195.046C103.196 194.714 103.741 194.904 103.741 194.904C103.741 194.904 103.575 195.212 103.836 195.188C104.334 195.141 104.737 192.914 104.737 192.18L106.16 192.701L105.591 195.78L104.95 196.207L103.86 196.444H103.409V196.42Z" fill="#2A2972"/>
<path d="M105.282 193.293C105.258 195.046 104.95 195.283 104.76 195.662C104.476 196.23 104.025 196.325 103.574 196.349C104.12 196.633 106.894 196.562 107.487 196.135C107.819 195.899 107.606 195.259 107.582 194.477C107.582 193.696 107.819 192.843 107.795 192.416C107.772 192.014 105.282 193.293 105.282 193.293Z" fill="#1B3674"/>
<path d="M106.206 190.664C105.352 190.687 104.759 191.493 104.736 192.251C104.688 192.985 105.447 193.08 106.016 194.478C106.324 195.212 106.419 196.349 106.419 197.391C106.419 197.391 106.633 197.605 106.917 197.368C106.917 197.368 106.917 196.539 106.965 195.709C106.988 195.259 107.083 194.312 107.178 194.028C107.391 193.27 107.866 192.914 107.795 192.156C107.771 191.777 107.605 191.232 107.344 190.948C107.131 190.782 106.68 190.664 106.206 190.664Z" fill="#2A2972"/>
<path d="M100.634 200.708C100.634 200.708 100.895 201.158 102.27 200.566C102.816 200.329 103.148 200.115 103.409 199.855C103.575 199.192 103.954 198.339 103.954 198.339C103.954 198.339 103.693 196.538 102.84 197.225C101.962 197.96 100.634 200.708 100.634 200.708Z" fill="#1B3674"/>
<path d="M103.811 190.995C103.977 192.014 104.049 192.701 104.167 193.34C104.238 193.743 104.357 194.098 104.57 194.406C105.116 195.188 105.163 195.709 105.163 195.709C105.163 195.709 103.527 195.946 102.697 197.059C101.867 198.173 101.914 199.31 101.132 199.499C100.373 199.689 99.069 198.812 99.069 198.812C99.069 198.812 99.8752 198.789 100.207 197.746C100.515 196.728 101.345 194.501 101.44 193.932C101.535 193.151 100.824 191.493 100.824 191.493L103.811 190.995Z" fill="#EDA9A9"/>
<path d="M104.073 194.43C103.361 194.477 102.294 195.59 101.915 196.42C101.559 197.249 100.943 198.409 100.492 198.67C100.018 198.931 99.2116 198.552 98.5002 198.552C97.8125 198.552 97.3145 198.86 97.2671 199.381C97.2671 199.381 99.4961 200.447 100.184 200.755C100.848 201.063 101.417 201.086 101.938 199.689C102.46 198.291 102.958 197.083 103.622 198.078C104.215 198.931 104.452 200.613 104.452 200.613C104.452 200.613 104.713 200.826 105.045 200.494C105.045 200.494 104.903 199.902 104.879 199.025C104.855 197.154 105.519 196.704 105.353 195.969C105.116 194.88 104.855 194.382 104.073 194.43Z" fill="#2A2972"/>
<path d="M96.2473 121.421C96.2473 121.421 94.3977 120.355 94.5874 118.744C94.7771 117.134 97.2432 113.201 101.63 115.096C105.732 115.997 96.2473 121.421 96.2473 121.421Z" fill="#533252"/>
<path d="M106.777 128.552C108.034 128.907 108.769 130.305 109.883 133.313C110.998 136.298 112.16 140.656 111.994 141.817C111.638 144.636 109.883 147.029 106.872 149.042L105.52 146.579C105.52 146.579 108.484 144.21 108.769 141.391C108.935 139.804 106.872 134.426 106.872 134.284C106.872 134.095 106.777 128.552 106.777 128.552Z" fill="#EDA9A9"/>
<path d="M108.058 177.185C107.655 174.034 107.702 172.589 107.702 172.589C107.702 172.589 108.2 167.804 108.603 163.706C109.196 157.666 110.334 156.292 109.67 152.643C109.101 149.493 106.991 147.029 106.042 144.731L96.1776 145.513C96.1776 145.513 95.3239 148.308 94.2095 153.875C93.095 159.442 93.5219 166.999 94.3518 174.769C94.5889 177.019 96.0116 180.028 97.6241 183.842C99.0943 187.348 101.3 193.08 101.3 193.08C102.817 193.957 104.05 192.441 104.05 192.441C104.05 192.441 102.912 184.86 102.461 182.302C101.679 177.943 99.6397 175.835 99.6397 175.835C99.6397 175.835 100.09 172.66 100.422 169.865C100.778 166.809 101.798 161.764 101.798 161.764C101.798 161.764 101.845 169.581 102.011 171.831C102.177 174.082 102.248 174.366 103.031 178.749C103.671 182.373 105.117 189.503 105.117 189.503C106.469 189.977 107.394 189.432 107.394 189.432C107.394 189.432 108.485 180.336 108.058 177.185Z" fill="#91B0DC"/>
<path d="M107.726 156.244C105.781 158.258 102.295 158.684 102.295 158.684L101.845 161.787C101.703 164.322 102.035 167.307 101.987 170.22C101.987 170.22 102.698 162.664 103.623 161.408C104.548 160.153 107.085 157.973 107.726 156.244Z" fill="#5775B9"/>
<path d="M106.184 128.481C104.074 128.362 103.884 128.694 103.718 127.96C103.647 127.699 103.552 125.851 103.552 125.851C103.742 125.662 104.074 125.07 104.074 125.07C105.449 124.217 106.445 122.795 106.611 121.066C106.919 118.105 104.762 115.452 101.798 115.144C98.9995 114.86 96.9603 116.802 96.4149 119.503C96.1303 120.829 95.8221 123.553 96.652 125.709C97.1263 126.941 97.553 127.794 98.6675 127.746C98.8809 127.746 99.2841 127.675 99.7584 127.557C99.8058 127.96 99.8532 128.552 99.8295 129.097C99.8058 129.642 99.9006 129.902 98.8335 130.542C97.7902 131.181 100.422 132.532 102.153 132.389C103.884 132.247 105.829 131.229 106.35 130.092C106.943 128.86 107.18 128.552 106.184 128.481Z" fill="#EDA9A9"/>
<path d="M104.69 124.619L102.888 124.714L100.92 124.691L100.303 123.98C100.303 123.98 100.184 126.254 99.5442 126.799C98.9513 127.344 98.1689 127.652 98.1215 127.675C98.2874 127.723 98.4534 127.746 98.6668 127.746C98.8802 127.746 99.2834 127.675 99.7576 127.557C99.8051 127.96 99.8525 128.552 99.8288 129.097C99.8051 129.641 99.8999 129.902 98.8328 130.542C97.7895 131.181 100.422 132.532 102.153 132.389C103.884 132.247 105.828 131.229 106.35 130.092C106.943 128.836 107.18 128.528 106.184 128.457C104.073 128.339 103.884 128.67 103.718 127.936C103.646 127.675 103.552 125.828 103.552 125.828C103.741 125.638 104.073 125.046 104.073 125.046C104.287 124.927 104.5 124.785 104.69 124.619Z" fill="#E88B8B"/>
<path d="M104.643 125.259C105.995 124.027 106.421 122.795 106.611 121.066C106.919 118.105 104.762 115.452 101.798 115.144C99.8768 114.954 97.8612 115.641 96.889 118.034C96.889 118.034 97.0313 118.365 97.553 118.46C97.553 118.46 97.4108 119.1 97.8376 119.573C98.1459 119.929 98.4541 120.474 98.5015 121.113C98.549 121.611 98.4541 122.369 98.5963 122.914C98.786 123.601 99.5212 123.529 99.5212 123.529C99.5212 123.529 99.5686 122.416 99.6872 121.35C100.019 120.592 101.371 120.426 101.608 121.398C101.845 122.274 101.608 122.819 101.3 123.458C101.062 123.932 100.659 124.193 100.28 124.003C100.28 125.33 100.778 125.922 101.94 126.254C103.102 126.585 103.22 126.159 103.813 125.827C104.193 125.638 104.643 125.259 104.643 125.259Z" fill="#533252"/>
<path d="M104.097 128.433C104.476 128.907 104.524 129.523 103.03 129.902C101.062 130.399 99.7577 129.641 99.7577 129.641C99.7577 129.641 97.7421 130.494 96.3668 131.442C93.0233 133.763 92.1934 137.814 95.5843 139.212C95.7977 140.728 96.0348 144.636 96.106 145.537C98.9752 147.526 104.785 146.863 106.089 144.731C106.113 144.02 106.231 142.789 106.279 142.623C107.654 137.577 108.721 136.227 108.342 132.413C108.128 130.234 107.962 129.144 106.8 128.552C106.065 128.315 104.524 128.41 104.097 128.433Z" fill="#383C71"/>
<path d="M100.28 123.98V137.245C100.28 137.245 101.656 138.193 104.051 137.056C106.446 135.919 106.635 135.208 106.635 133.953V120.426C106.635 120.426 103.908 123.672 101.916 124.335C100.399 124.856 100.28 123.98 100.28 123.98Z" fill="#533252"/>
<path d="M77.3206 118.777C77.3696 119.458 77.6655 120.052 77.6713 121.039C77.6712 121.899 77.6927 122.462 77.8965 123.255C78.112 124.016 78.9982 124.994 80.7863 126.526C82.9037 128.326 86.1565 129.818 87.6447 130.288C90.8741 131.27 95.3878 131.93 96.9957 132.033C98.9094 132.18 99.778 133.062 99.9072 134.149C100.04 135.417 99.0089 136.067 96.3795 135.776C93.75 135.485 89.7265 134.76 86.3501 133.454C84.709 132.819 82.215 131.737 79.4701 129.415C77.5684 127.805 76.9861 127.21 75.4805 125.211C75.0766 124.665 74.6315 124.372 73.7336 123.426C72.8357 122.479 72.0045 121.164 71.7576 120.104C71.5106 119.044 71.5794 118.623 71.7755 118.481C72.0049 118.299 72.2539 118.447 72.4264 118.941C72.589 119.414 72.8027 120.229 73.4712 121.071C73.4712 121.071 73.0419 120.068 72.8538 119.424C72.6441 118.79 72.5618 118.151 72.5363 117.693C72.5149 117.13 73.2013 116.636 73.3855 117.1C73.5698 117.563 73.5853 117.998 73.9009 118.923C74.1773 119.761 74.5694 120.338 74.5694 120.338C74.5694 120.338 74.2891 119.32 74.2167 118.415C74.1443 117.51 74.3071 117.124 74.4012 116.873C74.4954 116.622 74.9993 116.471 75.1463 117.082C75.2952 117.639 75.2246 118.4 75.6323 119.413C75.9439 120.157 76.2654 120.636 76.3243 120.479C76.3929 120.344 76.1754 119.922 76.2441 119.213C76.301 118.537 76.758 117.938 77.1168 117.984C77.4776 117.976 77.2717 118.096 77.3206 118.777Z" fill="#EDA9A9"/>
<path opacity="0.44" d="M254.763 202.88C260.275 199.71 269.192 199.687 274.658 202.857C280.17 206.05 280.101 211.21 274.589 214.379C269.076 217.549 260.183 217.549 254.694 214.356C249.204 211.21 249.251 206.073 254.763 202.88Z" fill="#8084A9"/>
<path d="M269.77 212.343C269.77 212.343 274.749 209.104 274.888 208.317C275.027 207.531 273.823 206.674 272.966 206.721C272.132 206.744 268.589 207.045 268.589 207.045L267.454 208.317C267.477 208.317 265.462 213.153 269.77 212.343Z" fill="#0C334E"/>
<path d="M258.861 208.271C258.861 208.271 263.841 205.032 263.98 204.245C264.119 203.458 262.914 202.602 262.057 202.649C261.223 202.672 257.68 202.973 257.68 202.973L256.545 204.245C256.568 204.245 254.553 209.081 258.861 208.271Z" fill="#0C334E"/>
<path d="M271.414 167.063L271.553 208.04C271.553 208.04 269.283 209.428 266.643 207.924C266.643 207.924 261.987 172.524 261.918 171.691C261.848 170.904 261.269 204.014 261.269 204.014C261.269 204.014 258.398 205.656 256.197 203.412L253.603 164.194L271.414 167.063Z" fill="url(#paint18_linear_1385_11175)"/>
<path d="M256.106 152.093L255.828 159.289C255.828 159.289 250.177 156.304 250.316 151.931C250.339 150.936 252.215 144.689 252.632 143.093C254.531 144.134 254.647 150.566 256.106 152.093Z" fill="#EDA9A9"/>
<path d="M267.315 136.452C267.315 136.452 269.422 136.915 272.132 139.136L271.391 167.086C271.391 167.086 267.871 169.678 260.644 167.78C254.762 166.253 253.21 163.778 253.21 163.778C253.21 163.778 253.349 150.821 253.905 145.152C254.461 139.483 256.082 135.133 256.082 135.133C257.356 134.74 260.204 134.902 260.204 134.902L267.315 136.452Z" fill="#383C71"/>
<path d="M260.807 134.74L260.645 129.28C260.645 129.28 259.279 129.164 259.51 127.66C259.742 126.156 261.155 127.151 261.409 127.591C261.409 127.591 261.734 122.408 264.467 121.922C267.223 121.413 268.358 121.829 268.427 123.148C268.497 124.49 268.589 129.164 268.427 130.899C268.265 132.635 268.427 133.537 265.926 133.468L265.717 135.295C265.717 135.295 264.582 136.36 261.062 135.504L260.807 134.74Z" fill="#EDA9A9"/>
<path d="M267.315 136.453C267.292 135.388 267.13 134.81 264.652 134.532C262.173 134.255 260.158 133.584 259.904 134.532C259.649 135.481 260.158 136.059 262.637 136.267C265.115 136.476 267.315 136.453 267.315 136.453Z" fill="#383C71"/>
<path d="M264.073 127.845C263.957 127.429 264.049 126.85 264.559 126.758C264.93 126.665 265.231 126.85 265.485 127.151C265.902 127.637 266.157 128.47 266.389 129.002C266.643 128.794 266.898 128.586 267.176 128.378C267.176 128.216 267.153 128.054 267.153 127.892C267.13 127.498 267.107 127.082 267.199 126.688C267.408 125.856 268.288 125.717 268.705 125.092C269.261 124.259 269.029 123.056 268.496 122.246C267.94 121.413 267.014 120.858 266.064 120.534C262.799 119.47 257.889 121.853 258.838 125.832C259.394 128.123 260.182 130.344 260.784 132.612C260.853 132.912 261.548 133.028 261.826 132.936C262.127 132.843 262.359 132.635 262.59 132.427C263.656 131.455 264.559 130.275 265.207 128.979C265.138 129.118 264.119 128.007 264.073 127.845Z" fill="#533252"/>
<path d="M295.162 144.421C295.416 144.175 296.068 143.963 295.88 143.671C295.666 143.34 295.541 143.332 295.162 143.384C294.904 143.412 294.456 143.356 294.199 143.384C293.993 143.406 293.584 143.525 293.421 143.658C293.259 143.79 293.185 143.975 293.023 144.107C292.705 144.34 292.948 142.933 292.574 143.036C292.129 143.157 291.265 144.882 291.136 145.323C291.055 145.624 290.547 145.953 290.542 146.287C290.555 147.546 292.507 147.663 293.25 146.937C293.589 146.608 293.776 146.129 294.07 145.774C294.553 145.243 294.68 144.87 295.162 144.421Z" fill="#EDA9A9"/>
<path d="M293.617 146.402C293.617 146.402 285.055 153.555 283.006 153.962C280.957 154.369 271.037 148.725 271.037 148.725L274.694 145.068L282.013 149.532L290.692 145.91L293.617 146.402Z" fill="#EDA9A9"/>
<path d="M270.628 151.145C270.141 149.918 269.979 148.669 269.655 147.743C267.014 140.062 272.156 139.136 272.156 139.136C273.291 139.645 275.894 142.482 277.539 146.693C275.524 147.943 272.712 150.08 270.628 151.145Z" fill="#383C71"/>
<path d="M251.473 144.366C253.025 139.9 255.04 135.504 256.105 135.134L255.665 146.795C254.299 145.916 252.863 145.152 251.473 144.366Z" fill="#383C71"/>
<rect width="31.923" height="10.7433" rx="5.37163" transform="matrix(0.880757 -0.473569 0.608495 0.793558 199.113 256.491)" fill="url(#paint19_linear_1385_11175)"/>
<rect width="31.923" height="10.7433" rx="5.37163" transform="matrix(0.880757 -0.473569 0.608495 0.793558 199.113 252.427)" fill="url(#paint20_linear_1385_11175)"/>
<rect width="31.923" height="10.7433" rx="5.37163" transform="matrix(0.880757 -0.473569 0.608495 0.793558 232.433 237.799)" fill="url(#paint21_linear_1385_11175)"/>
<rect width="31.923" height="10.7433" rx="5.37163" transform="matrix(0.880757 -0.473569 0.608495 0.793558 232.433 233.735)" fill="url(#paint22_linear_1385_11175)"/>
<rect x="0.605161" y="0.130028" width="31.1103" height="9.93055" rx="4.96528" transform="matrix(0.880757 -0.473569 0.608495 0.793558 199.106 249.49)" fill="url(#paint23_linear_1385_11175)" stroke="url(#paint24_linear_1385_11175)" stroke-width="0.812705"/>
<rect x="0.605161" y="0.130028" width="31.1103" height="9.93055" rx="4.96528" transform="matrix(0.880757 -0.473569 0.608495 0.793558 232.427 230.798)" fill="url(#paint25_linear_1385_11175)" stroke="url(#paint26_linear_1385_11175)" stroke-width="0.812705"/>
<path fill-rule="evenodd" clip-rule="evenodd" d="M279.825 66.9173C278.786 66.3341 277.945 64.7464 277.945 63.3855C277.945 62.0246 278.786 61.3927 279.825 61.9921C280.864 62.5754 281.706 64.1631 281.706 65.524C281.706 66.8849 280.864 67.5006 279.825 66.9173Z" fill="url(#paint27_linear_1385_11175)"/>
<path fill-rule="evenodd" clip-rule="evenodd" d="M279.825 76.6698C278.786 76.0866 277.945 74.4988 277.945 73.1379C277.945 71.777 278.786 71.1452 279.825 71.7446C280.864 72.3278 281.706 73.9156 281.706 75.2765C281.706 76.6374 280.864 77.2531 279.825 76.6698Z" fill="url(#paint28_linear_1385_11175)"/>
<path fill-rule="evenodd" clip-rule="evenodd" d="M279.825 86.4223C278.786 85.839 277.945 84.2513 277.945 82.8904C277.945 81.5295 278.786 80.8976 279.825 81.4971C280.864 82.0803 281.706 83.668 281.706 85.0289C281.706 86.3899 280.864 87.0055 279.825 86.4223Z" fill="url(#paint29_linear_1385_11175)"/>
<path fill-rule="evenodd" clip-rule="evenodd" d="M280 61.1796L280.403 60.9976C280.703 60.9032 281.065 60.955 281.453 61.1796C282.492 61.7627 283.334 63.3504 283.334 64.7113C283.334 65.7038 283.228 66.2353 282.418 66.6417L281.196 67.048C281.425 66.7712 281.708 66.0695 281.708 65.524C281.708 64.1631 280.867 62.5754 279.828 61.9921C279.439 61.7677 279.078 61.7159 278.778 61.8103H278.752L280 61.1796Z" fill="url(#paint30_linear_1385_11175)"/>
<path fill-rule="evenodd" clip-rule="evenodd" d="M280 70.932L280.403 70.7501C280.703 70.6556 281.065 70.7074 281.453 70.932C282.492 71.5152 283.334 73.1029 283.334 74.4638C283.334 75.4563 283.228 75.9878 282.418 76.3941L281.196 76.8005C281.425 76.5237 281.708 75.8219 281.708 75.2765C281.708 73.9156 280.867 72.3278 279.828 71.7446C279.439 71.5202 279.078 71.4683 278.778 71.5627H278.752L280 70.932Z" fill="url(#paint31_linear_1385_11175)"/>
<path fill-rule="evenodd" clip-rule="evenodd" d="M280 80.6845L280.403 80.5025C280.703 80.4081 281.065 80.4599 281.453 80.6845C282.492 81.2676 283.334 82.8553 283.334 84.2162C283.334 85.2087 283.228 85.7402 282.418 86.1466L281.196 86.5529C281.425 86.2761 281.708 85.5744 281.708 85.0289C281.708 83.668 280.867 82.0803 279.828 81.4971C279.439 81.2726 279.078 81.2208 278.778 81.3152H278.752L280 80.6845Z" fill="url(#paint32_linear_1385_11175)"/>
<path opacity="0.47" fill-rule="evenodd" clip-rule="evenodd" d="M298.462 75.4678L293.233 72.5029C292.87 72.2923 292.573 71.7415 292.573 71.2716C292.573 70.8018 292.87 70.575 293.233 70.7856L298.462 73.7504C298.824 73.961 299.121 74.5119 299.121 74.9817C299.105 75.4516 298.808 75.6784 298.462 75.4678Z" fill="url(#paint33_linear_1385_11175)"/>
<path opacity="0.47" fill-rule="evenodd" clip-rule="evenodd" d="M298.462 85.2202L293.233 82.2554C292.87 82.0448 292.573 81.4939 292.573 81.0241C292.573 80.5542 292.87 80.3274 293.233 80.538L298.462 83.5029C298.824 83.7135 299.121 84.2643 299.121 84.7342C299.105 85.204 298.808 85.4308 298.462 85.2202Z" fill="url(#paint34_linear_1385_11175)"/>
<path opacity="0.47" fill-rule="evenodd" clip-rule="evenodd" d="M298.462 94.9727L293.233 92.0078C292.87 91.7972 292.573 91.2464 292.573 90.7765C292.573 90.3067 292.87 90.0799 293.233 90.2905L298.462 93.2553C298.824 93.4659 299.121 94.0168 299.121 94.4866C299.105 94.9565 298.808 95.1833 298.462 94.9727Z" fill="url(#paint35_linear_1385_11175)"/>
<path opacity="0.47" fill-rule="evenodd" clip-rule="evenodd" d="M306.589 80.344L301.36 77.3791C300.997 77.1685 300.7 76.6177 300.7 76.1478C300.7 75.678 300.997 75.4512 301.36 75.6618L306.589 78.6266C306.951 78.8373 307.248 79.3881 307.248 79.8579C307.232 80.3278 306.935 80.5546 306.589 80.344Z" fill="url(#paint36_linear_1385_11175)"/>
<path opacity="0.47" fill-rule="evenodd" clip-rule="evenodd" d="M306.589 90.0964L301.36 87.1316C300.997 86.921 300.7 86.3701 300.7 85.9003C300.7 85.4305 300.997 85.2036 301.36 85.4143L306.589 88.3791C306.951 88.5897 307.248 89.1406 307.248 89.6104C307.232 90.0802 306.935 90.3071 306.589 90.0964Z" fill="url(#paint37_linear_1385_11175)"/>
<path opacity="0.47" fill-rule="evenodd" clip-rule="evenodd" d="M306.589 99.8489L301.36 96.8841C300.997 96.6734 300.7 96.1226 300.7 95.6528C300.7 95.1829 300.997 94.9561 301.36 95.1667L306.589 98.1316C306.951 98.3422 307.248 98.893 307.248 99.3629C307.232 99.8327 306.935 100.06 306.589 99.8489Z" fill="url(#paint38_linear_1385_11175)"/>
<path opacity="0.47" fill-rule="evenodd" clip-rule="evenodd" d="M290.547 70.9355L285.318 67.9706C284.955 67.76 284.658 67.2092 284.658 66.7394C284.658 66.2695 284.955 66.0427 285.318 66.2533L290.547 69.2182C290.91 69.4288 291.206 69.9796 291.206 70.4495C291.19 70.9193 290.893 71.1461 290.547 70.9355Z" fill="url(#paint39_linear_1385_11175)"/>
<path opacity="0.47" fill-rule="evenodd" clip-rule="evenodd" d="M290.547 80.6879L285.318 77.7231C284.955 77.5125 284.658 76.9616 284.658 76.4918C284.658 76.022 284.955 75.7952 285.318 76.0058L290.547 78.9706C290.91 79.1812 291.206 79.7321 291.206 80.2019C291.19 80.6717 290.893 80.8986 290.547 80.6879Z" fill="url(#paint40_linear_1385_11175)"/>
<path opacity="0.47" fill-rule="evenodd" clip-rule="evenodd" d="M290.547 90.4404L285.318 87.4756C284.955 87.2649 284.658 86.7141 284.658 86.2443C284.658 85.7744 284.955 85.5476 285.318 85.7582L290.547 88.7231C290.91 88.9337 291.206 89.4845 291.206 89.9544C291.19 90.4242 290.893 90.651 290.547 90.4404Z" fill="url(#paint41_linear_1385_11175)"/>
<path fill-rule="evenodd" clip-rule="evenodd" d="M286.944 65.4407C286.764 65.3367 286.598 65.3367 286.479 65.4228L284.92 66.2021C285.031 66.1543 285.169 66.1669 285.318 66.2535L290.547 69.2184C290.91 69.429 291.207 69.9798 291.207 70.4497C291.195 70.7854 291.04 70.997 290.826 71.0137L290.949 71.1118L292.55 70.1776C292.711 70.1122 292.822 69.9181 292.832 69.637C292.832 69.1671 292.535 68.6161 292.172 68.4056L286.944 65.4407ZM292.55 70.1776C292.519 70.1903 292.486 70.1982 292.451 70.2008L292.55 70.1776ZM284.857 66.2382C284.866 66.2312 284.876 66.2247 284.887 66.2187L284.853 66.2355L284.857 66.2382Z" fill="url(#paint42_linear_1385_11175)"/>
<path fill-rule="evenodd" clip-rule="evenodd" d="M286.944 75.1929C286.764 75.0889 286.598 75.0889 286.479 75.1751L284.92 75.9544C285.031 75.9065 285.169 75.9191 285.318 76.0058L290.547 78.9706C290.91 79.1812 291.207 79.7321 291.207 80.2019C291.195 80.5376 291.04 80.7493 290.826 80.7659L290.949 80.864L292.55 79.9299C292.711 79.8645 292.822 79.6703 292.832 79.3892C292.832 78.9193 292.535 78.3683 292.172 78.1578L286.944 75.1929ZM292.55 79.9299C292.519 79.9426 292.486 79.9504 292.451 79.9531L292.55 79.9299ZM284.857 75.9905C284.866 75.9834 284.876 75.9769 284.887 75.971L284.853 75.9878L284.857 75.9905Z" fill="url(#paint43_linear_1385_11175)"/>
<path fill-rule="evenodd" clip-rule="evenodd" d="M286.944 84.9454C286.764 84.8414 286.598 84.8414 286.479 84.9275L284.92 85.7068C285.031 85.659 285.169 85.6716 285.318 85.7582L290.547 88.7231C290.91 88.9337 291.207 89.4845 291.207 89.9544C291.195 90.2901 291.04 90.5017 290.826 90.5184L290.949 90.6164L292.55 89.6823C292.711 89.6169 292.822 89.4228 292.832 89.1416C292.832 88.6718 292.535 88.1208 292.172 87.9103L286.944 84.9454ZM292.55 89.6823C292.519 89.695 292.486 89.7029 292.451 89.7055L292.55 89.6823ZM284.857 85.7429C284.866 85.7359 284.876 85.7294 284.887 85.7234L284.853 85.7402L284.857 85.7429Z" fill="url(#paint44_linear_1385_11175)"/>
<path fill-rule="evenodd" clip-rule="evenodd" d="M294.859 69.9728C294.679 69.8689 294.513 69.8689 294.393 69.955L292.836 70.7335C292.947 70.6865 293.085 70.6994 293.233 70.7856L298.462 73.7504C298.824 73.961 299.121 74.5119 299.121 74.9817C299.11 75.3175 298.955 75.5291 298.741 75.5457L298.863 75.6439L300.465 74.7098C300.626 74.6444 300.737 74.4502 300.747 74.1691C300.747 73.6993 300.45 73.1483 300.087 72.9377L294.859 69.9728ZM300.465 74.7098C300.434 74.7225 300.4 74.7303 300.366 74.733L300.465 74.7098ZM292.771 70.7703C292.781 70.7636 292.79 70.7574 292.8 70.7517L292.768 70.7677L292.771 70.7703Z" fill="url(#paint45_linear_1385_11175)"/>
<path fill-rule="evenodd" clip-rule="evenodd" d="M294.859 79.7253C294.679 79.6213 294.513 79.6213 294.393 79.7074L292.836 80.486C292.947 80.4389 293.084 80.4518 293.233 80.5381L298.462 83.5029C298.824 83.7135 299.121 84.2644 299.121 84.7342C299.11 85.0699 298.955 85.2816 298.741 85.2982L298.863 85.3964L300.465 84.4622C300.626 84.3968 300.737 84.2027 300.747 83.9216C300.747 83.4517 300.45 82.9007 300.087 82.6902L294.859 79.7253ZM300.465 84.4622C300.434 84.4749 300.4 84.4828 300.366 84.4854L300.465 84.4622ZM292.771 80.5228C292.781 80.516 292.79 80.5098 292.8 80.5041L292.768 80.5201L292.771 80.5228Z" fill="url(#paint46_linear_1385_11175)"/>
<path fill-rule="evenodd" clip-rule="evenodd" d="M294.859 89.4777C294.679 89.3738 294.513 89.3738 294.393 89.4599L292.836 90.2386C292.947 90.1914 293.084 90.2042 293.233 90.2905L298.462 93.2554C298.824 93.466 299.121 94.0168 299.121 94.4867C299.11 94.8224 298.955 95.034 298.741 95.0507L298.863 95.1488L300.465 94.2147C300.626 94.1493 300.737 93.9551 300.747 93.674C300.747 93.2042 300.45 92.6532 300.087 92.4427L294.859 89.4777ZM300.465 94.2147C300.434 94.2274 300.4 94.2352 300.366 94.2379L300.465 94.2147ZM292.771 90.2752C292.781 90.2684 292.79 90.2622 292.8 90.2564L292.768 90.2726L292.771 90.2752Z" fill="url(#paint47_linear_1385_11175)"/>
<path fill-rule="evenodd" clip-rule="evenodd" d="M302.986 74.8491C302.806 74.7451 302.64 74.7451 302.521 74.8312L300.963 75.6097C301.074 75.5627 301.212 75.5756 301.36 75.6618L306.589 78.6267C306.951 78.8373 307.248 79.3881 307.248 79.858C307.237 80.1937 307.082 80.4054 306.868 80.422L306.99 80.5201L308.592 79.586C308.753 79.5206 308.864 79.3265 308.874 79.0453C308.874 78.5755 308.577 78.0245 308.214 77.814L302.986 74.8491ZM308.592 79.586C308.561 79.5987 308.528 79.6065 308.493 79.6092L308.592 79.586ZM300.898 75.6465C300.908 75.6398 300.917 75.6336 300.927 75.6279L300.895 75.6439L300.898 75.6465Z" fill="url(#paint48_linear_1385_11175)"/>
<path fill-rule="evenodd" clip-rule="evenodd" d="M302.986 84.6015C302.806 84.4976 302.64 84.4976 302.521 84.5837L300.963 85.3623C301.074 85.3152 301.211 85.328 301.36 85.4143L306.589 88.3791C306.951 88.5898 307.248 89.1406 307.248 89.6104C307.237 89.9462 307.082 90.1578 306.868 90.1744L306.99 90.2726L308.592 89.3385C308.753 89.2731 308.864 89.0789 308.874 88.7978C308.874 88.3279 308.577 87.7769 308.214 87.5664L302.986 84.6015ZM308.592 89.3385C308.561 89.3512 308.528 89.359 308.493 89.3617L308.592 89.3385ZM300.898 85.399C300.908 85.3922 300.917 85.386 300.927 85.3803L300.895 85.3964L300.898 85.399Z" fill="url(#paint49_linear_1385_11175)"/>
<path fill-rule="evenodd" clip-rule="evenodd" d="M302.986 94.354C302.806 94.25 302.64 94.25 302.521 94.3361L300.963 95.1148C301.074 95.0676 301.211 95.0805 301.36 95.1668L306.589 98.1316C306.951 98.3422 307.248 98.8931 307.248 99.3629C307.237 99.6986 307.082 99.9103 306.868 99.9269L306.99 100.025L308.592 99.0909C308.753 99.0255 308.864 98.8314 308.874 98.5502C308.874 98.0804 308.577 97.5294 308.214 97.3189L302.986 94.354ZM308.592 99.0909C308.561 99.1036 308.528 99.1115 308.493 99.1141L308.592 99.0909ZM300.898 95.1515C300.908 95.1447 300.918 95.1384 300.927 95.1326L300.895 95.1488L300.898 95.1515Z" fill="url(#paint50_linear_1385_11175)"/>
<ellipse cx="194.236" cy="192.205" rx="50.3877" ry="23.9748" fill="url(#paint51_linear_1385_11175)"/>
<ellipse cx="194.236" cy="171.887" rx="50.3877" ry="23.9748" fill="url(#paint52_linear_1385_11175)"/>
<path fill-rule="evenodd" clip-rule="evenodd" d="M178.795 153.601H194.236H209.678L221.211 169.112C223.193 170.684 224.307 172.453 224.307 174.325C224.307 180.833 210.844 186.109 194.236 186.109C177.629 186.109 164.166 180.833 164.166 174.325C164.166 172.453 165.28 170.684 167.261 169.112L178.795 153.601Z" fill="#EF6A40"/>
<ellipse cx="194.236" cy="154.008" rx="15.4414" ry="6.09528" fill="url(#paint53_linear_1385_11175)"/>
<path fill-rule="evenodd" clip-rule="evenodd" d="M211.619 77.2069C212.464 76.3266 212.929 75.367 212.929 74.3625C212.929 70.0984 204.56 66.6418 194.236 66.6418C183.913 66.6418 175.544 70.0984 175.544 74.3625C175.544 76.2667 177.213 78.0099 179.98 79.3561C182.122 81.0786 184.808 83.4152 186.922 85.7403C190.171 89.314 190.173 130.525 189.767 150.72C189.767 150.729 189.767 150.738 189.767 150.747C189.767 150.75 189.767 150.753 189.767 150.757C189.767 151.879 191.859 152.788 194.44 152.788C197.02 152.788 199.113 151.879 199.113 150.757C198.706 130.574 198.706 89.3162 201.957 85.7403C204.385 83.0697 207.568 80.3841 209.814 78.6312C210.414 78.2582 210.938 77.8624 211.377 77.4476C211.495 77.3609 211.606 77.2806 211.71 77.2069H211.619Z" fill="#EF6A40"/>
<ellipse cx="194.236" cy="23.9748" rx="50.3877" ry="23.9748" fill="url(#paint54_linear_1385_11175)"/>
<path fill-rule="evenodd" clip-rule="evenodd" d="M194.236 47.9496C222.065 47.9496 244.624 37.2157 244.624 23.9748V38.6035V39.0098H244.617C244.161 52.0633 221.78 62.5782 194.236 62.5782C166.693 62.5782 144.312 52.0633 143.856 39.0098H143.849V38.6035V23.9748C143.849 37.2157 166.408 47.9496 194.236 47.9496ZM143.856 23.5684C143.851 23.7036 143.849 23.8391 143.849 23.9748V23.5684H143.856ZM244.617 23.5684H244.624V23.9748C244.624 23.8391 244.622 23.7036 244.617 23.5684Z" fill="url(#paint55_linear_1385_11175)"/>
<path fill-rule="evenodd" clip-rule="evenodd" d="M194.236 195.862C222.065 195.862 244.624 185.128 244.624 171.887V186.516V186.922H244.617C244.161 199.975 221.78 210.49 194.236 210.49C166.693 210.49 144.312 199.975 143.856 186.922H143.849V186.516V171.887C143.849 185.128 166.408 195.862 194.236 195.862ZM143.856 171.481C143.851 171.616 143.849 171.751 143.849 171.887V171.481H143.856ZM244.617 171.481H244.624V171.887C244.624 171.751 244.622 171.616 244.617 171.481Z" fill="url(#paint56_linear_1385_11175)"/>
<path fill-rule="evenodd" clip-rule="evenodd" d="M153.634 52.8037C154.018 59.8047 157.76 66.1818 163.727 71.1172C165.578 73.0766 168.682 75.2738 172.013 77.632L172.013 77.632L172.013 77.632C178.992 82.5726 186.969 88.2199 186.516 93.8671C185.873 101.875 180.32 105.066 177.375 106.595C176.84 107.986 177.214 111.35 182.997 113.686C188.78 116.021 193.17 116.327 194.643 116.188C196.115 116.327 200.506 116.021 206.288 113.686C212.071 111.35 212.446 107.986 211.91 106.595C208.965 105.066 203.412 101.875 202.77 93.8671C202.317 88.2199 210.293 82.5726 217.272 77.632L217.272 77.632C220.603 75.2738 223.707 73.0766 225.558 71.1172C231.683 66.0513 235.463 59.4664 235.675 52.2469C226.578 58.4898 211.411 62.5782 194.236 62.5782C177.578 62.5782 162.807 58.7318 153.634 52.8037Z" fill="url(#paint57_linear_1385_11175)"/>
<path fill-rule="evenodd" clip-rule="evenodd" d="M185.24 98.9968C183.272 103.36 179.587 105.446 177.375 106.595C176.84 107.986 177.214 111.35 182.997 113.686C188.78 116.021 193.17 116.327 194.643 116.188C196.115 116.327 200.505 116.021 206.288 113.686C212.071 111.35 212.446 107.986 211.91 106.595C209.721 105.459 206.091 103.403 204.107 99.1341C221.397 101.982 234.303 112.139 234.853 124.344H234.872V125.157V173.919H234.859C234.867 174.054 234.872 174.189 234.872 174.325C234.872 183.078 216.679 190.173 194.236 190.173C171.794 190.173 153.601 183.078 153.601 174.325C153.601 174.189 153.606 174.054 153.614 173.919H153.601V125.157V124.344H153.619C154.179 111.934 167.513 101.641 185.24 98.9968Z" fill="url(#paint58_linear_1385_11175)"/>
<defs>
<linearGradient id="paint0_linear_1385_11175" x1="72.7433" y1="143.852" x2="72.7433" y2="26.0131" gradientUnits="userSpaceOnUse">
<stop stop-color="white" stop-opacity="0"/>
<stop offset="0.393519" stop-color="white" stop-opacity="0.68"/>
<stop offset="1" stop-color="#FFD9CC"/>
</linearGradient>
<linearGradient id="paint1_linear_1385_11175" x1="125.878" y1="26.6096" x2="92.6303" y2="145.342" gradientUnits="userSpaceOnUse">
<stop stop-color="#CA2B00"/>
<stop offset="0.565625" stop-color="#FFC1A6"/>
</linearGradient>
<linearGradient id="paint2_linear_1385_11175" x1="306.384" y1="167.419" x2="306.384" y2="94.2777" gradientUnits="userSpaceOnUse">
<stop stop-color="white" stop-opacity="0"/>
<stop offset="0.617708" stop-color="#FFC1A6"/>
<stop offset="1" stop-color="#ED6A45"/>
</linearGradient>
<linearGradient id="paint3_linear_1385_11175" x1="308.415" y1="93.0481" x2="308.415" y2="167.417" gradientUnits="userSpaceOnUse">
<stop stop-color="white"/>
<stop offset="1" stop-color="#E8E7F2" stop-opacity="0"/>
</linearGradient>
<linearGradient id="paint4_linear_1385_11175" x1="306.991" y1="141.086" x2="313.344" y2="129.884" gradientUnits="userSpaceOnUse">
<stop stop-color="white" stop-opacity="0"/>
<stop offset="1" stop-color="white" stop-opacity="0.8"/>
</linearGradient>
<linearGradient id="paint5_linear_1385_11175" x1="302.472" y1="120.832" x2="300.583" y2="118.909" gradientUnits="userSpaceOnUse">
<stop stop-color="white" stop-opacity="0"/>
<stop offset="0.0539" stop-color="white" stop-opacity="0.0539"/>
<stop offset="1" stop-color="white"/>
</linearGradient>
<linearGradient id="paint6_linear_1385_11175" x1="316.639" y1="131.761" x2="314.413" y2="129.494" gradientUnits="userSpaceOnUse">
<stop stop-color="white" stop-opacity="0"/>
<stop offset="0.0539" stop-color="white" stop-opacity="0.0539"/>
<stop offset="1" stop-color="white"/>
</linearGradient>
<linearGradient id="paint7_linear_1385_11175" x1="92.2853" y1="59.3863" x2="95.0559" y2="56.5657" gradientUnits="userSpaceOnUse">
<stop stop-color="#ED8840" stop-opacity="0"/>
<stop offset="0.0539" stop-color="#ED8840" stop-opacity="0.0539"/>
<stop offset="1" stop-color="#F18A37"/>
</linearGradient>
<linearGradient id="paint8_linear_1385_11175" x1="73.8476" y1="79.9249" x2="76.6182" y2="77.1043" gradientUnits="userSpaceOnUse">
<stop stop-color="#ED8840" stop-opacity="0"/>
<stop offset="0.0539" stop-color="#ED8840" stop-opacity="0.0539"/>
<stop offset="1" stop-color="#F18A37"/>
</linearGradient>
<linearGradient id="paint9_linear_1385_11175" x1="56.8383" y1="82.2701" x2="59.6089" y2="79.4495" gradientUnits="userSpaceOnUse">
<stop stop-color="#ED8840" stop-opacity="0"/>
<stop offset="0.0539" stop-color="#ED8840" stop-opacity="0.0539"/>
<stop offset="1" stop-color="#F18A37"/>
</linearGradient>
<linearGradient id="paint10_linear_1385_11175" x1="98.7878" y1="65.8877" x2="101.558" y2="63.0671" gradientUnits="userSpaceOnUse">
<stop stop-color="#ED8840" stop-opacity="0"/>
<stop offset="0.0539" stop-color="#ED8840" stop-opacity="0.0539"/>
<stop offset="1" stop-color="#F18A37"/>
</linearGradient>
<linearGradient id="paint11_linear_1385_11175" x1="80.3501" y1="86.4266" x2="83.1207" y2="83.606" gradientUnits="userSpaceOnUse">
<stop stop-color="#ED8840" stop-opacity="0"/>
<stop offset="0.0539" stop-color="#ED8840" stop-opacity="0.0539"/>
<stop offset="1" stop-color="#F18A37"/>
</linearGradient>
<linearGradient id="paint12_linear_1385_11175" x1="63.3408" y1="88.7719" x2="66.1114" y2="85.9513" gradientUnits="userSpaceOnUse">
<stop stop-color="#ED8840" stop-opacity="0"/>
<stop offset="0.0539" stop-color="#ED8840" stop-opacity="0.0539"/>
<stop offset="1" stop-color="#F18A37"/>
</linearGradient>
<linearGradient id="paint13_linear_1385_11175" x1="195.049" y1="184.386" x2="190.579" y2="374.657" gradientUnits="userSpaceOnUse">
<stop stop-color="#E6F0FF"/>
<stop offset="0.285734" stop-color="#E6F0FF" stop-opacity="0.397917"/>
<stop offset="0.80001" stop-color="#E6F0FF" stop-opacity="0"/>
</linearGradient>
<linearGradient id="paint14_linear_1385_11175" x1="195.049" y1="211.303" x2="197.081" y2="344.993" gradientUnits="userSpaceOnUse">
<stop stop-color="#E6F0FF"/>
<stop offset="0.188548" stop-color="#E6F0FF" stop-opacity="0.14"/>
<stop offset="0.899343" stop-color="#E6F0FF" stop-opacity="0"/>
</linearGradient>
<linearGradient id="paint15_linear_1385_11175" x1="195.451" y1="313.634" x2="195.451" y2="172.756" gradientUnits="userSpaceOnUse">
<stop stop-color="white"/>
<stop offset="0.0001" stop-color="white"/>
<stop offset="0.3737" stop-color="#D1D3FC"/>
<stop offset="0.7672" stop-color="#BCBEEB"/>
<stop offset="1" stop-color="#A9ACDC"/>
</linearGradient>
<linearGradient id="paint16_linear_1385_11175" x1="195.464" y1="172.734" x2="195.464" y2="288.538" gradientUnits="userSpaceOnUse">
<stop stop-color="#9191A7"/>
<stop offset="1" stop-color="#FDFDFD"/>
</linearGradient>
<linearGradient id="paint17_linear_1385_11175" x1="166.658" y1="159.028" x2="257.163" y2="209.708" gradientUnits="userSpaceOnUse">
<stop stop-color="#656BA6"/>
<stop offset="1" stop-color="#8B8ED5"/>
</linearGradient>
<linearGradient id="paint18_linear_1385_11175" x1="262.588" y1="208.638" x2="262.588" y2="164.229" gradientUnits="userSpaceOnUse">
<stop offset="0.1441" stop-color="#8083BF"/>
<stop offset="0.422" stop-color="#5A5991"/>
<stop offset="0.6808" stop-color="#3A3D73"/>
<stop offset="0.8817" stop-color="#263064"/>
<stop offset="1" stop-color="#1F2C5F"/>
</linearGradient>
<linearGradient id="paint19_linear_1385_11175" x1="1.80793" y1="0.462581" x2="30.8413" y2="10.4719" gradientUnits="userSpaceOnUse">
<stop stop-color="#E6F0FF" stop-opacity="0.6"/>
<stop offset="1" stop-color="#E6F0FF" stop-opacity="0"/>
</linearGradient>
<linearGradient id="paint20_linear_1385_11175" x1="1.80793" y1="0.462581" x2="30.8413" y2="10.4719" gradientUnits="userSpaceOnUse">
<stop stop-color="#E6F0FF" stop-opacity="0.6"/>
<stop offset="1" stop-color="#E6F0FF" stop-opacity="0"/>
</linearGradient>
<linearGradient id="paint21_linear_1385_11175" x1="1.80793" y1="0.462581" x2="30.8413" y2="10.4719" gradientUnits="userSpaceOnUse">
<stop stop-color="#E6F0FF" stop-opacity="0.6"/>
<stop offset="1" stop-color="#E6F0FF" stop-opacity="0"/>
</linearGradient>
<linearGradient id="paint22_linear_1385_11175" x1="1.80793" y1="0.462581" x2="30.8413" y2="10.4719" gradientUnits="userSpaceOnUse">
<stop stop-color="#E6F0FF" stop-opacity="0.6"/>
<stop offset="1" stop-color="#E6F0FF" stop-opacity="0"/>
</linearGradient>
<linearGradient id="paint23_linear_1385_11175" x1="15.9615" y1="0" x2="15.9615" y2="8.32761" gradientUnits="userSpaceOnUse">
<stop stop-color="#C0C3ED"/>
<stop offset="1" stop-color="#E6F0FF"/>
</linearGradient>
<linearGradient id="paint24_linear_1385_11175" x1="15.9615" y1="0" x2="15.9615" y2="10.7433" gradientUnits="userSpaceOnUse">
<stop stop-color="#DCDBE3"/>
<stop offset="1" stop-color="#E8E7F2"/>
</linearGradient>
<linearGradient id="paint25_linear_1385_11175" x1="15.9615" y1="0" x2="15.9615" y2="8.32761" gradientUnits="userSpaceOnUse">
<stop stop-color="#C0C3ED"/>
<stop offset="1" stop-color="#E6F0FF"/>
</linearGradient>
<linearGradient id="paint26_linear_1385_11175" x1="15.9615" y1="0" x2="15.9615" y2="10.7433" gradientUnits="userSpaceOnUse">
<stop stop-color="#DCDBE3"/>
<stop offset="1" stop-color="#E8E7F2"/>
</linearGradient>
<linearGradient id="paint27_linear_1385_11175" x1="281.773" y1="66.3602" x2="277.959" y2="62.4774" gradientUnits="userSpaceOnUse">
<stop stop-color="#FFC1A6" stop-opacity="0"/>
<stop offset="0.39375" stop-color="#FFC1A6" stop-opacity="0.5"/>
<stop offset="1" stop-color="#ED6A45"/>
</linearGradient>
<linearGradient id="paint28_linear_1385_11175" x1="281.773" y1="76.1126" x2="277.959" y2="72.2298" gradientUnits="userSpaceOnUse">
<stop stop-color="#FFC1A6" stop-opacity="0"/>
<stop offset="0.39375" stop-color="#FFC1A6" stop-opacity="0.5"/>
<stop offset="1" stop-color="#ED6A45"/>
</linearGradient>
<linearGradient id="paint29_linear_1385_11175" x1="281.773" y1="85.8651" x2="277.959" y2="81.9823" gradientUnits="userSpaceOnUse">
<stop stop-color="#FFC1A6" stop-opacity="0"/>
<stop offset="0.39375" stop-color="#FFC1A6" stop-opacity="0.5"/>
<stop offset="1" stop-color="#ED6A45"/>
</linearGradient>
<linearGradient id="paint30_linear_1385_11175" x1="281.045" y1="66.7722" x2="281.045" y2="60.953" gradientUnits="userSpaceOnUse">
<stop stop-color="white" stop-opacity="0"/>
<stop offset="0.393519" stop-color="#FFC1A6"/>
<stop offset="1" stop-color="#C7431E"/>
</linearGradient>
<linearGradient id="paint31_linear_1385_11175" x1="281.045" y1="76.5247" x2="281.045" y2="70.7055" gradientUnits="userSpaceOnUse">
<stop stop-color="white" stop-opacity="0"/>
<stop offset="0.393519" stop-color="#FFC1A6"/>
<stop offset="1" stop-color="#C7431E"/>
</linearGradient>
<linearGradient id="paint32_linear_1385_11175" x1="281.045" y1="86.2771" x2="281.045" y2="80.458" gradientUnits="userSpaceOnUse">
<stop stop-color="white" stop-opacity="0"/>
<stop offset="0.393519" stop-color="#FFC1A6"/>
<stop offset="1" stop-color="#C7431E"/>
</linearGradient>
<linearGradient id="paint33_linear_1385_11175" x1="295.843" y1="75.5449" x2="295.843" y2="70.7164" gradientUnits="userSpaceOnUse">
<stop stop-color="#BBBBDD"/>
<stop offset="1" stop-color="#7F84BF"/>
</linearGradient>
<linearGradient id="paint34_linear_1385_11175" x1="299.482" y1="84.9275" x2="292.98" y2="81.2703" gradientUnits="userSpaceOnUse">
<stop stop-color="#BBBBDD" stop-opacity="0"/>
<stop offset="1" stop-color="#7F84BF"/>
</linearGradient>
<linearGradient id="paint35_linear_1385_11175" x1="295.843" y1="95.0498" x2="295.843" y2="90.2213" gradientUnits="userSpaceOnUse">
<stop stop-color="#BBBBDD"/>
<stop offset="1" stop-color="#7F84BF"/>
</linearGradient>
<linearGradient id="paint36_linear_1385_11175" x1="308.015" y1="80.0513" x2="301.107" y2="76.3941" gradientUnits="userSpaceOnUse">
<stop stop-color="#BBBBDD" stop-opacity="0"/>
<stop offset="1" stop-color="#7F84BF"/>
</linearGradient>
<linearGradient id="paint37_linear_1385_11175" x1="303.969" y1="90.1736" x2="303.969" y2="85.3451" gradientUnits="userSpaceOnUse">
<stop stop-color="#BBBBDD"/>
<stop offset="1" stop-color="#7F84BF"/>
</linearGradient>
<linearGradient id="paint38_linear_1385_11175" x1="307.202" y1="99.5562" x2="300.701" y2="95.899" gradientUnits="userSpaceOnUse">
<stop stop-color="#BBBBDD" stop-opacity="0"/>
<stop offset="1" stop-color="#7F84BF"/>
</linearGradient>
<linearGradient id="paint39_linear_1385_11175" x1="287.928" y1="71.0126" x2="287.928" y2="66.1841" gradientUnits="userSpaceOnUse">
<stop stop-color="#BBBBDD"/>
<stop offset="1" stop-color="#7F84BF"/>
</linearGradient>
<linearGradient id="paint40_linear_1385_11175" x1="287.928" y1="80.7651" x2="287.928" y2="75.9366" gradientUnits="userSpaceOnUse">
<stop stop-color="#BBBBDD"/>
<stop offset="1" stop-color="#7F84BF"/>
</linearGradient>
<linearGradient id="paint41_linear_1385_11175" x1="287.928" y1="90.5175" x2="287.928" y2="85.689" gradientUnits="userSpaceOnUse">
<stop stop-color="#BBBBDD"/>
<stop offset="1" stop-color="#7F84BF"/>
</linearGradient>
<linearGradient id="paint42_linear_1385_11175" x1="288.068" y1="67.0581" x2="290.727" y2="68.2561" gradientUnits="userSpaceOnUse">
<stop stop-color="#656BA6"/>
<stop offset="1" stop-color="#8B8ED5"/>
</linearGradient>
<linearGradient id="paint43_linear_1385_11175" x1="288.068" y1="76.8104" x2="290.727" y2="78.0084" gradientUnits="userSpaceOnUse">
<stop stop-color="#656BA6"/>
<stop offset="1" stop-color="#8B8ED5"/>
</linearGradient>
<linearGradient id="paint44_linear_1385_11175" x1="288.068" y1="86.5628" x2="290.727" y2="87.7608" gradientUnits="userSpaceOnUse">
<stop stop-color="#656BA6"/>
<stop offset="1" stop-color="#8B8ED5"/>
</linearGradient>
<linearGradient id="paint45_linear_1385_11175" x1="295.983" y1="71.5903" x2="298.641" y2="72.7883" gradientUnits="userSpaceOnUse">
<stop stop-color="#656BA6"/>
<stop offset="1" stop-color="#8B8ED5"/>
</linearGradient>
<linearGradient id="paint46_linear_1385_11175" x1="294.199" y1="80.0513" x2="298.776" y2="82.2931" gradientUnits="userSpaceOnUse">
<stop stop-color="#656BA6"/>
<stop offset="1" stop-color="#8B8ED5" stop-opacity="0"/>
</linearGradient>
<linearGradient id="paint47_linear_1385_11175" x1="295.983" y1="91.0952" x2="298.641" y2="92.2932" gradientUnits="userSpaceOnUse">
<stop stop-color="#656BA6"/>
<stop offset="1" stop-color="#8B8ED5"/>
</linearGradient>
<linearGradient id="paint48_linear_1385_11175" x1="301.92" y1="75.1751" x2="306.896" y2="77.3653" gradientUnits="userSpaceOnUse">
<stop stop-color="#656BA6"/>
<stop offset="1" stop-color="#8B8ED5" stop-opacity="0"/>
</linearGradient>
<linearGradient id="paint49_linear_1385_11175" x1="304.11" y1="86.219" x2="306.768" y2="87.417" gradientUnits="userSpaceOnUse">
<stop stop-color="#656BA6"/>
<stop offset="1" stop-color="#8B8ED5"/>
</linearGradient>
<linearGradient id="paint50_linear_1385_11175" x1="303.139" y1="94.68" x2="307.046" y2="96.6139" gradientUnits="userSpaceOnUse">
<stop stop-color="#656BA6"/>
<stop offset="1" stop-color="#8B8ED5" stop-opacity="0"/>
</linearGradient>
<linearGradient id="paint51_linear_1385_11175" x1="240.561" y1="185.703" x2="161.322" y2="184.484" gradientUnits="userSpaceOnUse">
<stop stop-color="#505483"/>
<stop offset="1" stop-color="#505483"/>
</linearGradient>
<linearGradient id="paint52_linear_1385_11175" x1="240.561" y1="165.386" x2="161.322" y2="164.166" gradientUnits="userSpaceOnUse">
<stop stop-color="#FFC1A6"/>
<stop offset="1" stop-color="#FFD9CC"/>
</linearGradient>
<linearGradient id="paint53_linear_1385_11175" x1="194.24" y1="160.103" x2="194.24" y2="147.913" gradientUnits="userSpaceOnUse">
<stop stop-color="#FFC1A6"/>
<stop offset="1" stop-color="#ED6A45"/>
</linearGradient>
<linearGradient id="paint54_linear_1385_11175" x1="240.561" y1="17.4731" x2="161.322" y2="16.2541" gradientUnits="userSpaceOnUse">
<stop stop-color="#FFC1A6"/>
<stop offset="1" stop-color="#FFD9CC"/>
</linearGradient>
<linearGradient id="paint55_linear_1385_11175" x1="143.849" y1="43.0733" x2="244.624" y2="43.0733" gradientUnits="userSpaceOnUse">
<stop stop-color="#FFC1A6"/>
<stop offset="0.393519" stop-color="#FFC1A6"/>
<stop offset="1" stop-color="#ED6A45"/>
</linearGradient>
<linearGradient id="paint56_linear_1385_11175" x1="143.849" y1="190.985" x2="244.624" y2="190.985" gradientUnits="userSpaceOnUse">
<stop stop-color="#FFC1A6"/>
<stop offset="0.393519" stop-color="#FFC1A6"/>
<stop offset="1" stop-color="#ED6A45"/>
</linearGradient>
<linearGradient id="paint57_linear_1385_11175" x1="160.103" y1="81.2704" x2="212.929" y2="71.1115" gradientUnits="userSpaceOnUse">
<stop stop-color="white" stop-opacity="0"/>
<stop offset="0.393519" stop-color="white" stop-opacity="0.68"/>
<stop offset="1" stop-color="#FFD9CC"/>
</linearGradient>
<linearGradient id="paint58_linear_1385_11175" x1="168.23" y1="182.046" x2="244.218" y2="116.623" gradientUnits="userSpaceOnUse">
<stop stop-color="white" stop-opacity="0"/>
<stop offset="0.336458" stop-color="white" stop-opacity="0.68"/>
<stop offset="0.794792" stop-color="#FFD9CC"/>
<stop offset="1" stop-color="#FFC1A6" stop-opacity="0"/>
</linearGradient>
</defs>
</svg>
