<svg width="320" height="390" viewBox="0 0 320 390" fill="none" xmlns="http://www.w3.org/2000/svg">
<g clip-path="url(#clip0_1385_13088)">
<path d="M125.527 195.387L121.831 197.527L8.75701 263.062L0 268.138L8.20194 274.076L47.5903 302.596L49.5695 304.028L52.0089 303.816L153.609 295.081L191.018 322.163L194.473 324.668L198.169 322.528L311.243 257L320 251.924L311.798 245.986L272.41 217.466L270.43 216.034L267.991 216.246L166.391 224.981L128.982 197.899L125.527 195.394V195.387Z" fill="url(#paint0_linear_1385_13088)" fill-opacity="0.4"/>
<path d="M154.537 267.598L50.5044 276.545L6.02551 244.336L125.33 175.2L165.456 204.254L269.488 195.314L313.967 227.515L194.67 296.651L154.537 267.598Z" fill="url(#paint1_linear_1385_13088)"/>
<path d="M125.133 179.115L164.521 207.635L268.553 198.688L307.942 227.209L194.867 292.737L155.479 264.216L51.4466 273.163L12.0583 244.643L125.133 179.115ZM125.527 171.285L121.831 173.425L8.75708 238.961L6.10352e-05 244.037L8.202 249.974L47.5903 278.495L49.5696 279.926L52.009 279.715L153.609 270.98L191.018 298.061L194.473 300.566L198.169 298.426L311.243 232.899L320 227.823L311.798 221.885L272.41 193.364L270.43 191.933L267.991 192.144L166.391 200.88L128.982 173.798L125.527 171.293V171.285Z" fill="white"/>
<path d="M194.867 292.737L155.479 264.224L268.553 198.696L307.942 227.209L194.867 292.737Z" fill="url(#paint2_linear_1385_13088)"/>
<path d="M51.4393 273.163L12.051 244.643L125.133 179.115L164.521 207.635L51.4393 273.163Z" fill="url(#paint3_linear_1385_13088)"/>
<path d="M51.4393 273.163L155.479 264.224L268.553 198.696L164.521 207.635L51.4393 273.163Z" fill="url(#paint4_linear_1385_13088)"/>
<path d="M206.333 211.333C190.333 216.4 165.667 221.445 155.333 223.333C155.667 222 157.6 217.933 162.667 212.333C167.733 206.733 178.333 201.333 183 199.333L241.333 194.667C236.333 198.111 222.333 206.267 206.333 211.333Z" fill="url(#paint5_linear_1385_13088)"/>
<path fill-rule="evenodd" clip-rule="evenodd" d="M169.107 25.086C200.529 37.4733 226 78.7702 226 117.335V117.344C226 120.351 225.835 123.23 225.532 126.018H225.551C225.551 126.018 225.514 126.33 225.432 126.916C225.001 130.556 224.322 133.995 223.405 137.222C220.517 149.114 214.035 168.58 200.162 186.129C181.704 209.487 169.457 214.603 169.114 214.743L155.28 222.264L150.549 198.058L155.893 194.992C151.019 186.822 144.972 175.862 138.051 161.648C124.179 133.16 117.696 108.588 114.808 94.4124C113.891 90.4698 113.222 86.4905 112.782 82.5112C112.699 81.8602 112.663 81.5209 112.663 81.5209H112.681C112.388 78.5043 112.213 75.4877 112.213 72.4895C112.213 33.9249 137.685 12.6988 169.107 25.086ZM142.773 84.5283C142.773 102.38 154.565 121.498 169.107 127.228C183.649 132.959 195.44 123.139 195.44 105.287C195.44 87.4349 183.649 68.3176 169.107 62.587C154.565 56.8564 142.773 66.6764 142.773 84.5283Z" fill="#8C8CA0"/>
<path d="M212.173 124.862C212.173 86.2976 186.702 45.0006 155.28 32.6134C123.858 20.2261 98.3868 41.4522 98.3868 80.0168C98.3868 83.0151 98.561 86.0317 98.8544 89.0482H98.8361C98.8361 89.0482 98.8727 89.3875 98.9553 90.0385C99.3954 94.0178 100.065 97.9971 100.982 101.94C103.87 116.115 110.352 140.688 124.225 169.176C142.948 207.63 155.28 222.273 155.28 222.273C155.28 222.273 167.612 217.349 186.335 193.657C200.208 176.107 206.69 156.642 209.579 144.75C210.496 141.522 211.174 138.084 211.605 134.444C211.687 133.857 211.724 133.545 211.724 133.545H211.706C212.008 130.758 212.173 127.879 212.173 124.871V124.862ZM155.28 134.755C140.738 129.025 128.947 109.908 128.947 92.0557C128.947 74.2037 140.738 64.3838 155.28 70.1144C169.822 75.845 181.613 94.9622 181.613 112.814C181.613 130.666 169.822 140.486 155.28 134.755Z" fill="url(#paint6_linear_1385_13088)"/>
<path opacity="0.2" d="M23.8171 161.685L0.907951 174.903C-0.301777 175.602 -0.301777 176.716 0.907951 177.414L23.8171 190.632C25.0268 191.331 26.9737 191.331 28.1835 190.632L51.0926 177.414C52.3024 176.716 52.3024 175.602 51.0926 174.903L28.1835 161.685C26.9737 160.986 25.0268 160.986 23.8171 161.685Z" fill="#E8F4F3"/>
<path opacity="0.09" d="M23.8171 171.372L0.907951 184.59C-0.301777 185.289 -0.301777 186.403 0.907951 187.101L23.8171 200.319C25.0268 201.018 26.9737 201.018 28.1835 200.319L51.0926 187.101C52.3024 186.403 52.3024 185.289 51.0926 184.59L28.1835 171.372C26.9737 170.673 25.0268 170.673 23.8171 171.372Z" fill="black"/>
<path d="M23.8171 161.685L0.90795 174.903C-0.301776 175.602 -0.301776 176.716 0.90795 177.414L23.8171 190.632C25.0268 191.331 26.9737 191.331 28.1835 190.632L51.0926 177.414C52.3024 176.716 52.3024 175.602 51.0926 174.903L28.1835 161.685C26.9737 160.986 25.0268 160.986 23.8171 161.685Z" stroke="#EDF5FC" stroke-opacity="0.48" stroke-width="0.666667" stroke-miterlimit="10"/>
<path d="M52.0001 128.96V158.664C52.0001 160.042 51.0171 161.741 49.8263 162.44L28.1836 174.922C27.5787 175.262 26.7848 175.451 26.0099 175.451C25.216 175.451 24.4221 175.281 23.8361 174.922L2.19337 162.44C0.98365 161.741 0.0196609 160.042 0.0196609 158.664V128.96H52.0001Z" fill="url(#paint7_linear_1385_13088)"/>
<path d="M25.9902 128.96V175.432C25.1964 175.432 24.4025 175.262 23.8165 174.903L2.17375 162.421C0.964024 161.723 3.43323e-05 160.023 3.43323e-05 158.645V128.96H25.9902Z" fill="url(#paint8_linear_1385_13088)"/>
<path d="M23.8171 114.496L0.907951 127.714C-0.301777 128.413 -0.301777 129.527 0.907951 130.225L23.8171 143.444C25.0268 144.142 26.9737 144.142 28.1835 143.444L51.0926 130.225C52.3024 129.527 52.3024 128.413 51.0926 127.714L28.1835 114.496C26.9737 113.797 25.0268 113.797 23.8171 114.496Z" fill="url(#paint9_linear_1385_13088)"/>
<path d="M23.8171 114.496L0.907951 127.714C-0.301777 128.413 -0.301777 129.527 0.907951 130.225L23.8171 143.443C25.0268 144.142 26.9737 144.142 28.1835 143.443L51.0926 130.225C52.3024 129.527 52.3024 128.413 51.0926 127.714L28.1835 114.496C26.9737 113.797 25.0268 113.797 23.8171 114.496Z" fill="url(#paint10_linear_1385_13088)"/>
<path opacity="0.44" d="M35.5562 125.089C30.6606 122.276 22.7596 122.257 17.8829 125.07C13.0062 127.903 13.044 132.491 17.9396 135.305C22.8352 138.118 30.7173 138.118 35.613 135.286C40.4708 132.491 40.4519 127.922 35.5562 125.089Z" fill="#8AA4D2"/>
<path d="M35.8206 156.133C35.8206 156.133 35.1779 156.209 35.0645 156.454C34.9511 156.7 34.8755 158.814 34.8944 159.098C34.8944 159.098 36.5766 160.74 38.1455 161.552C39.7143 162.364 41.0753 162.704 41.6801 162.176C42.285 161.647 41.907 161.043 40.6216 159.985C39.3174 158.928 38.0699 156.114 38.0699 156.114C38.0888 156.133 35.8206 156.133 35.8206 156.133Z" fill="#0C334E"/>
<path d="M33.2457 109.505C33.2457 109.505 33.7156 113.77 33.7595 114.914C33.7854 116.054 35.6589 123.307 35.7699 123.688C35.9037 124.055 37.9336 126.857 37.8516 127.167C37.7696 127.478 37.3946 128.023 36.5433 127.896C35.6919 127.769 33.8962 125.536 33.8962 125.536C33.8962 125.536 32.9348 126.845 33.1642 125.03C33.3935 123.216 33.9865 123.666 33.6654 122.624C33.6654 122.624 30.5955 119.098 30.5779 115.597C30.5602 112.096 32.0571 109.562 32.0571 109.562L33.2457 109.505Z" fill="#EDA9A9"/>
<path d="M27.2823 119.182C26.4695 122.052 24.8202 128.035 26.1244 129.376C27.5421 130.83 42.1911 135.192 42.1911 135.192L37.8436 149.769C37.8436 149.769 39.0155 151.752 41.8886 150.827C41.8886 150.827 49.7141 134.172 49.733 132.605C49.7519 131.056 34.9705 123.899 34.9705 123.899L27.2823 119.182Z" fill="url(#paint11_linear_1385_13088)"/>
<path d="M38.9968 149.675C38.9968 149.675 38.3542 149.581 38.1841 149.789C38.0139 149.996 37.4091 152.017 37.3524 152.3C37.3524 152.3 38.5621 154.32 39.8852 155.51C41.2084 156.681 42.4181 157.38 43.1552 157.021C43.8735 156.662 43.6656 155.982 42.6827 154.623C41.6998 153.263 41.2083 150.242 41.2083 150.242C41.1894 150.261 38.9968 149.675 38.9968 149.675Z" fill="#0C334E"/>
<path d="M18.0906 123.314C18.0338 126.298 18.4308 131.056 19.9618 132.114C22.3057 133.719 31.9835 141.14 31.9835 141.14L34.6109 156.397C34.6109 156.397 36.2554 158.021 38.8071 156.397C38.8071 156.397 37.087 139.252 36.7279 137.741C36.3499 136.23 26.096 123.927 26.096 123.927L18.0906 123.314Z" fill="url(#paint12_linear_1385_13088)"/>
<path d="M34.0815 109.794C33.3632 106.433 31.8321 102.052 30.3956 101.863L31.7187 111.456C31.7187 111.456 33.0608 111.021 34.0815 109.794Z" fill="#FDFEFC"/>
<path d="M21.3792 102.921C21.3792 102.921 18.9219 103.827 16.7293 105.621L18.0902 124.731C18.0902 124.731 20.9255 126.808 26.7284 125.297C31.4539 124.07 32.7015 122.068 32.7015 122.068C32.7015 122.068 33.1362 112.702 32.6826 108.151C32.2478 103.601 30.3954 101.882 30.3954 101.882C29.3558 101.561 27.0875 101.693 27.0875 101.693L21.3792 102.921Z" fill="#FDFEFC"/>
<path d="M27.7876 89.9479C27.7876 89.9479 24.7255 89.1926 21.7579 90.3067C18.7714 91.4208 20.5103 95.6695 21.3987 97.6522C22.2682 99.6538 22.8919 98.9174 22.8919 98.9174L29.3942 96.2926C29.3942 96.2926 29.5832 96.0849 29.4698 93.3846C29.3186 90.7032 27.7876 89.9479 27.7876 89.9479Z" fill="#533252"/>
<path d="M22.3248 101.863L22.1925 97.4822C22.1925 97.4822 21.0962 97.4066 21.2852 96.1981C21.4742 94.9896 22.6083 95.7827 22.8163 96.1415C22.8163 96.1415 23.062 91.9872 25.2735 91.5718C27.485 91.1752 29.621 91.6473 29.6777 92.7237C29.7344 93.8 29.81 97.5577 29.6777 98.9551C29.5454 100.352 28.449 100.919 26.4454 100.862L26.5777 103.128C26.5777 103.128 25.557 103.865 22.7406 103.185L22.3248 101.863Z" fill="#EDA9A9"/>
<path d="M26.4635 101.315C26.4635 101.315 26.8416 101.315 26.9928 101.391C27.144 101.466 27.9568 102.278 27.9757 103.166C27.9946 104.053 27.6354 105.073 27.6354 105.073L25.8019 103.43L24.649 105.658C24.649 105.658 23.9306 105.526 22.9477 104.771C21.9648 104.034 21.3789 102.92 21.3789 102.92C21.7002 102.127 21.9081 101.636 21.9081 101.636C21.9838 101.447 22.324 101.372 22.324 101.372C22.324 101.372 24.2709 103.147 25.8019 103.222C25.8019 103.222 26.3501 102.977 26.4635 101.315Z" fill="#8AA4D2"/>
<path d="M17.8453 115.516C18.4313 114.024 19.7166 110.436 19.3574 108.567C18.9038 106.15 16.7301 105.621 16.7301 105.621C15.8228 106.659 14.4997 110.096 13.6113 112.966C15.0478 113.797 16.4277 114.685 17.8453 115.516Z" fill="#FDFEFC"/>
<path d="M32.0782 90.911C31.9458 90.4955 31.7379 90.0801 31.4544 89.7402C29.98 87.9274 27.8252 88.9849 25.9161 88.6639C25.4435 88.5883 25.0655 88.3618 24.5741 88.3429C23.4021 88.3051 22.1168 88.9282 21.6254 90.0423C21.5498 90.2312 21.4552 90.4578 21.3796 90.6655C21.2662 91.0054 21.1717 91.3642 21.1717 91.704C21.1528 92.4216 21.493 93.1203 21.5687 93.8189C21.6821 94.8575 22.268 95.9716 22.8351 96.9346C23.0052 96.878 23.1753 96.8402 23.3454 96.8025C23.2887 96.3493 23.44 95.8394 23.6479 95.424C23.9692 94.7253 24.2716 93.9889 23.8747 93.2525C25.0088 93.8378 25.2167 93.9134 26.5399 93.6679C27.3716 93.5168 28.1844 93.9322 28.9593 94.2533C29.7343 94.5743 30.6794 94.8009 31.3788 94.3477C31.9269 93.9889 32.1537 93.3091 32.2293 92.6671C32.305 92.0628 32.2483 91.4775 32.0782 90.911Z" fill="#533252"/>
<rect x="22.5159" y="98.7227" width="3.81828" height="7.75285" transform="rotate(-26.1538 22.5159 98.7227)" fill="#2E356A"/>
<path d="M24.6603 101.901C25.323 101.901 25.7183 100.32 27.0326 99.9243C28.3468 99.5289 28.5541 102.588 27.4301 103.465L25.5574 105.343C24.9389 109.72 25.5658 115.091 24.3664 115.693C23.1669 116.295 17.6312 114.231 17.254 112.856C16.8769 111.481 18.356 109.424 19.2311 109.297C20.1061 109.171 21.8944 110.734 22.3942 110.484C22.894 110.233 23.9299 103.97 23.9299 103.97L23.4283 102.971C23.4283 102.971 23.0511 101.596 23.5509 101.345C24.0507 101.094 23.9976 101.901 24.6603 101.901Z" fill="#EDA9A9"/>
<path opacity="0.15" d="M287.415 269.064L260.831 253.702C259.162 252.764 256.504 252.764 254.888 253.702L228.303 269.064C226.635 270.001 226.635 271.563 228.303 272.501L254.888 287.863C256.556 288.8 259.215 288.8 260.831 287.863L287.415 272.501C289.083 271.511 289.083 270.001 287.415 269.064Z" fill="url(#paint13_linear_1385_13088)"/>
<path d="M287.415 236.152L260.83 220.79C259.162 219.853 256.504 219.853 254.888 220.79L228.303 236.152C226.635 237.09 226.635 238.652 228.303 239.589L254.888 254.951C256.556 255.889 259.214 255.889 260.83 254.951L287.415 239.589C289.083 238.652 289.083 237.09 287.415 236.152Z" fill="url(#paint14_linear_1385_13088)"/>
<path d="M257.858 255.004C256.867 255.004 255.877 254.796 255.199 254.38L228.614 239.017C228.041 238.705 227.728 238.288 227.728 237.872C227.728 237.455 228.041 237.039 228.614 236.726L255.199 221.364C255.877 220.948 256.867 220.739 257.858 220.739C258.848 220.739 259.838 220.948 260.516 221.364L287.101 236.726C287.674 237.039 287.987 237.455 287.987 237.872C287.987 238.288 287.674 238.705 287.101 239.017L260.516 254.38C259.786 254.744 258.848 255.004 257.858 255.004Z" fill="url(#paint15_linear_1385_13088)"/>
<path d="M257.859 221.416C258.745 221.416 259.579 221.624 260.205 221.937L286.79 237.299C287.207 237.559 287.363 237.768 287.363 237.872C287.363 237.976 287.207 238.236 286.79 238.445L260.205 253.807C259.631 254.171 258.745 254.327 257.859 254.327C256.973 254.327 256.139 254.119 255.513 253.807L228.929 238.445C228.512 238.184 228.355 237.976 228.355 237.872C228.355 237.768 228.512 237.507 228.929 237.299L255.513 221.937C256.087 221.572 256.973 221.416 257.859 221.416ZM257.859 220.114C256.765 220.114 255.722 220.375 254.888 220.843L228.303 236.205C226.635 237.143 226.635 238.705 228.303 239.642L254.888 255.004C255.722 255.473 256.765 255.733 257.859 255.733C258.954 255.733 259.996 255.473 260.83 255.004L287.415 239.642C289.083 238.705 289.083 237.143 287.415 236.205L260.83 220.843C259.996 220.323 258.902 220.114 257.859 220.114Z" fill="white"/>
<path d="M288.667 264.69C288.667 265.419 288.197 265.94 287.416 266.408L260.831 281.77C260.049 282.239 259.059 282.447 257.86 282.499V255.681C259.006 255.681 259.997 255.42 260.831 254.952L287.416 239.59C288.093 239.225 288.667 238.652 288.667 237.871V264.69Z" fill="url(#paint16_linear_1385_13088)"/>
<path d="M227 264.69C227 265.419 227.469 265.94 228.251 266.408L254.836 281.77C255.618 282.239 256.608 282.447 257.807 282.499V255.681C256.66 255.681 255.67 255.42 254.836 254.952L228.251 239.59C227.573 239.225 227 238.652 227 237.871V264.69Z" fill="url(#paint17_linear_1385_13088)"/>
<path opacity="0.15" d="M288.29 140.126L273.201 131.407C272.254 130.875 270.745 130.875 269.828 131.407L254.74 140.126C253.793 140.658 253.793 141.545 254.74 142.077L269.828 150.796C270.775 151.328 272.284 151.328 273.201 150.796L288.29 142.077C289.236 141.515 289.236 140.658 288.29 140.126Z" fill="url(#paint18_linear_1385_13088)"/>
<path d="M288.29 121.447L273.201 112.728C272.254 112.196 270.746 112.196 269.828 112.728L254.74 121.447C253.793 121.979 253.793 122.866 254.74 123.398L269.828 132.117C270.775 132.649 272.284 132.649 273.201 132.117L288.29 123.398C289.237 122.866 289.237 121.979 288.29 121.447Z" fill="url(#paint19_linear_1385_13088)"/>
<path d="M271.514 132.146C270.952 132.146 270.39 132.028 270.005 131.792L254.917 123.073C254.591 122.895 254.414 122.659 254.414 122.423C254.414 122.186 254.591 121.95 254.917 121.772L270.005 113.053C270.39 112.817 270.952 112.699 271.514 112.699C272.076 112.699 272.638 112.817 273.023 113.053L288.112 121.772C288.437 121.95 288.615 122.186 288.615 122.423C288.615 122.659 288.437 122.895 288.112 123.073L273.023 131.792C272.609 131.999 272.076 132.146 271.514 132.146Z" fill="url(#paint20_linear_1385_13088)"/>
<path d="M271.515 113.083C272.018 113.083 272.491 113.201 272.846 113.378L287.935 122.097C288.172 122.245 288.26 122.363 288.26 122.422C288.26 122.481 288.172 122.629 287.935 122.747L272.846 131.467C272.521 131.673 272.018 131.762 271.515 131.762C271.012 131.762 270.539 131.644 270.184 131.467L255.095 122.747C254.858 122.6 254.769 122.481 254.769 122.422C254.769 122.363 254.858 122.215 255.095 122.097L270.184 113.378C270.509 113.171 271.012 113.083 271.515 113.083ZM271.515 112.344C270.894 112.344 270.302 112.492 269.828 112.758L254.74 121.477C253.793 122.009 253.793 122.895 254.74 123.427L269.828 132.146C270.302 132.412 270.894 132.56 271.515 132.56C272.136 132.56 272.728 132.412 273.201 132.146L288.29 123.427C289.237 122.895 289.237 122.009 288.29 121.477L273.201 112.758C272.728 112.462 272.107 112.344 271.515 112.344Z" fill="white"/>
<path d="M289 137.644C289 138.057 288.734 138.353 288.29 138.619L273.201 147.338C272.757 147.604 272.195 147.722 271.515 147.752V132.53C272.166 132.53 272.728 132.383 273.201 132.117L288.29 123.398C288.674 123.191 289 122.866 289 122.422V137.644Z" fill="url(#paint21_linear_1385_13088)"/>
<path d="M254 137.644C254 138.057 254.266 138.353 254.71 138.619L269.799 147.338C270.243 147.604 270.805 147.722 271.485 147.752V132.53C270.834 132.53 270.272 132.383 269.799 132.117L254.71 123.398C254.326 123.191 254 122.866 254 122.422V137.644Z" fill="url(#paint22_linear_1385_13088)"/>
<path opacity="0.15" d="M79.3138 66.5758L71.4018 62.0039C70.9053 61.7249 70.1142 61.7249 69.6332 62.0039L61.7213 66.5758C61.2248 66.8548 61.2248 67.3198 61.7213 67.5987L69.6332 72.1707C70.1297 72.4496 70.9209 72.4496 71.4018 72.1707L79.3138 67.5987C79.8102 67.3043 79.8102 66.8548 79.3138 66.5758Z" fill="url(#paint23_linear_1385_13088)"/>
<path d="M79.3136 56.7813L71.4017 52.2093C70.9052 51.9304 70.114 51.9304 69.6331 52.2093L61.7211 56.7813C61.2247 57.0602 61.2247 57.5252 61.7211 57.8041L69.6331 62.3761C70.1296 62.655 70.9207 62.655 71.4017 62.3761L79.3136 57.8041C79.8101 57.5252 79.8101 57.0602 79.3136 56.7813Z" fill="url(#paint24_linear_1385_13088)"/>
<path d="M70.5171 62.3914C70.2223 62.3914 69.9275 62.3294 69.7258 62.2054L61.8139 57.6335C61.6432 57.5405 61.5502 57.4165 61.5502 57.2925C61.5502 57.1685 61.6432 57.0446 61.8139 56.9516L69.7258 52.3796C69.9275 52.2556 70.2223 52.1937 70.5171 52.1937C70.8118 52.1937 71.1065 52.2556 71.3082 52.3796L79.2202 56.9516C79.3908 57.0446 79.4839 57.1685 79.4839 57.2925C79.4839 57.4165 79.3908 57.5405 79.2202 57.6335L71.3082 62.2054C71.091 62.3139 70.8118 62.3914 70.5171 62.3914Z" fill="url(#paint25_linear_1385_13088)"/>
<path d="M70.5174 52.3953C70.7811 52.3953 71.0293 52.4573 71.2155 52.5503L79.1275 57.1223C79.2516 57.1997 79.2982 57.2617 79.2982 57.2927C79.2982 57.3237 79.2516 57.4012 79.1275 57.4632L71.2155 62.0352C71.0448 62.1436 70.7811 62.1901 70.5174 62.1901C70.2537 62.1901 70.0054 62.1281 69.8193 62.0352L61.9073 57.4632C61.7832 57.3857 61.7367 57.3237 61.7367 57.2927C61.7367 57.2617 61.7832 57.1842 61.9073 57.1223L69.8193 52.5503C69.9899 52.4418 70.2537 52.3953 70.5174 52.3953ZM70.5174 52.0079C70.1916 52.0079 69.8813 52.0854 69.6331 52.2249L61.7211 56.7968C61.2247 57.0758 61.2247 57.5407 61.7211 57.8197L69.6331 62.3916C69.8813 62.5311 70.1916 62.6086 70.5174 62.6086C70.8432 62.6086 71.1534 62.5311 71.4017 62.3916L79.3136 57.8197C79.8101 57.5407 79.8101 57.0758 79.3136 56.7968L71.4017 52.2249C71.1534 52.0699 70.8277 52.0079 70.5174 52.0079Z" fill="white"/>
<path d="M79.6862 65.2744C79.6862 65.4914 79.5465 65.6464 79.3138 65.7858L71.4018 70.3578C71.1691 70.4973 70.8744 70.5593 70.5176 70.5747V62.5932C70.8589 62.5932 71.1536 62.5157 71.4018 62.3763L79.3138 57.8043C79.5155 57.6958 79.6862 57.5254 79.6862 57.2929V65.2744Z" fill="url(#paint26_linear_1385_13088)"/>
<path d="M61.3334 65.2744C61.3334 65.4914 61.473 65.6464 61.7057 65.7858L69.6177 70.3578C69.8504 70.4973 70.1451 70.5593 70.5019 70.5747V62.5932C70.1606 62.5932 69.8659 62.5157 69.6177 62.3763L61.7057 57.8043C61.504 57.6958 61.3334 57.5254 61.3334 57.2929V65.2744Z" fill="url(#paint27_linear_1385_13088)"/>
<path opacity="0.15" d="M264.41 13.7075L258.949 10.5521C258.606 10.3595 258.06 10.3595 257.728 10.5521L252.268 13.7075C251.925 13.9 251.925 14.2209 252.268 14.4135L257.728 17.5689C258.071 17.7615 258.617 17.7615 258.949 17.5689L264.41 14.4135C264.752 14.2102 264.752 13.9 264.41 13.7075Z" fill="url(#paint28_linear_1385_13088)"/>
<path d="M264.409 6.94739L258.949 3.79194C258.606 3.5994 258.06 3.5994 257.728 3.79194L252.268 6.94739C251.925 7.13993 251.925 7.46082 252.268 7.65336L257.728 10.8088C258.071 11.0013 258.617 11.0013 258.949 10.8088L264.409 7.65336C264.752 7.46082 264.752 7.13993 264.409 6.94739Z" fill="url(#paint29_linear_1385_13088)"/>
<path d="M258.338 10.8194C258.135 10.8194 257.931 10.7766 257.792 10.691L252.332 7.53559C252.214 7.47141 252.15 7.38584 252.15 7.30027C252.15 7.2147 252.214 7.12913 252.332 7.06495L257.792 3.9095C257.931 3.82393 258.135 3.78114 258.338 3.78114C258.542 3.78114 258.745 3.82393 258.884 3.9095L264.345 7.06495C264.463 7.12913 264.527 7.2147 264.527 7.30027C264.527 7.38584 264.463 7.47141 264.345 7.53559L258.884 10.691C258.734 10.7659 258.542 10.8194 258.338 10.8194Z" fill="url(#paint30_linear_1385_13088)"/>
<path d="M258.339 3.92024C258.521 3.92024 258.692 3.96302 258.82 4.0272L264.281 7.18265C264.367 7.23613 264.399 7.27892 264.399 7.30031C264.399 7.3217 264.367 7.37519 264.281 7.41797L258.82 10.5734C258.703 10.6483 258.521 10.6804 258.339 10.6804C258.157 10.6804 257.985 10.6376 257.857 10.5734L252.396 7.41797C252.31 7.36449 252.278 7.3217 252.278 7.30031C252.278 7.27892 252.31 7.22543 252.396 7.18265L257.857 4.0272C257.975 3.95232 258.157 3.92024 258.339 3.92024ZM258.339 3.65282C258.114 3.65282 257.9 3.70631 257.728 3.80257L252.268 6.95802C251.925 7.15056 251.925 7.47145 252.268 7.66399L257.728 10.8194C257.9 10.9157 258.114 10.9692 258.339 10.9692C258.563 10.9692 258.778 10.9157 258.949 10.8194L264.41 7.66399C264.752 7.47145 264.752 7.15056 264.41 6.95802L258.949 3.80257C258.778 3.69561 258.553 3.65282 258.339 3.65282Z" fill="white"/>
<path d="M264.667 12.809C264.667 12.9587 264.57 13.0657 264.41 13.162L258.949 16.3174C258.788 16.4137 258.585 16.4565 258.339 16.4672V10.9585C258.574 10.9585 258.778 10.905 258.949 10.8088L264.41 7.65331C264.549 7.57843 264.667 7.46077 264.667 7.30032V12.809Z" fill="url(#paint31_linear_1385_13088)"/>
<path d="M252 12.809C252 12.9587 252.096 13.0657 252.257 13.162L257.718 16.3174C257.878 16.4137 258.082 16.4565 258.328 16.4672V10.9585C258.092 10.9585 257.889 10.905 257.718 10.8088L252.257 7.65331C252.118 7.57843 252 7.46077 252 7.30032V12.809Z" fill="url(#paint32_linear_1385_13088)"/>
</g>
<defs>
<linearGradient id="paint0_linear_1385_13088" x1="159.949" y1="327.611" x2="113.206" y2="237.777" gradientUnits="userSpaceOnUse">
<stop stop-color="#8C8CA0"/>
<stop offset="1" stop-color="#8C8CA0" stop-opacity="0"/>
</linearGradient>
<linearGradient id="paint1_linear_1385_13088" x1="215.342" y1="243.921" x2="441.086" y2="274.724" gradientUnits="userSpaceOnUse">
<stop stop-color="white"/>
<stop offset="1" stop-color="#FFF1ED"/>
</linearGradient>
<linearGradient id="paint2_linear_1385_13088" x1="216.917" y1="226.457" x2="264.756" y2="251.654" gradientUnits="userSpaceOnUse">
<stop stop-color="#656BA6"/>
<stop offset="1" stop-color="#8B8ED5"/>
</linearGradient>
<linearGradient id="paint3_linear_1385_13088" x1="73.4919" y1="206.878" x2="121.333" y2="232.076" gradientUnits="userSpaceOnUse">
<stop stop-color="#656BA6"/>
<stop offset="1" stop-color="#8B8ED5"/>
</linearGradient>
<linearGradient id="paint4_linear_1385_13088" x1="138.93" y1="220.679" x2="184.799" y2="264.127" gradientUnits="userSpaceOnUse">
<stop stop-color="#656BA6"/>
<stop offset="1" stop-color="#8B8ED5"/>
</linearGradient>
<linearGradient id="paint5_linear_1385_13088" x1="155.667" y1="223.333" x2="226" y2="198.667" gradientUnits="userSpaceOnUse">
<stop/>
<stop offset="1" stop-color="#8C8CA0" stop-opacity="0"/>
</linearGradient>
<linearGradient id="paint6_linear_1385_13088" x1="120.365" y1="201.854" x2="177.038" y2="41.9107" gradientUnits="userSpaceOnUse">
<stop stop-color="#FFECE7"/>
<stop offset="1" stop-color="#FF5F36"/>
</linearGradient>
<linearGradient id="paint7_linear_1385_13088" x1="46.8748" y1="165.538" x2="5.17258" y2="123.794" gradientUnits="userSpaceOnUse">
<stop stop-color="white"/>
<stop offset="0.3737" stop-color="#E5E5EE"/>
<stop offset="0.7672" stop-color="#CDCDDE"/>
<stop offset="1" stop-color="#C4C5D8"/>
</linearGradient>
<linearGradient id="paint8_linear_1385_13088" x1="34.8842" y1="166.55" x2="-1.33518" y2="130.295" gradientUnits="userSpaceOnUse">
<stop stop-color="white"/>
<stop offset="0.3737" stop-color="#E5E5EE"/>
<stop offset="0.7672" stop-color="#CDCDDE"/>
<stop offset="1" stop-color="#C4C5D8"/>
</linearGradient>
<linearGradient id="paint9_linear_1385_13088" x1="52.003" y1="128.963" x2="0.000277078" y2="128.963" gradientUnits="userSpaceOnUse">
<stop stop-color="white"/>
<stop offset="0.3737" stop-color="#E5E5EE"/>
<stop offset="0.7672" stop-color="#CDCDDE"/>
<stop offset="1" stop-color="#C4C5D8"/>
</linearGradient>
<linearGradient id="paint10_linear_1385_13088" x1="39.2411" y1="142.19" x2="12.7884" y2="115.711" gradientUnits="userSpaceOnUse">
<stop stop-color="white"/>
<stop offset="0.3737" stop-color="#E5E5EE"/>
<stop offset="0.7672" stop-color="#CDCDDE"/>
<stop offset="1" stop-color="#C4C5D8"/>
</linearGradient>
<linearGradient id="paint11_linear_1385_13088" x1="37.5495" y1="151.08" x2="37.5495" y2="121.75" gradientUnits="userSpaceOnUse">
<stop offset="0.1441" stop-color="#8083BF"/>
<stop offset="0.422" stop-color="#5A5991"/>
<stop offset="0.6808" stop-color="#3A3D73"/>
<stop offset="0.8817" stop-color="#263064"/>
<stop offset="1" stop-color="#1F2C5F"/>
</linearGradient>
<linearGradient id="paint12_linear_1385_13088" x1="28.4509" y1="157.116" x2="28.4509" y2="123.319" gradientUnits="userSpaceOnUse">
<stop offset="0.1441" stop-color="#8083BF"/>
<stop offset="0.422" stop-color="#5A5991"/>
<stop offset="0.6808" stop-color="#3A3D73"/>
<stop offset="0.8817" stop-color="#263064"/>
<stop offset="1" stop-color="#1F2C5F"/>
</linearGradient>
<linearGradient id="paint13_linear_1385_13088" x1="227.025" y1="270.758" x2="288.648" y2="270.758" gradientUnits="userSpaceOnUse">
<stop stop-color="white"/>
<stop offset="0.3737" stop-color="#E5E5EE"/>
<stop offset="0.7672" stop-color="#CDCDDE"/>
<stop offset="1" stop-color="#C4C5D8"/>
</linearGradient>
<linearGradient id="paint14_linear_1385_13088" x1="257.837" y1="255.64" x2="257.837" y2="220.097" gradientUnits="userSpaceOnUse">
<stop stop-color="white"/>
<stop offset="0.3737" stop-color="#E5E5EE"/>
<stop offset="0.7672" stop-color="#CDCDDE"/>
<stop offset="1" stop-color="#C4C5D8"/>
</linearGradient>
<linearGradient id="paint15_linear_1385_13088" x1="257.835" y1="254.991" x2="257.835" y2="220.748" gradientUnits="userSpaceOnUse">
<stop stop-color="white"/>
<stop offset="0.3737" stop-color="#E5E5EE"/>
<stop offset="0.7672" stop-color="#CDCDDE"/>
<stop offset="1" stop-color="#C4C5D8"/>
</linearGradient>
<linearGradient id="paint16_linear_1385_13088" x1="273.243" y1="282.463" x2="273.243" y2="237.869" gradientUnits="userSpaceOnUse">
<stop stop-color="white"/>
<stop offset="0.3737" stop-color="#E5E5EE"/>
<stop offset="0.7672" stop-color="#CDCDDE"/>
<stop offset="1" stop-color="#C4C5D8"/>
</linearGradient>
<linearGradient id="paint17_linear_1385_13088" x1="232.138" y1="270.448" x2="252.38" y2="250.186" gradientUnits="userSpaceOnUse">
<stop stop-color="white"/>
<stop offset="0.3737" stop-color="#E5E5EE"/>
<stop offset="0.7672" stop-color="#CDCDDE"/>
<stop offset="1" stop-color="#C4C5D8"/>
</linearGradient>
<linearGradient id="paint18_linear_1385_13088" x1="254.014" y1="141.088" x2="288.989" y2="141.088" gradientUnits="userSpaceOnUse">
<stop stop-color="white"/>
<stop offset="0.3737" stop-color="#E5E5EE"/>
<stop offset="0.7672" stop-color="#CDCDDE"/>
<stop offset="1" stop-color="#C4C5D8"/>
</linearGradient>
<linearGradient id="paint19_linear_1385_13088" x1="271.502" y1="132.508" x2="271.502" y2="112.335" gradientUnits="userSpaceOnUse">
<stop stop-color="white"/>
<stop offset="0.3737" stop-color="#E5E5EE"/>
<stop offset="0.7672" stop-color="#CDCDDE"/>
<stop offset="1" stop-color="#C4C5D8"/>
</linearGradient>
<linearGradient id="paint20_linear_1385_13088" x1="271.502" y1="132.139" x2="271.502" y2="112.704" gradientUnits="userSpaceOnUse">
<stop stop-color="white"/>
<stop offset="0.3737" stop-color="#E5E5EE"/>
<stop offset="0.7672" stop-color="#CDCDDE"/>
<stop offset="1" stop-color="#C4C5D8"/>
</linearGradient>
<linearGradient id="paint21_linear_1385_13088" x1="280.246" y1="147.731" x2="280.246" y2="122.421" gradientUnits="userSpaceOnUse">
<stop stop-color="white"/>
<stop offset="0.3737" stop-color="#E5E5EE"/>
<stop offset="0.7672" stop-color="#CDCDDE"/>
<stop offset="1" stop-color="#C4C5D8"/>
</linearGradient>
<linearGradient id="paint22_linear_1385_13088" x1="256.916" y1="140.912" x2="268.405" y2="129.412" gradientUnits="userSpaceOnUse">
<stop stop-color="white"/>
<stop offset="0.3737" stop-color="#E5E5EE"/>
<stop offset="0.7672" stop-color="#CDCDDE"/>
<stop offset="1" stop-color="#C4C5D8"/>
</linearGradient>
<linearGradient id="paint23_linear_1385_13088" x1="61.3409" y1="67.0802" x2="79.6807" y2="67.0802" gradientUnits="userSpaceOnUse">
<stop stop-color="white"/>
<stop offset="0.3737" stop-color="#E5E5EE"/>
<stop offset="0.7672" stop-color="#CDCDDE"/>
<stop offset="1" stop-color="#C4C5D8"/>
</linearGradient>
<linearGradient id="paint24_linear_1385_13088" x1="70.5107" y1="62.581" x2="70.5107" y2="52.003" gradientUnits="userSpaceOnUse">
<stop stop-color="white"/>
<stop offset="0.3737" stop-color="#E5E5EE"/>
<stop offset="0.7672" stop-color="#CDCDDE"/>
<stop offset="1" stop-color="#C4C5D8"/>
</linearGradient>
<linearGradient id="paint25_linear_1385_13088" x1="70.5104" y1="62.3874" x2="70.5104" y2="52.1963" gradientUnits="userSpaceOnUse">
<stop stop-color="white"/>
<stop offset="0.3737" stop-color="#E5E5EE"/>
<stop offset="0.7672" stop-color="#CDCDDE"/>
<stop offset="1" stop-color="#C4C5D8"/>
</linearGradient>
<linearGradient id="paint26_linear_1385_13088" x1="75.0958" y1="70.5639" x2="75.0958" y2="57.2921" gradientUnits="userSpaceOnUse">
<stop stop-color="white"/>
<stop offset="0.3737" stop-color="#E5E5EE"/>
<stop offset="0.7672" stop-color="#CDCDDE"/>
<stop offset="1" stop-color="#C4C5D8"/>
</linearGradient>
<linearGradient id="paint27_linear_1385_13088" x1="62.8626" y1="66.9882" x2="68.8867" y2="60.958" gradientUnits="userSpaceOnUse">
<stop stop-color="white"/>
<stop offset="0.3737" stop-color="#E5E5EE"/>
<stop offset="0.7672" stop-color="#CDCDDE"/>
<stop offset="1" stop-color="#C4C5D8"/>
</linearGradient>
<linearGradient id="paint28_linear_1385_13088" x1="252.005" y1="14.0556" x2="264.663" y2="14.0556" gradientUnits="userSpaceOnUse">
<stop stop-color="white"/>
<stop offset="0.3737" stop-color="#E5E5EE"/>
<stop offset="0.7672" stop-color="#CDCDDE"/>
<stop offset="1" stop-color="#C4C5D8"/>
</linearGradient>
<linearGradient id="paint29_linear_1385_13088" x1="258.334" y1="10.9502" x2="258.334" y2="3.64957" gradientUnits="userSpaceOnUse">
<stop stop-color="white"/>
<stop offset="0.3737" stop-color="#E5E5EE"/>
<stop offset="0.7672" stop-color="#CDCDDE"/>
<stop offset="1" stop-color="#C4C5D8"/>
</linearGradient>
<linearGradient id="paint30_linear_1385_13088" x1="258.334" y1="10.8166" x2="258.334" y2="3.78296" gradientUnits="userSpaceOnUse">
<stop stop-color="white"/>
<stop offset="0.3737" stop-color="#E5E5EE"/>
<stop offset="0.7672" stop-color="#CDCDDE"/>
<stop offset="1" stop-color="#C4C5D8"/>
</linearGradient>
<linearGradient id="paint31_linear_1385_13088" x1="261.499" y1="16.4597" x2="261.499" y2="7.29979" gradientUnits="userSpaceOnUse">
<stop stop-color="white"/>
<stop offset="0.3737" stop-color="#E5E5EE"/>
<stop offset="0.7672" stop-color="#CDCDDE"/>
<stop offset="1" stop-color="#C4C5D8"/>
</linearGradient>
<linearGradient id="paint32_linear_1385_13088" x1="253.055" y1="13.9918" x2="257.213" y2="9.82992" gradientUnits="userSpaceOnUse">
<stop stop-color="white"/>
<stop offset="0.3737" stop-color="#E5E5EE"/>
<stop offset="0.7672" stop-color="#CDCDDE"/>
<stop offset="1" stop-color="#C4C5D8"/>
</linearGradient>
<clipPath id="clip0_1385_13088">
<rect width="320" height="390" fill="white"/>
</clipPath>
</defs>
</svg>
