<svg width="328" height="266" viewBox="0 0 328 266" fill="none" xmlns="http://www.w3.org/2000/svg">
<path fill-rule="evenodd" clip-rule="evenodd" d="M295.747 143.568C315.908 128.606 327.831 110.091 327.831 90.0462C327.831 40.3151 254.443 0 163.915 0C73.3874 0 0 40.3151 0 90.0462C0 110.091 11.9222 128.606 32.0837 143.568C61.9434 121.409 109.875 107.043 163.915 107.043C217.955 107.043 265.887 121.409 295.747 143.568Z" fill="#FFF5F0" fill-opacity="0.2"/>
<path fill-rule="evenodd" clip-rule="evenodd" d="M270.066 158.662C303.703 142.943 325.636 119.891 327.675 94.0059L323.193 218.446C314.961 237.036 296.227 253.368 270.637 265.437H270.066V158.662ZM327.83 89.6844L327.829 89.7144L327.829 89.6844H327.83Z" fill="url(#paint0_linear_1385_12743)"/>
<path fill-rule="evenodd" clip-rule="evenodd" d="M57.7642 159.024C24.6662 143.556 2.90096 120.99 0.269093 95.6106L6.40392 222.459C15.372 239.535 33.2927 254.526 57.1936 265.799L8.5 265.799H57.7642V159.024ZM-2.28882e-05 90.0462L0.00118256 90.0711L0.00135422 90.0462H-2.28882e-05Z" fill="url(#paint1_linear_1385_12743)"/>
<path d="M116.954 31.8819H116.508V76.1286H116.954V31.8819Z" fill="url(#paint2_linear_1385_12743)"/>
<path d="M110.213 32.3862H109.767V76.6329H110.213V32.3862Z" fill="url(#paint3_linear_1385_12743)"/>
<path d="M103.473 33.5835H103.027V77.8301H103.473V33.5835Z" fill="url(#paint4_linear_1385_12743)"/>
<path d="M96.7724 36.0405H96.3259V80.2872H96.7724V36.0405Z" fill="url(#paint5_linear_1385_12743)"/>
<path d="M90.0337 37.4266H89.5872V81.6733H90.0337V37.4266Z" fill="url(#paint6_linear_1385_12743)"/>
<path d="M83.2941 39.5061H82.8477V83.7528H83.2941V39.5061Z" fill="url(#paint7_linear_1385_12743)"/>
<path d="M76.6862 41.585H76.2397V85.8317H76.6862V41.585Z" fill="url(#paint8_linear_1385_12743)"/>
<path d="M69.7553 43.6644H69.3088V87.9111H69.7553V43.6644Z" fill="url(#paint9_linear_1385_12743)"/>
<path d="M63.1141 46.4368H62.6677V90.6835H63.1141V46.4368Z" fill="url(#paint10_linear_1385_12743)"/>
<path d="M56.5865 48.516H56.1401V92.7628H56.5865V48.516Z" fill="url(#paint11_linear_1385_12743)"/>
<path d="M49.6556 52.6745H49.2092V96.9213H49.6556V52.6745Z" fill="url(#paint12_linear_1385_12743)"/>
<path d="M43.4179 56.8331H42.9714V100.498L43.4179 100.151V56.8331Z" fill="url(#paint13_linear_1385_12743)"/>
<path d="M36.4872 60.2984H36.0408V103.963L36.4872 103.616V60.2984Z" fill="url(#paint14_linear_1385_12743)"/>
<path d="M29.556 64.457H29.1096V108.122L29.556 107.775V64.457Z" fill="url(#paint15_linear_1385_12743)"/>
<path d="M22.6254 70.6949H22.179V114.359L22.6254 114.013V70.6949Z" fill="url(#paint16_linear_1385_12743)"/>
<path fill-rule="evenodd" clip-rule="evenodd" d="M114.947 76.5861L118.474 76.1606V40.199L114.947 41.5353L114.947 76.5861Z" fill="#F1BBA3"/>
<path fill-rule="evenodd" clip-rule="evenodd" d="M108.122 77.8741L111.776 77.1046V47.9195L108.249 49.2855L108.122 77.8741Z" fill="#F1BBA3"/>
<path fill-rule="evenodd" clip-rule="evenodd" d="M101.51 79.1034L105.036 78.383V57.5506L101.51 58.8869V79.1034Z" fill="#F1BBA3"/>
<path fill-rule="evenodd" clip-rule="evenodd" d="M88.0696 82.4775L91.5964 81.4379V64.21L88.0696 65.5463V82.4775Z" fill="#F1BBA3"/>
<path fill-rule="evenodd" clip-rule="evenodd" d="M81.3308 84.2102L84.8576 83.1706V47.8231L81.3308 49.1594V84.2102Z" fill="#F1BBA3"/>
<path fill-rule="evenodd" clip-rule="evenodd" d="M74.5881 86.2892L78.115 85.2496V58.2192L74.5881 59.5852V86.2892Z" fill="#F1BBA3"/>
<path fill-rule="evenodd" clip-rule="evenodd" d="M61.1516 91.4875L64.6784 90.1013V63.5915L61.1516 64.9575V91.4875Z" fill="#F1BBA3"/>
<path fill-rule="evenodd" clip-rule="evenodd" d="M54.4088 94.2599L57.9355 92.8738V61.5731L54.4087 62.9391L54.4088 94.2599Z" fill="#F1BBA3"/>
<path fill-rule="evenodd" clip-rule="evenodd" d="M47.8227 97.7253L51.1928 95.9926V58.5249L47.666 59.8612L47.8227 97.7253Z" fill="#F1BBA3"/>
<path fill-rule="evenodd" clip-rule="evenodd" d="M34.2295 105.349L37.7563 103.27V84.6693L34.2295 86.0353L34.2295 105.349Z" fill="#F1BBA3"/>
<path fill-rule="evenodd" clip-rule="evenodd" d="M27.4873 109.895L31.0141 107.47V72.7742L27.4873 74.1105V109.895Z" fill="#F1BBA3"/>
<path fill-rule="evenodd" clip-rule="evenodd" d="M20.7925 116.092L24.3193 112.973V86.564L20.7925 88.6512L20.7925 116.092Z" fill="#F1BBA3"/>
<path d="M72.7743 89.0618L72.8839 89.3905L72.7743 89.0618ZM22.4406 117.625C22.5715 117.485 22.5643 117.266 22.4246 117.135C22.2849 117.004 22.0656 117.012 21.9348 117.151L22.4406 117.625ZM23.4542 115.631C23.3153 115.762 23.3094 115.982 23.441 116.121C23.5726 116.26 23.792 116.266 23.9309 116.134L23.4542 115.631ZM25.4928 114.715C25.6368 114.589 25.6514 114.37 25.5254 114.226C25.3993 114.082 25.1804 114.067 25.0364 114.193L25.4928 114.715ZM26.663 112.815C26.5152 112.936 26.4938 113.155 26.6154 113.302C26.7369 113.45 26.9553 113.472 27.1031 113.35L26.663 112.815ZM28.7598 112.025C28.9107 111.907 28.9377 111.689 28.82 111.538C28.7024 111.387 28.4846 111.36 28.3337 111.478L28.7598 112.025ZM30.0262 110.19C29.8726 110.304 29.8407 110.521 29.955 110.675C30.0692 110.828 30.2863 110.86 30.4398 110.746L30.0262 110.19ZM32.1571 109.496C32.313 109.385 32.3493 109.169 32.2383 109.013C32.1272 108.857 31.9108 108.821 31.755 108.932L32.1571 109.496ZM33.5004 107.713C33.3425 107.822 33.302 108.037 33.4101 108.195C33.5182 108.353 33.7338 108.394 33.8918 108.285L33.5004 107.713ZM35.6484 107.106C35.8083 107.001 35.8525 106.786 35.7473 106.626C35.642 106.467 35.4271 106.422 35.2673 106.528L35.6484 107.106ZM37.0564 105.371C36.8948 105.474 36.8469 105.688 36.9495 105.849C37.052 106.011 37.2662 106.059 37.4278 105.956L37.0564 105.371ZM39.2268 104.835C39.3901 104.735 39.4413 104.521 39.3414 104.358C39.2414 104.195 39.0281 104.144 38.8649 104.244L39.2268 104.835ZM40.6907 103.145C40.526 103.242 40.4715 103.455 40.5689 103.619C40.6663 103.784 40.8789 103.839 41.0436 103.741L40.6907 103.145ZM42.8765 102.676C43.0426 102.581 43.1004 102.369 43.0054 102.203C42.9104 102.037 42.6987 101.979 42.5326 102.074L42.8765 102.676ZM44.3893 101.03C44.2217 101.123 44.161 101.334 44.2535 101.501C44.3461 101.669 44.5569 101.73 44.7245 101.637L44.3893 101.03ZM46.5867 100.625C46.7555 100.535 46.8193 100.325 46.7291 100.156C46.6389 99.9874 46.4289 99.9237 46.2601 100.014L46.5867 100.625ZM48.1445 99.0237C47.9745 99.1115 47.9079 99.3206 47.9958 99.4906C48.0836 99.6607 48.2927 99.7273 48.4627 99.6394L48.1445 99.0237ZM50.352 98.6792C50.5232 98.5936 50.5926 98.3855 50.507 98.2143C50.4215 98.0431 50.2133 97.9737 50.0421 98.0592L50.352 98.6792ZM51.9526 97.1201C51.7803 97.2034 51.7082 97.4106 51.7915 97.5829C51.8748 97.7552 52.082 97.8274 52.2543 97.7441L51.9526 97.1201ZM54.1694 96.8336C54.3427 96.7525 54.4176 96.5463 54.3365 96.3729C54.2555 96.1995 54.0492 96.1247 53.8758 96.2057L54.1694 96.8336ZM55.8116 95.3158C55.6372 95.3947 55.5597 95.6 55.6385 95.7744C55.7173 95.9488 55.9226 96.0262 56.097 95.9474L55.8116 95.3158ZM58.0372 95.0852C58.2126 95.0086 58.2926 94.8043 58.216 94.6289C58.1394 94.4535 57.9351 94.3734 57.7597 94.4501L58.0372 95.0852ZM59.7173 93.6093C59.541 93.6837 59.4584 93.887 59.5328 94.0633C59.6072 94.2397 59.8105 94.3223 59.9868 94.2478L59.7173 93.6093ZM61.9418 93.4367C62.119 93.3644 62.2041 93.1622 62.1319 92.9849C62.0596 92.8077 61.8573 92.7226 61.6801 92.7949L61.9418 93.4367ZM63.6546 92.0038C63.4765 92.0739 63.389 92.2751 63.4591 92.4531C63.5292 92.6312 63.7304 92.7188 63.9085 92.6487L63.6546 92.0038ZM65.8868 91.8836C66.0658 91.8156 66.1557 91.6155 66.0877 91.4366C66.0198 91.2576 65.8197 91.1677 65.6407 91.2357L65.8868 91.8836ZM67.6386 90.4904C67.4588 90.5563 67.3665 90.7553 67.4323 90.935C67.4981 91.1147 67.6972 91.2071 67.8769 91.1412L67.6386 90.4904ZM69.8723 90.4238C70.0528 90.3601 70.1475 90.1621 70.0838 89.9816C70.0201 89.8012 69.8222 89.7065 69.6417 89.7702L69.8723 90.4238ZM71.6498 89.0746C71.4685 89.1362 71.3716 89.3331 71.4332 89.5143C71.4947 89.6955 71.6916 89.7925 71.8728 89.7309L71.6498 89.0746ZM73.8817 89.0605C74.0636 89.0009 74.1627 88.8051 74.103 88.6232C74.0433 88.4414 73.8475 88.3423 73.6657 88.402L73.8817 89.0605ZM75.6736 87.7533C75.4912 87.8114 75.3904 88.0062 75.4484 88.1886C75.5064 88.371 75.7013 88.4718 75.8837 88.4138L75.6736 87.7533ZM77.8913 87.7847C78.0742 87.7282 78.1767 87.5342 78.1202 87.3513C78.0638 87.1685 77.8698 87.066 77.6869 87.1224L77.8913 87.7847ZM79.7052 86.5084C79.5219 86.5634 79.4178 86.7566 79.4728 86.9399C79.5277 87.1232 79.7209 87.2273 79.9042 87.1723L79.7052 86.5084ZM81.922 86.5761C82.1057 86.5225 82.2113 86.3302 82.1578 86.1464C82.1042 85.9627 81.9119 85.8571 81.7281 85.9106L81.922 86.5761ZM83.7553 85.3284C83.5711 85.3806 83.4641 85.5721 83.5163 85.7563C83.5684 85.9404 83.76 86.0474 83.9441 85.9953L83.7553 85.3284ZM85.9703 85.4296C86.1548 85.3788 86.2632 85.188 86.2124 85.0035C86.1616 84.819 85.9708 84.7106 85.7863 84.7614L85.9703 85.4296ZM87.8209 84.209C87.636 84.2585 87.5263 84.4485 87.5758 84.6334C87.6253 84.8183 87.8152 84.928 88.0001 84.8786L87.8209 84.209ZM90.0358 84.3413C90.221 84.2931 90.3321 84.1039 90.2839 83.9187C90.2357 83.7335 90.0465 83.6224 89.8613 83.6706L90.0358 84.3413ZM91.9055 83.1463C91.7199 83.1932 91.6075 83.3816 91.6544 83.5672C91.7013 83.7527 91.8898 83.8651 92.0753 83.8182L91.9055 83.1463ZM94.1183 83.3092C94.3042 83.2636 94.4179 83.0759 94.3723 82.8901C94.3266 82.7042 94.139 82.5905 93.9531 82.6361L94.1183 83.3092ZM96.0036 82.1404C95.8174 82.1847 95.7024 82.3716 95.7468 82.5577C95.7911 82.7439 95.978 82.8589 96.1641 82.8146L96.0036 82.1404ZM98.2118 82.3348C98.3983 82.2918 98.5146 82.1057 98.4716 81.9192C98.4286 81.7327 98.2426 81.6164 98.0561 81.6594L98.2118 82.3348ZM100.109 81.1939C99.9222 81.2356 99.8045 81.4208 99.8461 81.6076C99.8877 81.7944 100.073 81.9121 100.26 81.8704L100.109 81.1939ZM102.32 81.4196C102.507 81.3794 102.627 81.1952 102.586 81.0081C102.546 80.8209 102.362 80.7018 102.175 80.742L102.32 81.4196ZM104.24 80.3075C104.053 80.3461 103.932 80.5294 103.971 80.7168C104.009 80.9043 104.192 81.025 104.38 80.9864L104.24 80.3075ZM106.437 80.5726C106.625 80.5357 106.747 80.3536 106.71 80.1658C106.674 79.978 106.491 79.8556 106.304 79.8925L106.437 80.5726ZM108.383 79.4959C108.195 79.5307 108.07 79.7115 108.105 79.8997C108.14 80.0879 108.321 80.2122 108.509 80.1774L108.383 79.4959ZM110.577 79.8084C110.766 79.7761 110.893 79.597 110.86 79.4084C110.828 79.2197 110.649 79.093 110.46 79.1253L110.577 79.8084ZM112.543 78.7868C112.354 78.8156 112.224 78.9924 112.253 79.1816C112.282 79.3708 112.459 79.5008 112.648 79.4719L112.543 78.7868ZM114.73 79.182C114.92 79.1586 115.055 78.9857 115.032 78.7958C115.008 78.6058 114.835 78.4707 114.645 78.4941L114.73 79.182ZM116.77 78.2967C116.579 78.3056 116.431 78.4679 116.44 78.659C116.449 78.8502 116.611 78.9979 116.802 78.989L116.77 78.2967ZM21.7497 118.396C21.9536 118.157 22.1838 117.899 22.4406 117.625L21.9348 117.151C21.6715 117.432 21.4338 117.698 21.2219 117.947L21.7497 118.396ZM23.9309 116.134C24.4027 115.687 24.9234 115.213 25.4928 114.715L25.0364 114.193C24.4606 114.697 23.9331 115.177 23.4542 115.631L23.9309 116.134ZM27.1031 113.35C27.6248 112.921 28.177 112.479 28.7598 112.025L28.3337 111.478C27.7463 111.936 27.1894 112.382 26.663 112.815L27.1031 113.35ZM30.4398 110.746C30.9898 110.337 31.5622 109.92 32.1571 109.496L31.755 108.932C31.1563 109.358 30.58 109.778 30.0262 110.19L30.4398 110.746ZM33.8918 108.285C34.4597 107.897 35.0452 107.504 35.6484 107.106L35.2673 106.528C34.6607 106.927 34.0717 107.323 33.5004 107.713L33.8918 108.285ZM37.4278 105.956C38.0127 105.585 38.6124 105.211 39.2268 104.835L38.8649 104.244C38.2472 104.622 37.6444 104.998 37.0564 105.371L37.4278 105.956ZM41.0436 103.741C41.6418 103.387 42.2528 103.032 42.8765 102.676L42.5326 102.074C41.9059 102.432 41.292 102.789 40.6907 103.145L41.0436 103.741ZM44.7245 101.637C45.3341 101.3 45.9548 100.963 46.5867 100.625L46.2601 100.014C45.6253 100.353 45.0017 100.692 44.3893 101.03L44.7245 101.637ZM48.4627 99.6394C49.0825 99.3191 49.7123 98.9989 50.352 98.6792L50.0421 98.0592C49.3996 98.3804 48.7671 98.702 48.1445 99.0237L48.4627 99.6394ZM52.2543 97.7441C52.8836 97.4398 53.522 97.1362 54.1694 96.8336L53.8758 96.2057C53.2257 96.5096 52.5847 96.8145 51.9526 97.1201L52.2543 97.7441ZM56.097 95.9474C56.7355 95.6588 57.3822 95.3713 58.0372 95.0852L57.7597 94.4501C57.102 94.7374 56.4527 95.0261 55.8116 95.3158L56.097 95.9474ZM59.9868 94.2478C60.6309 93.9759 61.2826 93.7055 61.9418 93.4367L61.6801 92.7949C61.0183 93.0648 60.364 93.3363 59.7173 93.6093L59.9868 94.2478ZM63.9085 92.6487C64.5609 92.3918 65.2203 92.1367 65.8868 91.8836L65.6407 91.2357C64.9716 91.4898 64.3096 91.7459 63.6546 92.0038L63.9085 92.6487ZM67.8769 91.1412C68.5355 90.9 69.2006 90.6608 69.8723 90.4238L69.6417 89.7702C68.9674 90.0082 68.2997 90.2483 67.6386 90.4904L67.8769 91.1412ZM71.8728 89.7309C72.2083 89.6169 72.5453 89.5034 72.8839 89.3905L72.6647 88.733C72.3248 88.8463 71.9865 88.9602 71.6498 89.0746L71.8728 89.7309ZM72.8839 89.3905C73.216 89.2798 73.5486 89.1698 73.8817 89.0605L73.6657 88.402C73.3315 88.5116 72.9979 88.622 72.6647 88.733L72.8839 89.3905ZM75.8837 88.4138C76.552 88.2012 77.2215 87.9915 77.8913 87.7847L77.6869 87.1224C77.0152 87.3298 76.3438 87.5401 75.6736 87.7533L75.8837 88.4138ZM79.9042 87.1723C80.5775 86.9705 81.2503 86.7717 81.922 86.5761L81.7281 85.9106C81.0548 86.1068 80.3802 86.3061 79.7052 86.5084L79.9042 87.1723ZM83.9441 85.9953C84.6218 85.8034 85.2975 85.6148 85.9703 85.4296L85.7863 84.7614C85.1119 84.947 84.4347 85.1361 83.7553 85.3284L83.9441 85.9953ZM88.0001 84.8786C88.6829 84.6958 89.3617 84.5167 90.0358 84.3413L89.8613 83.6706C89.1857 83.8463 88.5053 84.0259 87.8209 84.209L88.0001 84.8786ZM92.0753 83.8182C92.7628 83.6444 93.4441 83.4747 94.1183 83.3092L93.9531 82.6361C93.2774 82.802 92.5945 82.9721 91.9055 83.1463L92.0753 83.8182ZM96.1641 82.8146C96.856 82.6499 97.539 82.4899 98.2118 82.3348L98.0561 81.6594C97.3817 81.8149 96.6971 81.9753 96.0036 82.1404L96.1641 82.8146ZM100.26 81.8704C100.96 81.7144 101.647 81.564 102.32 81.4196L102.175 80.742C101.5 80.8868 100.811 81.0375 100.109 81.1939L100.26 81.8704ZM104.38 80.9864C105.086 80.8411 105.772 80.7031 106.437 80.5726L106.304 79.8925C105.636 80.0234 104.948 80.1618 104.24 80.3075L104.38 80.9864ZM108.509 80.1774C109.232 80.0437 109.922 79.9206 110.577 79.8084L110.46 79.1253C109.802 79.2381 109.108 79.3617 108.383 79.4959L108.509 80.1774ZM112.648 79.4719C113.414 79.3549 114.11 79.2581 114.73 79.182L114.645 78.4941C114.018 78.5711 113.315 78.6689 112.543 78.7868L112.648 79.4719ZM116.802 78.989C117.264 78.9674 117.583 78.9765 117.768 79.0073L117.882 78.3237C117.62 78.28 117.239 78.2747 116.77 78.2967L116.802 78.989Z" fill="#FFC1A6"/>
<g opacity="0.5">
<path d="M279.446 90.2712L270.315 84.5203L270.661 83.8645L279.814 89.6154L279.446 90.2712Z" fill="white"/>
<path opacity="0.29" d="M277.069 78.5925C276.862 78.5925 276.677 78.542 276.493 78.4159C273.242 76.3476 270.682 71.076 270.682 66.3844C270.682 63.7108 271.558 61.6172 273.08 60.6588C274.418 59.8264 276.032 59.9273 277.669 60.9614C278.222 61.3146 278.43 62.0965 278.107 62.7271C277.784 63.3324 277.069 63.5594 276.493 63.2063C275.87 62.8027 274.971 62.4496 274.256 62.9036C273.495 63.3829 273.034 64.6945 273.034 66.4097C273.034 70.1427 275.155 74.6324 277.669 76.2215C278.222 76.5746 278.43 77.3565 278.107 77.9871C277.876 78.3655 277.484 78.5925 277.069 78.5925Z" fill="white"/>
<path fill-rule="evenodd" clip-rule="evenodd" d="M278.66 63.0806C278.66 64.3417 277.946 64.9219 277.092 64.3922C276.216 63.8373 275.525 62.3743 275.525 61.1132C275.525 59.852 276.239 59.2719 277.092 59.8016C277.946 60.3312 278.66 61.7942 278.66 63.0806Z" fill="white"/>
<path d="M279.629 87.8245C279.49 87.8245 279.329 87.774 279.191 87.6983L277.531 86.6642C277.116 86.3867 276.954 85.8066 277.208 85.3526C277.461 84.8985 277.992 84.722 278.407 84.9994L280.067 86.0336C280.482 86.3111 280.643 86.8912 280.39 87.3452C280.228 87.6479 279.929 87.8245 279.629 87.8245Z" fill="white"/>
<path d="M275.917 85.4794C275.779 85.4794 275.617 85.4289 275.479 85.3533L274.488 84.7227C274.073 84.4452 273.911 83.8651 274.165 83.4111C274.418 82.9571 274.949 82.7805 275.364 83.058L276.355 83.6885C276.77 83.966 276.932 84.5461 276.678 85.0002C276.517 85.3028 276.217 85.4794 275.917 85.4794Z" fill="white"/>
<path d="M272.874 83.5624C272.736 83.5624 272.574 83.512 272.436 83.4363L270.73 82.3517C270.315 82.0743 270.153 81.4941 270.407 81.0401C270.661 80.5861 271.191 80.4095 271.606 80.687L273.312 81.7716C273.727 82.049 273.889 82.6292 273.635 83.0832C273.474 83.3859 273.174 83.5624 272.874 83.5624Z" fill="white"/>
<path d="M296.77 103.183L289.352 97.4319L289.633 96.7509L297.051 102.502L296.77 103.183Z" fill="white"/>
<path opacity="0.29" d="M296.547 90.647C296.266 90.647 295.985 90.4705 295.797 90.1426C295.479 89.5877 295.535 88.7805 295.966 88.3265C296.509 87.7716 296.809 86.5357 296.809 84.9466C296.809 81.2136 295.086 76.7238 293.044 75.1348C292.538 74.7312 291.808 74.3781 291.227 74.8321C290.609 75.3113 290.234 76.6229 290.234 78.3381C290.234 82.0711 291.958 86.5609 293.999 88.15C294.449 88.5031 294.617 89.285 294.355 89.9156C294.093 90.5209 293.512 90.7479 293.044 90.3948C290.403 88.3265 288.324 83.0549 288.324 78.3633C288.324 75.6897 289.036 73.5961 290.272 72.6376C291.358 71.8053 292.669 71.9062 293.999 72.9403C296.64 75.0086 298.719 80.2803 298.719 84.9718C298.719 87.368 298.157 89.285 297.146 90.3696C296.959 90.5714 296.753 90.647 296.547 90.647Z" fill="white"/>
<path fill-rule="evenodd" clip-rule="evenodd" d="M297.82 90.3694C297.82 91.6306 297.239 92.2107 296.546 91.681C295.834 91.1261 295.273 89.6631 295.273 88.402C295.273 87.1408 295.853 86.5607 296.546 87.0904C297.258 87.6201 297.82 89.083 297.82 90.3694Z" fill="white"/>
<path d="M297.033 100.938C296.92 100.938 296.789 100.888 296.677 100.812L295.328 99.7778C294.991 99.5003 294.86 98.9202 295.066 98.4662C295.272 98.0121 295.703 97.8356 296.04 98.113L297.389 99.1472C297.726 99.4246 297.857 100.005 297.651 100.459C297.52 100.761 297.276 100.938 297.033 100.938Z" fill="white"/>
<path d="M294.018 98.5925C293.906 98.5925 293.775 98.5421 293.662 98.4664L292.857 97.8358C292.52 97.5584 292.389 96.9782 292.595 96.5242C292.801 96.0702 293.232 95.8937 293.569 96.1711L294.374 96.8017C294.711 97.0791 294.842 97.6593 294.636 98.1133C294.505 98.416 294.262 98.5925 294.018 98.5925Z" fill="white"/>
<path d="M291.546 96.6754C291.433 96.6754 291.302 96.625 291.19 96.5493L289.804 95.4647C289.466 95.1872 289.335 94.6071 289.541 94.1531C289.747 93.6991 290.178 93.5225 290.515 93.8L291.901 94.8846C292.239 95.162 292.37 95.7422 292.164 96.1962C292.033 96.4989 291.789 96.6754 291.546 96.6754Z" fill="white"/>
<path d="M311.797 116.697L306.705 111.334L306.897 110.723L311.99 116.085L311.797 116.697Z" fill="white"/>
<g opacity="0.8">
<path opacity="0.29" d="M309.906 105.262C309.79 105.262 309.687 105.215 309.585 105.098C307.771 103.169 306.344 98.2539 306.344 93.8796C306.344 91.3867 306.833 89.4347 307.681 88.541C308.427 87.7649 309.327 87.859 310.24 88.8233C311.398 90.0462 312.439 92.5626 313.031 95.5259C313.159 96.1608 312.979 96.8429 312.632 97.0545C312.298 97.2897 311.912 96.9605 311.796 96.3255C311.32 93.9031 310.472 91.81 309.585 90.8928C309.237 90.5165 308.736 90.1873 308.337 90.6106C307.913 91.0575 307.656 92.2804 307.656 93.8796C307.656 97.3603 308.839 101.546 310.24 103.028C310.549 103.357 310.665 104.086 310.485 104.674C310.356 105.051 310.137 105.262 309.906 105.262Z" fill="white"/>
</g>
<path fill-rule="evenodd" clip-rule="evenodd" d="M313.275 96.7483C313.275 97.9242 312.877 98.4651 312.401 97.9713C311.912 97.4539 311.527 96.0898 311.527 94.9139C311.527 93.738 311.925 93.1971 312.401 93.691C312.89 94.1849 313.275 95.5724 313.275 96.7483Z" fill="white"/>
<path d="M312.041 114.598C311.964 114.598 311.874 114.551 311.797 114.481L310.871 113.517C310.64 113.258 310.55 112.717 310.691 112.294C310.832 111.87 311.128 111.706 311.36 111.964L312.286 112.929C312.517 113.187 312.607 113.728 312.466 114.152C312.376 114.434 312.208 114.598 312.041 114.598Z" fill="white"/>
<path d="M309.957 112.411C309.88 112.411 309.79 112.364 309.713 112.294L309.16 111.706C308.929 111.447 308.839 110.906 308.98 110.483C309.122 110.059 309.417 109.895 309.649 110.153L310.202 110.741C310.433 111 310.523 111.541 310.382 111.964C310.305 112.247 310.137 112.411 309.957 112.411Z" fill="white"/>
<path d="M308.274 110.624C308.196 110.624 308.106 110.577 308.029 110.506L307.078 109.495C306.846 109.236 306.756 108.696 306.898 108.272C307.039 107.849 307.335 107.684 307.566 107.943L308.518 108.954C308.749 109.213 308.839 109.754 308.698 110.177C308.608 110.459 308.441 110.624 308.274 110.624Z" fill="white"/>
</g>
<path d="M274.612 92.3504L265.482 86.5995L265.827 85.9437L274.981 91.6946L274.612 92.3504Z" fill="url(#paint17_linear_1385_12743)"/>
<path opacity="0.29" d="M272.236 80.6714C272.029 80.6714 271.844 80.621 271.66 80.4948C268.409 78.4265 265.849 73.1549 265.849 68.4634C265.849 65.7897 266.725 63.6962 268.247 62.7377C269.585 61.9053 271.199 62.0062 272.836 63.0404C273.389 63.3935 273.597 64.1754 273.274 64.806C272.951 65.4114 272.236 65.6384 271.66 65.2852C271.037 64.8817 270.138 64.5285 269.423 64.9826C268.662 65.4618 268.201 66.7734 268.201 68.4886C268.201 72.2216 270.322 76.7114 272.836 78.3004C273.389 78.6536 273.597 79.4355 273.274 80.0661C273.043 80.4444 272.651 80.6714 272.236 80.6714Z" fill="#C0C3ED"/>
<path fill-rule="evenodd" clip-rule="evenodd" d="M273.828 65.1595C273.828 66.4207 273.113 67.0008 272.26 66.4712C271.384 65.9162 270.692 64.4533 270.692 63.1921C270.692 61.931 271.407 61.3508 272.26 61.8805C273.113 62.4102 273.828 63.8732 273.828 65.1595Z" fill="url(#paint18_linear_1385_12743)"/>
<path d="M274.796 89.9036C274.658 89.9036 274.496 89.8531 274.358 89.7775L272.698 88.7433C272.283 88.4659 272.121 87.8857 272.375 87.4317C272.629 86.9777 273.159 86.8011 273.574 87.0786L275.234 88.1127C275.649 88.3902 275.811 88.9703 275.557 89.4243C275.396 89.727 275.096 89.9036 274.796 89.9036Z" fill="#C0C3ED"/>
<path d="M271.085 87.5583C270.946 87.5583 270.785 87.5078 270.647 87.4321L269.655 86.8016C269.24 86.5241 269.079 85.944 269.332 85.49C269.586 85.0359 270.116 84.8594 270.531 85.1368L271.523 85.7674C271.938 86.0449 272.099 86.625 271.845 87.079C271.684 87.3817 271.384 87.5583 271.085 87.5583Z" fill="#C0C3ED"/>
<path d="M268.041 85.6413C267.903 85.6413 267.741 85.5908 267.603 85.5152L265.897 84.4306C265.482 84.1531 265.32 83.573 265.574 83.1189C265.828 82.6649 266.358 82.4884 266.773 82.7658L268.479 83.8504C268.894 84.1279 269.056 84.708 268.802 85.162C268.641 85.4647 268.341 85.6413 268.041 85.6413Z" fill="#C0C3ED"/>
<path d="M291.937 105.262L284.519 99.5116L284.8 98.8305L292.218 104.581L291.937 105.262Z" fill="url(#paint19_linear_1385_12743)"/>
<path opacity="0.29" d="M291.714 92.7268C291.433 92.7268 291.152 92.5503 290.964 92.2224C290.646 91.6675 290.702 90.8603 291.133 90.4063C291.676 89.8514 291.976 88.6154 291.976 87.0264C291.976 83.2933 290.253 78.8036 288.211 77.2145C287.705 76.811 286.975 76.4578 286.394 76.9119C285.776 77.3911 285.401 78.7027 285.401 80.4179C285.401 84.1509 287.125 88.6407 289.166 90.2297C289.616 90.5829 289.784 91.3648 289.522 91.9954C289.26 92.6007 288.679 92.8277 288.211 92.4746C285.57 90.4063 283.491 85.1346 283.491 80.4431C283.491 77.7694 284.203 75.6759 285.439 74.7174C286.525 73.8851 287.836 73.986 289.166 75.0201C291.807 77.0884 293.886 82.3601 293.886 87.0516C293.886 89.4478 293.324 91.3648 292.313 92.4494C292.126 92.6512 291.92 92.7268 291.714 92.7268Z" fill="#C0C3ED"/>
<path fill-rule="evenodd" clip-rule="evenodd" d="M292.987 92.449C292.987 93.7102 292.406 94.2903 291.713 93.7606C291.001 93.2057 290.44 91.7427 290.44 90.4816C290.44 89.2204 291.02 88.6403 291.713 89.17C292.425 89.6997 292.987 91.1626 292.987 92.449Z" fill="url(#paint20_linear_1385_12743)"/>
<path d="M292.2 103.018C292.087 103.018 291.956 102.967 291.844 102.891L290.495 101.857C290.158 101.58 290.027 101 290.233 100.546C290.439 100.092 290.87 99.915 291.207 100.193L292.556 101.227C292.893 101.504 293.024 102.084 292.818 102.538C292.687 102.841 292.443 103.018 292.2 103.018Z" fill="#C0C3ED"/>
<path d="M289.185 100.672C289.073 100.672 288.942 100.622 288.829 100.546L288.024 99.9156C287.687 99.6382 287.556 99.0581 287.762 98.604C287.968 98.15 288.399 97.9735 288.736 98.2509L289.541 98.8815C289.878 99.159 290.009 99.7391 289.803 100.193C289.672 100.496 289.429 100.672 289.185 100.672Z" fill="#C0C3ED"/>
<path d="M286.713 98.7551C286.6 98.7551 286.469 98.7047 286.357 98.629L284.971 97.5444C284.634 97.2669 284.503 96.6868 284.709 96.2328C284.915 95.7788 285.345 95.6022 285.683 95.8797L287.069 96.9643C287.406 97.2417 287.537 97.8219 287.331 98.2759C287.2 98.5786 286.956 98.7551 286.713 98.7551Z" fill="#C0C3ED"/>
<path d="M306.964 118.776L301.872 113.414L302.064 112.803L307.156 118.165L306.964 118.776Z" fill="url(#paint21_linear_1385_12743)"/>
<g opacity="0.8">
<path opacity="0.29" d="M305.074 107.342C304.958 107.342 304.855 107.295 304.752 107.177C302.939 105.249 301.512 100.334 301.512 95.9593C301.512 93.4664 302 91.5144 302.849 90.6207C303.595 89.8446 304.495 89.9387 305.408 90.903C306.565 92.1259 307.607 94.6423 308.198 97.6056C308.327 98.2406 308.147 98.9226 307.8 99.1342C307.465 99.3694 307.079 99.0402 306.964 98.4052C306.488 95.9828 305.639 93.8897 304.752 92.9725C304.405 92.5962 303.903 92.267 303.505 92.6903C303.08 93.1372 302.823 94.3601 302.823 95.9593C302.823 99.44 304.006 103.626 305.408 105.108C305.716 105.437 305.832 106.166 305.652 106.754C305.524 107.13 305.305 107.342 305.074 107.342Z" fill="#C0C3ED"/>
</g>
<path fill-rule="evenodd" clip-rule="evenodd" d="M308.443 98.828C308.443 100.004 308.044 100.545 307.568 100.051C307.08 99.5336 306.694 98.1695 306.694 96.9936C306.694 95.8177 307.092 95.2768 307.568 95.7707C308.057 96.2646 308.443 97.6521 308.443 98.828Z" fill="url(#paint22_linear_1385_12743)"/>
<path d="M307.209 116.678C307.132 116.678 307.042 116.631 306.964 116.56L306.039 115.596C305.807 115.337 305.717 114.796 305.859 114.373C306 113.95 306.296 113.785 306.527 114.044L307.453 115.008C307.684 115.267 307.774 115.808 307.633 116.231C307.543 116.513 307.376 116.678 307.209 116.678Z" fill="#C0C3ED"/>
<path d="M305.125 114.491C305.048 114.491 304.958 114.444 304.881 114.373L304.328 113.785C304.096 113.527 304.006 112.986 304.148 112.563C304.289 112.139 304.585 111.975 304.816 112.233L305.369 112.821C305.601 113.08 305.691 113.621 305.549 114.044C305.472 114.326 305.305 114.491 305.125 114.491Z" fill="#C0C3ED"/>
<path d="M303.441 112.703C303.364 112.703 303.274 112.656 303.197 112.586L302.245 111.575C302.014 111.316 301.924 110.775 302.065 110.352C302.206 109.928 302.502 109.764 302.734 110.022L303.685 111.034C303.917 111.292 304.007 111.833 303.865 112.257C303.775 112.539 303.608 112.703 303.441 112.703Z" fill="#C0C3ED"/>
<path d="M196.837 74.1602C184.483 73.1088 163.222 72.7739 153.519 72.7739V55.7933C156.176 52.3279 163.292 45.605 170.5 46.4367C179.51 47.4763 177.084 55.1002 188.867 55.7933C200.649 56.4864 205.847 39.5058 212.778 43.6643C219.709 47.8228 214.164 57.1795 222.135 63.4173C228.511 68.4075 233.571 66.8827 235.303 65.4966V81.0911C228.488 79.2429 213.125 75.5465 196.837 74.1602Z" fill="url(#paint23_linear_1385_12743)" stroke="url(#paint24_linear_1385_12743)" stroke-width="0.693088" stroke-linecap="round" stroke-linejoin="round"/>
<path d="M234.264 60.6598C232.531 61.7074 227.472 62.8597 221.095 59.0884C213.125 54.3744 218.669 47.3033 211.739 44.1606C204.808 41.0179 199.609 53.8506 187.827 53.3268C176.044 52.803 178.47 47.0415 169.46 46.2558C162.252 45.6272 155.136 50.7079 152.479 53.3268" stroke="url(#paint25_linear_1385_12743)" stroke-width="0.693088" stroke-linecap="round" stroke-linejoin="round"/>
<path d="M153.519 72.774C163.222 72.774 184.483 73.1088 196.837 74.1602C213.125 75.5465 228.488 77.8568 235.303 79.705" stroke="#FEDAD0" stroke-width="0.693088" stroke-linecap="round" stroke-linejoin="round"/>
<path d="M153.519 72.7741V37.0801" stroke="#FEDAD0" stroke-width="0.693088" stroke-linecap="round" stroke-linejoin="round"/>
<ellipse cx="169.307" cy="41.5185" rx="3.1189" ry="2.77235" transform="rotate(12.9007 169.307 41.5185)" fill="url(#paint26_linear_1385_12743)"/>
<ellipse cx="211.586" cy="36.667" rx="3.1189" ry="2.77235" transform="rotate(12.9007 211.586 36.667)" fill="url(#paint27_linear_1385_12743)"/>
<path opacity="0.05" d="M276.542 210.699L283.328 202.061L291.362 199.273L299.334 181.617L307.808 182.542L315.475 157.104L322.286 155.945" stroke="#ED6A45" stroke-width="0.693088" stroke-miterlimit="10"/>
<path d="M279.314 211.392L286.102 202.755L294.136 199.968L302.11 182.307L310.579 183.238L318.253 157.803L325.058 156.638" stroke="white" stroke-width="0.693088" stroke-miterlimit="10" stroke-linecap="round"/>
<path d="M37.9533 186.64L43.8383 190.618C44.1138 190.807 44.3424 191.253 44.3246 191.598L44.3201 191.684C44.3023 192.029 44.0601 192.171 43.7688 191.963L37.8838 187.986C37.6084 187.797 37.3797 187.351 37.3976 187.006L37.402 186.92C37.4198 186.575 37.6611 186.45 37.9533 186.64Z" fill="#FFC1A6"/>
<path d="M20.0882 174.575L35.749 185.162C36.057 185.37 36.2848 185.833 36.2652 186.213C36.2456 186.593 35.9709 186.715 35.6787 186.525L20.0179 175.938C19.7098 175.73 19.4821 175.267 19.5017 174.887C19.5213 174.508 19.7802 174.367 20.0882 174.575Z" fill="#FFC1A6"/>
<path d="M40.4373 191.838L43.5985 193.978C43.9066 194.187 44.1335 194.667 44.1148 195.029C44.0952 195.409 43.8362 195.55 43.5282 195.341L40.367 193.202C40.059 192.993 39.8312 192.53 39.8508 192.15C39.8704 191.771 40.1461 191.631 40.4373 191.838Z" fill="#FFC1A6"/>
<path d="M19.6128 182.491L43.3966 198.552C43.672 198.742 43.9007 199.188 43.8829 199.533L43.8775 199.636C43.8597 199.981 43.6184 200.106 43.3262 199.916L19.5424 183.854C19.2502 183.664 19.0383 183.219 19.0561 182.874L19.0614 182.771C19.0792 182.426 19.3206 182.301 19.6128 182.491Z" fill="#FFC1A6"/>
<path d="M37.3202 197.956L43.2052 201.933C43.4807 202.122 43.7102 202.551 43.6915 202.913L43.6871 202.999C43.6693 203.344 43.428 203.469 43.1358 203.279L37.2508 199.302C36.9753 199.112 36.7458 198.684 36.7645 198.321L36.769 198.235C36.7868 197.89 37.0448 197.767 37.3202 197.956Z" fill="#FFC1A6"/>
<path d="M19.4699 185.909L35.1307 196.496C35.4387 196.704 35.6665 197.167 35.6469 197.547C35.6273 197.927 35.3525 198.049 35.0603 197.859L19.3996 187.272C19.0915 187.064 18.8638 186.601 18.8834 186.221C18.9038 185.824 19.1619 185.701 19.4699 185.909Z" fill="#FFC1A6"/>
<path d="M39.8204 203.155L42.9817 205.295C43.2897 205.503 43.5165 205.984 43.4978 206.346C43.4783 206.726 43.2193 206.866 42.9113 206.658L39.7501 204.518C39.442 204.31 39.2143 203.847 39.2339 203.467C39.2535 203.088 39.5124 202.947 39.8204 203.155Z" fill="#FFC1A6"/>
<path d="M18.8731 195.825L42.6569 211.887C42.9323 212.076 43.161 212.522 43.1432 212.867L43.1378 212.97C43.12 213.315 42.8787 213.44 42.5865 213.25L18.8027 197.188C18.5106 196.998 18.2986 196.553 18.3164 196.208L18.3218 196.105C18.3563 195.761 18.5985 195.619 18.8731 195.825Z" fill="#FFC1A6"/>
<path d="M36.5815 211.29L42.4665 215.267C42.742 215.456 42.9706 215.902 42.9528 216.247L42.9483 216.334C42.9305 216.679 42.6892 216.803 42.397 216.613L36.512 212.636C36.2366 212.447 36.007 212.018 36.0257 211.656L36.0302 211.57C36.0647 211.225 36.306 211.101 36.5815 211.29Z" fill="#FFC1A6"/>
<path d="M18.7316 199.226L34.3923 209.813C34.7003 210.021 34.9272 210.501 34.9085 210.864C34.8889 211.243 34.6141 211.366 34.3219 211.176L18.6612 200.589C18.3532 200.381 18.1254 199.918 18.145 199.538C18.1646 199.158 18.4235 199.018 18.7316 199.226Z" fill="#FFC1A6"/>
<path d="M39.0814 216.489L42.2426 218.629C42.5506 218.837 42.7784 219.301 42.7588 219.68C42.7392 220.06 42.4803 220.201 42.1722 219.992L39.011 217.852C38.703 217.644 38.4753 217.181 38.4949 216.801C38.5144 216.422 38.7734 216.281 39.0814 216.489Z" fill="#FFC1A6"/>
<path d="M17.8845 209.145L43.7601 226.608C44.0523 226.799 44.2642 227.244 44.2464 227.589L44.2411 227.692C44.2233 228.037 43.982 228.162 43.6898 227.971L17.8141 210.508C17.5219 210.318 17.31 209.873 17.3278 209.528L17.3332 209.424C17.351 209.079 17.5923 208.955 17.8845 209.145Z" fill="#FFC1A6"/>
<path opacity="0.09" d="M256.153 174.478L194.883 138.911C189.638 135.86 181.093 135.86 175.848 138.911L114.578 174.478C109.333 177.529 109.333 182.46 114.578 185.511L175.848 221.077C181.093 224.129 189.638 224.129 194.883 221.077L256.153 185.511C261.398 182.46 261.398 177.529 256.153 174.478Z" fill="url(#paint28_linear_1385_12743)"/>
<path opacity="0.09" d="M256.403 188.948L195.133 153.381C189.888 150.33 181.342 150.33 176.098 153.381L114.828 188.948C109.583 191.999 109.583 196.93 114.828 199.981L176.098 235.548C181.342 238.599 189.888 238.599 195.133 235.548L256.403 199.981C261.647 196.93 261.647 191.999 256.403 188.948Z" fill="url(#paint29_linear_1385_12743)"/>
<path opacity="0.09" d="M256.403 204.196L195.133 168.629C189.888 165.578 181.342 165.578 176.098 168.629L114.828 204.196C109.583 207.247 109.583 212.178 114.828 215.229L176.098 250.795C181.342 253.847 189.888 253.847 195.133 250.795L256.403 215.229C261.647 212.178 261.647 207.247 256.403 204.196Z" fill="url(#paint30_linear_1385_12743)"/>
<path d="M209.632 137.987L194.885 129.419C189.64 126.368 181.095 126.368 175.85 129.419L161.103 137.987H110.631V154.784C110.631 156.788 111.958 158.791 114.58 160.301L175.85 195.867C181.095 198.918 189.64 198.918 194.885 195.867L256.155 160.301C258.777 158.791 260.104 156.788 260.104 154.784V137.987H209.632Z" fill="url(#paint31_linear_1385_12743)"/>
<path d="M256.153 132.47L194.883 96.9039C189.639 93.8528 181.093 93.8528 175.848 96.9039L114.579 132.47C109.334 135.521 109.334 140.453 114.579 143.504L175.848 179.07C181.093 182.121 189.639 182.121 194.883 179.07L256.153 143.504C261.398 140.453 261.398 135.521 256.153 132.47Z" fill="url(#paint32_linear_1385_12743)"/>
<path opacity="0.15" d="M225.609 153.798L159.002 115.365C158.694 115.18 158.169 115.18 157.861 115.365L156.287 116.259C155.979 116.444 155.979 116.752 156.287 116.937L222.894 155.369C223.203 155.554 223.727 155.554 224.036 155.369L225.578 154.476C225.949 154.291 225.949 153.983 225.609 153.798Z" fill="#4675BA"/>
<path d="M155.364 101.805L219.904 139.005L222.125 140.268L224.748 138.758C225.056 138.573 225.334 138.111 225.334 137.772V84.1144C225.334 83.8987 225.272 83.683 225.149 83.4672C225.025 83.2515 224.871 83.0666 224.686 82.9741L159.189 45.1887C158.881 45.0038 158.356 45.0038 158.048 45.1887L155.425 46.6989L155.364 101.805Z" fill="#FF8E6E"/>
<path d="M219.905 86.4873V139.035L222.126 140.299L224.748 138.789C225.057 138.604 225.335 138.142 225.335 137.803V84.1449C225.335 83.9292 225.273 83.7135 225.149 83.4977L219.905 86.4873Z" fill="#AA4629"/>
<path d="M220.86 83.9294L156.567 46.8529C155.61 46.2981 154.839 46.7604 154.839 47.8391V100.11C154.839 101.219 155.61 102.545 156.567 103.099L220.86 140.176C221.816 140.731 222.588 140.268 222.588 139.19V86.9189C222.619 85.8094 221.816 84.4533 220.86 83.9294Z" fill="url(#paint33_linear_1385_12743)"/>
<path opacity="0.2" d="M210 83.9301L145.706 46.8536C144.75 46.2989 143.979 46.7612 143.979 47.8399V100.111C143.979 101.22 144.75 102.545 145.706 103.1L210 140.177C210.956 140.731 211.727 140.269 211.727 139.19V86.9196C211.727 85.8101 210.956 84.454 210 83.9301Z" fill="#E8F4F3"/>
<path d="M210 83.9301L145.706 46.8536C144.75 46.2989 143.979 46.7612 143.979 47.8399V100.111C143.979 101.22 144.75 102.545 145.706 103.1L210 140.177C210.956 140.731 211.727 140.269 211.727 139.19V86.9196C211.727 85.8101 210.956 84.454 210 83.9301Z" stroke="#E8F4F3" stroke-width="0.528249" stroke-miterlimit="10"/>
<path opacity="0.44" d="M196.888 91.9423L196.395 91.6648C194.945 90.8327 193.34 90.8944 192.168 91.6957C191.551 92.1272 189.947 92.9901 189.947 92.9901L189.083 97.7672C188.158 100.171 185.566 101.065 183.345 99.7705L183.314 99.7397C181.093 98.4453 179.118 95.3324 178.933 92.7436L176.866 75.8234C176.681 73.2653 174.799 70.1833 172.67 68.9197C171.467 68.2417 170.171 68.2108 169.122 68.7656C168.289 69.1971 166.438 70.3066 166.438 70.3066L164.618 80.4772C163.724 82.8812 161.41 83.9291 159.435 82.7887C158.355 82.1723 157.214 82.2031 156.288 82.7887C155.548 83.2818 154.067 84.114 154.067 84.114L152.185 94.2229L200.961 125.474L203.676 123.903L201.393 98.8459C201.115 96.3803 199.11 93.2367 196.888 91.9423Z" fill="#ED6A45"/>
<path d="M194.174 93.5142L193.681 93.2368C191.459 91.9424 188.899 92.7745 188.004 95.1168L186.369 99.3391C185.443 101.743 182.852 102.637 180.631 101.342L180.6 101.312C178.379 100.017 176.404 96.9044 176.219 94.3155L174.152 77.3953C173.751 74.2209 172.085 71.7552 169.956 70.5224C167.828 69.2896 165.359 70.2451 164.465 72.6799L161.904 82.1416C161.01 84.5455 158.696 85.5934 156.721 84.4531C154.747 83.3127 152.587 84.3915 151.908 86.8879L149.44 95.8873L200.931 125.598L198.648 100.541C198.401 97.9214 196.396 94.8086 194.174 93.5142Z" fill="url(#paint34_linear_1385_12743)"/>
<path opacity="0.44" d="M200.529 85.5935C200.529 86.1174 200.035 86.2715 199.449 85.9325L189.854 80.4157C189.268 80.0767 188.774 79.3678 188.774 78.8439C188.774 78.3199 189.268 78.1658 189.854 78.5048L199.449 84.0217C200.035 84.3607 200.529 85.0695 200.529 85.5935Z" fill="#ED6A45"/>
<path opacity="0.44" d="M200.529 89.5071C200.529 90.031 200.035 90.1851 199.449 89.8461L189.854 84.3293C189.268 83.9903 188.774 83.2814 188.774 82.7575C188.774 82.2335 189.268 82.0794 189.854 82.4184L199.449 87.9353C200.035 88.2435 200.529 88.9523 200.529 89.5071Z" fill="#ED6A45"/>
<rect width="6.09911" height="6.09911" transform="matrix(0.859406 0.511293 -0.646257 0.76312 146.27 127.528)" fill="#E5E5EE"/>
<rect width="6.09911" height="9.58432" transform="matrix(0.859406 0.511293 -0.646257 0.76312 141.296 133.402)" fill="#E5E5EE"/>
<rect width="9.58432" height="6.09911" transform="matrix(0.859406 0.511293 -0.646257 0.76312 136.321 139.275)" fill="#E5E5EE"/>
<rect width="6.09911" height="6.09911" transform="matrix(0.859406 0.511293 -0.646257 0.76312 152.884 131.463)" fill="#E5E5EE"/>
<rect width="6.09911" height="6.09911" transform="matrix(0.859406 0.511293 -0.646257 0.76312 147.91 137.336)" fill="#E5E5EE"/>
<rect width="6.09911" height="6.09911" transform="matrix(0.859406 0.511293 -0.646257 0.76312 142.936 143.21)" fill="#E5E5EE"/>
<rect width="6.09911" height="6.09911" transform="matrix(0.859406 0.511293 -0.646257 0.76312 159.498 135.398)" fill="#E5E5EE"/>
<rect width="6.09911" height="6.09911" transform="matrix(0.859406 0.511293 -0.646257 0.76312 154.524 141.272)" fill="#E5E5EE"/>
<rect width="6.09911" height="6.09911" transform="matrix(0.859406 0.511293 -0.646257 0.76312 149.551 147.145)" fill="#E5E5EE"/>
<rect width="6.09911" height="6.09911" transform="matrix(0.859406 0.511293 -0.646257 0.76312 166.112 139.334)" fill="#E5E5EE"/>
<rect width="6.09911" height="6.09911" transform="matrix(0.859406 0.511293 -0.646257 0.76312 161.139 145.207)" fill="#E5E5EE"/>
<rect width="6.09911" height="6.09911" transform="matrix(0.859406 0.511293 -0.646257 0.76312 156.165 151.08)" fill="#E5E5EE"/>
<rect width="6.09911" height="6.09911" transform="matrix(0.859406 0.511293 -0.646257 0.76312 172.727 143.268)" fill="#E5E5EE"/>
<rect width="6.09911" height="6.09911" transform="matrix(0.859406 0.511293 -0.646257 0.76312 167.753 149.142)" fill="#E5E5EE"/>
<rect width="6.09911" height="6.09911" transform="matrix(0.859406 0.511293 -0.646257 0.76312 162.779 155.015)" fill="#E5E5EE"/>
<rect width="6.09911" height="6.09911" transform="matrix(0.859406 0.511293 -0.646257 0.76312 179.342 147.204)" fill="#E5E5EE"/>
<rect width="9.00345" height="6.09911" transform="matrix(0.859406 0.511293 -0.646257 0.76312 171.872 151.592)" fill="#E5E5EE"/>
<rect width="6.09911" height="6.09911" transform="matrix(0.859406 0.511293 -0.646257 0.76312 169.394 158.95)" fill="#E5E5EE"/>
<path d="M129.326 207.272C130.097 208.228 131.825 208.721 132.997 208.443C133.861 208.259 134.447 208.104 135.095 207.889C135.959 207.611 137.254 207.611 138.149 207.55C139.229 207.488 140.093 207.581 141.172 207.396C142.098 207.272 143.054 206.995 143.887 206.625C145.029 206.132 147.003 203.79 145.553 202.927C145.461 202.865 145.306 202.834 145.183 202.834C141.327 202.249 136.36 202.495 135.156 201.016C135.156 201.016 129.974 200.769 129.943 200.769C130.097 200.769 129.11 205.485 129.017 205.855C128.955 206.07 128.925 206.286 128.955 206.502C128.955 206.779 129.141 207.026 129.326 207.272Z" fill="#2A2972"/>
<path d="M132.565 177.221L130.375 175.403C130.375 175.403 128.986 179.009 129.017 180.303C129.048 181.598 129.943 200.768 129.943 200.768C129.943 200.768 132.873 202.987 135.156 201.014C135.156 201.014 136.699 178.331 137.069 174.787L132.565 177.221Z" fill="url(#paint35_linear_1385_12743)"/>
<path d="M140.864 213.127C141.697 214.021 143.487 214.329 144.628 213.959C145.461 213.682 146.017 213.466 146.664 213.22C147.497 212.881 148.793 212.727 149.688 212.603C150.768 212.449 151.631 212.449 152.68 212.203C153.575 211.987 154.501 211.617 155.334 211.186C156.444 210.6 158.172 208.103 156.66 207.333C156.537 207.271 156.413 207.271 156.29 207.271C152.403 207.056 147.467 207.734 146.14 206.378C146.14 206.378 140.957 206.593 140.926 206.593C141.08 206.593 140.525 211.37 140.463 211.74C140.433 211.956 140.402 212.172 140.463 212.387C140.494 212.665 140.679 212.911 140.864 213.127Z" fill="#2A2972"/>
<path d="M139.969 186.098C140 187.392 140.895 206.562 140.895 206.562C140.895 206.562 143.857 208.319 146.109 206.347C146.109 206.347 147.651 184.126 147.991 180.581" fill="url(#paint36_linear_1385_12743)"/>
<path d="M147.435 192.909V230.417C147.435 232.174 146.201 234.3 144.689 235.194L117.356 250.943C116.584 251.375 115.597 251.59 114.61 251.59C113.623 251.59 112.605 251.375 111.864 250.943L84.5302 235.194C83.0185 234.3 81.7844 232.174 81.7844 230.417V192.909H147.435Z" fill="url(#paint37_linear_1385_12743)"/>
<path d="M114.61 192.909V251.59C113.623 251.59 112.605 251.375 111.864 250.943L84.5302 235.194C83.0185 234.3 81.7844 232.174 81.7844 230.417V192.909H114.61Z" fill="url(#paint38_linear_1385_12743)"/>
<path d="M111.863 174.633L82.925 191.337C81.4133 192.2 81.4133 193.649 82.925 194.512L111.863 211.216C113.375 212.079 115.843 212.079 117.386 211.216L146.324 194.512C147.835 193.649 147.835 192.2 146.324 191.337L117.386 174.633C115.843 173.739 113.375 173.739 111.863 174.633Z" fill="url(#paint39_linear_1385_12743)"/>
<path d="M111.863 174.633L82.925 191.337C81.4133 192.2 81.4133 193.649 82.925 194.512L111.863 211.216C113.375 212.079 115.843 212.079 117.386 211.216L146.324 194.512C147.835 193.649 147.835 192.2 146.324 191.337L117.386 174.633C115.843 173.739 113.375 173.739 111.863 174.633Z" fill="url(#paint40_linear_1385_12743)"/>
<path opacity="0.44" d="M101.128 183.262C108.625 178.948 120.719 178.917 128.154 183.232C135.62 187.577 135.558 194.573 128.061 198.888C120.565 203.203 108.502 203.203 101.036 198.857C93.6008 194.543 93.6625 187.577 101.128 183.262Z" fill="#8AA4D2"/>
<path d="M130.22 169.825C127.659 170.749 110.383 177.221 110.383 177.221C110.383 177.221 111.062 189.457 114.764 187.485L132.565 177.221L137.069 174.756C137.47 170.78 133.027 168.808 130.22 169.825Z" fill="url(#paint41_linear_1385_12743)"/>
<path d="M147.991 180.582C148.392 176.575 143.949 174.633 141.142 175.65C138.581 176.575 121.305 183.047 121.305 183.047L104.151 181.599C103.72 188.009 107.884 190.752 112.666 192.848C117.448 194.944 121.952 195.283 125.655 193.31L143.456 183.047L141.265 181.229C141.265 181.229 139.877 184.835 139.908 186.129" fill="url(#paint42_linear_1385_12743)"/>
<path d="M122.846 139.775C122.476 136.139 120.008 133.242 116.275 133.272C112.295 133.303 109.087 136.539 109.087 140.515C109.087 142.857 110.228 144.892 111.956 146.186C111.956 146.186 112.048 146.648 112.172 147.08C112.172 147.08 111.801 148.991 111.616 149.33C111.4 149.73 110.29 149.33 108.84 149.114C107.853 148.96 107.606 150.809 108.254 152.566C108.809 154.107 111.246 155.771 113.529 156.172C115.812 156.572 119.514 155.155 118.188 154.168C116.861 153.182 116.861 152.781 117.077 152.103C117.293 151.425 117.694 150.1 117.694 150.1C118.558 150.285 119.267 150.347 119.638 150.316C121.118 150.193 121.859 149.884 122.322 148.189C123.155 145.076 123.062 141.594 122.846 139.775Z" fill="#F3A4A4"/>
<path d="M114.794 152.258C114.794 152.258 115.997 152.227 116.985 152.227C116.985 152.196 117.016 152.134 117.016 152.103C117.232 151.425 117.633 150.1 117.633 150.1C118.496 150.285 119.206 150.347 119.576 150.316C120.193 150.254 120.687 150.162 121.088 149.946C120.193 150.1 118.743 149.36 118.435 148.682C118.095 148.004 118.095 145.724 118.095 145.724C118.095 145.724 118.003 146.094 117.818 146.494C117.633 146.895 117.201 146.802 117.201 146.802L115.782 146.618L111.617 145.878C111.709 145.97 111.802 146.063 111.925 146.124C111.925 146.124 112.018 146.587 112.141 147.018C112.141 147.018 111.771 148.929 111.586 149.268C111.493 149.453 111.216 149.484 110.784 149.422L111.339 150.131L114.794 152.258Z" fill="#E88B8B"/>
<path d="M123.525 132.841C121.242 133.55 112.789 130.314 111.246 135.337C111.246 135.337 109.58 135.954 109.056 138.419C108.531 140.885 108.531 142.703 109.92 145.138C111.308 147.604 111.771 148.713 111.771 148.713C111.771 148.713 112.789 149.545 114.177 149.792C115.566 150.038 117.077 149.453 117.663 147.727C117.972 146.864 118.095 145.754 118.095 145.754C117.756 146.278 116.8 146.001 116.275 144.922C115.812 143.998 115.627 142.796 116.244 141.871C117.015 140.7 118.435 141.039 118.712 141.933C118.959 142.703 118.836 143.905 118.836 143.905C118.836 143.905 119.792 144.029 120.008 142.981C120.162 142.241 120.162 141.409 120.131 140.731C120.101 140.114 120.286 139.467 120.748 139.036C121.396 138.45 121.15 137.495 121.15 137.495C121.15 137.495 123.155 137.371 124.204 135.461C125.284 133.581 125.808 132.132 123.525 132.841Z" fill="#382B69"/>
<path d="M110.815 149.453C110.66 149.977 111.092 150.84 112.974 151.857C115.535 153.213 117.047 153.028 117.047 153.028C117.047 153.028 120.07 154.661 121.397 155.586C123.062 156.726 123.772 160.086 124.019 165.726C124.204 170.719 124.266 178.639 124.204 182.831C124.173 184.742 123.062 186.498 121.335 187.331C120.162 187.885 118.682 188.348 117.047 188.194C113.098 187.855 105.848 184.249 104.213 181.567C104.243 175.835 104.737 172.352 104.552 168.962C104.182 162.921 102.886 158.144 104.552 153.305C106.002 149.083 107.699 148.898 109.303 149.114C110.167 149.237 110.815 149.453 110.815 149.453Z" fill="#F5FBFB"/>
<path d="M111.74 148.837C111.092 148.744 110.907 148.991 110.445 149.391C110.445 149.391 109.858 150.994 111.987 152.381C114.116 153.768 117.448 153.275 117.448 153.275L118.219 153.706C118.219 153.706 117.849 151.518 117.232 151.395C117.232 151.395 115.35 151.487 113.437 150.562C111.555 149.638 111.74 148.837 111.74 148.837Z" fill="#E4F1F0"/>
<path d="M149.716 154.722C149.314 155.554 148.728 156.171 148.266 157.404C147.864 158.482 147.679 158.914 146.939 159.715C146.137 160.578 143.854 161.873 140.491 163.568C137.159 165.232 134.506 165.17 132.562 164.431C128.305 162.797 125.96 159.037 123.215 156.849C121.302 155.308 119.42 156.017 119.111 157.404C118.865 158.482 119.79 161.564 123.091 164.708C125.621 167.174 130.002 169.855 133.642 169.978C135.987 170.04 138.825 169.362 140.769 168.499C143.946 167.081 146.229 165.54 149.068 163.783C149.839 163.29 150.518 163.136 152.122 162.397C153.695 161.657 155.361 160.393 156.163 159.191C156.996 157.989 157.089 157.404 156.935 157.157C156.719 156.818 156.348 156.88 155.917 157.404C155.485 157.928 154.837 158.821 153.603 159.561C153.603 159.561 154.621 158.482 155.176 157.804C155.731 157.126 156.163 156.356 156.379 155.801C156.657 155.092 156.071 154.137 155.608 154.661C155.145 155.154 154.929 155.678 154.096 156.695C153.325 157.619 152.616 158.143 152.616 158.143C152.616 158.143 153.448 157.003 153.973 155.894C154.497 154.784 154.497 154.26 154.467 153.89C154.436 153.52 153.911 153.089 153.448 153.798C153.017 154.414 152.739 155.4 151.721 156.479C150.98 157.25 150.363 157.712 150.333 157.496C150.302 157.28 150.764 156.849 151.042 155.955C151.289 155.092 151.011 154.106 150.518 154.014C149.993 153.859 150.086 153.89 149.716 154.722Z" fill="#F3A4A4"/>
<path d="M119.577 156.264C118.96 156.85 118.651 158.021 119.052 159.315C119.453 160.641 120.934 162.798 122.261 164.431C123.094 165.448 125.315 167.452 125.315 167.452C125.315 167.452 128.616 165.202 129.48 162.428C129.48 162.428 125.253 158.36 124.112 157.312C123.032 156.264 121.181 154.723 119.577 156.264Z" fill="#E4F1F0"/>
<defs>
<linearGradient id="paint0_linear_1385_12743" x1="298.954" y1="265.442" x2="298.954" y2="89.6943" gradientUnits="userSpaceOnUse">
<stop stop-color="white" stop-opacity="0"/>
<stop offset="0.393519" stop-color="white" stop-opacity="0.68"/>
<stop offset="1" stop-color="#FFD9CC"/>
</linearGradient>
<linearGradient id="paint1_linear_1385_12743" x1="28.8761" y1="265.803" x2="28.8761" y2="90.056" gradientUnits="userSpaceOnUse">
<stop stop-color="white" stop-opacity="0"/>
<stop offset="0.393519" stop-color="white" stop-opacity="0.68"/>
<stop offset="1" stop-color="#FFD9CC"/>
</linearGradient>
<linearGradient id="paint2_linear_1385_12743" x1="128.329" y1="34.3308" x2="119.179" y2="76.6966" gradientUnits="userSpaceOnUse">
<stop stop-color="white"/>
<stop offset="0.4911" stop-color="#F1BBA3"/>
<stop offset="1" stop-color="#ED6A45"/>
</linearGradient>
<linearGradient id="paint3_linear_1385_12743" x1="121.599" y1="34.8349" x2="112.447" y2="77.2002" gradientUnits="userSpaceOnUse">
<stop stop-color="white"/>
<stop offset="0.4911" stop-color="#FFC1A6"/>
<stop offset="1" stop-color="#ED6A45"/>
</linearGradient>
<linearGradient id="paint4_linear_1385_12743" x1="114.873" y1="36.0325" x2="105.721" y2="78.3975" gradientUnits="userSpaceOnUse">
<stop stop-color="white"/>
<stop offset="0.4911" stop-color="#FFC1A6"/>
<stop offset="1" stop-color="#ED6A45"/>
</linearGradient>
<linearGradient id="paint5_linear_1385_12743" x1="108.144" y1="38.4896" x2="98.9936" y2="80.8554" gradientUnits="userSpaceOnUse">
<stop stop-color="white"/>
<stop offset="0.4911" stop-color="#FFC1A6"/>
<stop offset="1" stop-color="#ED6A45"/>
</linearGradient>
<linearGradient id="paint6_linear_1385_12743" x1="101.418" y1="39.8757" x2="92.2677" y2="82.2418" gradientUnits="userSpaceOnUse">
<stop stop-color="white"/>
<stop offset="0.4911" stop-color="#FFC1A6"/>
<stop offset="1" stop-color="#ED6A45"/>
</linearGradient>
<linearGradient id="paint7_linear_1385_12743" x1="94.6905" y1="41.9552" x2="85.538" y2="84.3205" gradientUnits="userSpaceOnUse">
<stop stop-color="white"/>
<stop offset="0.4911" stop-color="#FFC1A6"/>
<stop offset="1" stop-color="#ED6A45"/>
</linearGradient>
<linearGradient id="paint8_linear_1385_12743" x1="88.0826" y1="44.0341" x2="78.9301" y2="86.3994" gradientUnits="userSpaceOnUse">
<stop stop-color="white"/>
<stop offset="0.4911" stop-color="#FFC1A6"/>
<stop offset="1" stop-color="#ED6A45"/>
</linearGradient>
<linearGradient id="paint9_linear_1385_12743" x1="81.1353" y1="46.1136" x2="71.9837" y2="88.4793" gradientUnits="userSpaceOnUse">
<stop stop-color="white"/>
<stop offset="0.4911" stop-color="#FFC1A6"/>
<stop offset="1" stop-color="#ED6A45"/>
</linearGradient>
<linearGradient id="paint10_linear_1385_12743" x1="74.5067" y1="48.8862" x2="65.3547" y2="91.2512" gradientUnits="userSpaceOnUse">
<stop stop-color="white"/>
<stop offset="0.4911" stop-color="#FFC1A6"/>
<stop offset="1" stop-color="#ED6A45"/>
</linearGradient>
<linearGradient id="paint11_linear_1385_12743" x1="67.9791" y1="50.9654" x2="58.8271" y2="93.3304" gradientUnits="userSpaceOnUse">
<stop stop-color="white"/>
<stop offset="0.4911" stop-color="#FFC1A6"/>
<stop offset="1" stop-color="#ED6A45"/>
</linearGradient>
<linearGradient id="paint12_linear_1385_12743" x1="61.0482" y1="55.1239" x2="51.8962" y2="97.489" gradientUnits="userSpaceOnUse">
<stop stop-color="white"/>
<stop offset="0.4911" stop-color="#FFC1A6"/>
<stop offset="1" stop-color="#ED6A45"/>
</linearGradient>
<linearGradient id="paint13_linear_1385_12743" x1="54.8076" y1="59.2829" x2="45.656" y2="101.648" gradientUnits="userSpaceOnUse">
<stop stop-color="white"/>
<stop offset="0.4911" stop-color="#FFC1A6"/>
<stop offset="1" stop-color="#ED6A45"/>
</linearGradient>
<linearGradient id="paint14_linear_1385_12743" x1="47.8769" y1="62.7482" x2="38.7253" y2="105.113" gradientUnits="userSpaceOnUse">
<stop stop-color="white"/>
<stop offset="0.4911" stop-color="#FFC1A6"/>
<stop offset="1" stop-color="#ED6A45"/>
</linearGradient>
<linearGradient id="paint15_linear_1385_12743" x1="40.9457" y1="66.9069" x2="31.7942" y2="109.272" gradientUnits="userSpaceOnUse">
<stop stop-color="white"/>
<stop offset="0.4911" stop-color="#FFC1A6"/>
<stop offset="1" stop-color="#ED6A45"/>
</linearGradient>
<linearGradient id="paint16_linear_1385_12743" x1="34.0151" y1="73.1448" x2="24.8635" y2="115.51" gradientUnits="userSpaceOnUse">
<stop stop-color="white"/>
<stop offset="0.4911" stop-color="#FFC1A6"/>
<stop offset="1" stop-color="#ED6A45"/>
</linearGradient>
<linearGradient id="paint17_linear_1385_12743" x1="265.489" y1="89.141" x2="274.97" y2="89.141" gradientUnits="userSpaceOnUse">
<stop stop-color="#9FA2D1"/>
<stop offset="1" stop-color="#7076B7"/>
</linearGradient>
<linearGradient id="paint18_linear_1385_12743" x1="273.873" y1="65.9324" x2="270.331" y2="62.6946" gradientUnits="userSpaceOnUse">
<stop stop-color="#ED8840" stop-opacity="0"/>
<stop offset="0.0539" stop-color="#ED8840" stop-opacity="0.0539"/>
<stop offset="1" stop-color="#F18A37"/>
</linearGradient>
<linearGradient id="paint19_linear_1385_12743" x1="284.515" y1="102.045" x2="292.217" y2="102.045" gradientUnits="userSpaceOnUse">
<stop stop-color="#9FA2D1"/>
<stop offset="1" stop-color="#7076B7"/>
</linearGradient>
<linearGradient id="paint20_linear_1385_12743" x1="293.031" y1="93.2221" x2="289.627" y2="90.6941" gradientUnits="userSpaceOnUse">
<stop stop-color="#ED8840" stop-opacity="0"/>
<stop offset="0.0539" stop-color="#ED8840" stop-opacity="0.0539"/>
<stop offset="1" stop-color="#F18A37"/>
</linearGradient>
<linearGradient id="paint21_linear_1385_12743" x1="301.871" y1="115.787" x2="307.158" y2="115.787" gradientUnits="userSpaceOnUse">
<stop stop-color="#9FA2D1"/>
<stop offset="1" stop-color="#7076B7"/>
</linearGradient>
<linearGradient id="paint22_linear_1385_12743" x1="308.475" y1="99.5559" x2="305.683" y2="98.0297" gradientUnits="userSpaceOnUse">
<stop stop-color="#ED8840" stop-opacity="0"/>
<stop offset="0.0539" stop-color="#ED8840" stop-opacity="0.0539"/>
<stop offset="1" stop-color="#F18A37"/>
</linearGradient>
<linearGradient id="paint23_linear_1385_12743" x1="194.411" y1="43.0077" x2="194.411" y2="72.528" gradientUnits="userSpaceOnUse">
<stop stop-color="#E6F0FF"/>
<stop offset="1" stop-color="#E6F0FF" stop-opacity="0"/>
</linearGradient>
<linearGradient id="paint24_linear_1385_12743" x1="194.411" y1="43.0077" x2="194.411" y2="72.528" gradientUnits="userSpaceOnUse">
<stop stop-color="#E6F0FF"/>
<stop offset="1" stop-color="#E6F0FF" stop-opacity="0"/>
</linearGradient>
<linearGradient id="paint25_linear_1385_12743" x1="193.372" y1="43.6644" x2="193.372" y2="57.6327" gradientUnits="userSpaceOnUse">
<stop stop-color="#E6F0FF"/>
<stop offset="1" stop-color="#E6F0FF" stop-opacity="0"/>
</linearGradient>
<linearGradient id="paint26_linear_1385_12743" x1="169.307" y1="38.7461" x2="169.307" y2="44.2908" gradientUnits="userSpaceOnUse">
<stop stop-color="#FFA284"/>
<stop offset="1" stop-color="#FFA284" stop-opacity="0"/>
</linearGradient>
<linearGradient id="paint27_linear_1385_12743" x1="211.586" y1="33.8947" x2="211.586" y2="39.4394" gradientUnits="userSpaceOnUse">
<stop stop-color="#FFA284"/>
<stop offset="1" stop-color="#FFA284" stop-opacity="0"/>
</linearGradient>
<linearGradient id="paint28_linear_1385_12743" x1="170.865" y1="162.23" x2="216.476" y2="187.759" gradientUnits="userSpaceOnUse">
<stop stop-color="#656BA6"/>
<stop offset="1" stop-color="#8B8ED5"/>
</linearGradient>
<linearGradient id="paint29_linear_1385_12743" x1="171.115" y1="176.7" x2="216.726" y2="202.229" gradientUnits="userSpaceOnUse">
<stop stop-color="#656BA6"/>
<stop offset="1" stop-color="#8B8ED5"/>
</linearGradient>
<linearGradient id="paint30_linear_1385_12743" x1="185.748" y1="243.967" x2="185.748" y2="161.143" gradientUnits="userSpaceOnUse">
<stop stop-color="#E6F0FF"/>
<stop offset="1" stop-color="#E6F0FF" stop-opacity="0"/>
</linearGradient>
<linearGradient id="paint31_linear_1385_12743" x1="185.354" y1="198.15" x2="185.354" y2="127.146" gradientUnits="userSpaceOnUse">
<stop stop-color="white"/>
<stop offset="0.3737" stop-color="#E5E5EE"/>
<stop offset="0.7672" stop-color="#CDCDDE"/>
<stop offset="1" stop-color="#C4C5D8"/>
</linearGradient>
<linearGradient id="paint32_linear_1385_12743" x1="170.866" y1="120.222" x2="216.476" y2="145.751" gradientUnits="userSpaceOnUse">
<stop stop-color="#656BA6"/>
<stop offset="1" stop-color="#8B8ED5"/>
</linearGradient>
<linearGradient id="paint33_linear_1385_12743" x1="176.144" y1="47.6724" x2="205.271" y2="153.971" gradientUnits="userSpaceOnUse">
<stop offset="0.1441" stop-color="#FFC1A6"/>
<stop offset="0.422" stop-color="#ED6A45"/>
<stop offset="0.6808" stop-color="#ED6A45"/>
<stop offset="0.8817" stop-color="#ED6A45"/>
<stop offset="1" stop-color="#FFC1A6"/>
</linearGradient>
<linearGradient id="paint34_linear_1385_12743" x1="175.178" y1="125.554" x2="175.178" y2="69.9674" gradientUnits="userSpaceOnUse">
<stop stop-color="#FFC1A6"/>
<stop offset="0.3737" stop-color="#FFC1A6"/>
<stop offset="0.7672" stop-color="white"/>
<stop offset="1" stop-color="#FFF4EF"/>
</linearGradient>
<linearGradient id="paint35_linear_1385_12743" x1="129.038" y1="188.281" x2="137.074" y2="188.281" gradientUnits="userSpaceOnUse">
<stop offset="0.1441" stop-color="#8083BF"/>
<stop offset="0.422" stop-color="#5A5991"/>
<stop offset="0.6808" stop-color="#3A3D73"/>
<stop offset="0.8817" stop-color="#263064"/>
<stop offset="1" stop-color="#1F2C5F"/>
</linearGradient>
<linearGradient id="paint36_linear_1385_12743" x1="143.987" y1="207.282" x2="143.987" y2="166.975" gradientUnits="userSpaceOnUse">
<stop offset="0.1441" stop-color="#8083BF"/>
<stop offset="0.422" stop-color="#5A5991"/>
<stop offset="0.6808" stop-color="#3A3D73"/>
<stop offset="0.8817" stop-color="#263064"/>
<stop offset="1" stop-color="#1F2C5F"/>
</linearGradient>
<linearGradient id="paint37_linear_1385_12743" x1="114.615" y1="251.578" x2="114.615" y2="192.901" gradientUnits="userSpaceOnUse">
<stop stop-color="white"/>
<stop offset="0.3737" stop-color="#E5E5EE"/>
<stop offset="0.7672" stop-color="#CDCDDE"/>
<stop offset="1" stop-color="#C4C5D8"/>
</linearGradient>
<linearGradient id="paint38_linear_1385_12743" x1="98.1953" y1="251.578" x2="98.1953" y2="192.901" gradientUnits="userSpaceOnUse">
<stop stop-color="white"/>
<stop offset="0.3737" stop-color="#E5E5EE"/>
<stop offset="0.7672" stop-color="#CDCDDE"/>
<stop offset="1" stop-color="#C4C5D8"/>
</linearGradient>
<linearGradient id="paint39_linear_1385_12743" x1="114.613" y1="211.842" x2="114.613" y2="173.968" gradientUnits="userSpaceOnUse">
<stop stop-color="white"/>
<stop offset="0.3737" stop-color="#E5E5EE"/>
<stop offset="0.7672" stop-color="#CDCDDE"/>
<stop offset="1" stop-color="#C4C5D8"/>
</linearGradient>
<linearGradient id="paint40_linear_1385_12743" x1="114.613" y1="211.842" x2="114.613" y2="173.968" gradientUnits="userSpaceOnUse">
<stop stop-color="white"/>
<stop offset="0.3737" stop-color="#E5E5EE"/>
<stop offset="0.7672" stop-color="#CDCDDE"/>
<stop offset="1" stop-color="#C4C5D8"/>
</linearGradient>
<linearGradient id="paint41_linear_1385_12743" x1="123.748" y1="187.706" x2="123.748" y2="169.552" gradientUnits="userSpaceOnUse">
<stop offset="0.1441" stop-color="#8083BF"/>
<stop offset="0.422" stop-color="#5A5991"/>
<stop offset="0.6808" stop-color="#3A3D73"/>
<stop offset="0.8817" stop-color="#263064"/>
<stop offset="1" stop-color="#1F2C5F"/>
</linearGradient>
<linearGradient id="paint42_linear_1385_12743" x1="126.094" y1="194.622" x2="126.094" y2="175.368" gradientUnits="userSpaceOnUse">
<stop offset="0.1441" stop-color="#8083BF"/>
<stop offset="0.422" stop-color="#5A5991"/>
<stop offset="0.6808" stop-color="#3A3D73"/>
<stop offset="0.8817" stop-color="#263064"/>
<stop offset="1" stop-color="#1F2C5F"/>
</linearGradient>
</defs>
</svg>
