<svg width="2000" height="350" viewBox="0 0 2000 350" fill="none" xmlns="http://www.w3.org/2000/svg">
<path d="M3.97447 285.833C3.97447 286.355 3.76697 286.856 3.39763 287.226C3.02828 287.595 2.52738 287.802 2.00505 287.802C1.48368 287.799 0.984546 287.591 0.615874 287.222C0.247203 286.853 0.03874 286.354 0.0356273 285.833V285.833C0.0356273 285.31 0.243054 284.809 0.612398 284.44C0.981742 284.071 1.48272 283.863 2.00505 283.863C2.26368 283.863 2.51978 283.914 2.75872 284.013C2.99767 284.112 3.21475 284.257 3.39763 284.44C3.58051 284.623 3.7256 284.84 3.82457 285.079C3.92355 285.318 3.97447 285.574 3.97447 285.833ZM2.00505 240.259C1.48272 240.259 0.981742 240.466 0.612398 240.835C0.243054 241.205 0.0356273 241.706 0.0356273 242.228C0.0387615 242.748 0.247593 243.246 0.616598 243.613C0.985603 243.98 1.48477 244.186 2.00505 244.186C2.26312 244.187 2.51898 244.138 2.75786 244.04C2.99673 243.943 3.21394 243.799 3.39697 243.617C3.58001 243.435 3.72524 243.218 3.82436 242.98C3.92348 242.742 3.97447 242.486 3.97447 242.228C3.97447 241.706 3.76697 241.205 3.39763 240.835C3.02828 240.466 2.52738 240.259 2.00505 240.259ZM2.00505 153.037C1.48471 153.028 0.981725 153.225 0.606026 153.585C0.230327 153.945 0.0124528 154.439 0 154.96C0 155.482 0.207499 155.983 0.576843 156.352C0.946187 156.722 1.44709 156.929 1.96942 156.929C2.49175 156.929 2.99273 156.722 3.36207 156.352C3.73142 155.983 3.93891 155.482 3.93891 154.96V154.96C3.92675 154.452 3.7187 153.968 3.35831 153.61C2.99792 153.252 2.51308 153.046 2.00505 153.037ZM2.00505 109.421C1.48368 109.424 0.984546 109.633 0.615874 110.001C0.247203 110.37 0.03874 110.869 0.0356273 111.391C0.0356273 111.913 0.243054 112.414 0.612398 112.783C0.981742 113.153 1.48272 113.36 2.00505 113.36C2.52738 113.36 3.02828 113.153 3.39763 112.783C3.76697 112.414 3.97447 111.913 3.97447 111.391C3.97447 111.132 3.92355 110.876 3.82457 110.637C3.7256 110.398 3.58051 110.181 3.39763 109.998C3.21475 109.815 2.99767 109.67 2.75872 109.571C2.51978 109.472 2.26368 109.421 2.00505 109.421V109.421ZM2.00505 22.2117C1.48477 22.2117 0.985603 22.4175 0.616598 22.7844C0.247593 23.1512 0.0387615 23.6491 0.0356273 24.1694V24.1694C0.0356273 24.6918 0.243054 25.1928 0.612398 25.5622C0.981742 25.9315 1.48272 26.139 2.00505 26.139C2.52738 26.139 3.02828 25.9315 3.39763 25.5622C3.76697 25.1928 3.97447 24.6918 3.97447 24.1694V24.1694C3.97447 23.9113 3.92348 23.6558 3.82436 23.4175C3.72524 23.1792 3.58001 22.9628 3.39697 22.7809C3.21394 22.5989 2.99673 22.455 2.75786 22.3573C2.51898 22.2596 2.26312 22.2101 2.00505 22.2117ZM2.00505 196.63C1.48272 196.63 0.981742 196.838 0.612398 197.207C0.243054 197.576 0.0356273 198.077 0.0356273 198.6C0.03874 199.121 0.247203 199.62 0.615874 199.989C0.984546 200.358 1.48368 200.566 2.00505 200.569C2.52738 200.569 3.02828 200.362 3.39763 199.993C3.76697 199.623 3.97447 199.122 3.97447 198.6C3.96514 198.084 3.75358 197.592 3.38524 197.23C3.01691 196.868 2.52127 196.666 2.00505 196.666V196.63ZM2.00505 65.8044C1.48477 65.8044 0.985603 66.0103 0.616598 66.3771C0.247593 66.7439 0.0387615 67.2419 0.0356273 67.7622C0.0356273 68.2846 0.243054 68.7856 0.612398 69.1549C0.981742 69.5243 1.48272 69.7318 2.00505 69.7318C2.52738 69.7318 3.02828 69.5243 3.39763 69.1549C3.76697 68.7856 3.97447 68.2846 3.97447 67.7622C3.96511 67.2471 3.75312 66.7564 3.38445 66.3966C3.01578 66.0368 2.52018 65.8368 2.00505 65.84V65.8044ZM642.67 3.76129L608.193 23.6711C608.211 23.8249 608.211 23.9801 608.193 24.1338V24.1338C608.212 24.2875 608.212 24.4429 608.193 24.5966L642.623 44.6132C642.803 44.432 643.018 44.2883 643.254 44.1906C643.49 44.0928 643.744 44.0429 643.999 44.0437C644.261 44.0381 644.521 44.0857 644.764 44.1836C645.006 44.2815 645.227 44.4277 645.411 44.6132L650.572 41.635V42.8215L645.933 45.4912C645.981 45.6489 646.005 45.8129 646.004 45.9777C646.004 46.5 645.797 47.001 645.427 47.3704C645.058 47.7398 644.557 47.9473 644.035 47.9473C643.512 47.9473 643.012 47.7398 642.642 47.3704C642.273 47.001 642.065 46.5 642.065 45.9777C642.065 45.8129 642.089 45.6489 642.137 45.4912L607.624 25.6288C607.253 25.9923 606.755 26.1966 606.236 26.1984C605.716 26.1966 605.218 25.9923 604.847 25.6288L570.37 45.5268C570.412 45.6858 570.436 45.8489 570.441 46.0133C570.441 46.2719 570.39 46.5281 570.291 46.767C570.193 47.006 570.047 47.2231 569.865 47.406C569.682 47.5889 569.465 47.734 569.226 47.833C568.987 47.932 568.731 47.9829 568.472 47.9829C567.95 47.9829 567.449 47.7754 567.079 47.406C566.71 47.0366 566.502 46.5356 566.502 46.0133C566.502 45.8485 566.526 45.6845 566.574 45.5268L532.096 25.6288C531.854 25.8559 531.561 26.0226 531.242 26.1153V65.9705C531.654 66.0865 532.017 66.3333 532.276 66.6736C532.534 67.014 532.676 67.4294 532.678 67.8571C532.678 68.3795 532.47 68.8805 532.101 69.2498C531.732 69.6192 531.231 69.8267 530.708 69.8267C530.195 69.8263 529.701 69.6264 529.332 69.2691L494.843 89.1789C494.89 89.3326 494.914 89.4926 494.914 89.6535V89.6535C494.914 90.1759 494.707 90.6768 494.337 91.0462C493.968 91.4156 493.467 91.6231 492.945 91.6231C492.687 91.6248 492.432 91.5753 492.193 91.4775C491.955 91.3798 491.739 91.2357 491.556 91.0536L457.079 110.952C457.12 111.111 457.144 111.274 457.15 111.438C457.15 111.96 456.943 112.461 456.574 112.831C456.204 113.2 455.703 113.408 455.181 113.408C454.659 113.408 454.158 113.2 453.788 112.831C453.419 112.461 453.211 111.96 453.211 111.438C453.211 111.277 453.235 111.117 453.283 110.963L418.805 91.0061C418.563 91.2332 418.27 91.3999 417.951 91.4926V131.336C418.363 131.452 418.726 131.699 418.985 132.039C419.244 132.379 419.385 132.795 419.387 133.223C419.384 133.743 419.175 134.241 418.806 134.608C418.437 134.974 417.938 135.18 417.417 135.18C416.904 135.18 416.41 134.98 416.041 134.623L381.552 154.532C381.594 154.687 381.618 154.847 381.623 155.007C381.622 155.437 381.48 155.854 381.219 156.195C380.957 156.536 380.59 156.782 380.176 156.894V196.737C380.59 196.849 380.957 197.094 381.219 197.435C381.48 197.776 381.622 198.194 381.623 198.624C381.62 199.145 381.411 199.644 381.043 200.013C380.674 200.382 380.175 200.59 379.654 200.593C379.398 200.594 379.145 200.544 378.908 200.446C378.672 200.348 378.458 200.205 378.277 200.024L343.788 219.945C343.827 220.097 343.847 220.252 343.848 220.408V220.408C343.848 220.833 343.708 221.247 343.451 221.585C343.194 221.924 342.833 222.169 342.424 222.283V262.126C342.833 262.244 343.193 262.492 343.45 262.832C343.707 263.172 343.846 263.587 343.848 264.013C343.849 264.271 343.8 264.527 343.702 264.766C343.604 265.004 343.46 265.222 343.278 265.405C343.096 265.588 342.88 265.733 342.642 265.832C342.404 265.931 342.148 265.982 341.89 265.982C341.376 265.982 340.883 265.782 340.514 265.425L304.126 286.426L267.727 265.425C267.363 265.782 266.873 265.983 266.363 265.982C266.107 265.984 265.853 265.934 265.617 265.836C265.381 265.738 265.166 265.594 264.986 265.413L228.599 286.426L192.2 265.46C191.832 265.82 191.338 266.02 190.823 266.018C190.565 266.018 190.31 265.967 190.072 265.868C189.833 265.769 189.617 265.623 189.435 265.44C189.253 265.257 189.109 265.04 189.011 264.801C188.914 264.562 188.864 264.306 188.866 264.048C188.866 263.62 189.006 263.204 189.266 262.863C189.525 262.522 189.889 262.276 190.301 262.162V222.318C189.976 222.241 189.68 222.072 189.447 221.832L154.97 241.742C155.009 241.901 155.028 242.064 155.029 242.228C155.029 242.487 154.978 242.744 154.878 242.983C154.778 243.222 154.632 243.439 154.447 243.621C154.263 243.803 154.045 243.947 153.804 244.044C153.564 244.141 153.307 244.189 153.048 244.186C152.529 244.186 152.031 243.98 151.664 243.613C151.297 243.245 151.09 242.747 151.09 242.228C151.092 242.064 151.112 241.901 151.15 241.742L116.672 221.832C116.44 222.072 116.143 222.241 115.818 222.318V262.162C116.231 262.276 116.595 262.522 116.854 262.863C117.113 263.204 117.254 263.62 117.254 264.048C117.254 264.571 117.046 265.072 116.677 265.441C116.307 265.81 115.806 266.018 115.284 266.018C114.774 266.018 114.284 265.818 113.92 265.46L79.49 285.37C79.5088 285.524 79.5088 285.679 79.49 285.833C79.49 286.355 79.2825 286.856 78.9131 287.226C78.5438 287.595 78.0429 287.802 77.5205 287.802C76.9994 287.799 76.5006 287.59 76.1324 287.221L41.7263 307.131C41.7444 307.292 41.7444 307.456 41.7263 307.617C41.7263 308.14 41.5188 308.641 41.1494 309.01C40.7801 309.379 40.2792 309.587 39.7569 309.587C39.2366 309.584 38.7387 309.375 38.3719 309.006C38.0051 308.637 37.7992 308.138 37.7992 307.617C37.7811 307.456 37.7811 307.292 37.7992 307.131L9.65746 290.887V289.701L38.3331 306.253C38.6972 305.895 39.1872 305.695 39.6976 305.695C40.2112 305.696 40.7046 305.896 41.0738 306.253L75.5629 286.343C75.5456 286.189 75.5456 286.034 75.5629 285.88V285.88C75.5441 285.727 75.5441 285.571 75.5629 285.418L41.0738 265.508C40.7046 265.865 40.2112 266.065 39.6976 266.065C39.1872 266.066 38.6972 265.865 38.3331 265.508L9.65746 282.06V280.873L37.7992 264.63C37.7811 264.468 37.7811 264.305 37.7992 264.143C37.7993 263.715 37.9397 263.299 38.199 262.958C38.4583 262.617 38.8222 262.371 39.2348 262.257V222.318C38.9072 222.238 38.6077 222.07 38.3688 221.832L9.71676 238.384V237.197L37.8585 220.954C37.8412 220.8 37.8412 220.645 37.8585 220.491V220.491C37.8397 220.337 37.8397 220.182 37.8585 220.028L23.4199 211.723L9.71676 203.809V202.622L19.6352 208.341L38.3688 219.162C38.6139 218.932 38.911 218.765 39.2348 218.676V178.69C38.8212 178.578 38.4562 178.332 38.1966 177.991C37.937 177.649 37.7973 177.232 37.7992 176.803C37.7811 176.646 37.7811 176.487 37.7992 176.329L17.0133 164.321L9.65746 160.073V158.887L17.1437 163.206L38.3331 175.439C38.6972 175.081 39.1872 174.881 39.6976 174.881C40.2112 174.882 40.7046 175.082 41.0738 175.439L75.5629 155.529C75.5448 155.371 75.5448 155.212 75.5629 155.054V155.054C75.5448 154.897 75.5448 154.738 75.5629 154.58L56.6871 143.688L41.0738 134.67C40.7046 135.027 40.2112 135.227 39.6976 135.228C39.1872 135.228 38.6972 135.028 38.3331 134.67L9.65746 151.222V150.036L37.7992 133.78C37.7811 133.622 37.7811 133.463 37.7992 133.306C37.7973 132.877 37.937 132.46 38.1966 132.118C38.4562 131.777 38.8212 131.531 39.2348 131.419V91.4926C38.9136 91.4053 38.6196 91.2379 38.3806 91.0061L9.72864 107.499V106.312L37.8704 90.0688C37.8523 89.9111 37.8523 89.7519 37.8704 89.5942V89.5942C37.8523 89.4365 37.8523 89.2773 37.8704 89.1196L23.4317 80.8139L9.72864 72.9117V71.7252L19.6471 77.4561L38.3925 88.2771C38.6251 88.0369 38.9215 87.8682 39.2467 87.7907V47.8642C38.8341 47.75 38.4702 47.5037 38.2109 47.163C37.9516 46.8222 37.8112 46.4059 37.8111 45.9777C37.793 45.816 37.793 45.6529 37.8111 45.4912L20.5369 35.5244L9.66933 29.2477V28.0612L17.1556 32.392L38.4043 44.6132C38.5825 44.4323 38.7949 44.2888 39.0292 44.191C39.2634 44.0933 39.5149 44.0432 39.7687 44.0437C40.0244 44.0429 40.2776 44.0928 40.5139 44.1906C40.7501 44.2883 40.9646 44.432 41.1449 44.6132L75.6341 24.6915C75.6152 24.5378 75.6152 24.3824 75.6341 24.2288C75.6168 24.075 75.6168 23.9198 75.6341 23.766L62.0022 15.8994L41.1449 3.85619C40.7758 4.21347 40.2824 4.41342 39.7687 4.41386C39.2584 4.4141 38.7684 4.21383 38.4043 3.85619L9.72864 20.4675V19.281L37.8704 3.03751C37.8523 2.87586 37.8523 2.71268 37.8704 2.55103C37.8705 2.12284 38.0109 1.70647 38.2702 1.36572C38.5295 1.02498 38.8934 0.778651 39.306 0.664467V0.166112H40.3619V0.664467C40.7746 0.778651 41.1384 1.02498 41.3977 1.36572C41.657 1.70647 41.7974 2.12284 41.7975 2.55103C41.8156 2.71268 41.8156 2.87586 41.7975 3.03751L62.5242 14.9502L76.1443 22.8168C76.3856 22.5794 76.6838 22.4079 77.0103 22.3185V0H78.0663V22.2829C78.3905 22.3695 78.6855 22.5416 78.9205 22.7812L113.398 2.8714C113.36 2.71198 113.34 2.54879 113.338 2.38492C113.339 1.95672 113.479 1.54036 113.738 1.19961C113.998 0.858865 114.361 0.612539 114.774 0.498355V0H115.83V0.498355C116.243 0.612539 116.606 0.858865 116.866 1.19961C117.125 1.54036 117.265 1.95672 117.266 2.38492C117.264 2.54879 117.244 2.71198 117.206 2.8714L133.508 12.2805L151.683 22.7812C151.918 22.5416 152.213 22.3695 152.538 22.2829V0H153.594V22.2829C153.918 22.3695 154.213 22.5416 154.448 22.7812L188.925 2.8714C188.887 2.71198 188.867 2.54879 188.866 2.38492C188.866 1.95672 189.006 1.54036 189.266 1.19961C189.525 0.858865 189.889 0.612539 190.301 0.498355V0H191.357V0.498355C191.77 0.612539 192.134 0.858865 192.393 1.19961C192.652 1.54036 192.793 1.95672 192.793 2.38492C192.791 2.54879 192.771 2.71198 192.734 2.8714L210.791 13.3009L227.211 22.7931C227.446 22.5535 227.741 22.3814 228.065 22.2947V0H229.121V22.2829C229.445 22.3695 229.74 22.5416 229.975 22.7812L264.452 2.8714C264.434 2.70974 264.434 2.54657 264.452 2.38492C264.453 1.95672 264.593 1.54036 264.852 1.19961C265.112 0.858865 265.475 0.612539 265.888 0.498355V0H266.944V0.498355C267.357 0.612539 267.72 0.858865 267.98 1.19961C268.239 1.54036 268.379 1.95672 268.379 2.38492C268.378 2.54879 268.358 2.71198 268.32 2.8714L286.377 13.3009L302.797 22.7931C303.032 22.5535 303.327 22.3814 303.652 22.2947V0H304.708V22.2829C305.034 22.3722 305.332 22.5438 305.574 22.7812L340.039 2.8714C340.001 2.71198 339.981 2.54879 339.98 2.38492C339.98 1.95672 340.12 1.54036 340.38 1.19961C340.639 0.858865 341.003 0.612539 341.415 0.498355V0H342.483V0.498355C342.893 0.616448 343.253 0.864153 343.509 1.20432C343.766 1.54448 343.906 1.95875 343.907 2.38492C343.905 2.54879 343.885 2.71198 343.848 2.8714L361.881 13.289L378.325 22.7812C378.562 22.5443 378.856 22.3726 379.179 22.2829V0H380.235V22.2829C380.561 22.3722 380.86 22.5438 381.101 22.7812L415.578 2.8714C415.531 2.71367 415.507 2.54971 415.507 2.38492C415.507 1.95672 415.648 1.54036 415.907 1.19961C416.166 0.858865 416.53 0.612539 416.943 0.498355V0H418.01V0.498355C418.422 0.614294 418.785 0.861082 419.044 1.20144C419.303 1.5418 419.444 1.95722 419.446 2.38492C419.441 2.54924 419.417 2.71244 419.375 2.8714L437.408 13.289L453.852 22.7812C454.089 22.5443 454.383 22.3726 454.706 22.2829V0H455.762V22.2829C456.089 22.3722 456.387 22.5438 456.628 22.7812L491.106 2.8714C491.058 2.71367 491.034 2.54971 491.034 2.38492C491.035 1.95672 491.175 1.54036 491.434 1.19961C491.694 0.858865 492.057 0.612539 492.47 0.498355V0H493.538V0.498355C493.949 0.614294 494.312 0.861082 494.571 1.20144C494.83 1.5418 494.971 1.95722 494.973 2.38492C494.968 2.54924 494.944 2.71244 494.902 2.8714L512.959 13.3009L529.379 22.7931C529.618 22.5582 529.912 22.3869 530.234 22.2947V0H531.301V22.2829C531.623 22.375 531.917 22.5464 532.156 22.7812L566.633 2.8714C566.585 2.71367 566.561 2.54971 566.562 2.38492C566.562 1.95672 566.702 1.54036 566.962 1.19961C567.221 0.858865 567.585 0.612539 567.997 0.498355V0H569.065V0.498355C569.477 0.614294 569.84 0.861082 570.098 1.20144C570.357 1.5418 570.499 1.95722 570.501 2.38492C570.495 2.54924 570.471 2.71244 570.43 2.8714L604.907 22.7812C605.145 22.5464 605.439 22.375 605.761 22.2829V0H606.829V22.2829C607.151 22.375 607.444 22.5464 607.683 22.7812L642.16 2.8714C642.113 2.71367 642.089 2.54971 642.089 2.38492C642.091 1.95722 642.232 1.5418 642.491 1.20144C642.75 0.861082 643.113 0.614294 643.525 0.498355V0H644.592V0.498355C645.004 0.614294 645.367 0.861082 645.626 1.20144C645.885 1.5418 646.026 1.95722 646.028 2.38492C646.029 2.54971 646.005 2.71367 645.957 2.8714L650.596 5.54107V6.72759L645.411 3.79688C645.042 4.15416 644.549 4.35411 644.035 4.35455C643.774 4.35897 643.516 4.31197 643.273 4.21628C643.031 4.12059 642.81 3.97808 642.623 3.79688L642.67 3.76129ZM378.265 25.6288L343.788 45.5268C343.826 45.6862 343.846 45.8494 343.848 46.0133C343.846 46.4394 343.707 46.8537 343.45 47.1938C343.193 47.534 342.833 47.7817 342.424 47.8998V87.7432C342.747 87.8265 343.042 87.9944 343.278 88.2297L377.743 68.3436C377.705 68.1843 377.685 68.021 377.684 67.8571C377.684 67.4289 377.825 67.0126 378.084 66.6718C378.343 66.3311 378.707 66.0847 379.12 65.9705V26.0797C378.802 26.0027 378.508 25.8477 378.265 25.6288V25.6288ZM306.096 24.1932C306.095 24.3493 306.075 24.5047 306.036 24.6559L319.573 32.4751L340.502 44.6132C340.682 44.432 340.897 44.2883 341.133 44.1906C341.369 44.0928 341.622 44.0429 341.878 44.0437C342.132 44.0418 342.384 44.0913 342.618 44.1892C342.853 44.287 343.065 44.4313 343.242 44.6132L377.732 24.6915C377.693 24.5403 377.673 24.3849 377.672 24.2288V24.2288C377.674 24.0728 377.694 23.9175 377.732 23.766L364.527 16.1367L343.254 3.85619C342.89 4.21383 342.4 4.4141 341.89 4.41386C341.376 4.41342 340.883 4.21347 340.514 3.85619L306.025 23.766C306.062 23.9175 306.082 24.0728 306.084 24.2288V24.2288L306.096 24.1932ZM304.648 65.9705C305.061 66.0847 305.425 66.3311 305.684 66.6718C305.943 67.0126 306.084 67.4289 306.084 67.8571C306.083 68.021 306.063 68.1843 306.025 68.3436L323.275 78.2985L340.502 88.2534C340.736 88.0158 341.032 87.8474 341.356 87.7669V47.8642C340.943 47.75 340.58 47.5037 340.32 47.163C340.061 46.8222 339.921 46.4059 339.92 45.9777C339.922 45.8138 339.942 45.6506 339.98 45.4912L322.089 35.1685L305.479 25.5933C305.24 25.825 304.946 25.9924 304.625 26.0797L304.648 65.9705ZM339.92 133.282C339.919 132.853 340.058 132.436 340.318 132.095C340.577 131.754 340.942 131.508 341.356 131.395V91.4926C341.036 91.4025 340.743 91.2355 340.502 91.0061L306.025 110.916C306.063 111.071 306.082 111.231 306.084 111.391C306.086 111.819 305.946 112.237 305.686 112.578C305.427 112.919 305.062 113.165 304.648 113.277V153.12C304.97 153.208 305.263 153.375 305.502 153.607L339.98 133.697C339.942 133.542 339.922 133.382 339.92 133.223V133.282ZM302.75 69.2691L268.261 89.1789C268.299 89.3343 268.319 89.4935 268.32 89.6535V89.6535C268.319 89.8134 268.299 89.9727 268.261 90.1281L288.513 101.815L302.75 110.038C303.118 109.677 303.611 109.473 304.126 109.468C304.638 109.473 305.128 109.677 305.491 110.038L339.98 90.1281C339.942 89.9727 339.922 89.8134 339.92 89.6535C339.922 89.4935 339.942 89.3343 339.98 89.1789L322.302 78.9748L305.491 69.2691C305.127 69.6267 304.637 69.827 304.126 69.8267C303.604 69.8106 303.109 69.5888 302.75 69.2098V69.2691ZM339.92 220.479C339.921 220.323 339.941 220.168 339.98 220.016L322.302 209.801L305.491 200.047C305.312 200.228 305.1 200.372 304.866 200.469C304.632 200.567 304.38 200.617 304.126 200.617C303.871 200.618 303.617 200.568 303.381 200.47C303.145 200.372 302.93 200.229 302.75 200.047L268.261 219.969C268.3 220.12 268.32 220.276 268.32 220.432V220.432C268.318 220.588 268.298 220.743 268.261 220.895L302.75 240.804C303.119 240.447 303.613 240.247 304.126 240.247C304.637 240.246 305.127 240.447 305.491 240.804L339.98 220.895C339.943 220.743 339.923 220.588 339.92 220.432V220.432V220.479ZM268.32 176.863C268.313 177.274 268.176 177.672 267.929 178C267.682 178.328 267.337 178.57 266.944 178.69V218.533C267.265 218.621 267.559 218.788 267.798 219.02L302.275 199.122C302.238 198.962 302.218 198.799 302.216 198.635C302.214 198.207 302.354 197.789 302.613 197.448C302.873 197.107 303.238 196.861 303.652 196.749V156.905C303.326 156.828 303.03 156.659 302.797 156.419L268.261 176.317C268.3 176.476 268.32 176.639 268.32 176.803V176.863ZM268.32 133.282C268.319 133.442 268.299 133.601 268.261 133.756L281.703 141.528L302.738 153.666C302.977 153.435 303.271 153.267 303.592 153.18V113.277C303.179 113.165 302.814 112.919 302.554 112.578C302.295 112.237 302.155 111.819 302.157 111.391C302.158 111.231 302.178 111.071 302.216 110.916L287.979 102.681L267.739 91.0061C267.5 91.2379 267.206 91.4053 266.885 91.4926V131.336C267.298 131.448 267.663 131.694 267.923 132.035C268.182 132.377 268.322 132.794 268.32 133.223V133.282ZM302.726 25.6526L268.249 45.5505C268.287 45.7099 268.307 45.8731 268.308 46.037C268.308 46.4652 268.168 46.8816 267.909 47.2223C267.649 47.5631 267.285 47.8094 266.873 47.9236V87.7669C267.198 87.8444 267.494 88.0132 267.727 88.2534L302.216 68.3436C302.177 68.1843 302.158 68.021 302.157 67.8571C302.157 67.4289 302.297 67.0126 302.557 66.6718C302.816 66.3311 303.18 66.0847 303.592 65.9705V26.0797C303.275 26.0027 302.981 25.8477 302.738 25.6288L302.726 25.6526ZM230.545 24.2525C230.544 24.4086 230.524 24.564 230.485 24.7152L244.129 32.5937L264.986 44.6132C265.166 44.4314 265.381 44.2875 265.617 44.1897C265.853 44.0919 266.107 44.0422 266.363 44.0437C266.616 44.0432 266.868 44.0933 267.102 44.191C267.336 44.2888 267.549 44.4323 267.727 44.6132L302.216 24.6915C302.177 24.5403 302.157 24.3849 302.157 24.2288C302.159 24.0728 302.179 23.9175 302.216 23.766L288.691 15.9587L267.727 3.85619C267.363 4.21383 266.873 4.4141 266.363 4.41386C265.848 4.41594 265.354 4.21562 264.986 3.85619L230.497 23.766C230.534 23.9175 230.554 24.0728 230.556 24.2288V24.2288L230.545 24.2525ZM229.121 65.9705C229.534 66.0847 229.897 66.3311 230.157 66.6718C230.416 67.0126 230.556 67.4289 230.556 67.8571C230.556 68.021 230.536 68.1843 230.497 68.3436L247.736 78.2985L264.974 88.2534C265.207 88.0132 265.503 87.8444 265.829 87.7669V47.8642C265.416 47.75 265.052 47.5037 264.793 47.163C264.534 46.8222 264.393 46.4059 264.393 45.9777C264.375 45.816 264.375 45.6529 264.393 45.4912L247.154 35.5363L229.975 25.6288C229.736 25.8606 229.442 26.028 229.121 26.1153V65.9705ZM264.393 133.282C264.391 132.853 264.531 132.436 264.79 132.095C265.05 131.754 265.415 131.508 265.829 131.395V91.4926C265.507 91.4053 265.214 91.2379 264.974 91.0061L230.497 110.916C230.535 111.071 230.555 111.231 230.556 111.391C230.558 111.819 230.419 112.237 230.159 112.578C229.9 112.919 229.535 113.165 229.121 113.277V153.12C229.442 153.208 229.736 153.375 229.975 153.607L264.452 133.697C264.414 133.542 264.395 133.382 264.393 133.223V133.282ZM227.223 69.2691L192.734 89.1789C192.772 89.3343 192.791 89.4935 192.793 89.6535C192.791 89.8134 192.772 89.9727 192.734 90.1281L212.986 101.815L227.223 110.038C227.589 109.675 228.083 109.471 228.599 109.468C229.111 109.473 229.6 109.677 229.963 110.038L264.452 90.1281C264.434 89.9704 264.434 89.8112 264.452 89.6535C264.434 89.4958 264.434 89.3366 264.452 89.1789L247.214 79.224L229.963 69.2691C229.599 69.6267 229.109 69.827 228.599 69.8267C228.34 69.82 228.085 69.762 227.849 69.6561C227.613 69.5502 227.4 69.3985 227.223 69.2098V69.2691ZM264.393 220.479C264.374 220.326 264.374 220.17 264.393 220.016L247.154 210.05L229.963 200.047C229.785 200.228 229.573 200.372 229.338 200.469C229.104 200.567 228.853 200.617 228.599 200.617C228.343 200.618 228.09 200.569 227.853 200.471C227.617 200.373 227.403 200.229 227.223 200.047L192.734 219.969C192.772 220.12 192.792 220.276 192.793 220.432V220.432C192.791 220.588 192.771 220.743 192.734 220.895L227.223 240.804C227.59 240.445 228.085 240.245 228.599 240.247C229.109 240.246 229.599 240.447 229.963 240.804L264.452 220.895C264.435 220.741 264.435 220.586 264.452 220.432V220.432L264.393 220.479ZM192.793 176.863C192.795 177.291 192.655 177.709 192.396 178.05C192.136 178.391 191.771 178.637 191.357 178.749V218.593C191.679 218.68 191.972 218.847 192.212 219.079L226.689 199.181C226.652 199.022 226.632 198.859 226.629 198.695C226.628 198.266 226.767 197.849 227.027 197.508C227.286 197.166 227.651 196.921 228.065 196.808V156.905C227.74 156.828 227.443 156.659 227.211 156.419L192.734 176.317C192.772 176.476 192.792 176.639 192.793 176.803V176.863ZM192.793 133.282C192.791 133.442 192.772 133.601 192.734 133.756L206.176 141.528L227.211 153.666C227.45 153.435 227.744 153.267 228.065 153.18V113.277C227.651 113.165 227.286 112.919 227.027 112.578C226.767 112.237 226.628 111.819 226.629 111.391C226.632 111.227 226.652 111.064 226.689 110.904L212.452 102.681L192.2 91.0061C191.961 91.2379 191.667 91.4053 191.345 91.4926V131.336C191.761 131.446 192.129 131.691 192.391 132.032C192.653 132.374 192.794 132.792 192.793 133.223V133.282ZM227.199 25.6526L192.722 45.5505C192.76 45.7099 192.78 45.8731 192.781 46.037C192.781 46.4652 192.64 46.8816 192.381 47.2223C192.122 47.5631 191.758 47.8094 191.345 47.9236V87.7669C191.671 87.8444 191.967 88.0132 192.2 88.2534L226.689 68.3436C226.65 68.1843 226.63 68.021 226.629 67.8571C226.63 67.4289 226.77 67.0126 227.029 66.6718C227.289 66.3311 227.652 66.0847 228.065 65.9705V26.0797C227.747 26.0027 227.454 25.8477 227.211 25.6288L227.199 25.6526ZM155.017 24.2525C155.017 24.4086 154.997 24.564 154.958 24.7152L166.407 31.3242L189.459 44.6132C189.637 44.4323 189.85 44.2888 190.084 44.191C190.318 44.0933 190.57 44.0432 190.823 44.0437C191.079 44.0422 191.333 44.0919 191.569 44.1897C191.805 44.2875 192.02 44.4314 192.2 44.6132L226.689 24.6915C226.65 24.5403 226.63 24.3849 226.629 24.2288V24.2288C226.632 24.0728 226.652 23.9175 226.689 23.766L213.164 15.9587L192.2 3.79688C191.832 4.15631 191.338 4.35663 190.823 4.35455C190.313 4.35479 189.823 4.15451 189.459 3.79688L154.97 23.7067C155.007 23.8582 155.027 24.0134 155.029 24.1694V24.1694L155.017 24.2525ZM153.594 65.9705C154.006 66.0847 154.37 66.3311 154.629 66.6718C154.889 67.0126 155.029 67.4289 155.029 67.8571C155.028 68.021 155.009 68.1843 154.97 68.3436L172.208 78.2985L189.447 88.2534C189.68 88.0132 189.976 87.8444 190.301 87.7669V47.8642C189.889 47.75 189.525 47.5037 189.266 47.163C189.006 46.8222 188.866 46.4059 188.866 45.9777C188.867 45.8138 188.887 45.6506 188.925 45.4912L174.024 36.8889L154.448 25.5933C154.209 25.825 153.915 25.9924 153.594 26.0797V65.9705ZM188.866 133.282C188.864 132.853 189.004 132.436 189.263 132.095C189.523 131.754 189.888 131.508 190.301 131.395V91.4926C189.98 91.4053 189.686 91.2379 189.447 91.0061L154.97 110.904C155.007 111.064 155.027 111.227 155.029 111.391C155.031 111.819 154.891 112.237 154.632 112.578C154.372 112.919 154.007 113.165 153.594 113.277V153.12C153.915 153.208 154.209 153.375 154.448 153.607L188.925 133.697C188.887 133.542 188.867 133.382 188.866 133.223V133.282ZM153.048 69.7674C152.538 69.7677 152.048 69.5674 151.683 69.2098L117.194 89.1196C117.232 89.275 117.252 89.4342 117.254 89.5942V89.5942C117.252 89.7541 117.232 89.9134 117.194 90.0688L137.363 101.709L151.683 110.014C152.046 109.653 152.536 109.449 153.048 109.445C153.563 109.447 154.058 109.651 154.424 110.014L188.913 90.1044C188.875 89.949 188.855 89.7897 188.854 89.6298C188.855 89.4698 188.875 89.3106 188.913 89.1552L171.675 79.2002L154.424 69.2454C154.051 69.5918 153.557 69.7791 153.048 69.7674V69.7674ZM117.254 133.223C117.252 133.382 117.232 133.542 117.194 133.697L130.731 141.516L151.672 153.607C151.911 153.375 152.205 153.208 152.526 153.12V113.277C152.112 113.165 151.747 112.919 151.488 112.578C151.228 112.237 151.088 111.819 151.09 111.391C151.092 111.231 151.112 111.071 151.15 110.916L136.83 102.61L116.66 90.9705C116.421 91.2023 116.127 91.3697 115.806 91.457V131.3C116.23 131.41 116.605 131.659 116.87 132.008C117.135 132.357 117.274 132.785 117.266 133.223H117.254ZM151.66 25.5933L117.182 45.4912C117.22 45.6506 117.24 45.8138 117.242 45.9777C117.242 46.4059 117.101 46.8222 116.842 47.163C116.583 47.5037 116.219 47.75 115.806 47.8642V87.7076C116.131 87.7851 116.428 87.9539 116.66 88.1941L151.161 68.3436C151.123 68.1843 151.103 68.021 151.102 67.8571C151.102 67.4289 151.243 67.0126 151.502 66.6718C151.761 66.3311 152.125 66.0847 152.538 65.9705V26.0797C152.22 26.0027 151.926 25.8477 151.683 25.6288L151.66 25.5933ZM79.49 24.1932C79.5088 24.3468 79.5088 24.5022 79.49 24.6559L90.1677 30.8139L113.896 44.6132C114.074 44.4323 114.287 44.2888 114.521 44.191C114.755 44.0933 115.007 44.0432 115.26 44.0437C115.516 44.0422 115.77 44.0919 116.006 44.1897C116.242 44.2875 116.457 44.4314 116.637 44.6132L151.126 24.6915C151.087 24.5403 151.067 24.3849 151.067 24.2288V24.2288C151.069 24.0728 151.089 23.9175 151.126 23.766L140.294 17.5131L116.637 3.85619C116.268 4.21347 115.774 4.41342 115.26 4.41386C114.75 4.4141 114.26 4.21383 113.896 3.85619L79.49 23.7067C79.5073 23.8605 79.5073 24.0157 79.49 24.1694V24.1932ZM78.0663 65.9705C78.4789 66.0847 78.8428 66.3311 79.1021 66.6718C79.3613 67.0126 79.5018 67.4289 79.5018 67.8571C79.5207 68.0187 79.5207 68.182 79.5018 68.3436L96.7405 78.2985L113.979 88.2534C114.212 88.0132 114.508 87.8444 114.833 87.7669V47.8642C114.421 47.75 114.057 47.5037 113.798 47.163C113.538 46.8222 113.398 46.4059 113.398 45.9777C113.399 45.8138 113.419 45.6506 113.457 45.4912L98.4726 36.8889L78.9205 25.6288C78.6815 25.8606 78.3875 26.028 78.0663 26.1153V65.9705ZM113.338 133.282C113.337 132.853 113.476 132.436 113.736 132.095C113.995 131.754 114.36 131.508 114.774 131.395V91.4926C114.453 91.4053 114.159 91.2379 113.92 91.0061L79.49 110.916C79.5081 111.074 79.5081 111.233 79.49 111.391C79.4919 111.819 79.3522 112.237 79.0926 112.578C78.833 112.919 78.468 113.165 78.0544 113.277V153.12C78.3757 153.208 78.6696 153.375 78.9086 153.607L113.386 133.697C113.352 133.541 113.336 133.382 113.338 133.223V133.282ZM76.168 69.2691L41.6789 89.1789C41.697 89.3366 41.697 89.4958 41.6789 89.6535V89.6535C41.697 89.8112 41.697 89.9704 41.6789 90.1281L64.7902 103.465L76.168 110.038C76.5309 109.677 77.0206 109.473 77.5324 109.468C78.0475 109.473 78.5407 109.677 78.9086 110.038L113.398 90.1281C113.36 89.9727 113.34 89.8134 113.338 89.6535V89.6535C113.34 89.4935 113.36 89.3343 113.398 89.1789L96.1591 79.224L78.9086 69.2691C78.5395 69.6264 78.046 69.8263 77.5324 69.8267C77.2755 69.8191 77.0226 69.7606 76.7885 69.6547C76.5543 69.5488 76.3434 69.3976 76.168 69.2098V69.2691ZM40.3382 87.7076C40.6634 87.7851 40.9598 87.9539 41.1924 88.1941L75.6341 68.3436C75.6153 68.182 75.6153 68.0187 75.6341 67.8571C75.6342 67.4289 75.7746 67.0126 76.0339 66.6718C76.2932 66.3311 76.6571 66.0847 77.0697 65.9705V26.0797C76.7459 25.99 76.4487 25.8231 76.2036 25.5933L41.7975 45.4912C41.8156 45.6529 41.8156 45.816 41.7975 45.9777C41.7974 46.4059 41.657 46.8222 41.3977 47.163C41.1384 47.5037 40.7746 47.75 40.3619 47.8642L40.3382 87.7076ZM76.1917 153.607C76.4307 153.375 76.7247 153.208 77.046 153.12V113.277C76.6323 113.165 76.2673 112.919 76.0077 112.578C75.7481 112.237 75.6084 111.819 75.6104 111.391C75.5922 111.233 75.5922 111.074 75.6104 110.916L53.0684 97.9235L41.0738 91.0061C40.8347 91.2379 40.5409 91.4053 40.2196 91.4926V131.336C40.6332 131.448 40.9982 131.694 41.2578 132.035C41.5174 132.377 41.657 132.794 41.6551 133.223C41.6732 133.38 41.6732 133.539 41.6551 133.697L65.4784 147.461L76.1917 153.607ZM40.3382 218.533C40.6595 218.621 40.9533 218.788 41.1924 219.02L75.6697 199.122C75.6524 198.96 75.6524 198.797 75.6697 198.635C75.6698 198.207 75.8102 197.791 76.0695 197.45C76.3287 197.109 76.6926 196.863 77.1053 196.749V156.905C76.7776 156.825 76.4782 156.657 76.2392 156.419L41.8331 176.329C41.8512 176.487 41.8512 176.646 41.8331 176.803C41.8317 177.24 41.6834 177.663 41.4123 178.006C41.1412 178.348 40.7629 178.589 40.3382 178.69V218.533ZM77.046 244.115C76.6333 244.001 76.2694 243.754 76.0102 243.413C75.7509 243.073 75.6104 242.656 75.6104 242.228C75.5922 242.066 75.5922 241.903 75.6104 241.742L53.8515 229.176L41.1331 221.832C40.9005 222.072 40.6041 222.241 40.2789 222.318V262.162C40.6915 262.276 41.0554 262.522 41.3147 262.863C41.574 263.204 41.7143 263.62 41.7144 264.048C41.7325 264.21 41.7325 264.373 41.7144 264.535L76.1205 284.445C76.3619 284.207 76.6601 284.036 76.9866 283.946L77.046 244.115ZM77.568 240.259C78.0817 240.259 78.5751 240.459 78.9442 240.816L113.433 220.906C113.396 220.755 113.376 220.6 113.374 220.444V220.444C113.375 220.288 113.395 220.132 113.433 219.981L96.1947 210.014L78.9086 200.047C78.7283 200.229 78.5138 200.372 78.2776 200.47C78.0413 200.568 77.788 200.618 77.5324 200.617C77.2785 200.617 77.0271 200.567 76.7929 200.469C76.5586 200.372 76.3462 200.228 76.168 200.047L41.6789 219.969C41.6977 220.123 41.6977 220.278 41.6789 220.432V220.432C41.6962 220.586 41.6962 220.741 41.6789 220.895L65.336 234.551L76.168 240.804C76.534 240.451 77.0237 240.255 77.5324 240.259H77.568ZM114.81 222.318C114.484 222.241 114.188 222.072 113.955 221.832L79.49 241.742C79.5088 241.903 79.5088 242.067 79.49 242.228C79.4899 242.656 79.3495 243.073 79.0902 243.413C78.8309 243.754 78.467 244.001 78.0544 244.115V283.946C78.3786 284.033 78.6736 284.205 78.9086 284.445L113.386 264.535C113.348 264.375 113.328 264.212 113.327 264.048C113.327 263.62 113.467 263.204 113.726 262.863C113.986 262.522 114.349 262.276 114.762 262.162L114.81 222.318ZM114.81 178.69C114.396 178.578 114.031 178.332 113.771 177.991C113.512 177.649 113.372 177.232 113.374 176.803C113.375 176.643 113.395 176.484 113.433 176.329L99.1015 168.023L78.9324 156.395C78.6998 156.635 78.4034 156.804 78.0781 156.882V196.725C78.4918 196.838 78.8568 197.083 79.1164 197.425C79.376 197.766 79.5156 198.183 79.5137 198.612C79.5311 198.773 79.5311 198.936 79.5137 199.098L93.0626 206.917L113.896 219.032C114.135 218.8 114.429 218.633 114.75 218.545L114.81 178.69ZM116.708 175.403L151.197 155.494C151.159 155.338 151.139 155.179 151.138 155.019V155.019C151.139 154.859 151.159 154.7 151.197 154.544L133.958 144.589L116.708 134.634C116.339 134.992 115.845 135.192 115.332 135.192C114.821 135.192 114.331 134.992 113.967 134.634L79.49 154.532C79.5081 154.69 79.5081 154.849 79.49 155.007C79.5081 155.165 79.5081 155.324 79.49 155.482L99.6591 167.121L113.991 175.427C114.355 175.069 114.845 174.869 115.355 174.869C115.846 174.876 116.316 175.067 116.672 175.403H116.708ZM116.708 219.02L151.185 199.122C151.148 198.962 151.128 198.799 151.126 198.635C151.126 198.207 151.266 197.791 151.526 197.45C151.785 197.109 152.149 196.863 152.561 196.749V156.905C152.236 156.828 151.94 156.659 151.707 156.419L117.206 176.317C117.244 176.472 117.264 176.632 117.266 176.792C117.267 177.22 117.128 177.638 116.868 177.979C116.609 178.32 116.244 178.566 115.83 178.678V218.521C116.154 218.616 116.448 218.791 116.684 219.032L116.708 219.02ZM188.89 220.42C188.89 220.264 188.91 220.108 188.949 219.957L154.436 200.047C154.256 200.229 154.042 200.373 153.805 200.471C153.569 200.569 153.315 200.618 153.06 200.617C152.806 200.617 152.554 200.567 152.32 200.469C152.086 200.372 151.873 200.228 151.695 200.047L117.206 219.969C117.245 220.12 117.265 220.276 117.266 220.432C117.263 220.588 117.243 220.743 117.206 220.895L151.695 240.804C152.059 240.447 152.549 240.246 153.06 240.247C153.574 240.245 154.068 240.445 154.436 240.804L188.925 220.895C188.888 220.743 188.868 220.588 188.866 220.432V220.432L188.89 220.42ZM190.301 178.69C189.888 178.578 189.523 178.332 189.263 177.991C189.004 177.649 188.864 177.232 188.866 176.803C188.867 176.643 188.887 176.484 188.925 176.329L174.593 168.023L154.424 156.395C154.191 156.635 153.895 156.804 153.57 156.882V196.725C153.984 196.838 154.349 197.083 154.608 197.425C154.868 197.766 155.007 198.183 155.005 198.612C155.003 198.775 154.983 198.939 154.946 199.098L189.447 219.032C189.686 218.8 189.98 218.633 190.301 218.545V178.69ZM190.823 174.846C191.338 174.844 191.832 175.044 192.2 175.403L226.689 155.494C226.651 155.338 226.631 155.179 226.629 155.019V155.019C226.631 154.859 226.651 154.7 226.689 154.544L209.45 144.589L192.2 134.623C191.832 134.982 191.338 135.182 190.823 135.18C190.313 135.181 189.823 134.98 189.459 134.623L154.97 154.532C155.008 154.688 155.028 154.847 155.029 155.007V155.007C155.028 155.167 155.008 155.326 154.97 155.482L175.139 167.121L189.471 175.427C189.828 175.064 190.314 174.855 190.823 174.846V174.846ZM265.829 222.306C265.503 222.229 265.207 222.06 264.974 221.82L230.497 241.73C230.535 241.889 230.555 242.052 230.556 242.216C230.556 242.736 230.35 243.233 229.983 243.601C229.616 243.968 229.118 244.174 228.599 244.174C228.341 244.176 228.085 244.126 227.846 244.028C227.607 243.931 227.39 243.787 227.207 243.605C227.024 243.423 226.879 243.207 226.78 242.968C226.68 242.73 226.629 242.474 226.629 242.216C226.63 242.052 226.65 241.889 226.689 241.73L192.2 221.832C191.967 222.072 191.671 222.241 191.345 222.318V262.162C191.758 262.276 192.122 262.522 192.381 262.863C192.64 263.204 192.781 263.62 192.781 264.048C192.78 264.212 192.76 264.375 192.722 264.535L228.587 285.24L264.441 264.535C264.422 264.373 264.422 264.21 264.441 264.048C264.441 263.62 264.581 263.204 264.84 262.863C265.1 262.522 265.464 262.276 265.876 262.162L265.829 222.306ZM265.829 178.678C265.415 178.566 265.05 178.32 264.79 177.979C264.531 177.638 264.391 177.22 264.393 176.792C264.375 176.634 264.375 176.475 264.393 176.317L249.99 168.011L229.916 156.419C229.683 156.659 229.387 156.828 229.062 156.905V196.749C229.474 196.863 229.838 197.109 230.097 197.45C230.357 197.791 230.497 198.207 230.497 198.635C230.496 198.795 230.476 198.955 230.438 199.11L244.082 206.989L264.974 219.032C265.214 218.8 265.507 218.633 265.829 218.545V178.678ZM266.363 174.834C266.873 174.834 267.363 175.034 267.727 175.391L302.216 155.482C302.178 155.326 302.158 155.167 302.157 155.007V155.007C302.158 154.847 302.178 154.688 302.216 154.532L284.977 144.578L267.727 134.623C267.363 134.98 266.873 135.181 266.363 135.18C265.848 135.182 265.354 134.982 264.986 134.623L230.497 154.532C230.535 154.688 230.555 154.847 230.556 155.007V155.007C230.555 155.167 230.535 155.326 230.497 155.482L250.583 167.074L264.986 175.38C265.358 175.029 265.852 174.837 266.363 174.846V174.834ZM341.356 222.295C341.031 222.217 340.734 222.048 340.502 221.808L306.025 241.718C306.063 241.877 306.083 242.041 306.084 242.204C306.084 242.724 305.878 243.222 305.51 243.589C305.143 243.956 304.645 244.162 304.126 244.162C303.868 244.164 303.612 244.114 303.373 244.017C303.135 243.919 302.917 243.775 302.734 243.593C302.551 243.411 302.406 243.195 302.307 242.956C302.208 242.718 302.157 242.463 302.157 242.204C302.158 242.041 302.177 241.877 302.216 241.718L267.739 221.808C267.506 222.048 267.21 222.217 266.885 222.295V262.138C267.297 262.252 267.661 262.498 267.92 262.839C268.18 263.18 268.32 263.596 268.32 264.025C268.319 264.188 268.299 264.352 268.261 264.511L304.126 285.216L339.98 264.511C339.942 264.352 339.922 264.188 339.92 264.025C339.921 263.596 340.061 263.18 340.32 262.839C340.58 262.498 340.943 262.252 341.356 262.138V222.295ZM341.356 178.666C340.942 178.554 340.577 178.308 340.318 177.967C340.058 177.626 339.919 177.208 339.92 176.78C339.922 176.62 339.942 176.46 339.98 176.305L325.031 167.667L305.502 156.395C305.27 156.635 304.974 156.804 304.648 156.882V196.725C305.062 196.838 305.427 197.083 305.686 197.425C305.946 197.766 306.086 198.183 306.084 198.612C306.082 198.775 306.062 198.939 306.025 199.098L319.562 206.905L340.502 219.032C340.743 218.802 341.036 218.635 341.356 218.545V178.666ZM343.254 175.38L377.743 155.47C377.705 155.314 377.686 155.155 377.684 154.995V154.995C377.686 154.835 377.705 154.676 377.743 154.521L360.944 144.827L343.254 134.611C342.89 134.968 342.4 135.169 341.89 135.168C341.376 135.168 340.883 134.968 340.514 134.611L306.025 154.521C306.063 154.676 306.082 154.835 306.084 154.995C306.082 155.155 306.063 155.314 306.025 155.47L326.194 167.11L340.514 175.415C340.883 175.058 341.376 174.858 341.89 174.858C342.399 174.852 342.89 175.048 343.254 175.403V175.38ZM379.12 156.882C378.794 156.804 378.498 156.635 378.265 156.395L343.788 176.317C343.826 176.472 343.846 176.632 343.848 176.792C343.848 177.218 343.709 177.633 343.452 177.974C343.195 178.314 342.834 178.562 342.424 178.678V218.521C342.743 218.614 343.036 218.781 343.278 219.008L377.743 199.11C377.706 198.95 377.686 198.787 377.684 198.624C377.684 198.195 377.825 197.779 378.084 197.438C378.343 197.097 378.707 196.851 379.12 196.737V156.882ZM379.12 113.253C378.706 113.141 378.341 112.895 378.081 112.554C377.822 112.213 377.682 111.796 377.684 111.367C377.686 111.207 377.705 111.048 377.743 110.892L363.874 102.883L343.266 91.018C343.03 91.2472 342.74 91.4144 342.424 91.5045V131.348C342.834 131.464 343.195 131.711 343.452 132.052C343.709 132.393 343.848 132.808 343.848 133.234C343.846 133.394 343.826 133.554 343.788 133.709L357.337 141.54L378.265 153.619C378.506 153.389 378.8 153.222 379.12 153.132V113.253ZM381.018 109.967L415.507 90.0569C415.469 89.9015 415.449 89.7423 415.448 89.5823V89.5823C415.449 89.4223 415.469 89.2631 415.507 89.1077L398.268 79.1528L381.018 69.1979C380.654 69.5555 380.164 69.7558 379.654 69.7555C379.14 69.7551 378.646 69.5552 378.277 69.1979L343.788 89.1077C343.826 89.2631 343.846 89.4223 343.848 89.5823V89.5823C343.846 89.7423 343.826 89.9015 343.788 90.0569L363.957 101.685L378.289 109.99C378.657 109.63 379.15 109.426 379.665 109.421C380.173 109.428 380.658 109.632 381.018 109.99V109.967ZM416.883 91.4689C416.563 91.3787 416.27 91.2117 416.029 90.9824L381.552 110.88C381.593 111.039 381.617 111.203 381.623 111.367C381.622 111.797 381.48 112.214 381.219 112.555C380.957 112.896 380.59 113.141 380.176 113.253V153.097C380.499 153.186 380.797 153.353 381.042 153.583L415.519 133.673C415.471 133.52 415.447 133.36 415.448 133.199C415.446 132.77 415.586 132.353 415.845 132.012C416.105 131.67 416.47 131.425 416.883 131.312V91.4689ZM416.883 47.8405C416.471 47.7263 416.107 47.48 415.848 47.1392C415.588 46.7985 415.448 46.3821 415.448 45.954C415.447 45.7892 415.471 45.6252 415.519 45.4675L398.268 35.5126L381.042 25.6288C380.797 25.8587 380.499 26.0256 380.176 26.1153V65.9705C380.589 66.0843 380.955 66.3302 381.216 66.6707C381.477 67.0113 381.62 67.4279 381.623 67.8571C381.619 68.0215 381.595 68.1848 381.552 68.3436L398.802 78.2985L416.029 88.2534C416.264 88.0158 416.559 87.8474 416.883 87.7669V47.8405ZM418.805 44.6132L453.295 24.6915C453.256 24.5403 453.236 24.3849 453.235 24.2288C453.237 24.0728 453.257 23.9175 453.295 23.766L439.663 15.8994L418.805 3.79688C418.626 3.97504 418.413 4.116 418.179 4.2117C417.945 4.30739 417.694 4.35595 417.441 4.35455C416.927 4.35411 416.434 4.15416 416.065 3.79688L381.576 23.7067C381.617 23.8578 381.64 24.013 381.647 24.1694V24.1694C381.642 24.326 381.618 24.4815 381.576 24.6322L395.113 32.4513L416.065 44.5538C416.245 44.3727 416.46 44.229 416.696 44.1313C416.932 44.0335 417.185 43.9836 417.441 43.9843C417.699 43.9901 417.954 44.0489 418.188 44.1571C418.423 44.2652 418.633 44.4205 418.805 44.6132V44.6132ZM418.805 88.2297L453.283 68.3436C453.234 68.1861 453.21 68.022 453.211 67.8571C453.21 67.4299 453.35 67.0144 453.61 66.6752C453.87 66.3361 454.234 66.0925 454.647 65.9824V26.0797C454.327 25.9896 454.034 25.8226 453.793 25.5933L419.316 45.4912C419.357 45.6502 419.381 45.8133 419.387 45.9777C419.385 46.4054 419.244 46.8208 418.985 47.1611C418.726 47.5015 418.363 47.7483 417.951 47.8642V87.7076C418.274 87.7909 418.569 87.9588 418.805 88.1941V88.2297ZM490.975 89.6298C490.957 89.4721 490.957 89.3128 490.975 89.1552L456.486 69.2454C456.306 69.4235 456.093 69.5645 455.859 69.6602C455.625 69.7559 455.375 69.8044 455.122 69.803C454.608 69.8026 454.114 69.6026 453.745 69.2454L419.256 89.1552C419.298 89.3101 419.322 89.4694 419.327 89.6298V89.6298C419.322 89.7902 419.298 89.9494 419.256 90.1044L453.745 110.014C454.113 109.654 454.606 109.45 455.122 109.445C455.634 109.446 456.125 109.651 456.486 110.014L490.975 90.1044C490.957 89.9467 490.957 89.7874 490.975 89.6298ZM492.411 47.8998C491.998 47.7856 491.634 47.5393 491.375 47.1986C491.116 46.8578 490.975 46.4415 490.975 46.0133C490.975 45.8485 490.999 45.6845 491.046 45.5268L473.796 35.5719L456.569 25.6288C456.324 25.8587 456.027 26.0256 455.703 26.1153V65.9705C456.117 66.0843 456.482 66.3302 456.743 66.6707C457.005 67.0113 457.148 67.4279 457.15 67.8571C457.146 68.0215 457.122 68.1848 457.079 68.3436L491.556 88.2534C491.791 88.0158 492.087 87.8474 492.411 87.7669V47.8998ZM492.945 44.0437C493.2 44.0429 493.453 44.0928 493.69 44.1906C493.926 44.2883 494.14 44.432 494.321 44.6132L528.798 24.6915C528.759 24.5403 528.739 24.3849 528.739 24.2288V24.2288C528.741 24.0728 528.761 23.9175 528.798 23.766L514.644 15.5909L494.309 3.85619C494.129 4.03435 493.916 4.17533 493.682 4.27103C493.448 4.36672 493.198 4.41526 492.945 4.41386C492.431 4.41342 491.937 4.21347 491.568 3.85619L457.079 23.766C457.12 23.9171 457.144 24.0723 457.15 24.2288C457.146 24.3854 457.122 24.5408 457.079 24.6915L470.616 32.5107L491.568 44.6132C491.746 44.4255 491.959 44.2753 492.195 44.1714C492.432 44.0675 492.686 44.0119 492.945 44.0081V44.0437ZM530.174 26.1153C529.855 26.0226 529.563 25.8559 529.32 25.6288L494.843 45.5268C494.885 45.6858 494.909 45.8489 494.914 46.0133C494.912 46.441 494.771 46.8564 494.512 47.1967C494.253 47.5371 493.89 47.7839 493.478 47.8998V87.7432C493.801 87.8265 494.096 87.9944 494.333 88.2297L528.81 68.3436C528.761 68.1861 528.737 68.022 528.739 67.8571C528.739 67.4289 528.879 67.0126 529.139 66.6718C529.398 66.3311 529.762 66.0847 530.174 65.9705V26.1153ZM604.266 24.205C604.268 24.049 604.288 23.8938 604.325 23.7423L569.848 3.83247C569.479 4.18976 568.986 4.3897 568.472 4.39014C567.958 4.3897 567.465 4.18976 567.096 3.83247L532.607 23.7423C532.653 23.8921 532.677 24.0481 532.678 24.205V24.205C532.679 24.3621 532.655 24.5184 532.607 24.6678L567.108 44.6132C567.288 44.432 567.502 44.2883 567.739 44.1906C567.975 44.0928 568.228 44.0429 568.484 44.0437C568.739 44.0429 568.993 44.0928 569.229 44.1906C569.465 44.2883 569.68 44.432 569.86 44.6132L604.337 24.6915C604.299 24.5403 604.279 24.3849 604.278 24.2288L604.266 24.205Z" fill="url(#paint0_linear_1577_8130)"/>
<path d="M1996.03 63.7009C1996.03 63.1785 1996.23 62.6775 1996.6 62.3081C1996.97 61.9388 1997.47 61.7312 1997.99 61.7312C1998.52 61.7343 1999.02 61.9429 1999.38 62.3116C1999.75 62.6803 1999.96 63.1794 1999.96 63.7009V63.7009C1999.96 64.2232 1999.76 64.7242 1999.39 65.0936C1999.02 65.463 1998.52 65.6705 1997.99 65.6705C1997.74 65.6705 1997.48 65.6195 1997.24 65.5205C1997 65.4216 1996.79 65.2765 1996.6 65.0936C1996.42 64.9107 1996.27 64.6936 1996.18 64.4546C1996.08 64.2156 1996.03 63.9595 1996.03 63.7009ZM1997.99 109.275C1998.52 109.275 1999.02 109.068 1999.39 108.698C1999.76 108.329 1999.96 107.828 1999.96 107.305C1999.96 106.785 1999.75 106.287 1999.38 105.92C1999.01 105.554 1998.52 105.348 1997.99 105.348C1997.74 105.346 1997.48 105.396 1997.24 105.493C1997 105.591 1996.79 105.735 1996.6 105.917C1996.42 106.099 1996.27 106.315 1996.18 106.554C1996.08 106.792 1996.03 107.047 1996.03 107.305C1996.03 107.828 1996.23 108.329 1996.6 108.698C1996.97 109.068 1997.47 109.275 1997.99 109.275ZM1997.99 196.496C1998.52 196.506 1999.02 196.309 1999.39 195.949C1999.77 195.589 1999.99 195.094 2000 194.574C2000 194.052 1999.79 193.551 1999.42 193.181C1999.05 192.812 1998.55 192.604 1998.03 192.604C1997.51 192.604 1997.01 192.812 1996.64 193.181C1996.27 193.551 1996.06 194.052 1996.06 194.574V194.574C1996.07 195.082 1996.28 195.566 1996.64 195.924C1997 196.282 1997.49 196.487 1997.99 196.496ZM1997.99 240.113C1998.52 240.11 1999.02 239.901 1999.38 239.532C1999.75 239.164 1999.96 238.665 1999.96 238.143C1999.96 237.621 1999.76 237.12 1999.39 236.75C1999.02 236.381 1998.52 236.173 1997.99 236.173C1997.47 236.173 1996.97 236.381 1996.6 236.75C1996.23 237.12 1996.03 237.621 1996.03 238.143C1996.03 238.402 1996.08 238.658 1996.18 238.897C1996.27 239.136 1996.42 239.353 1996.6 239.536C1996.79 239.719 1997 239.864 1997.24 239.963C1997.48 240.062 1997.74 240.113 1997.99 240.113V240.113ZM1997.99 327.322C1998.52 327.322 1999.01 327.116 1999.38 326.749C1999.75 326.383 1999.96 325.885 1999.96 325.364V325.364C1999.96 324.842 1999.76 324.341 1999.39 323.972C1999.02 323.602 1998.52 323.395 1997.99 323.395C1997.47 323.395 1996.97 323.602 1996.6 323.972C1996.23 324.341 1996.03 324.842 1996.03 325.364V325.364C1996.03 325.622 1996.08 325.878 1996.18 326.116C1996.27 326.355 1996.42 326.571 1996.6 326.753C1996.79 326.935 1997 327.079 1997.24 327.176C1997.48 327.274 1997.74 327.324 1997.99 327.322ZM1997.99 152.903C1998.52 152.903 1999.02 152.696 1999.39 152.327C1999.76 151.957 1999.96 151.456 1999.96 150.934C1999.96 150.412 1999.75 149.913 1999.38 149.545C1999.02 149.176 1998.52 148.967 1997.99 148.964C1997.47 148.964 1996.97 149.172 1996.6 149.541C1996.23 149.91 1996.03 150.411 1996.03 150.934C1996.03 151.45 1996.25 151.942 1996.61 152.304C1996.98 152.665 1997.48 152.868 1997.99 152.868L1997.99 152.903ZM1997.99 283.729C1998.52 283.729 1999.01 283.523 1999.38 283.157C1999.75 282.79 1999.96 282.292 1999.96 281.771C1999.96 281.249 1999.76 280.748 1999.39 280.379C1999.02 280.009 1998.52 279.802 1997.99 279.802C1997.47 279.802 1996.97 280.009 1996.6 280.379C1996.23 280.748 1996.03 281.249 1996.03 281.771C1996.03 282.287 1996.25 282.777 1996.62 283.137C1996.98 283.497 1997.48 283.697 1997.99 283.694L1997.99 283.729ZM1357.33 345.772L1391.81 325.863C1391.79 325.709 1391.79 325.554 1391.81 325.4V325.4C1391.79 325.246 1391.79 325.091 1391.81 324.937L1357.38 304.921C1357.2 305.102 1356.98 305.245 1356.75 305.343C1356.51 305.441 1356.26 305.491 1356 305.49C1355.74 305.496 1355.48 305.448 1355.24 305.35C1354.99 305.252 1354.77 305.106 1354.59 304.921L1349.43 307.899L1349.43 306.712L1354.07 304.043C1354.02 303.885 1354 303.721 1354 303.556C1354 303.034 1354.2 302.533 1354.57 302.163C1354.94 301.794 1355.44 301.586 1355.97 301.586C1356.49 301.586 1356.99 301.794 1357.36 302.163C1357.73 302.533 1357.93 303.034 1357.93 303.556C1357.94 303.721 1357.91 303.885 1357.86 304.043L1392.38 323.905C1392.75 323.541 1393.25 323.337 1393.76 323.335C1394.28 323.337 1394.78 323.541 1395.15 323.905L1429.63 304.007C1429.59 303.848 1429.56 303.685 1429.56 303.52C1429.56 303.262 1429.61 303.006 1429.71 302.767C1429.81 302.528 1429.95 302.311 1430.14 302.128C1430.32 301.945 1430.54 301.8 1430.77 301.701C1431.01 301.602 1431.27 301.551 1431.53 301.551C1432.05 301.551 1432.55 301.758 1432.92 302.128C1433.29 302.497 1433.5 302.998 1433.5 303.52C1433.5 303.685 1433.47 303.849 1433.43 304.007L1467.9 323.905C1468.15 323.678 1468.44 323.511 1468.76 323.418L1468.76 283.563C1468.35 283.447 1467.98 283.2 1467.72 282.86C1467.47 282.52 1467.32 282.104 1467.32 281.677C1467.32 281.154 1467.53 280.653 1467.9 280.284C1468.27 279.915 1468.77 279.707 1469.29 279.707C1469.81 279.707 1470.3 279.907 1470.67 280.265L1505.16 260.355C1505.11 260.201 1505.09 260.041 1505.09 259.88V259.88C1505.09 259.358 1505.29 258.857 1505.66 258.487C1506.03 258.118 1506.53 257.911 1507.06 257.911C1507.31 257.909 1507.57 257.958 1507.81 258.056C1508.04 258.154 1508.26 258.298 1508.44 258.48L1542.92 238.582C1542.88 238.423 1542.86 238.26 1542.85 238.096C1542.85 237.573 1543.06 237.072 1543.43 236.703C1543.8 236.334 1544.3 236.126 1544.82 236.126C1545.34 236.126 1545.84 236.334 1546.21 236.703C1546.58 237.072 1546.79 237.573 1546.79 238.096C1546.79 238.257 1546.76 238.417 1546.72 238.57L1581.19 258.528C1581.44 258.3 1581.73 258.134 1582.05 258.041L1582.05 218.198C1581.64 218.082 1581.27 217.835 1581.02 217.495C1580.76 217.154 1580.62 216.739 1580.61 216.311C1580.62 215.791 1580.83 215.293 1581.19 214.926C1581.56 214.559 1582.06 214.353 1582.58 214.353C1583.1 214.354 1583.59 214.554 1583.96 214.911L1618.45 195.001C1618.41 194.846 1618.38 194.687 1618.38 194.527C1618.38 194.097 1618.52 193.679 1618.78 193.338C1619.04 192.997 1619.41 192.752 1619.82 192.64L1619.82 152.797C1619.41 152.685 1619.04 152.439 1618.78 152.098C1618.52 151.757 1618.38 151.34 1618.38 150.91C1618.38 150.389 1618.59 149.89 1618.96 149.521C1619.33 149.152 1619.83 148.944 1620.35 148.941C1620.6 148.94 1620.86 148.99 1621.09 149.087C1621.33 149.185 1621.54 149.329 1621.72 149.51L1656.21 129.588C1656.17 129.437 1656.15 129.282 1656.15 129.126V129.126C1656.15 128.701 1656.29 128.287 1656.55 127.949C1656.81 127.61 1657.17 127.365 1657.58 127.251L1657.58 87.4076C1657.17 87.2895 1656.81 87.0417 1656.55 86.7016C1656.29 86.3614 1656.15 85.9472 1656.15 85.521C1656.15 85.2629 1656.2 85.0071 1656.3 84.7682C1656.4 84.5293 1656.54 84.312 1656.72 84.129C1656.9 83.9459 1657.12 83.8007 1657.36 83.7015C1657.6 83.6024 1657.85 83.5514 1658.11 83.5514C1658.62 83.5518 1659.12 83.7517 1659.49 84.109L1695.87 63.1076L1732.27 84.109C1732.64 83.7514 1733.13 83.5511 1733.64 83.5514C1733.89 83.5499 1734.15 83.5996 1734.38 83.6974C1734.62 83.7952 1734.83 83.9392 1735.01 84.1209L1771.4 63.1076L1807.8 84.0734C1808.17 83.714 1808.66 83.5137 1809.18 83.5158C1809.43 83.5157 1809.69 83.5668 1809.93 83.6659C1810.17 83.765 1810.38 83.9103 1810.57 84.0934C1810.75 84.2764 1810.89 84.4936 1810.99 84.7325C1811.09 84.9714 1811.14 85.2273 1811.13 85.4854C1811.13 85.9136 1810.99 86.3299 1810.73 86.6707C1810.48 87.0114 1810.11 87.2578 1809.7 87.3719L1809.7 127.215C1810.02 127.293 1810.32 127.462 1810.55 127.702L1845.03 107.792C1844.99 107.633 1844.97 107.469 1844.97 107.306C1844.97 107.046 1845.02 106.79 1845.12 106.551C1845.22 106.312 1845.37 106.095 1845.55 105.913C1845.74 105.731 1845.96 105.587 1846.2 105.49C1846.44 105.393 1846.69 105.345 1846.95 105.348C1847.47 105.348 1847.97 105.554 1848.34 105.921C1848.7 106.288 1848.91 106.786 1848.91 107.306C1848.91 107.469 1848.89 107.633 1848.85 107.792L1883.33 127.702C1883.56 127.462 1883.86 127.293 1884.18 127.215L1884.18 87.3719C1883.77 87.2578 1883.41 87.0114 1883.15 86.6707C1882.89 86.3299 1882.75 85.9136 1882.75 85.4854C1882.75 84.963 1882.95 84.462 1883.32 84.0926C1883.69 83.7233 1884.19 83.5157 1884.72 83.5157C1885.23 83.5155 1885.72 83.7158 1886.08 84.0734L1920.51 64.1636C1920.49 64.0099 1920.49 63.8545 1920.51 63.7009C1920.51 63.1785 1920.72 62.6775 1921.09 62.3081C1921.46 61.9388 1921.96 61.7312 1922.48 61.7312C1923 61.7349 1923.5 61.9438 1923.87 62.3126L1958.27 42.4028C1958.26 42.2412 1958.26 42.078 1958.27 41.9163C1958.27 41.394 1958.48 40.893 1958.85 40.5236C1959.22 40.1542 1959.72 39.9467 1960.24 39.9467C1960.76 39.9498 1961.26 40.1588 1961.63 40.5278C1961.99 40.8968 1962.2 41.396 1962.2 41.9163C1962.22 42.078 1962.22 42.2412 1962.2 42.4028L1990.34 58.6463L1990.34 59.8328L1961.67 43.2808C1961.3 43.6385 1960.81 43.8387 1960.3 43.8385C1959.79 43.838 1959.3 43.6381 1958.93 43.2808L1924.44 63.1906C1924.45 63.3444 1924.45 63.4996 1924.44 63.6534V63.6534C1924.46 63.8071 1924.46 63.9625 1924.44 64.1161L1958.93 84.0259C1959.3 83.6687 1959.79 83.4687 1960.3 83.4683C1960.81 83.468 1961.3 83.6683 1961.67 84.0259L1990.34 67.474L1990.34 68.6605L1962.2 84.904C1962.22 85.0656 1962.22 85.2288 1962.2 85.3905C1962.2 85.8187 1962.06 86.235 1961.8 86.5758C1961.54 86.9165 1961.18 87.1628 1960.77 87.277L1960.77 127.215C1961.09 127.296 1961.39 127.464 1961.63 127.702L1990.28 111.15L1990.28 112.336L1962.14 128.58C1962.16 128.734 1962.16 128.889 1962.14 129.043V129.043C1962.16 129.196 1962.16 129.352 1962.14 129.505L1976.58 137.811L1990.28 145.725L1990.28 146.912L1980.36 141.193L1961.63 130.371C1961.39 130.601 1961.09 130.768 1960.77 130.858L1960.77 170.844C1961.18 170.956 1961.54 171.202 1961.8 171.543C1962.06 171.884 1962.2 172.302 1962.2 172.73C1962.22 172.888 1962.22 173.047 1962.2 173.205L1982.99 185.212L1990.34 189.46L1990.34 190.647L1982.86 186.328L1961.67 174.095C1961.3 174.452 1960.81 174.653 1960.3 174.652C1959.79 174.652 1959.3 174.452 1958.93 174.095L1924.44 194.005C1924.46 194.162 1924.46 194.321 1924.44 194.479V194.479C1924.46 194.637 1924.46 194.796 1924.44 194.954L1943.31 205.846L1958.93 214.864C1959.3 214.506 1959.79 214.306 1960.3 214.306C1960.81 214.306 1961.3 214.506 1961.67 214.864L1990.34 198.312L1990.34 199.498L1962.2 215.753C1962.22 215.911 1962.22 216.07 1962.2 216.228C1962.2 216.657 1962.06 217.074 1961.8 217.415C1961.54 217.756 1961.18 218.002 1960.77 218.115L1960.77 258.041C1961.09 258.128 1961.38 258.296 1961.62 258.528L1990.27 242.035L1990.27 243.221L1962.13 259.465C1962.15 259.623 1962.15 259.782 1962.13 259.94V259.94C1962.15 260.097 1962.15 260.256 1962.13 260.414L1976.57 268.72L1990.27 276.622L1990.27 277.809L1980.35 272.078L1961.61 261.257C1961.37 261.497 1961.08 261.665 1960.75 261.743L1960.75 301.669C1961.17 301.784 1961.53 302.03 1961.79 302.371C1962.05 302.711 1962.19 303.128 1962.19 303.556C1962.21 303.718 1962.21 303.881 1962.19 304.042L1979.46 314.009L1990.33 320.286L1990.33 321.472L1982.84 317.142L1961.6 304.921C1961.42 305.101 1961.21 305.245 1960.97 305.343C1960.74 305.44 1960.49 305.491 1960.23 305.49C1959.98 305.491 1959.72 305.441 1959.49 305.343C1959.25 305.245 1959.04 305.102 1958.86 304.921L1924.37 324.842C1924.38 324.996 1924.38 325.151 1924.37 325.305C1924.38 325.459 1924.38 325.614 1924.37 325.768L1938 333.634L1958.86 345.678C1959.22 345.32 1959.72 345.12 1960.23 345.12C1960.74 345.12 1961.23 345.32 1961.6 345.678L1990.27 329.066L1990.27 330.253L1962.13 346.496C1962.15 346.658 1962.15 346.821 1962.13 346.983C1962.13 347.411 1961.99 347.827 1961.73 348.168C1961.47 348.509 1961.11 348.755 1960.69 348.869L1960.69 349.368L1959.64 349.368L1959.64 348.869C1959.23 348.755 1958.86 348.509 1958.6 348.168C1958.34 347.827 1958.2 347.411 1958.2 346.983C1958.18 346.821 1958.18 346.658 1958.2 346.496L1937.48 334.584L1923.86 326.717C1923.61 326.954 1923.32 327.126 1922.99 327.215L1922.99 349.534L1921.93 349.534L1921.93 327.251C1921.61 327.164 1921.31 326.992 1921.08 326.752L1886.6 346.662C1886.64 346.822 1886.66 346.985 1886.66 347.149C1886.66 347.577 1886.52 347.993 1886.26 348.334C1886 348.675 1885.64 348.921 1885.23 349.035L1885.23 349.534L1884.17 349.534L1884.17 349.035C1883.76 348.921 1883.39 348.675 1883.13 348.334C1882.87 347.993 1882.73 347.577 1882.73 347.149C1882.74 346.985 1882.76 346.822 1882.79 346.662L1866.49 337.253L1848.32 326.752C1848.08 326.992 1847.79 327.164 1847.46 327.251L1847.46 349.534L1846.41 349.534L1846.41 327.251C1846.08 327.164 1845.79 326.992 1845.55 326.752L1811.07 346.662C1811.11 346.822 1811.13 346.985 1811.13 347.149C1811.13 347.577 1810.99 347.993 1810.73 348.334C1810.48 348.675 1810.11 348.921 1809.7 349.035L1809.7 349.534L1808.64 349.534L1808.64 349.035C1808.23 348.921 1807.87 348.675 1807.61 348.334C1807.35 347.993 1807.21 347.577 1807.21 347.149C1807.21 346.985 1807.23 346.822 1807.27 346.662L1789.21 336.233L1772.79 326.741C1772.55 326.98 1772.26 327.152 1771.93 327.239L1771.93 349.534L1770.88 349.534L1770.88 327.251C1770.55 327.164 1770.26 326.992 1770.02 326.752L1735.55 346.662C1735.57 346.824 1735.57 346.987 1735.55 347.149C1735.55 347.577 1735.41 347.993 1735.15 348.334C1734.89 348.675 1734.52 348.921 1734.11 349.035L1734.11 349.534L1733.06 349.534L1733.06 349.035C1732.64 348.921 1732.28 348.675 1732.02 348.334C1731.76 347.993 1731.62 347.577 1731.62 347.149C1731.62 346.985 1731.64 346.822 1731.68 346.662L1713.62 336.233L1697.2 326.741C1696.97 326.98 1696.67 327.152 1696.35 327.239L1696.35 349.534L1695.29 349.534L1695.29 327.251C1694.97 327.161 1694.67 326.99 1694.43 326.753L1659.96 346.662C1660 346.822 1660.02 346.985 1660.02 347.149C1660.02 347.577 1659.88 347.993 1659.62 348.334C1659.36 348.675 1659 348.921 1658.58 349.035L1658.58 349.534L1657.52 349.534L1657.52 349.035C1657.11 348.917 1656.75 348.67 1656.49 348.329C1656.23 347.989 1656.09 347.575 1656.09 347.149C1656.09 346.985 1656.11 346.822 1656.15 346.662L1638.12 336.245L1621.68 326.753C1621.44 326.989 1621.14 327.161 1620.82 327.251L1620.82 349.534L1619.77 349.534L1619.77 327.251C1619.44 327.161 1619.14 326.99 1618.9 326.753L1584.42 346.662C1584.47 346.82 1584.49 346.984 1584.49 347.149C1584.49 347.577 1584.35 347.993 1584.09 348.334C1583.83 348.675 1583.47 348.921 1583.06 349.035L1583.06 349.534L1581.99 349.534L1581.99 349.035C1581.58 348.919 1581.22 348.673 1580.96 348.332C1580.7 347.992 1580.56 347.577 1580.55 347.149C1580.56 346.984 1580.58 346.821 1580.63 346.662L1562.59 336.245L1546.15 326.753C1545.91 326.989 1545.62 327.161 1545.29 327.251L1545.29 349.534L1544.24 349.534L1544.24 327.251C1543.91 327.161 1543.61 326.99 1543.37 326.753L1508.89 346.662C1508.94 346.82 1508.97 346.984 1508.97 347.149C1508.97 347.577 1508.83 347.993 1508.57 348.334C1508.31 348.675 1507.94 348.921 1507.53 349.035L1507.53 349.534L1506.46 349.534L1506.46 349.035C1506.05 348.919 1505.69 348.673 1505.43 348.332C1505.17 347.992 1505.03 347.577 1505.03 347.149C1505.03 346.984 1505.06 346.821 1505.1 346.662L1487.04 336.233L1470.62 326.741C1470.38 326.976 1470.09 327.147 1469.77 327.239L1469.77 349.534L1468.7 349.534L1468.7 327.251C1468.38 327.159 1468.08 326.987 1467.84 326.753L1433.37 346.662C1433.41 346.82 1433.44 346.984 1433.44 347.149C1433.44 347.577 1433.3 347.993 1433.04 348.334C1432.78 348.675 1432.42 348.921 1432 349.035L1432 349.534L1430.93 349.534L1430.93 349.035C1430.52 348.919 1430.16 348.673 1429.9 348.332C1429.64 347.992 1429.5 347.577 1429.5 347.149C1429.5 346.985 1429.53 346.821 1429.57 346.662L1395.09 326.753C1394.85 326.987 1394.56 327.159 1394.24 327.251L1394.24 349.534L1393.17 349.534L1393.17 327.251C1392.85 327.159 1392.56 326.987 1392.32 326.753L1357.84 346.662C1357.89 346.82 1357.91 346.984 1357.91 347.149C1357.91 347.577 1357.77 347.992 1357.51 348.332C1357.25 348.673 1356.89 348.919 1356.48 349.035L1356.48 349.534L1355.41 349.534L1355.41 349.035C1355 348.919 1354.63 348.673 1354.37 348.332C1354.12 347.992 1353.97 347.577 1353.97 347.149C1353.97 346.984 1354 346.82 1354.04 346.662L1349.4 343.993L1349.4 342.806L1354.59 345.737C1354.96 345.38 1355.45 345.18 1355.97 345.179C1356.23 345.175 1356.48 345.222 1356.73 345.317C1356.97 345.413 1357.19 345.556 1357.38 345.737L1357.33 345.772ZM1621.73 323.905L1656.21 304.007C1656.17 303.847 1656.15 303.684 1656.15 303.52C1656.15 303.094 1656.29 302.68 1656.55 302.34C1656.81 302 1657.17 301.752 1657.58 301.634L1657.58 261.791C1657.25 261.707 1656.96 261.539 1656.72 261.304L1622.26 281.19C1622.3 281.349 1622.32 281.513 1622.32 281.677C1622.32 282.105 1622.18 282.521 1621.92 282.862C1621.66 283.203 1621.29 283.449 1620.88 283.563L1620.88 323.454C1621.2 323.531 1621.49 323.686 1621.73 323.905V323.905ZM1693.9 325.341C1693.9 325.184 1693.92 325.029 1693.96 324.878L1680.43 317.059L1659.5 304.921C1659.32 305.102 1659.1 305.245 1658.87 305.343C1658.63 305.441 1658.38 305.491 1658.12 305.49C1657.87 305.492 1657.62 305.442 1657.38 305.345C1657.15 305.247 1656.93 305.102 1656.76 304.921L1622.27 324.842C1622.31 324.993 1622.33 325.149 1622.33 325.305V325.305C1622.33 325.461 1622.31 325.616 1622.27 325.768L1635.47 333.397L1656.75 345.678C1657.11 345.32 1657.6 345.12 1658.11 345.12C1658.62 345.12 1659.12 345.32 1659.49 345.678L1693.98 325.768C1693.94 325.616 1693.92 325.461 1693.92 325.305V325.305L1693.9 325.341ZM1695.35 283.563C1694.94 283.449 1694.58 283.203 1694.32 282.862C1694.06 282.521 1693.92 282.105 1693.92 281.677C1693.92 281.513 1693.94 281.349 1693.98 281.19L1676.72 271.235L1659.5 261.28C1659.26 261.518 1658.97 261.686 1658.64 261.767L1658.64 301.669C1659.06 301.784 1659.42 302.03 1659.68 302.371C1659.94 302.711 1660.08 303.128 1660.08 303.556C1660.08 303.72 1660.06 303.883 1660.02 304.043L1677.91 314.365L1694.52 323.94C1694.76 323.709 1695.05 323.541 1695.38 323.454L1695.35 283.563ZM1660.08 216.252C1660.08 216.681 1659.94 217.098 1659.68 217.439C1659.42 217.78 1659.06 218.026 1658.64 218.138L1658.64 258.041C1658.96 258.131 1659.26 258.298 1659.5 258.528L1693.98 238.618C1693.94 238.462 1693.92 238.303 1693.92 238.143C1693.91 237.714 1694.05 237.297 1694.31 236.956C1694.57 236.615 1694.94 236.369 1695.35 236.257L1695.35 196.413C1695.03 196.326 1694.74 196.159 1694.5 195.927L1660.02 215.837C1660.06 215.992 1660.08 216.151 1660.08 216.311L1660.08 216.252ZM1697.25 280.265L1731.74 260.355C1731.7 260.199 1731.68 260.04 1731.68 259.88V259.88C1731.68 259.72 1731.7 259.561 1731.74 259.406L1711.49 247.718L1697.25 239.496C1696.88 239.856 1696.39 240.06 1695.87 240.065C1695.36 240.061 1694.87 239.857 1694.51 239.496L1660.02 259.406C1660.06 259.561 1660.08 259.72 1660.08 259.88C1660.08 260.04 1660.06 260.199 1660.02 260.355L1677.7 270.559L1694.51 280.265C1694.87 279.907 1695.36 279.707 1695.87 279.707C1696.4 279.723 1696.89 279.945 1697.25 280.324L1697.25 280.265ZM1660.08 129.054C1660.08 129.211 1660.06 129.366 1660.02 129.517L1677.7 139.733L1694.51 149.486C1694.69 149.305 1694.9 149.162 1695.13 149.064C1695.37 148.966 1695.62 148.916 1695.87 148.917C1696.13 148.916 1696.38 148.966 1696.62 149.064C1696.86 149.162 1697.07 149.305 1697.25 149.486L1731.74 129.565C1731.7 129.413 1731.68 129.258 1731.68 129.102V129.102C1731.68 128.946 1731.7 128.791 1731.74 128.639L1697.25 108.729C1696.88 109.087 1696.39 109.287 1695.87 109.287C1695.36 109.287 1694.87 109.087 1694.51 108.729L1660.02 128.639C1660.06 128.791 1660.08 128.946 1660.08 129.102V129.102L1660.08 129.054ZM1731.68 172.671C1731.69 172.26 1731.82 171.862 1732.07 171.534C1732.32 171.205 1732.66 170.964 1733.06 170.844L1733.06 131C1732.73 130.913 1732.44 130.746 1732.2 130.514L1697.72 150.412C1697.76 150.571 1697.78 150.734 1697.78 150.898C1697.79 151.327 1697.65 151.744 1697.39 152.085C1697.13 152.427 1696.76 152.672 1696.35 152.785L1696.35 192.628C1696.67 192.706 1696.97 192.874 1697.2 193.115L1731.74 173.217C1731.7 173.057 1731.68 172.894 1731.68 172.73L1731.68 172.671ZM1731.68 216.252C1731.68 216.092 1731.7 215.933 1731.74 215.777L1718.3 208.006L1697.26 195.867C1697.02 196.099 1696.73 196.267 1696.41 196.354L1696.41 236.257C1696.82 236.369 1697.19 236.615 1697.45 236.956C1697.71 237.297 1697.85 237.714 1697.84 238.143C1697.84 238.303 1697.82 238.462 1697.78 238.618L1712.02 246.852L1732.26 258.528C1732.5 258.296 1732.79 258.128 1733.12 258.041L1733.12 218.198C1732.7 218.085 1732.34 217.839 1732.08 217.498C1731.82 217.157 1731.68 216.74 1731.68 216.311L1731.68 216.252ZM1697.27 323.881L1731.75 303.983C1731.71 303.824 1731.69 303.661 1731.69 303.497C1731.69 303.069 1731.83 302.652 1732.09 302.311C1732.35 301.971 1732.71 301.724 1733.13 301.61L1733.13 261.767C1732.8 261.689 1732.51 261.52 1732.27 261.28L1697.78 281.19C1697.82 281.349 1697.84 281.513 1697.84 281.677C1697.84 282.105 1697.7 282.521 1697.44 282.862C1697.18 283.203 1696.82 283.449 1696.41 283.563L1696.41 323.454C1696.73 323.531 1697.02 323.686 1697.26 323.905L1697.27 323.881ZM1769.46 325.281C1769.46 325.125 1769.48 324.97 1769.51 324.818L1755.87 316.94L1735.01 304.921C1734.83 305.102 1734.62 305.246 1734.38 305.344C1734.15 305.442 1733.89 305.491 1733.64 305.49C1733.38 305.491 1733.13 305.44 1732.9 305.343C1732.66 305.245 1732.45 305.101 1732.27 304.921L1697.78 324.842C1697.82 324.993 1697.84 325.149 1697.84 325.305C1697.84 325.461 1697.82 325.616 1697.78 325.768L1711.31 333.575L1732.27 345.678C1732.64 345.32 1733.13 345.12 1733.64 345.12C1734.15 345.118 1734.65 345.318 1735.01 345.678L1769.5 325.768C1769.47 325.616 1769.45 325.461 1769.44 325.305V325.305L1769.46 325.281ZM1770.88 283.563C1770.47 283.449 1770.1 283.203 1769.84 282.862C1769.58 282.521 1769.44 282.105 1769.44 281.677C1769.44 281.513 1769.46 281.349 1769.5 281.19L1752.26 271.235L1735.03 261.28C1734.79 261.52 1734.5 261.689 1734.17 261.767L1734.17 301.669C1734.58 301.784 1734.95 302.03 1735.21 302.371C1735.47 302.711 1735.61 303.128 1735.61 303.556C1735.62 303.718 1735.62 303.881 1735.61 304.042L1752.85 313.997L1770.02 323.905C1770.26 323.673 1770.56 323.506 1770.88 323.418L1770.88 283.563ZM1735.61 216.252C1735.61 216.681 1735.47 217.098 1735.21 217.439C1734.95 217.78 1734.58 218.026 1734.17 218.138L1734.17 258.041C1734.49 258.128 1734.79 258.296 1735.03 258.528L1769.5 238.618C1769.46 238.462 1769.44 238.303 1769.44 238.143C1769.44 237.714 1769.58 237.297 1769.84 236.956C1770.1 236.615 1770.47 236.369 1770.88 236.257L1770.88 196.413C1770.56 196.326 1770.26 196.159 1770.02 195.927L1735.55 215.837C1735.59 215.992 1735.61 216.151 1735.61 216.311L1735.61 216.252ZM1772.78 280.265L1807.27 260.355C1807.23 260.199 1807.21 260.04 1807.21 259.88C1807.21 259.72 1807.23 259.561 1807.27 259.406L1787.01 247.718L1772.78 239.496C1772.41 239.858 1771.92 240.063 1771.4 240.065C1770.89 240.061 1770.4 239.857 1770.04 239.496L1735.55 259.406C1735.57 259.563 1735.57 259.723 1735.55 259.88C1735.57 260.038 1735.57 260.197 1735.55 260.355L1752.79 270.31L1770.04 280.265C1770.4 279.907 1770.89 279.707 1771.4 279.707C1771.66 279.714 1771.91 279.772 1772.15 279.878C1772.39 279.983 1772.6 280.135 1772.78 280.324L1772.78 280.265ZM1735.61 129.054C1735.63 129.208 1735.63 129.364 1735.61 129.517L1752.85 139.484L1770.04 149.486C1770.21 149.305 1770.43 149.162 1770.66 149.064C1770.9 148.966 1771.15 148.916 1771.4 148.917C1771.66 148.915 1771.91 148.965 1772.15 149.063C1772.38 149.161 1772.6 149.305 1772.78 149.486L1807.27 129.565C1807.23 129.413 1807.21 129.258 1807.21 129.102V129.102C1807.21 128.946 1807.23 128.791 1807.27 128.639L1772.78 108.729C1772.41 109.089 1771.92 109.289 1771.4 109.287C1770.89 109.287 1770.4 109.087 1770.04 108.729L1735.55 128.639C1735.56 128.793 1735.56 128.948 1735.55 129.102V129.102L1735.61 129.054ZM1807.21 172.671C1807.21 172.242 1807.34 171.825 1807.6 171.484C1807.86 171.143 1808.23 170.897 1808.64 170.784L1808.64 130.941C1808.32 130.854 1808.03 130.686 1807.79 130.455L1773.31 150.352C1773.35 150.512 1773.37 150.675 1773.37 150.839C1773.37 151.268 1773.23 151.685 1772.97 152.026C1772.71 152.367 1772.35 152.613 1771.93 152.726L1771.93 192.628C1772.26 192.706 1772.56 192.874 1772.79 193.115L1807.27 173.217C1807.23 173.057 1807.21 172.894 1807.21 172.73L1807.21 172.671ZM1807.21 216.252C1807.21 216.092 1807.23 215.933 1807.27 215.777L1793.82 208.006L1772.79 195.867C1772.55 196.099 1772.26 196.267 1771.93 196.354L1771.93 236.257C1772.35 236.369 1772.71 236.615 1772.97 236.956C1773.23 237.297 1773.37 237.714 1773.37 238.143C1773.37 238.307 1773.35 238.47 1773.31 238.63L1787.55 246.852L1807.8 258.528C1808.04 258.296 1808.33 258.128 1808.65 258.041L1808.65 218.198C1808.24 218.088 1807.87 217.843 1807.61 217.501C1807.35 217.16 1807.21 216.741 1807.21 216.311L1807.21 216.252ZM1772.8 323.881L1807.28 303.983C1807.24 303.824 1807.22 303.661 1807.22 303.497C1807.22 303.069 1807.36 302.652 1807.62 302.311C1807.88 301.971 1808.24 301.724 1808.65 301.61L1808.65 261.767C1808.33 261.689 1808.03 261.52 1807.8 261.28L1773.31 281.19C1773.35 281.349 1773.37 281.513 1773.37 281.677C1773.37 282.105 1773.23 282.521 1772.97 282.862C1772.71 283.203 1772.35 283.449 1771.93 283.563L1771.93 323.454C1772.25 323.531 1772.55 323.686 1772.79 323.905L1772.8 323.881ZM1844.98 325.281C1844.98 325.125 1845 324.97 1845.04 324.818L1833.59 318.21L1810.54 304.921C1810.36 305.101 1810.15 305.245 1809.92 305.343C1809.68 305.44 1809.43 305.491 1809.18 305.49C1808.92 305.491 1808.67 305.442 1808.43 305.344C1808.19 305.246 1807.98 305.102 1807.8 304.921L1773.31 324.842C1773.35 324.993 1773.37 325.149 1773.37 325.305V325.305C1773.37 325.461 1773.35 325.616 1773.31 325.768L1786.84 333.575L1807.8 345.737C1808.17 345.377 1808.66 345.177 1809.18 345.179C1809.69 345.179 1810.18 345.379 1810.54 345.737L1845.03 325.827C1844.99 325.675 1844.97 325.52 1844.97 325.364V325.364L1844.98 325.281ZM1846.41 283.563C1845.99 283.449 1845.63 283.203 1845.37 282.862C1845.11 282.521 1844.97 282.105 1844.97 281.677C1844.97 281.513 1844.99 281.349 1845.03 281.19L1827.79 271.235L1810.55 261.28C1810.32 261.52 1810.02 261.689 1809.7 261.767L1809.7 301.669C1810.11 301.784 1810.48 302.03 1810.73 302.371C1810.99 302.711 1811.13 303.128 1811.13 303.556C1811.13 303.72 1811.11 303.883 1811.07 304.042L1825.98 312.645L1845.55 323.94C1845.79 323.709 1846.09 323.541 1846.41 323.454L1846.41 283.563ZM1811.13 216.252C1811.14 216.681 1811 217.098 1810.74 217.439C1810.48 217.78 1810.11 218.026 1809.7 218.138L1809.7 258.041C1810.02 258.128 1810.31 258.296 1810.55 258.528L1845.03 238.63C1844.99 238.47 1844.97 238.307 1844.97 238.143C1844.97 237.714 1845.11 237.297 1845.37 236.956C1845.63 236.615 1845.99 236.369 1846.41 236.257L1846.41 196.413C1846.09 196.326 1845.79 196.159 1845.55 195.927L1811.07 215.837C1811.11 215.992 1811.13 216.151 1811.13 216.311L1811.13 216.252ZM1846.95 279.766C1847.46 279.766 1847.95 279.966 1848.32 280.324L1882.81 260.414C1882.77 260.259 1882.75 260.099 1882.75 259.94V259.94C1882.75 259.78 1882.77 259.62 1882.81 259.465L1862.64 247.825L1848.32 239.52C1847.95 239.88 1847.46 240.085 1846.95 240.089C1846.44 240.087 1845.94 239.882 1845.58 239.52L1811.09 259.429C1811.12 259.585 1811.14 259.744 1811.15 259.904C1811.14 260.064 1811.12 260.223 1811.09 260.379L1828.33 270.333L1845.58 280.288C1845.95 279.942 1846.44 279.755 1846.95 279.766V279.766ZM1882.75 216.311C1882.75 216.151 1882.77 215.992 1882.81 215.837L1869.27 208.017L1848.33 195.927C1848.09 196.159 1847.8 196.326 1847.47 196.413L1847.47 236.257C1847.89 236.369 1848.25 236.615 1848.51 236.956C1848.77 237.297 1848.91 237.714 1848.91 238.143C1848.91 238.303 1848.89 238.462 1848.85 238.618L1863.17 246.923L1883.34 258.563C1883.58 258.331 1883.87 258.164 1884.19 258.077L1884.19 218.233C1883.77 218.124 1883.4 217.875 1883.13 217.526C1882.87 217.177 1882.73 216.749 1882.73 216.311L1882.75 216.311ZM1848.34 323.94L1882.82 304.042C1882.78 303.883 1882.76 303.72 1882.76 303.556C1882.76 303.128 1882.9 302.711 1883.16 302.371C1883.42 302.03 1883.78 301.784 1884.19 301.669L1884.19 261.826C1883.87 261.749 1883.57 261.58 1883.34 261.34L1848.84 281.19C1848.88 281.349 1848.9 281.513 1848.9 281.677C1848.9 282.105 1848.76 282.521 1848.5 282.862C1848.24 283.203 1847.87 283.449 1847.46 283.563L1847.46 323.454C1847.78 323.531 1848.07 323.686 1848.32 323.905L1848.34 323.94ZM1920.51 325.341C1920.49 325.187 1920.49 325.031 1920.51 324.878L1909.83 318.72L1886.1 304.921C1885.93 305.101 1885.71 305.245 1885.48 305.343C1885.24 305.44 1884.99 305.491 1884.74 305.49C1884.48 305.491 1884.23 305.442 1883.99 305.344C1883.76 305.246 1883.54 305.102 1883.36 304.921L1848.87 324.842C1848.91 324.993 1848.93 325.149 1848.93 325.305V325.305C1848.93 325.461 1848.91 325.616 1848.87 325.768L1859.71 332.021L1883.36 345.678C1883.73 345.32 1884.23 345.12 1884.74 345.12C1885.25 345.12 1885.74 345.32 1886.1 345.678L1920.51 325.827C1920.49 325.673 1920.49 325.518 1920.51 325.364L1920.51 325.341ZM1921.93 283.563C1921.52 283.449 1921.16 283.203 1920.9 282.862C1920.64 282.521 1920.5 282.105 1920.5 281.677C1920.48 281.515 1920.48 281.352 1920.5 281.19L1903.26 271.235L1886.02 261.28C1885.79 261.52 1885.49 261.689 1885.17 261.767L1885.17 301.669C1885.58 301.784 1885.94 302.03 1886.2 302.371C1886.46 302.711 1886.6 303.128 1886.6 303.556C1886.6 303.72 1886.58 303.883 1886.54 304.042L1901.53 312.645L1921.08 323.905C1921.32 323.673 1921.61 323.506 1921.93 323.418L1921.93 283.563ZM1886.66 216.252C1886.66 216.681 1886.52 217.098 1886.26 217.439C1886 217.78 1885.64 218.026 1885.23 218.138L1885.23 258.041C1885.55 258.128 1885.84 258.296 1886.08 258.528L1920.51 238.618C1920.49 238.46 1920.49 238.301 1920.51 238.143C1920.51 237.714 1920.65 237.297 1920.91 236.956C1921.17 236.615 1921.53 236.369 1921.95 236.257L1921.95 196.413C1921.62 196.326 1921.33 196.158 1921.09 195.927L1886.61 215.837C1886.65 215.992 1886.66 216.152 1886.66 216.311L1886.66 216.252ZM1923.83 280.265L1958.32 260.355C1958.3 260.197 1958.3 260.038 1958.32 259.88V259.88C1958.3 259.723 1958.3 259.563 1958.32 259.406L1935.21 246.069L1923.83 239.496C1923.47 239.857 1922.98 240.061 1922.47 240.065C1921.95 240.06 1921.46 239.856 1921.09 239.496L1886.6 259.406C1886.64 259.561 1886.66 259.72 1886.66 259.88V259.88C1886.66 260.04 1886.64 260.199 1886.6 260.355L1903.84 270.31L1921.09 280.265C1921.46 279.907 1921.95 279.707 1922.47 279.707C1922.72 279.715 1922.98 279.773 1923.21 279.879C1923.45 279.985 1923.66 280.136 1923.83 280.324L1923.83 280.265ZM1959.66 261.826C1959.34 261.749 1959.04 261.58 1958.81 261.34L1924.37 281.19C1924.38 281.352 1924.38 281.515 1924.37 281.677C1924.37 282.105 1924.23 282.521 1923.97 282.862C1923.71 283.203 1923.34 283.449 1922.93 283.563L1922.93 323.454C1923.25 323.544 1923.55 323.711 1923.8 323.94L1958.2 304.042C1958.18 303.881 1958.18 303.718 1958.2 303.556C1958.2 303.128 1958.34 302.711 1958.6 302.371C1958.86 302.03 1959.23 301.784 1959.64 301.669L1959.66 261.826ZM1923.81 195.927C1923.57 196.158 1923.28 196.326 1922.95 196.413L1922.95 236.257C1923.37 236.369 1923.73 236.615 1923.99 236.956C1924.25 237.297 1924.39 237.714 1924.39 238.143C1924.41 238.301 1924.41 238.46 1924.39 238.618L1946.93 251.61L1958.93 258.528C1959.17 258.296 1959.46 258.128 1959.78 258.041L1959.78 218.198C1959.37 218.085 1959 217.839 1958.74 217.498C1958.48 217.157 1958.34 216.74 1958.34 216.311C1958.33 216.153 1958.33 215.994 1958.34 215.837L1934.52 202.073L1923.81 195.927ZM1959.66 131C1959.34 130.913 1959.05 130.746 1958.81 130.514L1924.33 150.412C1924.35 150.573 1924.35 150.737 1924.33 150.898C1924.33 151.326 1924.19 151.743 1923.93 152.084C1923.67 152.424 1923.31 152.671 1922.89 152.785L1922.89 192.628C1923.22 192.708 1923.52 192.877 1923.76 193.115L1958.17 173.205C1958.15 173.047 1958.15 172.888 1958.17 172.73C1958.17 172.294 1958.32 171.87 1958.59 171.528C1958.86 171.186 1959.24 170.945 1959.66 170.844L1959.66 131ZM1922.95 105.419C1923.37 105.533 1923.73 105.779 1923.99 106.12C1924.25 106.461 1924.39 106.877 1924.39 107.306C1924.41 107.467 1924.41 107.63 1924.39 107.792L1946.15 120.357L1958.87 127.702C1959.1 127.462 1959.4 127.293 1959.72 127.215L1959.72 87.3719C1959.31 87.2577 1958.94 87.0114 1958.69 86.6707C1958.43 86.3299 1958.29 85.9136 1958.29 85.4854C1958.27 85.3237 1958.27 85.1605 1958.29 84.9989L1923.88 65.0891C1923.64 65.3265 1923.34 65.498 1923.01 65.5874L1922.95 105.419ZM1922.43 109.275C1921.92 109.275 1921.42 109.075 1921.06 108.717L1886.57 128.627C1886.6 128.779 1886.62 128.934 1886.63 129.09V129.09C1886.63 129.246 1886.61 129.402 1886.57 129.553L1903.81 139.52L1921.09 149.486C1921.27 149.305 1921.49 149.161 1921.72 149.064C1921.96 148.966 1922.21 148.916 1922.47 148.917C1922.72 148.916 1922.97 148.966 1923.21 149.064C1923.44 149.162 1923.65 149.305 1923.83 149.486L1958.32 129.565C1958.3 129.411 1958.3 129.256 1958.32 129.102V129.102C1958.3 128.948 1958.3 128.793 1958.32 128.639L1934.66 114.982L1923.83 108.729C1923.47 109.083 1922.98 109.279 1922.47 109.275L1922.43 109.275ZM1885.19 127.215C1885.52 127.293 1885.81 127.462 1886.04 127.702L1920.51 107.792C1920.49 107.63 1920.49 107.467 1920.51 107.306C1920.51 106.877 1920.65 106.461 1920.91 106.12C1921.17 105.779 1921.53 105.533 1921.95 105.419L1921.95 65.5874C1921.62 65.5008 1921.33 65.3287 1921.09 65.0891L1886.61 84.9989C1886.65 85.1583 1886.67 85.3215 1886.67 85.4854C1886.67 85.9136 1886.53 86.3299 1886.27 86.6707C1886.01 87.0114 1885.65 87.2578 1885.24 87.3719L1885.19 127.215ZM1885.19 170.844C1885.6 170.956 1885.97 171.202 1886.23 171.543C1886.49 171.884 1886.63 172.302 1886.63 172.73C1886.62 172.89 1886.6 173.049 1886.57 173.205L1900.9 181.51L1921.07 193.138C1921.3 192.898 1921.6 192.729 1921.92 192.652L1921.92 152.809C1921.51 152.696 1921.14 152.45 1920.88 152.109C1920.62 151.768 1920.48 151.351 1920.49 150.922C1920.47 150.76 1920.47 150.597 1920.49 150.436L1906.94 142.616L1886.1 130.502C1885.86 130.734 1885.57 130.901 1885.25 130.988L1885.19 170.844ZM1883.29 174.13L1848.8 194.04C1848.84 194.196 1848.86 194.355 1848.86 194.515V194.515C1848.86 194.675 1848.84 194.834 1848.8 194.989L1866.04 204.944L1883.29 214.899C1883.66 214.542 1884.15 214.342 1884.67 214.342C1885.18 214.341 1885.67 214.542 1886.03 214.899L1920.51 195.001C1920.49 194.844 1920.49 194.684 1920.51 194.527C1920.49 194.369 1920.49 194.21 1920.51 194.052L1900.34 182.412L1886.01 174.107C1885.64 174.464 1885.15 174.665 1884.64 174.664C1884.15 174.658 1883.68 174.467 1883.33 174.13L1883.29 174.13ZM1883.29 130.514L1848.81 150.412C1848.85 150.571 1848.87 150.734 1848.87 150.898C1848.87 151.326 1848.73 151.743 1848.47 152.084C1848.22 152.424 1847.85 152.671 1847.44 152.785L1847.44 192.628C1847.76 192.706 1848.06 192.874 1848.29 193.115L1882.79 173.217C1882.76 173.061 1882.74 172.902 1882.73 172.742C1882.73 172.313 1882.87 171.896 1883.13 171.555C1883.39 171.214 1883.76 170.968 1884.17 170.856L1884.17 131.012C1883.85 130.918 1883.55 130.742 1883.32 130.502L1883.29 130.514ZM1811.11 129.114C1811.11 129.27 1811.09 129.425 1811.05 129.576L1845.56 149.486C1845.74 149.305 1845.96 149.161 1846.19 149.063C1846.43 148.965 1846.68 148.915 1846.94 148.917C1847.19 148.916 1847.45 148.966 1847.68 149.064C1847.91 149.162 1848.13 149.305 1848.3 149.486L1882.79 129.565C1882.76 129.413 1882.74 129.258 1882.73 129.102C1882.74 128.946 1882.76 128.791 1882.79 128.639L1848.3 108.729C1847.94 109.087 1847.45 109.287 1846.94 109.287C1846.43 109.289 1845.93 109.089 1845.56 108.729L1811.07 128.639C1811.11 128.791 1811.13 128.946 1811.13 129.102V129.102L1811.11 129.114ZM1809.7 170.844C1810.11 170.956 1810.48 171.202 1810.74 171.543C1811 171.884 1811.14 172.302 1811.13 172.73C1811.13 172.89 1811.11 173.049 1811.07 173.205L1825.41 181.51L1845.58 193.138C1845.81 192.898 1846.1 192.729 1846.43 192.652L1846.43 152.809C1846.02 152.696 1845.65 152.45 1845.39 152.109C1845.13 151.768 1844.99 151.351 1844.99 150.922C1845 150.758 1845.02 150.595 1845.05 150.436L1810.55 130.502C1810.31 130.734 1810.02 130.901 1809.7 130.988L1809.7 170.844ZM1809.18 174.688C1808.66 174.69 1808.17 174.49 1807.8 174.13L1773.31 194.04C1773.35 194.196 1773.37 194.355 1773.37 194.515V194.515C1773.37 194.675 1773.35 194.834 1773.31 194.989L1790.55 204.944L1807.8 214.911C1808.17 214.552 1808.66 214.351 1809.18 214.353C1809.69 214.353 1810.18 214.553 1810.54 214.911L1845.03 195.001C1844.99 194.846 1844.97 194.687 1844.97 194.527V194.527C1844.97 194.367 1844.99 194.207 1845.03 194.052L1824.86 182.412L1810.53 174.107C1810.17 174.47 1809.69 174.679 1809.18 174.688V174.688ZM1734.17 127.227C1734.5 127.305 1734.79 127.473 1735.03 127.714L1769.5 107.804C1769.46 107.644 1769.44 107.481 1769.44 107.317C1769.44 106.798 1769.65 106.3 1770.02 105.933C1770.38 105.566 1770.88 105.36 1771.4 105.36C1771.66 105.358 1771.91 105.408 1772.15 105.505C1772.39 105.603 1772.61 105.747 1772.79 105.929C1772.98 106.111 1773.12 106.327 1773.22 106.565C1773.32 106.804 1773.37 107.059 1773.37 107.317C1773.37 107.481 1773.35 107.645 1773.31 107.804L1807.8 127.702C1808.03 127.462 1808.33 127.293 1808.65 127.215L1808.65 87.3719C1808.24 87.2578 1807.88 87.0114 1807.62 86.6707C1807.36 86.3299 1807.22 85.9136 1807.22 85.4854C1807.22 85.3215 1807.24 85.1583 1807.28 84.9989L1771.41 64.2941L1735.56 84.9989C1735.58 85.1606 1735.58 85.3237 1735.56 85.4854C1735.56 85.9136 1735.42 86.3299 1735.16 86.6707C1734.9 87.0114 1734.54 87.2578 1734.12 87.372L1734.17 127.227ZM1734.17 170.856C1734.58 170.968 1734.95 171.214 1735.21 171.555C1735.47 171.896 1735.61 172.313 1735.61 172.742C1735.62 172.9 1735.62 173.059 1735.61 173.217L1750.01 181.522L1770.08 193.115C1770.32 192.874 1770.61 192.706 1770.94 192.628L1770.94 152.785C1770.53 152.671 1770.16 152.424 1769.9 152.084C1769.64 151.743 1769.5 151.326 1769.5 150.898C1769.5 150.738 1769.52 150.579 1769.56 150.424L1755.92 142.545L1735.03 130.502C1734.79 130.734 1734.49 130.901 1734.17 130.988L1734.17 170.856ZM1733.64 174.7C1733.13 174.7 1732.64 174.5 1732.27 174.142L1697.78 194.052C1697.82 194.207 1697.84 194.367 1697.84 194.527V194.527C1697.84 194.687 1697.82 194.846 1697.78 195.001L1715.02 204.956L1732.27 214.911C1732.64 214.553 1733.13 214.353 1733.64 214.353C1734.15 214.351 1734.65 214.552 1735.01 214.911L1769.5 195.001C1769.46 194.846 1769.44 194.687 1769.44 194.527V194.527C1769.44 194.367 1769.46 194.207 1769.5 194.052L1749.42 182.46L1735.01 174.154C1734.64 174.505 1734.15 174.696 1733.64 174.688L1733.64 174.7ZM1658.64 127.239C1658.97 127.317 1659.27 127.485 1659.5 127.726L1693.98 107.816C1693.94 107.656 1693.92 107.493 1693.92 107.329C1693.92 106.81 1694.12 106.312 1694.49 105.945C1694.86 105.578 1695.35 105.371 1695.87 105.371C1696.13 105.37 1696.39 105.419 1696.63 105.517C1696.87 105.615 1697.08 105.759 1697.27 105.941C1697.45 106.123 1697.59 106.339 1697.69 106.577C1697.79 106.816 1697.84 107.071 1697.84 107.329C1697.84 107.493 1697.82 107.656 1697.78 107.816L1732.26 127.726C1732.49 127.485 1732.79 127.317 1733.12 127.239L1733.12 87.3957C1732.7 87.2815 1732.34 87.0352 1732.08 86.6944C1731.82 86.3537 1731.68 85.9373 1731.68 85.5091C1731.68 85.3452 1731.7 85.1821 1731.74 85.0227L1695.87 64.3179L1660.02 85.0227C1660.06 85.1821 1660.08 85.3452 1660.08 85.5091C1660.08 85.9373 1659.94 86.3537 1659.68 86.6944C1659.42 87.0352 1659.06 87.2815 1658.64 87.3957L1658.64 127.239ZM1658.64 170.867C1659.06 170.98 1659.42 171.226 1659.68 171.567C1659.94 171.908 1660.08 172.325 1660.08 172.754C1660.08 172.914 1660.06 173.073 1660.02 173.229L1674.97 181.866L1694.5 193.138C1694.73 192.898 1695.03 192.729 1695.35 192.652L1695.35 152.809C1694.94 152.696 1694.57 152.45 1694.31 152.109C1694.05 151.768 1693.91 151.351 1693.92 150.922C1693.92 150.758 1693.94 150.595 1693.98 150.436L1680.44 142.628L1659.5 130.502C1659.26 130.731 1658.96 130.898 1658.64 130.988L1658.64 170.867ZM1656.75 174.154L1622.26 194.064C1622.29 194.219 1622.31 194.379 1622.32 194.539V194.539C1622.31 194.698 1622.29 194.858 1622.26 195.013L1639.06 204.707L1656.75 214.923C1657.11 214.565 1657.6 214.365 1658.11 214.365C1658.62 214.366 1659.12 214.566 1659.49 214.923L1693.98 195.013C1693.94 194.858 1693.92 194.698 1693.92 194.539C1693.92 194.379 1693.94 194.219 1693.98 194.064L1673.81 182.424L1659.49 174.119C1659.12 174.476 1658.62 174.676 1658.11 174.676C1657.6 174.682 1657.11 174.486 1656.75 174.13L1656.75 174.154ZM1620.88 192.652C1621.21 192.729 1621.5 192.898 1621.73 193.138L1656.21 173.217C1656.17 173.061 1656.15 172.902 1656.15 172.742C1656.15 172.315 1656.29 171.9 1656.55 171.56C1656.8 171.219 1657.17 170.972 1657.58 170.856L1657.58 131.012C1657.26 130.919 1656.96 130.753 1656.72 130.526L1622.26 150.424C1622.29 150.583 1622.31 150.746 1622.32 150.91C1622.32 151.338 1622.18 151.755 1621.92 152.095C1621.66 152.436 1621.29 152.683 1620.88 152.797L1620.88 192.652ZM1620.88 236.28C1621.29 236.393 1621.66 236.639 1621.92 236.98C1622.18 237.321 1622.32 237.738 1622.32 238.167C1622.31 238.327 1622.29 238.486 1622.26 238.642L1636.13 246.651L1656.73 258.516C1656.97 258.286 1657.26 258.119 1657.58 258.029L1657.58 218.186C1657.17 218.07 1656.8 217.822 1656.55 217.482C1656.29 217.141 1656.15 216.726 1656.15 216.299C1656.15 216.139 1656.17 215.98 1656.21 215.825L1642.66 207.994L1621.73 195.915C1621.49 196.144 1621.2 196.311 1620.88 196.401L1620.88 236.28ZM1618.98 239.567L1584.49 259.477C1584.53 259.632 1584.55 259.791 1584.55 259.951V259.951C1584.55 260.111 1584.53 260.271 1584.49 260.426L1601.73 270.381L1618.98 280.336C1619.35 279.978 1619.84 279.778 1620.35 279.778C1620.86 279.779 1621.35 279.979 1621.72 280.336L1656.21 260.426C1656.17 260.271 1656.15 260.111 1656.15 259.951V259.951C1656.15 259.791 1656.17 259.632 1656.21 259.477L1636.04 247.849L1621.71 239.543C1621.34 239.904 1620.85 240.108 1620.33 240.113C1619.83 240.106 1619.34 239.901 1618.98 239.543L1618.98 239.567ZM1583.12 258.065C1583.44 258.155 1583.73 258.322 1583.97 258.551L1618.45 238.653C1618.41 238.494 1618.38 238.331 1618.38 238.167C1618.38 237.737 1618.52 237.32 1618.78 236.979C1619.04 236.638 1619.41 236.392 1619.82 236.28L1619.82 196.437C1619.5 196.347 1619.2 196.18 1618.96 195.95L1584.48 215.86C1584.53 216.014 1584.55 216.174 1584.55 216.335C1584.55 216.764 1584.41 217.181 1584.15 217.522C1583.9 217.863 1583.53 218.109 1583.12 218.221L1583.12 258.065ZM1583.12 301.693C1583.53 301.807 1583.89 302.054 1584.15 302.394C1584.41 302.735 1584.55 303.152 1584.55 303.58C1584.55 303.745 1584.53 303.909 1584.48 304.066L1601.73 314.021L1618.96 323.905C1619.2 323.675 1619.5 323.508 1619.82 323.418L1619.82 283.563C1619.41 283.449 1619.05 283.204 1618.78 282.863C1618.52 282.522 1618.38 282.106 1618.38 281.677C1618.38 281.512 1618.41 281.349 1618.45 281.19L1601.2 271.235L1583.97 261.28C1583.74 261.518 1583.44 261.686 1583.12 261.767L1583.12 301.693ZM1581.19 304.921L1546.71 324.842C1546.74 324.993 1546.76 325.149 1546.76 325.305C1546.76 325.461 1546.74 325.616 1546.71 325.768L1560.34 333.634L1581.19 345.737C1581.37 345.559 1581.59 345.418 1581.82 345.322C1582.06 345.226 1582.31 345.178 1582.56 345.179C1583.07 345.18 1583.57 345.38 1583.94 345.737L1618.42 325.827C1618.38 325.676 1618.36 325.521 1618.35 325.364V325.364C1618.36 325.208 1618.38 325.052 1618.42 324.902L1604.89 317.082L1583.94 304.98C1583.75 305.161 1583.54 305.305 1583.3 305.402C1583.07 305.5 1582.81 305.55 1582.56 305.549C1582.3 305.544 1582.05 305.485 1581.81 305.377C1581.58 305.268 1581.37 305.113 1581.19 304.921V304.921ZM1581.19 261.304L1546.72 281.19C1546.77 281.348 1546.79 281.512 1546.79 281.677C1546.79 282.104 1546.65 282.519 1546.39 282.858C1546.13 283.198 1545.77 283.441 1545.35 283.551L1545.35 323.454C1545.67 323.544 1545.97 323.711 1546.21 323.94L1580.68 304.043C1580.64 303.884 1580.62 303.72 1580.61 303.556C1580.62 303.128 1580.76 302.713 1581.02 302.373C1581.27 302.032 1581.64 301.785 1582.05 301.669L1582.05 261.826C1581.73 261.743 1581.43 261.575 1581.19 261.34L1581.19 261.304ZM1509.02 259.904C1509.04 260.062 1509.04 260.221 1509.02 260.379L1543.51 280.288C1543.69 280.11 1543.91 279.969 1544.14 279.874C1544.37 279.778 1544.63 279.729 1544.88 279.731C1545.39 279.731 1545.89 279.931 1546.25 280.288L1580.74 260.379C1580.7 260.224 1580.68 260.064 1580.67 259.904V259.904C1580.68 259.744 1580.7 259.584 1580.74 259.429L1546.25 239.52C1545.89 239.88 1545.39 240.084 1544.88 240.089C1544.37 240.087 1543.88 239.883 1543.51 239.52L1509.02 259.429C1509.04 259.587 1509.04 259.746 1509.02 259.904ZM1507.59 301.634C1508 301.748 1508.37 301.994 1508.63 302.335C1508.88 302.676 1509.02 303.092 1509.02 303.52C1509.03 303.685 1509 303.849 1508.95 304.007L1526.2 313.962L1543.43 323.905C1543.68 323.675 1543.97 323.508 1544.3 323.418L1544.3 283.563C1543.88 283.449 1543.52 283.204 1543.26 282.863C1543 282.522 1542.85 282.106 1542.85 281.677C1542.85 281.512 1542.88 281.349 1542.92 281.19L1508.44 261.28C1508.21 261.518 1507.91 261.686 1507.59 261.767L1507.59 301.634ZM1507.06 305.49C1506.8 305.491 1506.55 305.441 1506.31 305.343C1506.07 305.245 1505.86 305.102 1505.68 304.921L1471.2 324.842C1471.24 324.993 1471.26 325.149 1471.26 325.305V325.305C1471.26 325.461 1471.24 325.616 1471.2 325.768L1485.36 333.943L1505.69 345.678C1505.87 345.499 1506.08 345.358 1506.32 345.263C1506.55 345.167 1506.8 345.118 1507.06 345.12C1507.57 345.12 1508.06 345.32 1508.43 345.678L1542.92 325.768C1542.88 325.617 1542.86 325.461 1542.85 325.305C1542.85 325.148 1542.88 324.993 1542.92 324.842L1529.38 317.023L1508.43 304.921C1508.25 305.108 1508.04 305.258 1507.8 305.362C1507.57 305.466 1507.31 305.522 1507.06 305.526L1507.06 305.49ZM1469.83 323.418C1470.14 323.511 1470.44 323.678 1470.68 323.905L1505.16 304.007C1505.12 303.848 1505.09 303.685 1505.09 303.52C1505.09 303.093 1505.23 302.677 1505.49 302.337C1505.75 301.997 1506.11 301.75 1506.52 301.634L1506.52 261.791C1506.2 261.707 1505.9 261.539 1505.67 261.304L1471.19 281.19C1471.24 281.348 1471.26 281.512 1471.26 281.677C1471.26 282.105 1471.12 282.521 1470.86 282.862C1470.6 283.203 1470.24 283.449 1469.83 283.563L1469.83 323.418ZM1395.73 325.329C1395.73 325.485 1395.71 325.64 1395.67 325.791L1430.15 345.701C1430.52 345.344 1431.01 345.144 1431.53 345.144C1432.04 345.144 1432.54 345.344 1432.9 345.701L1467.39 325.791C1467.35 325.642 1467.32 325.486 1467.32 325.329V325.329C1467.32 325.172 1467.35 325.015 1467.39 324.866L1432.89 304.921C1432.71 305.102 1432.5 305.245 1432.26 305.343C1432.03 305.441 1431.77 305.491 1431.52 305.49C1431.26 305.491 1431.01 305.441 1430.77 305.343C1430.53 305.245 1430.32 305.102 1430.14 304.921L1395.66 324.842C1395.7 324.993 1395.72 325.149 1395.72 325.305L1395.73 325.329Z" fill="url(#paint1_linear_1577_8130)"/>
<defs>
<linearGradient id="paint0_linear_1577_8130" x1="172.541" y1="-89.0246" x2="385.256" y2="238.201" gradientUnits="userSpaceOnUse">
<stop stop-color="white" stop-opacity="0.5"/>
<stop offset="0.04" stop-color="white" stop-opacity="0.47"/>
<stop offset="0.5" stop-color="white" stop-opacity="0.22"/>
<stop offset="0.83" stop-color="white" stop-opacity="0.06"/>
<stop offset="1" stop-color="white" stop-opacity="0"/>
</linearGradient>
<linearGradient id="paint1_linear_1577_8130" x1="1827.46" y1="438.558" x2="1614.74" y2="111.333" gradientUnits="userSpaceOnUse">
<stop stop-color="white" stop-opacity="0.5"/>
<stop offset="0.04" stop-color="white" stop-opacity="0.47"/>
<stop offset="0.5" stop-color="white" stop-opacity="0.22"/>
<stop offset="0.83" stop-color="white" stop-opacity="0.06"/>
<stop offset="1" stop-color="white" stop-opacity="0"/>
</linearGradient>
</defs>
</svg>
