<svg width="41" height="30" viewBox="0 0 41 30" fill="none" xmlns="http://www.w3.org/2000/svg">
<path d="M40.1724 26.5792C40.3222 26.321 40.3222 25.999 40.1724 25.7408L33.7391 14.5829C33.7391 14.5829 33.7391 14.5797 33.7359 14.5797L27.3121 3.43452C27.2739 3.36758 27.2293 3.30382 27.1719 3.24643C26.8722 2.94677 26.4004 2.91807 26.0688 3.17311C25.9636 3.25281 25.8839 3.35483 25.8297 3.4664L20.1424 13.3204L14.4423 3.43452C14.404 3.36758 14.3594 3.30382 14.302 3.24643C14.0024 2.94677 13.5305 2.91807 13.199 3.17311C13.0938 3.25281 13.0141 3.35483 12.9599 3.4664L6.54889 14.5797L6.55208 14.5829H6.54889L6.5202 14.6339L6.51701 14.6371L0.112376 25.7408C-0.0374587 25.999 -0.0374587 26.321 0.112376 26.5792C0.262211 26.8374 0.539564 27 0.839233 27H13.7091C14.0087 27 14.2861 26.8406 14.4359 26.5792L20.1456 16.6805L25.852 26.5792C26.0019 26.8374 26.2792 27 26.5789 27H39.4487C39.7484 27 40.0226 26.8406 40.1724 26.5792ZM2.29295 25.3199L7.27575 16.6837L12.2554 25.3199H2.29295ZM13.7091 24.4783L8.2417 15.0005L13.7091 5.52264L19.1764 15.0005L13.7091 24.4783ZM21.1115 15.0005L26.5789 5.52264L32.0463 15.0005L26.5789 24.4783L21.1115 15.0005ZM28.0326 25.3199L33.0154 16.6837L37.995 25.3199H28.0326Z" fill="#E8471C"/>
</svg>
