<?xml version="1.0" encoding="utf-8"?>
<!-- Generator: Adobe Illustrator 25.2.1, SVG Export Plug-In . SVG Version: 6.00 Build 0)  -->
<svg version="1.1" id="图层_1" xmlns="http://www.w3.org/2000/svg" xmlns:xlink="http://www.w3.org/1999/xlink" x="0px" y="0px"
	 viewBox="0 0 1920 1080" style="enable-background:new 0 0 1920 1080;" xml:space="preserve">
<style type="text/css">
	.st0{fill:#D04922;}
	.st1{enable-background:new    ;}
	.st2{fill:#565E6E;}
	.st3{fill:#FFFFFF;}
	.st4{fill:#585D70;}
	.st5{fill:#444E5E;}
</style>
<g>
	<g>
		<path class="st0" d="M759.57,275.31h243.93c19.96,0,36.14,16.18,36.14,36.14v72.78c0,19.96-16.18,36.14-36.14,36.14H759.57
			c-19.96,0-36.14-16.18-36.14-36.14v-72.78C723.42,291.49,739.61,275.31,759.57,275.31z"/>
	</g>
	<g>
		<path class="st0" d="M1046.29,598.99h250.85c18.05,0,32.68,14.63,32.68,32.68v79.71c0,18.05-14.63,32.68-32.68,32.68h-250.85
			c-18.05,0-32.68-14.63-32.68-32.68v-79.71C1013.61,613.63,1028.24,598.99,1046.29,598.99z"/>
	</g>
	<g>
		
			<rect x="1052.59" y="473.2" transform="matrix(0.744 -0.6681 0.6681 0.744 -72.4718 835.9536)" class="st0" width="4.5" height="78.73"/>
	</g>
	<g>
		<polygon class="st0" points="1024.58,503.78 1032.27,487.41 1049.35,481.52 1010.6,463.32 		"/>
	</g>
	<g>
		<polygon class="st0" points="1060.32,543.56 1077.45,537.72 1085.09,521.31 1099.07,561.81 		"/>
	</g>
	<g>
		
			<rect x="662.62" y="505.24" transform="matrix(0.668 -0.7442 0.7442 0.668 -144.5927 690.8792)" class="st0" width="78.72" height="4.5"/>
	</g>
	<g>
		<polygon class="st0" points="707.46,476.49 724.59,482.33 732.23,498.7 746.22,458.24 		"/>
	</g>
	<g>
		<polygon class="st0" points="671.72,516.27 679.37,532.64 696.49,538.48 657.74,556.73 		"/>
	</g>
	<g>
		
			<rect x="879.96" y="625.51" transform="matrix(0.0405 -0.9992 0.9992 0.0405 182.1163 1519.4062)" class="st0" width="4.49" height="78.74"/>
	</g>
	<g>
		<polygon class="st0" points="909.58,649.3 916.01,666.25 908.28,682.61 948.38,667.55 		"/>
	</g>
	<g>
		<polygon class="st0" points="856.18,647.19 848.44,663.5 854.83,680.45 816.08,662.25 		"/>
	</g>
	<g class="st1">
		<path class="st2" d="M829.93,207.41v30.48h-2.73v-2.52h-17.86V238h-2.77v-30.59H829.93z M809.33,210.07v5.72h17.86v-5.72H809.33z
			 M809.33,218.37v5.79h17.86v-5.79H809.33z M827.19,232.71v-5.97h-17.86v5.97H827.19z"/>
		<path class="st2" d="M844.79,220.85v17.47h-2.66v-17.68c-1.26,3.06-2.7,5.83-4.24,8.13l-2.09-1.48c2.41-3.27,4.82-8.16,6.18-12.26
			h-4.6v-2.55h4.74v-6.65l2.66,0.11v6.55h4.17v2.55h-4.17v4.24l0.9-0.83c1.11,1.08,3.23,3.59,4.13,4.89l-1.73,1.98
			C847.41,224.02,845.94,222.15,844.79,220.85z M854.96,223.15c-1.44,3.96-3.2,8.09-5.89,12.22l-2.52-1.22
			c2.55-3.74,4.67-8.34,5.97-11.94L854.96,223.15z M859.85,219.49v14.45c0,2.88-1.08,3.6-4.67,3.89l-1.73,0.14l-0.93-2.77l2.08-0.14
			c2.09-0.14,2.41-0.54,2.41-2.27v-13.3h-8.27v-2.63h19.99v2.63H859.85z M866.9,210.68h-16.36v-2.62h16.36V210.68z M869.59,233.93
			l-2.45,1.48c-1.01-3.38-3.85-9.35-5.5-11.97l2.27-1.15C865.6,225.02,868.44,230.95,869.59,233.93z"/>
		<path class="st2" d="M879.32,209.28h3.38l4.67,21.17h0.22l5.07-18.26h3.88l5.07,18.26h0.22l4.64-21.17h3.27l-5.93,24.95h-4.1
			l-5.07-18.47h-0.22l-5.18,18.47h-4.1L879.32,209.28z"/>
		<path class="st2" d="M929.05,220.78v13.44h-3.09v-12.29c0-2.99-0.65-4.71-3.74-4.71c-2.45,0-4.82,0.47-5.9,3.89v13.12h-3.09
			v-27.32h3.09v10.67c1.19-2.48,3.85-3.13,6.22-3.13C927.61,214.45,929.05,217.08,929.05,220.78z"/>
		<path class="st2" d="M950.16,220.46v13.77h-2.62l-0.47-2.95c-1.12,2.12-4.03,3.31-6.94,3.31c-4.64,0-6.68-2.12-6.68-5.79
			c0-4.6,3.05-6.19,7.69-6.19h5.93V221c0-2.34-0.83-3.96-4.78-3.96c-1.3,0-2.88,0.14-4.28,0.43v-2.74c1.44-0.18,3.02-0.29,4.42-0.29
			C948.54,214.45,950.16,216.97,950.16,220.46z M947.07,228.29v-3.2h-5.72c-3.2,0-4.71,0.65-4.71,3.67c0,2.12,1.04,3.23,3.77,3.23
			C943.65,231.99,946.06,230.59,947.07,228.29z"/>
		<path class="st2" d="M964.19,231.63v2.63c-0.76,0.11-1.37,0.18-2.19,0.18c-4.28,0-5.82-1.04-5.82-6.15V217.4h-2.88v-2.59h2.88
			v-4.6h3.09v4.6h4.82v2.59h-4.82v10.71c0,3.02,0.43,3.74,2.8,3.74C962.93,231.85,963.51,231.78,964.19,231.63z"/>
	</g>
	<g class="st1">
		<path class="st2" d="M1149.73,553.93c0,0.29-0.04,0.61-0.04,0.9h14.74c-0.07,1.19-0.68,11.5-0.79,12.8
			c-0.36,4.28-1.76,5.43-7.05,5.64l-2.7,0.14l-1.04-2.84l3.56-0.14c3.56-0.14,4.39-0.86,4.6-3.85c0.07-0.86,0.5-8.23,0.58-9.09
			h-12.15c-0.86,7.01-3.45,11.36-9.74,16.82l-2.09-2.09c7.01-5.65,8.95-9.78,9.49-18.65l0.22-4.28h-8.84v-2.62h14.59
			c-0.36-1.58-0.97-3.63-1.44-4.64l2.63-0.72c0.5,1.29,1.29,3.77,1.65,5.36h13.05v2.62h-18.98
			C1149.91,550.55,1149.8,552.35,1149.73,553.93z"/>
		<path class="st2" d="M1173.58,550.44c1.76,1.12,5.43,3.74,7.01,5.18l-1.55,2.59c-1.51-1.76-5.14-4.5-6.94-5.61L1173.58,550.44z
			 M1178.9,561.27l1.29,0.5c-0.83,3.2-3.38,9.38-4.82,12.29l-2.8-0.97c1.73-2.84,4.28-9.09,5.18-12.29L1178.9,561.27z
			 M1181.09,549.98c-1.51-1.69-4.85-4.14-6.54-5.14l1.44-2.09c1.69,0.94,5.07,3.42,6.58,4.75L1181.09,549.98z M1186.23,569.6
			c1.01-0.07,8.19-0.54,11.5-0.72c-1.26-2.19-2.63-4.28-3.6-5.61l2.16-1.48c1.91,2.48,5.32,7.91,6.72,10.82l-2.27,2.01
			c-0.4-0.94-0.94-2.05-1.58-3.24c-2.84,0.18-10.35,0.68-13.69,1.01c-1.04,0.11-1.73,0.22-2.95,0.43l-0.79-2.77
			c1.04-0.4,1.47-0.65,1.94-1.22c1.33-1.65,3.92-5.86,5.64-9.24h-8.23v-2.63h9.63v-6.83h-7.15v-2.66h7.15v-5.75l2.81,0.11v5.65h8.63
			v2.66h-8.63v6.83h10.6v2.63h-11.79C1190.72,562.85,1187.99,567.41,1186.23,569.6z"/>
		<path class="st2" d="M1235.89,545.59v24.95h-3.27v-12.08h-12.33v12.08h-3.23v-24.95h3.23v10.17h12.33v-10.17H1235.89z"/>
		<path class="st2" d="M1240.62,560.83c0-7.73,3.27-10.06,8.99-10.06c5.75,0,8.95,2.34,8.95,10.06c0,7.73-3.2,10.07-8.95,10.07
			C1243.89,570.9,1240.62,568.56,1240.62,560.83z M1255.28,560.83c0-5.68-1.44-7.48-5.68-7.48c-4.35,0-5.68,1.8-5.68,7.48
			c0,5.68,1.47,7.44,5.68,7.44C1253.99,568.27,1255.28,566.51,1255.28,560.83z"/>
		<path class="st2" d="M1260.79,551.13h3.09l4.1,16.28h0.22l4.82-16.28h3.67l4.96,16.28h0.22l4.1-16.28h3.06l-5.39,19.41h-3.85
			l-4.82-15.92h-0.22l-4.85,15.92h-3.85L1260.79,551.13z"/>
	</g>
	<g class="st1">
		<path class="st3" d="M757.76,360.32v-14.92c-0.85,1.39-1.8,2.74-2.79,3.96l-2.11-2.43c3.68-4.58,6.83-11.41,8-17.3h-6.11v-3.19
			h15.19v3.19h-5.98c-0.63,3.14-1.62,6.34-2.88,9.35h7.14v21.34H757.76z M765.09,342.17h-4.22v15.01h4.22V342.17z M793.85,345.9
			h-6.16v18.24h-3.19V345.9h-6.88c-0.27,9.3-1.75,12.85-7.1,18.87l-2.7-2.02c5.03-5.66,6.38-8.54,6.65-16.85h-5.3v-3.19h5.35v-0.58
			v-12.45h-3.42v-3.19h21.52v3.19h-4.94v13.03h6.16V345.9z M784.5,342.71v-13.03h-6.83v12.13v0.9H784.5z"/>
		<path class="st3" d="M835.38,364.59c-6.16-1.89-11.37-4.18-15.59-7.23c-3.91,2.6-8.9,4.67-15.55,7.01l-1.53-3.14
			c6.16-1.89,10.78-3.78,14.38-5.98c-2.79-2.52-5.03-5.44-6.74-8.94c-2.7,5.75-6.47,10.78-11.82,16.17l-2.65-2.34
			c7.37-7.28,11.95-14.83,14.51-24.58h-10.02v-2.83c0.63-2.11,1.66-6.29,2.07-8.27l3.37,0.72c-0.4,1.75-1.3,5.48-1.75,7.28h7.1
			c0.58-2.7,1.03-5.57,1.35-8.68l3.46,0.32c-0.36,3.01-0.76,5.8-1.26,8.36h21.07v3.1h-21.75c-0.49,1.93-0.99,3.78-1.57,5.53h18.42
			v3.14c-2.29,4.63-4.76,8.04-8.04,10.87c3.73,2.47,8.36,4.49,14.11,6.2L835.38,364.59z M820.2,353.09c3.06-2.47,5.21-5.3,6.92-8.81
			h-13.97C814.94,347.74,817.23,350.66,820.2,353.09z M829.27,331.21c-1.8-1.66-5.71-4-7.73-4.94l1.71-2.74
			c1.98,0.94,5.84,3.15,7.59,4.5L829.27,331.21z"/>
		<path class="st3" d="M856.61,361.04l-4.81-6.07c-2.56,3.55-5.84,6.65-10.02,9.66l-2.02-2.7c4.27-2.92,7.55-5.93,10.02-9.43
			c-1.89-2.24-3.73-4.4-5.21-5.98l2.29-2.07c1.48,1.53,3.05,3.37,4.67,5.26c1.08-1.98,1.98-4.14,2.65-6.47l2.74,1.21
			c-0.85,2.83-1.98,5.39-3.33,7.73c1.98,2.34,3.82,4.67,5.26,6.47L856.61,361.04z M842.33,347.29l-2.25-1.93
			c2.52-2.79,5.21-6.83,7.05-10.38l2.65,1.53C847.76,340.33,845.02,344.28,842.33,347.29z M860.79,333.54h-19.77v-3.24h8.94
			c-0.63-1.98-1.57-4.81-2.02-5.98l3.19-0.63c0.54,1.26,1.71,4.76,2.29,6.6h7.37V333.54z M859.04,346.62
			c-1.57-2.83-5.08-7.86-7.01-9.89l2.38-1.75c1.89,2.02,5.26,6.88,6.92,9.48L859.04,346.62z M880.97,361.63l-2.11,2.96
			c-3.91-2.96-7.01-6.02-9.43-9.39c-2.47,3.28-5.75,6.29-10.06,9.44l-2.25-2.79c4.72-3.19,8-6.25,10.42-9.53
			c-2.25-3.73-3.68-7.81-4.58-12.31c-0.49,0.94-1.03,1.84-1.62,2.74l-1.98-2.6c2.65-4.27,5.39-11.28,6.38-16.49l3.19,0.45
			c-0.54,2.47-1.21,4.81-2.02,7.01h13.16v3.1h-3.51c-0.85,7.59-2.34,13.17-5.12,17.97C873.82,355.6,876.97,358.66,880.97,361.63z
			 M869.51,349.18c2.16-4.18,3.28-8.89,4-14.96h-7.78c-0.18,0.45-0.36,0.9-0.58,1.3C865.87,340.73,867.26,345.18,869.51,349.18z"/>
		<path class="st3" d="M898.65,326.94c1.89,1.98,5.39,6.6,6.83,8.99l-2.43,2.2c-0.4-0.81-0.99-1.75-1.62-2.78
			c-3.15,0.13-11.28,0.54-13.21,0.67c-0.76,0.04-1.44,0.14-2.65,0.4l-0.76-3.1c0.94-0.22,1.44-0.54,1.75-0.9
			c2.02-1.98,5.17-6.02,6.65-9.12l3.06,1.48c-1.62,2.78-4.27,6.29-6.11,8.4c1.93-0.04,6.56-0.31,9.43-0.54
			c-1.12-1.58-2.29-3.06-3.15-4L898.65,326.94z M887.01,338.98h15.73v20.31c0,3.32-1.03,3.95-4.72,4.31l-1.84,0.18l-0.9-3.14
			l2.16-0.18c2.2-0.14,2.25-0.63,2.25-2.43v-3.01h-9.66v8.72h-3.01V338.98z M890.02,342.22v3.5h9.66v-3.5H890.02z M899.68,352.14
			v-3.5h-9.66v3.5H899.68z M907.05,338.04v-14.2l3.1,0.09v7.28c3.46-1.3,8.09-3.55,10.51-5.08l1.44,2.92
			c-2.74,1.75-8.31,4.31-11.95,5.48v2.38c0,1.89,0.54,2.25,2.2,2.43c1.53,0.18,3.01,0.18,4.54,0c1.93-0.23,2.61-0.41,2.92-1.4
			c0.4-1.21,0.45-2.6,0.54-3.91l3.05,1.26c-0.27,1.48-0.4,3.19-0.9,4.68c-0.36,1.44-1.62,2.2-4.58,2.43c-2.38,0.18-4.76,0.18-7.14,0
			C908.26,342.22,907.05,341.05,907.05,338.04z M923.63,354.84c-0.27,1.76-0.49,3.46-0.94,5.08c-0.45,1.62-1.75,2.47-4.9,2.74
			c-2.25,0.18-4.49,0.18-6.74,0c-2.65-0.22-3.96-1.39-3.96-4.45v-14.47l3.06,0.09v7.14c3.55-1.39,8.36-3.91,10.87-5.57l1.53,2.97
			c-2.92,1.84-8.72,4.72-12.4,5.98v2.78c0,1.93,0.76,2.34,2.56,2.56c1.35,0.18,2.74,0.18,4.09,0c2.11-0.27,2.83-0.63,3.14-1.93
			c0.32-1.3,0.54-2.79,0.67-4.04L923.63,354.84z"/>
		<path class="st3" d="M937.04,343.03v21.84h-3.33v-22.11c-1.57,3.82-3.37,7.28-5.3,10.15l-2.61-1.84
			c3.01-4.09,6.02-10.2,7.73-15.32h-5.75v-3.19h5.93v-8.31l3.33,0.14v8.17h5.21v3.19h-5.21v5.3l1.12-1.03
			c1.39,1.35,4.04,4.5,5.17,6.11l-2.16,2.47C940.32,346.98,938.48,344.64,937.04,343.03z M949.76,345.9
			c-1.8,4.94-4,10.11-7.37,15.28l-3.15-1.53c3.19-4.68,5.84-10.43,7.46-14.92L949.76,345.9z M955.87,341.32v18.06
			c0,3.6-1.35,4.5-5.84,4.85l-2.16,0.18l-1.17-3.46l2.61-0.18c2.61-0.18,3.01-0.67,3.01-2.83v-16.63h-10.33v-3.28h24.98v3.28H955.87
			z M964.67,330.31h-20.44v-3.28h20.44V330.31z M968.05,359.38l-3.06,1.84c-1.26-4.22-4.81-11.68-6.88-14.96l2.83-1.44
			C963.06,348.24,966.61,355.65,968.05,359.38z"/>
		<path class="st3" d="M978.81,345.5l1.39,0.67c-1.75,5.8-3.24,10.69-6.07,16.63l-3.15-1.48c2.79-5.3,4.58-10.56,6.16-16.53
			L978.81,345.5z M977.37,338.53c-1.03-3.37-3.95-9.03-5.71-11.81l2.74-1.48c1.89,2.7,4.9,8.31,6.02,11.46L977.37,338.53z
			 M1010.08,360.82h-22.24v3.32h-3.33v-25.25c-1.17,2.02-2.47,3.96-3.82,5.71l-2.2-2.88c4.31-5.3,7.28-11.82,8.9-18.56l3.41,0.58
			c-0.49,2.2-1.26,4.5-2.16,6.83h8.22c-0.58-2.02-1.62-5.03-2.11-6.11l3.06-0.9c0.63,1.35,1.93,5.39,2.43,7.01h9.16v3.06h-9.79v5.93
			h8.9v2.92h-8.9v5.93h8.9v2.96h-8.9v6.43h10.47V360.82z M996.33,333.64h-8.49v5.93h8.49V333.64z M996.33,342.49h-8.49v5.93h8.49
			V342.49z M987.84,357.81h8.49v-6.43h-8.49V357.81z"/>
	</g>
	<g class="st1">
		<path class="st3" d="M1076.68,652.19h6.47l7.95,20.09h0.27l7.95-20.09h6.38v31.18h-4.04v-27.09h-0.27l-8,20.04h-4.4l-8.09-20.04
			h-0.27v27.09h-3.95V652.19z"/>
		<path class="st3" d="M1130.84,674.07h-13.79l-3.42,9.3h-4.13l11.82-31.18h5.39l11.77,31.18h-4.27L1130.84,674.07z M1129.54,670.48
			l-5.26-14.51h-0.54l-5.35,14.51H1129.54z"/>
		<path class="st3" d="M1160.29,683.37l-8.58-12.58c-0.5,0.05-0.99,0.05-1.53,0.05h-3.87v12.53h-4.04v-31.18h7.91
			c8.72,0,11.91,2.34,11.91,9.21c0,5.4-2.07,7.96-6.38,8.94l9.35,13.03H1160.29z M1158,661.4c0-4.72-2.38-5.7-8.18-5.7h-3.51v11.77
			h3.51C1155.62,667.47,1158,666.7,1158,661.4z"/>
		<path class="st3" d="M1169.02,652.19h4.04v31.18h-4.04V652.19z"/>
		<path class="st3" d="M1188.08,655.38h5.12v3.19h-5.12v7.95c1.57-0.54,3.06-1.08,4.13-1.53l0.36,1.44l0.4,1.75
			c-1.26,0.54-3.01,1.17-4.9,1.84v12.63c0,3.46-1.21,3.96-5.17,4.36l-2.11,0.22l-1.08-3.14l2.25-0.18c2.25-0.22,2.7-0.45,2.7-2.29
			v-10.47c-2.2,0.72-4.31,1.35-5.8,1.71l-0.72-3.28c1.66-0.4,4.04-1.12,6.52-1.93v-9.07h-5.44v-3.19h5.44v-7.91l3.41,0.13V655.38z
			 M1217.69,656.55c-0.04,0.72-0.18,1.66-0.4,3.06c-0.54,3.32-1.44,4.04-5.17,4.27c-4,0.22-8.4,0.22-12.4,0
			c-3.78-0.22-5.17-1.17-5.17-5.17v-11.05l3.24,0.13v6.16c4.99-1.03,12.58-3.14,16.98-4.58l0.85,3.1
			c-4.81,1.48-12.36,3.37-17.84,4.54v1.12c0,2.16,0.54,2.65,2.7,2.79c3.32,0.22,7.14,0.22,10.47,0c2.56-0.18,3.01-0.54,3.33-2.7
			c0.13-0.9,0.22-1.89,0.27-2.7L1217.69,656.55z M1194.64,667.38h20.31v20.35h-3.33v-2.16h-13.79v2.25h-3.19V667.38z M1197.83,670.3
			v4.85h13.79v-4.85H1197.83z M1211.62,682.65v-4.63h-13.79v4.63H1211.62z"/>
		<path class="st3" d="M1243.37,654.89v4.4h14.96v23.41c-0.09,3.64-1.03,4.18-5.39,4.54l-2.61,0.22l-0.9-3.14l3.28-0.27
			c1.93-0.18,2.25-0.54,2.25-2.74V662.3h-26.87v25.07h-3.19v-28.08h15.1v-4.4h-17.79v-3.06h17.79v-4.31l3.37,0.14v4.18h17.97v3.06
			H1243.37z M1243.23,678.57v7.91h-3.24v-7.91h-9.43v-2.79h9.43v-3.95h-8.63V669h5.48c-1.08-1.53-2.07-2.79-3.19-4.09l2.34-1.8
			c1.3,1.53,2.61,3.24,3.91,5.12l-0.94,0.76h3.77c1.26-1.53,2.92-3.82,4.18-5.93l2.65,1.66c-0.85,1.3-1.89,2.78-3.06,4.27h5.62v2.83
			h-8.9v3.95h9.75v2.79H1243.23z"/>
	</g>
	<g class="st1">
		<path class="st2" d="M1393.81,664.53c-0.11,0.32-0.25,0.61-0.4,0.9c3.63,0.94,8.02,2.23,10.35,2.91l-1.87,5.36
			c-3.38-1.26-8.73-3.09-12.26-4.14c-3.13,2.09-8.01,3.31-15.24,4.35l-2.77-5.68c7.84-0.76,12.29-1.55,14.74-3.7h-14.24v-5.03h8.74
			c-1.98-1.12-4.06-2.2-5.39-2.88l2.19-3.92c2.3,1.04,5.97,2.95,7.98,4.1l-1.15,2.7h4.49c0.4-1.76,0.5-3.89,0.61-6.58l0.07-4.1h5.89
			l-0.07,4.96c-0.11,2.16-0.14,4.03-0.4,5.72h8.7v5.03H1393.81z M1378.13,651.09h-5.36v-8.66h12.19l-0.72-2.23h6.76
			c0.25,0.68,0.47,1.51,0.65,2.23h11.21v8.66h-5.54v-3.74h-19.19V651.09z M1387.3,655.73c-2.01-1.15-6-3.42-8.02-4.28l1.58-4.1
			c2.19,0.94,6.07,2.66,8.27,3.81L1387.3,655.73z"/>
		<path class="st2" d="M1417.3,666.65c0.97-0.11,1.87-0.14,2.63-0.25v5.64c-4.46,0.58-10.46,1.01-14.09,1.4l-0.61-5.64
			c0.54-0.04,1.12-0.07,1.69-0.18v-10.89l4.39,0.14v10.35l1.26-0.14v-12.11h-5.39V641.2h12.04v13.77h-1.91v2.91h2.3v5.61h-2.3
			V666.65z M1412.09,649.65h2.62v-2.84h-2.62V649.65z M1438.47,667.19c-0.25,0.97-0.47,1.4-0.9,2.37c-1.4,3.02-3.45,4.21-5.5,4.21
			c-2.41,0-4.64-1.3-6.18-5.18c-1.44,0.68-2.95,1.26-4.39,1.73l-2.19-5.61c1.73-0.47,3.49-1.04,5.21-1.76
			c-0.22-1.33-0.43-2.81-0.65-4.42l-3.99,0.43l-0.4-5.32l3.88-0.4c-0.11-0.58-0.11-1.12-0.14-1.73l-2.91,0.32l-0.4-5.29l2.95-0.32
			l-0.4-6.04l5.32,0.14l0.29,5.36l1.87-0.22c-0.47-1.4-1.01-2.92-1.33-4.03l4.67-0.83c0.54,1.55,0.97,2.95,1.37,4.35l2.48-0.25
			l0.43,5.25l-9.2,1.01c0.11,0.58,0.11,1.19,0.14,1.76l8.81-0.9l0.4,5.21l-2.01,0.22l2.23,3.42c-2.02,1.98-4.42,3.78-7.12,5.36
			c0.54,1.19,1.04,1.44,1.48,1.44c0.58,0,1.08-0.18,1.55-1.37c0.29-0.76,0.43-1.4,0.58-2.12L1438.47,667.19z M1429.09,657.99
			l0.36,2.59c1.91-1.01,3.52-2.05,4.85-3.16L1429.09,657.99z"/>
		<path class="st2" d="M1447.98,652.21v3.13c0,8.09-0.94,12.29-3.06,18.37l-5.54-2.3c2.19-5.65,3.06-8.66,3.06-18.15v-12.18h28.61
			v11.14H1447.98z M1447.98,645.77v2.2h17.5v-2.2H1447.98z M1467.46,674.35c-0.4-0.68-0.86-1.51-1.44-2.41v0.07
			c-3.74,0.29-7.76,0.54-10.96,0.79c-2.41,0.18-3.85,0.32-5.25,0.58l-1.65-4.78c2.05-0.58,2.73-1.12,3.67-2.52
			c0.29-0.47,0.5-0.86,0.68-1.26h-3.99v-4.6h23.47v4.6h-4.53c1.55,2.02,3.63,4.53,4.89,6.44L1467.46,674.35z M1449.63,658.32v-4.28
			h20.74v4.28H1449.63z M1463.25,667.69c-0.54-0.76-1.04-1.51-1.51-2.12l1.29-0.76h-4.1c-0.61,1.01-1.37,2.16-2.05,3.13
			L1463.25,667.69z"/>
		<path class="st2" d="M1478.94,653.79c0-3.35,0.22-3.92,3.81-3.92c3.52,0,3.85,0.58,3.85,3.92c0,3.31-0.32,3.88-3.85,3.88
			C1479.16,657.67,1478.94,657.09,1478.94,653.79z M1478.94,665.86c0-3.35,0.22-3.92,3.81-3.92c3.52,0,3.85,0.58,3.85,3.92
			c0,3.31-0.32,3.88-3.85,3.88C1479.16,669.74,1478.94,669.17,1478.94,665.86z"/>
	</g>
	<g class="st1">
		<path class="st4" d="M1541.07,665.79l-1.44,2.16c-5.07-2.3-8.45-4.6-11.21-8.45h-8.34c-2.12,3.24-6.29,6.4-11.21,8.81l-1.47-2.34
			c4.06-1.8,7.66-4.03,9.81-6.47h-8.55v-2.16h6.29v-11.39h-5.18v-2.12h5.18v-2.81l2.59,0.07v2.73h13.48v-2.81l2.59,0.07v2.73h5.21
			v2.12h-5.21v11.39h6.36v2.16h-8.59C1533.78,662.3,1536.87,664.1,1541.07,665.79z M1525.62,669.89h13.05v2.23h-28.83v-2.23H1523
			v-3.42h-6.97v-2.16h6.97v-3.31l2.62,0.07v3.24h6.79v2.16h-6.79V669.89z M1517.53,645.95v2.45h13.48v-2.45H1517.53z
			 M1517.53,652.85h13.48v-2.37h-13.48V652.85z M1517.53,657.34h13.48v-2.44h-13.48V657.34z"/>
		<path class="st4" d="M1573.59,656.91h-13.52v10.82c0,3.34-0.86,4.13-4.82,4.46l-3.63,0.29l-0.86-2.77l3.38-0.22
			c2.52-0.14,2.95-0.61,2.95-2.59v-9.99h-14.2v-2.63h14.2v-8.62h-11.29V643h24.91v2.66h-10.64v8.62h13.52V656.91z"/>
		<path class="st4" d="M1577.85,644.58h5.18l6.36,16.07h0.22l6.36-16.07h5.11v24.95h-3.24v-21.67h-0.22l-6.4,16.03h-3.52
			l-6.47-16.03h-0.22v21.67h-3.16V644.58z"/>
		<path class="st4" d="M1620.42,662.09h-11.03l-2.73,7.44h-3.31l9.45-24.95h4.31l9.42,24.95h-3.42L1620.42,662.09z M1619.38,659.21
			l-4.2-11.61h-0.43l-4.28,11.61H1619.38z"/>
		<path class="st4" d="M1643.22,669.53l-6.87-10.06c-0.4,0.04-0.79,0.04-1.22,0.04h-3.09v10.03h-3.23v-24.95h6.33
			c6.97,0,9.52,1.87,9.52,7.37c0,4.32-1.65,6.37-5.1,7.16l7.48,10.42H1643.22z M1641.39,651.95c0-3.77-1.91-4.57-6.54-4.57h-2.8
			v9.42h2.8C1639.49,656.81,1641.39,656.19,1641.39,651.95z"/>
		<path class="st4" d="M1649.45,644.58h3.23v24.95h-3.23V644.58z"/>
		<path class="st4" d="M1668.4,652.92c0,0.29-0.04,0.61-0.04,0.9h14.74c-0.07,1.19-0.68,11.5-0.79,12.8
			c-0.36,4.28-1.76,5.43-7.04,5.64l-2.7,0.14l-1.04-2.84l3.56-0.14c3.56-0.14,4.39-0.86,4.6-3.85c0.07-0.86,0.5-8.23,0.58-9.09
			h-12.15c-0.86,7.01-3.45,11.36-9.74,16.82l-2.09-2.09c7.01-5.65,8.95-9.78,9.49-18.65l0.22-4.28h-8.84v-2.62h14.59
			c-0.36-1.58-0.97-3.63-1.44-4.64l2.63-0.72c0.5,1.29,1.29,3.77,1.65,5.36h13.05v2.62h-18.98
			C1668.58,649.55,1668.47,651.34,1668.4,652.92z"/>
		<path class="st4" d="M1691.53,649.44c1.76,1.12,5.43,3.74,7.01,5.18l-1.55,2.59c-1.51-1.76-5.14-4.5-6.94-5.61L1691.53,649.44z
			 M1696.85,660.26l1.3,0.5c-0.83,3.2-3.38,9.38-4.82,12.29l-2.8-0.97c1.73-2.84,4.28-9.09,5.18-12.29L1696.85,660.26z
			 M1699.04,648.97c-1.51-1.69-4.85-4.14-6.54-5.14l1.44-2.09c1.69,0.94,5.07,3.42,6.58,4.75L1699.04,648.97z M1704.18,668.59
			c1.01-0.07,8.2-0.54,11.5-0.72c-1.26-2.19-2.62-4.28-3.59-5.61l2.16-1.48c1.9,2.48,5.32,7.91,6.72,10.82l-2.27,2.01
			c-0.4-0.94-0.94-2.05-1.58-3.24c-2.84,0.18-10.35,0.68-13.7,1.01c-1.04,0.11-1.73,0.22-2.95,0.43l-0.79-2.77
			c1.04-0.4,1.47-0.65,1.94-1.22c1.33-1.65,3.92-5.86,5.64-9.24h-8.23v-2.63h9.63v-6.83h-7.15v-2.66h7.15v-5.75l2.81,0.11v5.65h8.63
			v2.66h-8.63v6.83h10.6v2.63h-11.79C1708.67,661.84,1705.94,666.4,1704.18,668.59z"/>
		<path class="st4" d="M1732.78,646.34h5.57v25.31h-12.26v-25.31h3.7c0.72-1.91,1.22-3.99,1.69-6.15l2.91,0.61
			C1734.03,642.39,1733.49,644.37,1732.78,646.34z M1735.83,648.94h-7.22v8.52h7.22V648.94z M1735.83,669.13v-9.06h-7.22v9.06
			H1735.83z M1754.45,646.27c0,0-0.25,15.49-0.61,21.74c-0.18,3.02-1.04,3.96-4.21,4.21l-3.09,0.25l-0.86-2.73l3.49-0.22
			c1.19-0.07,1.8-0.47,1.94-2.34c0.32-5.11,0.47-14.02,0.54-18.37l-8.2,0.04c-0.68,1.58-1.4,3.13-2.19,4.64l-2.44-1.29
			c2.08-3.53,3.88-8.16,4.92-12.33l2.62,0.54c-0.58,2.02-1.19,3.96-1.91,5.86H1754.45z M1746.47,663.13c-1.66-3.42-3.6-6.55-5-8.52
			l2.12-1.44c1.62,2.12,3.59,5.25,5.18,8.41L1746.47,663.13z"/>
		<path class="st4" d="M1765.79,647.14h4.1v2.55h-4.1v6.37c1.26-0.43,2.44-0.86,3.31-1.22l0.29,1.15l0.32,1.4
			c-1.01,0.43-2.41,0.94-3.92,1.47v10.1c0,2.77-0.97,3.17-4.13,3.49l-1.69,0.18l-0.86-2.52l1.8-0.14c1.8-0.18,2.16-0.36,2.16-1.83
			v-8.38c-1.76,0.58-3.45,1.08-4.64,1.37l-0.58-2.63c1.33-0.32,3.24-0.9,5.21-1.55v-7.26h-4.35v-2.55h4.35v-6.33l2.73,0.11V647.14z
			 M1789.48,648.07c-0.04,0.58-0.14,1.33-0.32,2.45c-0.43,2.66-1.15,3.24-4.14,3.42c-3.2,0.18-6.72,0.18-9.92,0
			c-3.02-0.18-4.13-0.94-4.13-4.14v-8.84l2.59,0.11v4.92c3.99-0.83,10.06-2.52,13.59-3.67l0.68,2.48c-3.85,1.19-9.88,2.7-14.27,3.63
			v0.9c0,1.73,0.43,2.12,2.16,2.23c2.66,0.18,5.72,0.18,8.38,0c2.05-0.14,2.41-0.43,2.66-2.16c0.11-0.72,0.18-1.51,0.22-2.16
			L1789.48,648.07z M1771.04,656.73h16.25v16.28h-2.66v-1.73h-11.03v1.8h-2.55V656.73z M1773.59,659.07v3.89h11.03v-3.89H1773.59z
			 M1784.63,668.95v-3.7h-11.03v3.7H1784.63z"/>
		<path class="st4" d="M1799.96,656.16v17.47h-2.66v-17.68c-1.26,3.06-2.7,5.83-4.24,8.13l-2.09-1.48
			c2.41-3.27,4.82-8.16,6.18-12.26h-4.6v-2.55h4.74v-6.65l2.66,0.11v6.55h4.17v2.55h-4.17v4.24l0.9-0.83
			c1.11,1.08,3.23,3.59,4.13,4.89l-1.73,1.98C1802.58,659.32,1801.11,657.45,1799.96,656.16z M1810.13,658.46
			c-1.44,3.96-3.2,8.09-5.89,12.22l-2.52-1.22c2.55-3.74,4.67-8.34,5.97-11.94L1810.13,658.46z M1815.02,654.79v14.45
			c0,2.88-1.08,3.6-4.67,3.89l-1.73,0.14l-0.93-2.77l2.08-0.14c2.09-0.14,2.41-0.54,2.41-2.27v-13.3h-8.27v-2.63h19.99v2.63H1815.02
			z M1822.06,645.98h-16.36v-2.62h16.36V645.98z M1824.76,669.24l-2.45,1.48c-1.01-3.38-3.85-9.35-5.5-11.97l2.27-1.15
			C1820.77,660.33,1823.61,666.26,1824.76,669.24z"/>
		<path class="st4" d="M1832.08,655.58c0,9.2-1.44,12.58-4.21,17.86l-2.48-1.26c3.13-5.39,4.1-8.34,4.1-17.4v-10.5h13.08
			c-0.4-1.22-0.83-2.59-1.15-3.38l2.66-0.5c0.36,0.86,0.94,2.55,1.37,3.88h11.65v2.38h-25.02V655.58z M1856.99,672.87
			c-5.28-0.93-9.49-1.8-13.12-3.34c-3.27,1.4-7.26,2.59-12.22,3.67l-1.19-2.41c4.28-0.76,7.76-1.62,10.64-2.66
			c-1.83-1.08-3.56-2.41-5.18-4.14l1.87-1.48c1.87,1.98,3.7,3.38,6,4.46c2.55-1.22,4.53-2.74,6.11-4.57h-16.46v-2.27h19.99v2.3
			c-1.8,2.27-3.95,4.1-6.72,5.68c2.84,0.9,6.4,1.55,11.25,2.23L1856.99,672.87z M1837.68,657.81v-5.18h-4.71v-2.27h4.71v-2.7
			l2.55,0.07v2.63h8.34v-2.7l2.59,0.07v2.63h5.82v2.27h-5.82v5.18H1837.68z M1840.24,652.64v2.95h8.34v-2.95H1840.24z"/>
		<path class="st4" d="M1891.91,651.85v1.91h-31.95v-1.91H1891.91z M1877.24,670.39h13.91v1.91h-30.45v-1.91h13.95v-2.08h-11.5
			v-1.91h11.5v-2.09h-10.64v-8.7h23.79v8.7h-10.57v2.09h11.47v1.91h-11.47V670.39z M1887.81,650.16h-23.76v-8.3h23.76V650.16z
			 M1866.71,657.34v1.76h7.94v-1.76H1866.71z M1874.65,662.56v-1.76h-7.94v1.76H1874.65z M1866.78,643.61v1.58h18.33v-1.58H1866.78z
			 M1885.11,648.43v-1.62h-18.33v1.62H1885.11z M1885.11,657.34h-7.87v1.76h7.87V657.34z M1885.11,662.56v-1.76h-7.87v1.76H1885.11z
			"/>
		<path class="st4" d="M1897.42,666.29l1.98-1.33c2.19,1.4,4.67,4.06,6.33,6.51l-2.52,1.51
			C1901.92,670.64,1899.22,667.69,1897.42,666.29z"/>
	</g>
	<g class="st1">
		<path class="st4" d="M1373.14,699.28l-1.94-2.27c5.75-3.52,9.63-8.27,11.93-13.66l2.59,1.01
			C1382.95,690.47,1379.39,694.71,1373.14,699.28z M1377.56,696.65h19.55c-0.14,2.7-0.65,10.64-0.97,13.41
			c-0.4,3.34-1.08,3.85-4.24,4.14c-1.55,0.14-2.77,0.22-2.77,0.22l-1.04-2.7l2.8-0.18c1.94-0.14,2.23-0.65,2.48-2.59
			c0.25-2.05,0.65-8.27,0.72-9.63h-9.56c-0.04,0.61-0.11,1.44-0.18,2.3c-0.65,6.22-2.27,9.67-10.14,14.09l-1.8-2.19
			c7.37-3.81,8.37-6.33,9.2-11.93c0.14-0.86,0.18-1.69,0.22-2.27h-4.28V696.65z M1404.23,697.12l-1.65,2.48
			c-6.54-4.03-9.81-7.76-13.19-15.85l2.41-1.01C1394.24,689.18,1397.83,693.24,1404.23,697.12z"/>
		<path class="st4" d="M1413.88,697.44v17.94h-2.55v-17.36c-1.4,3.17-3.06,6.04-4.56,8.31l-2.01-1.55c2.16-3.05,4.92-7.87,6.47-12.4
			h-4.67v-2.63h4.78v-6.69l2.55,0.07v6.61h4.82v2.63h-4.82v3.88l1.12-1.04c1.26,1.29,3.59,4.31,4.53,5.86l-1.8,1.91
			C1416.86,701.29,1415.1,698.81,1413.88,697.44z M1437.5,698.27h-5.5v16.93h-2.77v-16.93h-6.33c-0.07,8.59-1.08,12-5.03,17.29
			l-2.41-1.44c4.14-5.25,4.89-8.12,4.89-17.18V686.3c4.89-0.36,10.03-1.15,14.78-2.27l0.68,2.66c-4.06,0.97-8.95,1.76-12.91,2.12
			v6.9h14.59V698.27z"/>
		<path class="st4" d="M1443.09,708.55l1.98-1.33c2.19,1.4,4.67,4.06,6.33,6.51l-2.52,1.51
			C1447.58,712.9,1444.89,709.95,1443.09,708.55z"/>
		<path class="st4" d="M1502.95,684.76v30.27h-2.81v-2.3h-21.67v2.3h-2.77v-30.27H1502.95z M1500.15,710.03v-22.5h-21.67v22.5
			H1500.15z M1495.62,692.38v12.8h-12.72v-12.8H1495.62z M1493.18,694.82h-7.8v7.91h7.8V694.82z"/>
		<path class="st4" d="M1523.18,687.45h-10.64v10.07c0,7.91-1.29,12.18-3.31,17.61l-2.34-0.97c2.34-5.21,3.31-9.52,3.31-17v-12.08
			h12.98V687.45z M1522.89,709.95c-1.22,0.61-4.92,2.77-6.47,3.6c-0.43,0.25-1.15,0.68-1.44,0.9l-1.22-2.16
			c0.5-0.47,0.94-1.12,0.94-1.73v-18.94h7.8c-0.04,0.9-0.07,9.06-0.07,9.67c0,2.45-1.22,3.2-3.13,3.45l-1.01,0.11l-0.68-2.38
			l1.26-0.07c1.22-0.14,1.48-0.72,1.51-2.27c0.04-2.19,0.04-5.25,0.04-6.4h-3.56v16.78c0.97-0.58,4.74-2.62,5.53-3.02
			L1522.89,709.95z M1531.98,702.44c0,6.98-1.9,9.35-9.27,13.37l-1.62-2.12c7.44-3.56,8.63-5.82,8.63-11.75v-6.15l2.26,0.11V702.44z
			 M1529.9,687.49h-5.72v-2.37h14.85v2.37h-6.47c-0.25,1.3-0.65,2.91-1.04,4.1h5.86v16.53h-2.3v-14.31h-8.12v14.31h-2.3v-16.53h4.1
			C1529.25,690.4,1529.68,688.78,1529.9,687.49z M1539.71,713.48l-1.44,2.3c-1.83-2.45-4.74-4.71-6.94-6.33l1.37-2.02
			C1534.96,708.98,1537.77,711.43,1539.71,713.48z"/>
		<path class="st4" d="M1544.94,708.55l1.98-1.33c2.19,1.4,4.67,4.06,6.33,6.51l-2.52,1.51
			C1549.43,712.9,1546.74,709.95,1544.94,708.55z"/>
		<path class="st4" d="M1589.2,708.73c-0.72,0.36-7.69,3.63-8.95,4.28c-0.86,0.47-1.4,0.76-2.37,1.44l-1.37-2.63
			c1.11-0.86,1.26-1.15,1.26-1.83v-13.37h7.26v-8.23h-8.09v-2.7h10.82v13.48h-7.4v10.71c0.97-0.47,7.51-3.6,8.41-3.99L1589.2,708.73
			z M1608.08,712.94l-1.8,2.41c-3.67-2.48-6.65-5-8.95-7.7c-2.45,2.74-5.64,5.22-9.88,7.8l-1.69-2.37c4.42-2.48,7.62-4.89,9.92-7.51
			c-1.98-2.84-3.38-5.86-4.21-9.28c-0.54,0.86-1.12,1.73-1.69,2.55l-1.76-1.94c2.77-3.85,5.28-9.7,6.18-14.27l2.63,0.54
			c-0.47,1.83-1.01,3.63-1.69,5.39h11.9v2.59h-3.13c-0.75,6.01-2.19,10.5-4.92,14.38C1601.32,708.19,1604.3,710.6,1608.08,712.94z
			 M1597.33,703.45c2.3-3.41,3.41-7.33,3.99-12.29h-7.22c-0.25,0.65-0.54,1.26-0.86,1.91
			C1593.88,697.05,1595.21,700.43,1597.33,703.45z"/>
		<path class="st4" d="M1641.42,711.57l-0.61,2.7c-3.09,0.11-8.09,0.22-11.11,0.14c-7.48-0.18-10.64-0.5-14.59-4.53
			c-1.33,1.55-2.27,2.7-4.28,4.75l-1.91-2.02c1.94-1.83,3.74-3.59,5.07-5.25v-9.53h-3.88v-2.55h6.47v12.62
			c3.45,3.31,6.15,3.77,12.44,3.92C1633.26,711.93,1637.61,711.79,1641.42,711.57z M1616.11,692.59c-1.08-2.05-3.63-5.47-5.07-6.97
			l1.98-1.66c1.4,1.4,4.06,4.75,5.14,6.51L1616.11,692.59z M1623.66,701.44h-4.92v-2.55h5.03v-2.2v-4.96h-3.95v-2.52h3.95v-5.86
			l2.55,0.07v5.79h6.51v-5.89l2.62,0.07v5.82h4.6v2.52h-4.6v7.16h5.75v2.55h-5.75v8.91h-2.62v-8.91h-6.65
			c-0.32,4.17-1.33,5.9-4.17,9.2l-2.12-1.62C1622.51,705.97,1623.37,704.6,1623.66,701.44z M1626.28,698.88h6.54v-7.16h-6.51v4.78
			C1626.32,697.37,1626.32,698.16,1626.28,698.88z"/>
		<path class="st4" d="M1645.6,689.43l2.73,0.11v25.59h-2.73V689.43z M1651.64,690.4c-1.26-1.8-4.13-4.64-5.64-5.82l1.8-1.87
			c1.51,1.19,4.46,3.92,5.75,5.43L1651.64,690.4z M1664.11,696.22v11.9c0,3.67-0.86,4.57-5,4.78l-2.09,0.14l-0.97-2.63l2.52-0.14
			c2.48-0.14,2.84-0.54,2.84-2.8v-9.46c-2.7,4.5-5.64,8.02-10.6,11.14l-1.98-2.23c5.46-3.35,8.52-6.69,10.85-10.71h-9.74v-2.48
			h11.47v-4.67l2.7,0.11v4.57h4.96v2.48H1664.11z M1672.99,685.26v24.77c0,3.99-0.97,4.78-5.25,5.14l-1.65,0.14l-0.97-2.77
			l2.12-0.14c2.59-0.18,2.98-0.54,2.98-3.2v-21.31h-15.53v-2.62H1672.99z"/>
		<path class="st4" d="M1690.34,708.09l0.18,1.37c-3.34,0.86-8.98,1.94-13.16,2.63l-0.47-2.52c1.73-0.29,3.7-0.65,5.72-1.01v-9.35
			h-4.24v-2.62h4.24v-7.98h-4.57v-2.63h11.65v2.63h-4.46v7.98h4.28v2.62h-4.28v8.84c1.91-0.4,3.67-0.79,4.96-1.11L1690.34,708.09z
			 M1709.93,704.89l-1.98,2.12c-2.8-3.81-5.43-6.79-8.55-9.81v18.01h-2.66v-17.33c-1.83,3.02-4.06,5.79-6.65,8.56l-2.16-1.91
			c4.67-4.67,8.16-10.06,10.39-16.28h-7.84v-2.66h17.94v2.66h-7.3c-0.72,2.41-1.65,4.64-2.73,6.76l1.01,0.04v1.8l1.65-1.55
			C1704.28,698.31,1707.23,701.58,1709.93,704.89z"/>
		<path class="st4" d="M1741.36,715.27c-3.6-2.23-9.27-4.71-13.16-6.04c-2.8,2.88-7.51,4.64-15.1,6.18l-1.19-2.66
			c9.06-1.69,13.26-3.6,15.31-6.79h-15.42v-2.45h16.5c0.5-1.66,0.68-3.56,0.83-5.86c0.07-1.33,0.18-5.39,0.22-6.69l2.77,0.11
			c0,1.19-0.14,5.61-0.22,6.94c-0.07,2.09-0.25,3.88-0.65,5.5h11.21v2.45h-12.04c-0.18,0.43-0.4,0.83-0.61,1.22
			c3.85,1.22,9.81,3.81,12.69,5.46L1741.36,715.27z M1715.84,694.07h-2.62v-7.05h13.08c-0.4-1.37-0.94-3.06-1.3-3.96l2.66-0.5
			c0.4,0.97,1.11,3.13,1.55,4.46h11.97v7.12h-2.7v-4.67h-22.65V694.07z M1716.59,696.01c2.45,1.12,6.58,3.49,8.38,4.82l-1.22,2.37
			c-2.12-1.69-6.36-4.17-8.27-5.1L1716.59,696.01z M1726.34,697.91c-1.83-1.55-5.93-3.78-7.98-4.78l1.08-2.16
			c2.19,0.86,6.22,3.1,7.98,4.32L1726.34,697.91z"/>
		<path class="st4" d="M1750.62,695.75h5.46c-0.04,1.12-0.29,14.52-0.36,15.28c-0.07,2.3-1.01,2.84-3.56,3.13l-1.33,0.14l-0.83-2.3
			l1.65-0.18c1.51-0.18,1.8-0.5,1.87-1.98c0.07-1.19,0.32-10.78,0.32-11.83h-3.24c-0.07,8.27-1.4,11.76-3.95,17.43l-2.16-0.94
			c2.52-5.43,3.85-9.13,3.85-17.61v-5.97h-2.91v-2.41h5.5c-0.36-1.66-0.97-4.1-1.29-5.11l2.23-0.4c0.4,1.22,1.08,4.06,1.4,5.5h4.21
			v2.41h-6.87V695.75z M1758.38,695.25l-1.87-1.48c2.41-3.09,4.53-7.41,5.61-11.21l2.48,0.43c-0.47,1.37-1.01,2.77-1.62,4.13h13.44
			v2.45h-14.59C1760.79,691.62,1759.6,693.56,1758.38,695.25z M1777.29,708.66c-0.18,1.33-0.32,2.55-0.68,3.74
			c-0.36,1.19-1.47,1.8-4.74,1.94c-2.7,0.11-5.43,0.11-8.12,0c-3.13-0.11-4.42-0.9-4.42-4.64v-8.81l-2.12,0.61l-0.54-2.26l2.66-0.79
			v-4.38l2.26,0.07v3.67l4.17-1.26v-5.89l2.3,0.07v5.14l6.97-2.05c-0.04,0.61-0.29,9.31-0.36,9.96c-0.11,2.41-0.83,3.17-3.38,3.38
			l-1.3,0.14l-0.79-2.38l1.4-0.14c1.44-0.14,1.58-0.47,1.73-1.98c0.07-0.72,0.22-4.96,0.22-5.72l-4.49,1.3v11.18h-2.3v-10.53
			l-4.17,1.22v8.7c0,2.59,0.61,2.88,2.95,2.99c2.16,0.11,4.35,0.11,6.51,0c2.48-0.11,3.31-0.32,3.49-1.26
			c0.25-0.94,0.36-1.87,0.47-2.88L1777.29,708.66z"/>
		<path class="st4" d="M1786.76,689.39h4.1v2.55h-4.1v6.37c1.26-0.43,2.44-0.86,3.31-1.22l0.29,1.15l0.32,1.4
			c-1.01,0.43-2.41,0.94-3.92,1.47v10.1c0,2.77-0.97,3.17-4.13,3.49l-1.69,0.18l-0.86-2.52l1.8-0.14c1.8-0.18,2.16-0.36,2.16-1.83
			v-8.38c-1.76,0.58-3.45,1.08-4.64,1.37l-0.58-2.63c1.33-0.32,3.24-0.9,5.21-1.55v-7.26h-4.35v-2.55h4.35v-6.33l2.73,0.11V689.39z
			 M1810.45,690.33c-0.04,0.58-0.14,1.33-0.32,2.45c-0.43,2.66-1.15,3.24-4.13,3.42c-3.2,0.18-6.72,0.18-9.92,0
			c-3.02-0.18-4.13-0.94-4.13-4.14v-8.84l2.59,0.11v4.92c3.99-0.83,10.06-2.52,13.59-3.67l0.68,2.48c-3.85,1.19-9.88,2.7-14.27,3.63
			v0.9c0,1.73,0.43,2.12,2.16,2.23c2.66,0.18,5.72,0.18,8.38,0c2.05-0.14,2.41-0.43,2.66-2.16c0.11-0.72,0.18-1.51,0.22-2.16
			L1810.45,690.33z M1792.01,698.99h16.25v16.28h-2.66v-1.73h-11.03v1.8h-2.55V698.99z M1794.56,701.33v3.89h11.03v-3.89H1794.56z
			 M1805.6,711.21v-3.7h-11.03v3.7H1805.6z"/>
		<path class="st4" d="M1830.24,689v3.53h11.97v18.72c-0.07,2.91-0.83,3.35-4.31,3.63l-2.09,0.18l-0.72-2.52l2.62-0.22
			c1.55-0.14,1.8-0.43,1.8-2.2v-15.2h-21.49v20.06h-2.55v-22.46h12.08V689h-14.23v-2.45h14.23v-3.45l2.7,0.11v3.34h14.38V689
			H1830.24z M1830.13,707.94v6.33h-2.59v-6.33h-7.55v-2.23h7.55v-3.16h-6.9v-2.27h4.39c-0.86-1.22-1.65-2.23-2.55-3.27l1.87-1.44
			c1.04,1.22,2.08,2.59,3.13,4.1l-0.75,0.61h3.02c1.01-1.22,2.34-3.06,3.34-4.75l2.12,1.33c-0.68,1.04-1.51,2.23-2.45,3.42h4.49
			v2.27h-7.12v3.16h7.8v2.23H1830.13z"/>
		<path class="st4" d="M1849.59,711.25c0-3.02,2.19-4.53,4.78-4.53s4.78,1.51,4.78,4.53s-2.23,4.53-4.78,4.53
			C1851.78,715.78,1849.59,714.27,1849.59,711.25z M1857.07,711.25c0-1.73-1.15-2.62-2.7-2.62c-1.55,0-2.7,0.9-2.7,2.62
			s1.15,2.63,2.7,2.63C1855.92,713.87,1857.07,712.97,1857.07,711.25z"/>
	</g>
	<g class="st1">
		<path class="st2" d="M1150.44,316.71v5.75h-21.57V310.2l-1.33,1.51l-1.47-2.52v14.02h-5.32v-12.4c-1.15,2.3-2.44,4.64-2.98,5.47
			l-0.86-7.98c1.48-2.62,3.31-5.61,3.78-7.62h-2.55v-5.46h2.62v-5.32l5.32,0.14v5.18h2.01v5.46h-2.01v3.38l1.08-0.97
			c0.47,0.54,1.04,1.22,1.73,1.98v-14.3h20.63v5.68h-15.17v20.27H1150.44z M1139.58,310.31v-1.84h-3.63v-4.21h3.63v-1.83h-3.85v-4.6
			h13.01v4.6h-3.92v1.83h3.56v4.21h-3.56v1.84h4.13v4.96h-13.44v-4.96H1139.58z"/>
		<path class="st2" d="M1151.07,302.94c2.41-2.19,3.7-3.49,4.28-5.82h-2.88v-5.14h3.27l0.04-2.12l5.07,0.14c0,0.43,0,0.94-0.04,1.98
			h7.37l-0.29,8.59c-0.18,3.88-1.26,4.39-4.46,4.78l-2.88,0.36l-1.29-4.86c-0.97,2.05-2.19,3.81-3.88,5.5L1151.07,302.94z
			 M1182.23,322.86c-3.88-1.4-7.94-3.13-11.39-5.43v5.93h-5.57v-5.97c-3.31,2.19-7.33,4.03-11.32,5.46l-2.77-6
			c5.43-1.12,9.38-2.34,12.36-4.03h-10.85v-5.21h12.58v-1.94l5.57,0.14v1.8h12.58v5.21h-11.18c3.34,1.69,8.02,3.06,12.62,3.95
			L1182.23,322.86z M1160.41,297.12c-0.25,1.26-0.61,2.37-1.01,3.34l1.76-0.14c1.44-0.14,1.94-0.43,2.05-2.02l0.14-1.19H1160.41z
			 M1183.06,305.14h-13.26v-13.98h13.26V305.14z M1178.24,296.51h-3.56v3.34h3.56V296.51z"/>
		<path class="st2" d="M1194.11,301.87v3.13c0,8.09-0.94,12.29-3.06,18.37l-5.54-2.3c2.19-5.65,3.06-8.66,3.06-18.15v-12.18h28.61
			v11.14H1194.11z M1194.11,295.43v2.2h17.5v-2.2H1194.11z M1213.59,324.01c-0.4-0.68-0.86-1.51-1.44-2.41v0.07
			c-3.74,0.29-7.76,0.54-10.96,0.79c-2.41,0.18-3.85,0.32-5.25,0.58l-1.65-4.78c2.05-0.58,2.73-1.12,3.67-2.52
			c0.29-0.47,0.5-0.86,0.68-1.26h-3.99v-4.6h23.47v4.6h-4.53c1.55,2.02,3.63,4.53,4.89,6.44L1213.59,324.01z M1195.76,307.98v-4.28
			h20.74v4.28H1195.76z M1209.39,317.35c-0.54-0.76-1.04-1.51-1.51-2.12l1.29-0.76h-4.1c-0.61,1.01-1.37,2.16-2.05,3.13
			L1209.39,317.35z"/>
		<path class="st2" d="M1225.08,303.45c0-3.35,0.22-3.92,3.81-3.92c3.52,0,3.85,0.58,3.85,3.92c0,3.31-0.32,3.88-3.85,3.88
			C1225.29,307.33,1225.08,306.75,1225.08,303.45z M1225.08,315.52c0-3.35,0.22-3.92,3.81-3.92c3.52,0,3.85,0.58,3.85,3.92
			c0,3.31-0.32,3.88-3.85,3.88C1225.29,319.4,1225.08,318.83,1225.08,315.52z"/>
	</g>
	<g class="st1">
		<path class="st4" d="M1261.29,310.89v12.29h-2.27v-9.85c-1.15,1.19-2.37,2.3-3.52,3.31l-1.47-1.84c2.62-1.94,5.79-5.25,7.76-8.16
			l1.69,1.26C1262.87,308.91,1262.12,309.92,1261.29,310.89z M1286.35,323c-4.71-0.83-8.37-1.62-11.36-2.59
			c-3.13,1.04-6.94,1.84-11.86,2.63l-0.72-1.98c3.63-0.43,6.87-1.01,9.63-1.76c-1.65-0.76-3.09-1.58-4.39-2.63
			c-1.29,1.01-2.73,1.87-4.13,2.63l-1.19-1.58c2.55-1.22,4.96-3.06,6.51-4.92h-2.41v-6.69c-0.58,0.61-1.15,1.19-1.73,1.73
			l-1.65-1.62c2.27-1.94,3.56-3.31,4.71-5.57h-5.89l1.65,1.44c-1.87,2.37-4.71,4.96-7.22,6.83l-1.55-2.01
			c2.7-1.58,5.32-4.1,6.97-6.26h-4.13v-5h7.8v-1.91h-9.63v-1.8h29.4v1.8h-9.6v1.91h7.8v5h-15.03l1.48,0.79l-0.5,0.86h15.85v1.65
			h-16.97c-0.4,0.58-0.83,1.08-1.26,1.58h15.85v7.26h-13.26l1.33,0.76c-0.22,0.29-0.43,0.54-0.68,0.83h12.69v1.73
			c-1.55,1.33-3.24,2.41-5.25,3.27c2.77,0.79,5.9,1.37,9.31,1.73L1286.35,323z M1260,299.06h5.39v-1.8H1260V299.06z M1267.76,295.64
			h5.46v-1.91h-5.46V295.64z M1273.23,299.06v-1.8h-5.46v1.8H1273.23z M1268.77,307.15v1.22h11.68v-1.22H1268.77z M1268.77,311.14
			h11.68v-1.19h-11.68V311.14z M1274.77,318.47c2.05-0.72,3.7-1.51,4.85-2.41h-9.74C1271.25,316.96,1272.9,317.79,1274.77,318.47z
			 M1275.56,297.26v1.8h5.46v-1.8H1275.56z"/>
		<path class="st4" d="M1320.08,319.37v2.34h-31.42v-2.34h4.31v-8.77h22.75v8.77H1320.08z M1319,307.44h-29.3v-2.3h13.26v-3.06
			h-10.57v-2.3h10.57v-3.06h-12.4v-2.27h8.16c-0.86-1.08-1.98-2.19-2.73-2.84l1.98-1.8c1.04,0.94,2.84,2.73,3.7,3.85l-0.79,0.79
			h5.86c1.51-1.37,3.24-3.52,4.1-4.78l2.26,1.3c-0.65,0.9-1.76,2.3-2.8,3.49h7.84v2.27h-12.36v3.06h10.49v2.3h-10.49v3.06H1319
			V307.44z M1295.35,319.37h4.57v-6.4h-4.57V319.37z M1306.6,312.97h-4.46v6.4h4.46V312.97z M1313.32,312.97h-4.53v6.4h4.53V312.97z
			"/>
		<path class="st4" d="M1354.25,317.68v2.59h-31.77v-2.59h7.62l2.01-11.61h-7.08v-2.59h7.55l1.37-7.98h-9.63v-2.66h28.36v2.66
			h-15.85l-1.37,7.98h13.08l-0.54,14.2H1354.25z M1333.01,317.68h12.11l0.43-11.61h-10.53L1333.01,317.68z"/>
		<path class="st4" d="M1388.3,320.12l-1.87,2.59c-7.08-4.28-12.01-10.03-13.98-15.35c-2.19,6.08-7.48,11.14-13.84,15.35l-2.01-2.59
			c7.19-4.14,13.8-10.32,14.2-18.48h-12.94v-2.73h12.94v-8.45l2.91,0.14v8.3h13.41v2.73h-13.62v0.29
			C1375.22,311.35,1382.16,316.82,1388.3,320.12z"/>
		<path class="st4" d="M1402.81,314.3c-0.68,0.65-4.28,3.96-5.18,4.82c-0.43,0.4-1.19,1.19-1.73,1.73l-1.73-2.02
			c0.86-0.83,1.01-1.37,1.01-2.48v-11.68h-5v-2.7h7.69v13.55c0.58-0.54,3.38-3.31,4.03-3.99L1402.81,314.3z M1392.64,292.59
			l1.84-1.69c1.62,1.48,4.6,4.86,5.79,6.69l-1.94,2.09C1397.13,297.59,1394.22,294.1,1392.64,292.59z M1422.8,320.41l-2.09,2.16
			c-4.85-4.64-8.19-9.96-9.88-17.33c-1.26,6.33-4.03,11.5-10.32,17.54l-2.16-2.05c7.69-6.44,10.85-12.98,10.85-25.95v-4.35
			l2.59,0.07v4.96v0.4C1412.52,307.26,1416.22,314.77,1422.8,320.41z"/>
		<path class="st4" d="M1433.81,310.6c1.44,1.55,3.99,4.28,6.29,7.37l-2.05,2.12c-1.69-2.59-3.63-5.11-5.07-6.8
			c-1.19,3.09-3.24,6.04-6.69,9.6l-2.05-1.87c4.92-5.04,6.94-8.67,7.37-13.73h-7.26v-2.59h7.37l0.04-7.19h-2.41
			c-0.76,1.94-1.62,3.81-2.41,5.21l-2.3-1.19c1.76-3.17,3.56-7.69,4.42-11.29l2.45,0.58c-0.29,1.15-0.68,2.55-1.19,4.03h8.77v2.66
			h-4.67c0,2.23-0.04,6.65-0.04,7.05v0.14h5.36v2.59h-5.46C1434.21,308.44,1434.06,309.52,1433.81,310.6z M1453.51,293.56v28.33
			h-2.62v-3.38h-7.05v3.38l-2.59-0.04v-28.29H1453.51z M1450.89,315.85v-19.63h-7.05v19.63H1450.89z"/>
		<path class="st4" d="M1468.66,315.13c-2.26,0.76-7.44,2.48-9.85,3.06l-0.58-2.56c1.04-0.22,2.66-0.68,4.39-1.22v-12.58h-3.74
			v-2.52h3.74v-8.63l2.55,0.11v8.52h3.49v2.52h-3.49v11.79c1.15-0.4,2.23-0.76,3.02-1.01l0.22,1.15L1468.66,315.13z M1477.93,316.28
			c-2.77,0.97-7.69,2.23-11.18,3.02l-0.54-2.41c3.52-0.79,8.48-2.01,11.28-2.91l0.22,1.3L1477.93,316.28z M1490.08,314.7
			c-0.14,1.08-0.32,1.87-0.65,3.38c-0.76,3.49-1.55,4.24-3.38,4.24c-1.4,0-2.59-0.97-3.67-3.59c-0.29-0.68-0.54-1.48-0.79-2.38
			c-1.73,2.2-3.7,4.17-5.93,5.93l-1.8-2.05c2.98-2.3,5.25-4.42,7.04-6.86c-0.76-3.92-1.29-9.1-1.51-15.1h-10.89v-2.45h10.82
			c-0.07-2.8-0.11-5.68-0.11-5.68l2.45,0.07c0,0,0.04,2.66,0.11,5.61h7.91v2.45h-7.87c0.11,4.82,0.43,8.91,0.94,12.26
			c1.48-2.59,2.63-5.65,3.7-9.53l2.19,0.76c-1.33,4.78-3.09,8.74-5.25,12.08c0.29,1.37,0.65,2.52,1.04,3.52
			c0.61,1.55,1.04,1.98,1.62,1.98c0.68,0,0.93-0.72,1.37-2.77c0.22-1.04,0.36-1.87,0.43-2.88L1490.08,314.7z M1477.43,302.01v10.03
			h-8.02v-10.03H1477.43z M1475.24,304.31h-3.67v5.39h3.67V304.31z M1483.43,291.44l1.65-1.44c1.04,0.86,2.95,2.88,3.74,3.99
			l-1.73,1.65C1486.31,294.31,1484.44,292.3,1483.43,291.44z"/>
		<path class="st4" d="M1495.64,315.95l1.98-1.33c2.19,1.4,4.67,4.06,6.33,6.51l-2.52,1.51
			C1500.13,320.3,1497.44,317.35,1495.64,315.95z"/>
		<path class="st4" d="M1536.49,304.99l2.81,1.08c-2.7,6.07-6.43,11.97-10.35,16.35l-2.45-1.84
			C1530.31,316.42,1534.19,310.42,1536.49,304.99z M1557.52,297.95v2.7h-30.91v-2.7h14.92c-0.68-2.3-1.98-6.25-2.37-7.15l2.8-0.68
			c0.43,0.97,2.12,6.01,2.73,7.84H1557.52z M1547.42,304.7c2.84,3.81,7.66,11.4,10.03,15.89l-2.41,1.87
			c-2.37-4.82-7.19-12.44-9.99-16.25L1547.42,304.7z"/>
		<path class="st4" d="M1592.01,320.12l-1.87,2.59c-7.08-4.28-12.01-10.03-13.98-15.35c-2.19,6.08-7.48,11.14-13.84,15.35
			l-2.01-2.59c7.19-4.14,13.8-10.32,14.2-18.48h-12.94v-2.73h12.94v-8.45l2.91,0.14v8.3h13.41v2.73h-13.62v0.29
			C1578.92,311.35,1585.86,316.82,1592.01,320.12z"/>
		<path class="st4" d="M1624.16,322.68c-3.6-2.23-9.27-4.71-13.16-6.04c-2.8,2.88-7.51,4.64-15.1,6.18l-1.19-2.66
			c9.06-1.69,13.26-3.6,15.31-6.79h-15.42v-2.45h16.5c0.5-1.66,0.68-3.56,0.83-5.86c0.07-1.33,0.18-5.39,0.22-6.69l2.77,0.11
			c0,1.19-0.14,5.61-0.22,6.94c-0.07,2.09-0.25,3.88-0.65,5.5h11.21v2.45h-12.04c-0.18,0.43-0.4,0.83-0.61,1.22
			c3.85,1.22,9.81,3.81,12.69,5.46L1624.16,322.68z M1598.64,301.47h-2.62v-7.05h13.09c-0.4-1.37-0.94-3.06-1.3-3.96l2.66-0.5
			c0.4,0.97,1.11,3.13,1.55,4.46h11.97v7.12h-2.7v-4.67h-22.65V301.47z M1599.39,303.41c2.45,1.12,6.58,3.49,8.38,4.82l-1.22,2.37
			c-2.12-1.69-6.36-4.17-8.27-5.1L1599.39,303.41z M1609.14,305.32c-1.83-1.55-5.93-3.78-7.98-4.78l1.08-2.16
			c2.19,0.86,6.22,3.1,7.98,4.32L1609.14,305.32z"/>
		<path class="st4" d="M1657.61,313.94l2.16,1.4c-0.47,1.62-0.94,3.13-1.58,4.57c-0.65,1.44-1.94,2.34-3.38,2.34
			c-1.65,0-3.24-0.97-4.92-3.85c-0.32-0.54-0.61-1.15-0.9-1.84c-2.08,1.37-4.42,2.56-7.04,3.67l-1.19-2.05l0.04,0.54
			c-3.06,0.65-9.7,1.62-12.76,2.01l-0.32-2.41c0.61-0.07,1.4-0.14,2.23-0.25v-12.36l2.23,0.07v11.97c1.01-0.14,2.05-0.32,3.09-0.47
			v-13.8h-5.07v-11.07h10.06v11.07h-2.66v5.18h4.1v2.37h-4.1v5.83c1.19-0.22,2.23-0.43,3.06-0.61l0.04,0.79l0.04,0.72
			c2.8-1.08,5.25-2.26,7.4-3.59c-0.61-1.94-1.11-4.24-1.55-6.98l-5.25,0.68l-0.25-2.3l5.14-0.68c-0.18-1.37-0.32-2.84-0.5-4.39
			l-4.28,0.5l-0.22-2.34l4.31-0.5c-0.04-0.07-0.04-0.18-0.04-0.25c-0.14-2.05-0.43-7.69-0.43-7.69l2.34-0.07c0,0,0.29,4.25,0.5,7.73
			l10.75-1.26l0.25,2.3l-10.82,1.3c0.14,1.55,0.29,2.99,0.47,4.35l11.14-1.51l0.22,2.34l-11.03,1.48c0.4,2.27,0.83,4.24,1.33,5.89
			c2.3-1.65,4.24-3.52,6-5.68l1.58,1.55c-2.05,2.48-4.24,4.64-6.76,6.51c0.36,0.79,0.72,1.51,1.08,2.12
			c1.04,1.69,1.91,2.12,2.59,2.12c1.04,0,1.37-0.65,1.83-1.73C1657,316.46,1657.32,315.16,1657.61,313.94z M1632.52,301.11h5.43
			v-6.29h-5.43V301.11z M1649.73,291.91l1.44-1.44c1.26,0.9,3.56,3.24,4.6,4.46l-1.55,1.87
			C1653.22,295.28,1650.92,292.91,1649.73,291.91z"/>
		<path class="st4" d="M1672.36,315.13c-2.27,0.76-7.44,2.48-9.85,3.06l-0.58-2.56c1.04-0.22,2.66-0.68,4.39-1.22v-12.58h-3.74
			v-2.52h3.74v-8.63l2.55,0.11v8.52h3.49v2.52h-3.49v11.79c1.15-0.4,2.23-0.76,3.02-1.01l0.22,1.15L1672.36,315.13z M1681.64,316.28
			c-2.77,0.97-7.69,2.23-11.18,3.02l-0.54-2.41c3.52-0.79,8.48-2.01,11.29-2.91l0.22,1.3L1681.64,316.28z M1693.79,314.7
			c-0.14,1.08-0.32,1.87-0.65,3.38c-0.76,3.49-1.55,4.24-3.38,4.24c-1.4,0-2.59-0.97-3.67-3.59c-0.29-0.68-0.54-1.48-0.79-2.38
			c-1.73,2.2-3.7,4.17-5.93,5.93l-1.8-2.05c2.99-2.3,5.25-4.42,7.05-6.86c-0.76-3.92-1.3-9.1-1.51-15.1h-10.89v-2.45h10.82
			c-0.07-2.8-0.11-5.68-0.11-5.68l2.45,0.07c0,0,0.04,2.66,0.11,5.61h7.91v2.45h-7.87c0.11,4.82,0.43,8.91,0.94,12.26
			c1.47-2.59,2.62-5.65,3.7-9.53l2.19,0.76c-1.33,4.78-3.09,8.74-5.25,12.08c0.29,1.37,0.65,2.52,1.04,3.52
			c0.61,1.55,1.04,1.98,1.62,1.98c0.68,0,0.93-0.72,1.37-2.77c0.22-1.04,0.36-1.87,0.43-2.88L1693.79,314.7z M1681.14,302.01v10.03
			h-8.02v-10.03H1681.14z M1678.94,304.31h-3.67v5.39h3.67V304.31z M1687.14,291.44l1.66-1.44c1.04,0.86,2.95,2.88,3.74,3.99
			l-1.73,1.65C1690.01,294.31,1688.14,292.3,1687.14,291.44z"/>
		<path class="st4" d="M1699.34,315.95l1.98-1.33c2.19,1.4,4.67,4.06,6.33,6.51l-2.52,1.51
			C1703.83,320.3,1701.14,317.35,1699.34,315.95z"/>
	</g>
	<g class="st1">
		<path class="st4" d="M1125.1,342.47h-6.76v-2.19h7.37v-7.37l2.41,0.14v7.23h6.47v2.19h-6.47v6.69h-2.41v-4.42
			c-1.83,2.09-4.17,4.03-7.19,5.64l-1.29-1.94C1120.5,346.82,1123.12,344.7,1125.1,342.47z M1132.07,362.99
			c-1.33-0.79-2.8-1.55-4.28-2.3c-2.05,1.51-4.89,2.88-9.06,4.28l-1.26-2.26c3.56-1.04,6.08-2.05,7.94-3.2
			c-1.8-0.86-3.63-1.66-5.36-2.3c0.68-1.12,1.37-2.27,1.98-3.42h-4.17v-2.16h5.25c0.43-0.9,0.79-1.76,1.08-2.52l2.3,0.76
			c-0.22,0.61-0.47,1.19-0.72,1.76h7.48v2.05c-0.97,2.01-1.98,3.77-3.56,5.35c1.04,0.5,2.16,1.01,3.34,1.58L1132.07,362.99z
			 M1121.93,339.7c-0.47-1.58-1.55-3.81-2.27-5.04l1.91-0.72c0.68,1.08,1.76,3.41,2.34,5.07L1121.93,339.7z M1127.43,358.07
			c1.44-1.26,2.34-2.62,3.16-4.28h-5.86c-0.43,0.9-0.94,1.73-1.4,2.55C1124.63,356.88,1125.96,357.42,1127.43,358.07z
			 M1128.51,344.98l1.44-1.33c1.22,0.97,3.09,2.81,4.53,4.42l-1.44,1.66C1131.67,348.04,1130.06,346.31,1128.51,344.98z
			 M1131.14,339.74l-1.8-1.01c0.9-1.19,2.16-3.35,2.8-5l2.01,0.9C1133.51,336.14,1132.14,338.48,1131.14,339.74z M1150.15,363.1
			l-1.87,1.94c-2.73-2.2-4.89-4.35-6.54-6.65c-1.76,2.34-4.13,4.5-7.37,6.83l-1.65-2.02c3.42-2.27,5.82-4.53,7.51-7.08
			c-1.87-3.24-2.95-6.72-3.56-10.71c-0.4,0.68-0.79,1.37-1.22,2.05l-2.01-1.3c2.73-3.74,4.74-9.42,5.46-13.48l2.52,0.61
			c-0.4,1.73-0.9,3.42-1.51,5.14h9.35v2.59h-2.45c-0.58,6.54-1.4,11.14-3.63,15.09C1144.9,358.57,1147.17,360.84,1150.15,363.1z
			 M1141.63,353.61c1.58-3.42,2.3-7.41,2.77-12.58h-5.57l-0.43,1.01C1138.9,346.56,1139.87,350.27,1141.63,353.61z"/>
		<path class="st4" d="M1183.31,347.79h-14.13v17.07h-2.91v-17.07h-14.09v-2.74h14.09v-12.47l2.91,0.11v12.36h14.13V347.79z"/>
		<path class="st4" d="M1200.47,332.69h2.48c3.63,5.43,8.73,10.21,15.31,14.2l-2.01,2.52c-4.96-3.6-11.1-8.66-14.52-13.73
			c-3.6,5.18-8.91,9.96-14.74,13.8l-1.94-2.41C1191.67,343.19,1197.24,337.8,1200.47,332.69z M1203.17,344.01v21.06h-2.91v-21.21
			L1203.17,344.01z"/>
		<path class="st4" d="M1251.96,361.3l-0.5,2.7c-5.25,0.18-10.46,0.18-15.71,0c-4.85-0.18-7.19-0.94-9.78-4.46
			c-1.58,1.76-3.06,3.06-4.96,4.57l-1.69-2.52c1.76-1.33,3.7-2.95,5.36-4.57v-9.45h-4.71v-2.66h7.3v12.08
			c2.16,3.45,4.1,4.13,8.91,4.31C1241.43,361.48,1246.72,361.48,1251.96,361.3z M1227.2,342.22c-1.04-2.02-3.63-5.5-5.07-7.05
			l1.94-1.62c1.44,1.48,4.13,4.89,5.21,6.73L1227.2,342.22z M1243.34,341.5h-12.83v-2.63h12.83v-6.18l2.59,0.11v6.07h5v2.63h-5
			v11.97c0,4.03-0.83,5.04-5.9,5.25l-2.48,0.11l-1.01-2.77l3.24-0.14c3.2-0.14,3.56-0.68,3.56-3.13V341.5z M1239.1,350.66
			l-2.09,1.87c-1.08-2.27-3.81-6.11-5.32-7.8l1.91-1.51C1235.11,344.88,1237.95,348.65,1239.1,350.66z"/>
		<path class="st4" d="M1261.47,350.41v14.88h-2.3V350.3c-1.15,2.98-2.55,5.79-4.06,8.16l-2.16-1.47c2.59-3.56,4.78-8.13,6-11.9
			h-4.57v-2.56h4.78v-4.74c-1.69,0.32-3.27,0.54-4.42,0.61l-0.5-2.48c3.02-0.18,8.63-1.37,11.36-2.27l0.5,2.45
			c-1.19,0.4-2.88,0.86-4.64,1.22v5.21h4.46v2.56h-4.46v3.85l1.01-0.86c1.12,1.12,3.24,3.74,4.1,5.14l-1.76,1.94
			C1264.1,353.83,1262.62,351.78,1261.47,350.41z M1285.34,360.87v2.59h-20.96v-2.59h9.31v-4.21h-6.54v-2.48h6.54v-4.24h-7.44v-2.48
			h17.97v2.48h-7.98v4.24h6.83v2.48h-6.83v4.21H1285.34z M1282.65,344.16h-15.28v-9.56h15.28V344.16z M1280.09,336.93h-10.28v4.93
			h10.28V336.93z"/>
		<path class="st4" d="M1295.24,339.05h4.1v2.55h-4.1v6.37c1.26-0.43,2.44-0.86,3.31-1.22l0.29,1.15l0.32,1.4
			c-1.01,0.43-2.41,0.94-3.92,1.47v10.1c0,2.77-0.97,3.17-4.13,3.49l-1.69,0.18l-0.86-2.52l1.8-0.14c1.8-0.18,2.16-0.36,2.16-1.83
			v-8.38c-1.76,0.58-3.45,1.08-4.64,1.37l-0.58-2.63c1.33-0.32,3.24-0.9,5.21-1.55v-7.26h-4.35v-2.55h4.35v-6.33l2.73,0.11V339.05z
			 M1318.93,339.99c-0.04,0.58-0.14,1.33-0.32,2.45c-0.43,2.66-1.15,3.24-4.14,3.42c-3.2,0.18-6.72,0.18-9.92,0
			c-3.02-0.18-4.13-0.94-4.13-4.14v-8.84l2.59,0.11v4.92c3.99-0.83,10.06-2.52,13.59-3.67l0.68,2.48c-3.85,1.19-9.88,2.7-14.27,3.63
			v0.9c0,1.73,0.43,2.12,2.16,2.23c2.66,0.18,5.72,0.18,8.38,0c2.05-0.14,2.41-0.43,2.66-2.16c0.11-0.72,0.18-1.51,0.22-2.16
			L1318.93,339.99z M1300.49,348.65h16.25v16.28h-2.66v-1.73h-11.03v1.8h-2.55V348.65z M1303.04,350.99v3.89h11.03v-3.89H1303.04z
			 M1314.08,360.87v-3.7h-11.03v3.7H1314.08z"/>
		<path class="st4" d="M1329.41,348.07v17.47h-2.66v-17.68c-1.26,3.06-2.7,5.83-4.24,8.13l-2.09-1.48
			c2.41-3.27,4.82-8.16,6.18-12.26h-4.6v-2.55h4.74v-6.65l2.66,0.11v6.55h4.17v2.55h-4.17v4.24l0.9-0.83
			c1.11,1.08,3.23,3.59,4.13,4.89l-1.73,1.98C1332.03,351.24,1330.56,349.37,1329.41,348.07z M1339.58,350.38
			c-1.44,3.96-3.2,8.09-5.89,12.22l-2.52-1.22c2.55-3.74,4.67-8.34,5.97-11.94L1339.58,350.38z M1344.47,346.71v14.45
			c0,2.88-1.08,3.6-4.67,3.89l-1.73,0.14l-0.93-2.77l2.08-0.14c2.09-0.14,2.41-0.54,2.41-2.27v-13.3h-8.27v-2.63h19.99v2.63H1344.47
			z M1351.51,337.9h-16.36v-2.62h16.36V337.9z M1354.21,361.16l-2.45,1.48c-1.01-3.38-3.85-9.35-5.5-11.97l2.27-1.15
			C1350.22,352.25,1353.06,358.18,1354.21,361.16z"/>
		<path class="st4" d="M1358.08,360.91c0-3.02,2.19-4.53,4.78-4.53s4.78,1.51,4.78,4.53c0,3.02-2.23,4.53-4.78,4.53
			C1360.27,365.44,1358.08,363.93,1358.08,360.91z M1365.55,360.91c0-1.73-1.15-2.62-2.7-2.62c-1.55,0-2.7,0.9-2.7,2.62
			s1.15,2.63,2.7,2.63C1364.4,363.53,1365.55,362.63,1365.55,360.91z"/>
	</g>
	<g>
		<path class="st0" d="M470.68,598.99h259.93c15.54,0,28.14,12.6,28.14,28.14v88.79c0,15.54-12.6,28.14-28.14,28.14H470.68
			c-15.54,0-28.14-12.6-28.14-28.14v-88.79C442.54,611.59,455.14,598.99,470.68,598.99z"/>
	</g>
	<g class="st1">
		<path class="st2" d="M492.23,570.56v2.73h-31.2v-2.73h14.09v-21.53h-11.64v-2.84h26.35v2.84h-11.64v21.53H492.23z"/>
		<path class="st2" d="M527.22,565.28v2.45h-31.88v-2.45h5.32v-20.31h21.17v20.31H527.22z M506.95,568.05l1.37,2.16
			c-2.73,1.84-8.73,4.71-11.75,5.72l-1.01-2.37C498.43,572.61,504.32,569.84,506.95,568.05z M503.28,547.38v2.7h15.82v-2.7H503.28z
			 M519.09,552.41h-15.82v2.74h15.82V552.41z M503.28,557.45v2.73h15.82v-2.73H503.28z M503.28,565.28h15.82v-2.8h-15.82V565.28z
			 M514.82,568.15c2.91,0.97,8.98,3.45,11.68,4.93l-1.08,2.59c-2.66-1.84-8.73-4.28-11.61-5.25L514.82,568.15z"/>
	</g>
	<g class="st1">
		<path class="st2" d="M555.14,550.04h-7.26v22.07h-3.24v-22.07h-7.3v-2.88h17.79V550.04z"/>
	</g>
	<g class="st1">
		<path class="st2" d="M555.03,562.4c0-7.73,3.27-10.06,8.99-10.06c5.75,0,8.95,2.34,8.95,10.06c0,7.73-3.2,10.07-8.95,10.07
			C558.3,572.47,555.03,570.13,555.03,562.4z M569.69,562.4c0-5.68-1.44-7.48-5.68-7.48c-4.35,0-5.68,1.8-5.68,7.48
			c0,5.68,1.47,7.44,5.68,7.44C568.4,569.84,569.69,568.08,569.69,562.4z"/>
		<path class="st2" d="M576.53,562.4c0-7.73,3.27-10.06,8.99-10.06c5.75,0,8.95,2.34,8.95,10.06c0,7.73-3.2,10.07-8.95,10.07
			C579.81,572.47,576.53,570.13,576.53,562.4z M591.2,562.4c0-5.68-1.44-7.48-5.68-7.48c-4.35,0-5.68,1.8-5.68,7.48
			c0,5.68,1.47,7.44,5.68,7.44C589.91,569.84,591.2,568.08,591.2,562.4z"/>
		<path class="st2" d="M599.23,547.16h3.23v24.95h-3.23V547.16z"/>
		<path class="st2" d="M607.17,571.71v-2.66c1.37,0.4,3.85,0.76,5.61,0.76c2.95,0,4.49-0.72,4.49-2.99c0-2.3-0.65-2.77-4.35-3.63
			c-4.28-0.97-5.43-2.34-5.43-5.61c0-3.13,2.37-5.25,6.97-5.25c1.87,0,3.96,0.29,4.89,0.65l-0.22,2.63
			c-1.12-0.43-2.84-0.76-4.64-0.76c-2.73,0-4.1,0.61-4.1,2.81c0,1.98,0.68,2.41,3.7,3.09c4.46,1.01,6.08,2.23,6.08,5.97
			c0,3.85-2.63,5.61-7.37,5.61C610.95,572.32,608.25,572.04,607.17,571.71z"/>
	</g>
	<g class="st1">
		<path class="st3" d="M529.69,667.78c0,12.04-6.11,15.59-15.05,15.59h-8.99v-31.18h8.99C523.58,652.19,529.69,654.8,529.69,667.78z
			 M525.51,667.78c0-9.97-4.63-12.09-10.96-12.09h-4.85v24.12h4.85C521.07,679.82,525.51,677.18,525.51,667.78z"/>
		<path class="st3" d="M555.23,671.65l-16.44,1.03c0.04,5.3,1.89,7.73,7.77,7.73c2.65,0,5.75-0.68,7.59-1.58v3.55
			c-1.39,0.72-4.72,1.44-8.18,1.44c-7.15,0-11.23-2.92-11.23-12.58c0-9.66,4.09-12.58,11.01-12.58c8.27,0,9.71,5.44,9.71,10.15
			C555.46,669.49,555.37,670.52,555.23,671.65z M551.64,668.86c0-3.73-0.63-7.01-5.89-7.01c-5.57,0-6.83,3.01-6.96,7.95
			L551.64,668.86z"/>
		<path class="st3" d="M557.67,659.11h3.91l7.37,20.4h0.27l7.1-20.4h4.09l-9.08,24.26h-4.58L557.67,659.11z"/>
		<path class="st3" d="M612.41,679.73v3.64h-17.57v-31.18h4.04v27.54H612.41z"/>
		<path class="st3" d="M636.01,666.16v17.21h-3.28l-0.59-3.68c-1.39,2.65-5.03,4.13-8.67,4.13c-5.8,0-8.36-2.65-8.36-7.23
			c0-5.75,3.82-7.73,9.61-7.73h7.41v-2.02c0-2.92-1.03-4.94-5.98-4.94c-1.62,0-3.59,0.18-5.35,0.54v-3.42
			c1.8-0.22,3.78-0.36,5.53-0.36C633.99,658.66,636.01,661.81,636.01,666.16z M632.15,675.96v-4H625c-4,0-5.89,0.81-5.89,4.58
			c0,2.65,1.3,4.04,4.72,4.04C627.88,680.59,630.89,678.83,632.15,675.96z"/>
	</g>
	<g class="st1">
		<path class="st3" d="M662.14,683.37h-4.99l-8.85-11.32H647v11.32h-3.86v-34.15H647v19.81h1.39l8.4-9.93h4.81l-10.2,11.28
			L662.14,683.37z"/>
	</g>
	<g class="st1">
		<path class="st3" d="M683.67,671.65l-16.44,1.03c0.04,5.3,1.89,7.73,7.77,7.73c2.65,0,5.75-0.68,7.59-1.58v3.55
			c-1.39,0.72-4.72,1.44-8.18,1.44c-7.15,0-11.23-2.92-11.23-12.58c0-9.66,4.09-12.58,11.01-12.58c8.27,0,9.71,5.44,9.71,10.15
			C683.89,669.49,683.8,670.52,683.67,671.65z M680.08,668.86c0-3.73-0.63-7.01-5.89-7.01c-5.57,0-6.83,3.01-6.96,7.95
			L680.08,668.86z"/>
	</g>
	<g class="st1">
		<path class="st2" d="M47.2,650.27v5.97H15.03v-5.97h12.76v-17.33H17.4v-5.97h27.46v5.97H34.47v17.33H47.2z"/>
		<path class="st2" d="M81.44,650.63h-8.8c2.59,0.83,5.03,1.69,7.62,2.66l-2.16,5.25c-3.92-1.84-7.87-3.38-11.29-4.53l1.91-3.38
			H61.6l2.12,3.49c-2.98,1.33-7.3,3.16-11.25,4.42l-2.52-5.21c3.34-0.83,6.54-1.73,9.13-2.7H48.94v-5.5h3.49v-19.41h25.52v19.41
			h3.49V650.63z M58.18,630.57v1.37h13.8v-1.37H58.18z M71.98,634.96h-13.8v1.3h13.8V634.96z M58.18,639.31v1.37h13.8v-1.37H58.18z
			 M58.18,645.13h13.8v-1.37h-13.8V645.13z"/>
		<path class="st2" d="M91.3,636.83v3.13c0,8.09-0.94,12.29-3.06,18.37l-5.54-2.3c2.19-5.65,3.06-8.66,3.06-18.15v-12.18h28.61
			v11.14H91.3z M91.3,630.39v2.2h17.5v-2.2H91.3z M110.79,658.97c-0.4-0.68-0.86-1.51-1.44-2.41v0.07
			c-3.74,0.29-7.76,0.54-10.96,0.79c-2.41,0.18-3.85,0.32-5.25,0.58l-1.65-4.78c2.05-0.58,2.73-1.12,3.67-2.52
			c0.29-0.47,0.5-0.86,0.68-1.26h-3.99v-4.6h23.47v4.6h-4.53c1.55,2.02,3.63,4.53,4.89,6.44L110.79,658.97z M92.96,642.94v-4.28
			h20.74v4.28H92.96z M106.58,652.32c-0.54-0.76-1.04-1.51-1.51-2.12l1.29-0.76h-4.1c-0.61,1.01-1.37,2.16-2.05,3.13L106.58,652.32z
			"/>
		<path class="st2" d="M122.27,638.41c0-3.35,0.22-3.92,3.81-3.92c3.52,0,3.85,0.58,3.85,3.92c0,3.31-0.32,3.88-3.85,3.88
			C122.49,642.29,122.27,641.72,122.27,638.41z M122.27,650.49c0-3.35,0.22-3.92,3.81-3.92c3.52,0,3.85,0.58,3.85,3.92
			c0,3.31-0.32,3.88-3.85,3.88C122.49,654.37,122.27,653.79,122.27,650.49z"/>
	</g>
	<g class="st1">
		<path class="st4" d="M179.73,629.53v28h-2.84v-2.23h-18.4v2.34h-2.8v-28.11h8.45c0.65-1.51,1.37-3.53,1.73-4.78l3.09,0.47
			c-0.4,1.22-1.08,2.99-1.65,4.32H179.73z M158.49,632.15v5.18h18.4v-5.18H158.49z M158.49,639.88v5.03h18.4v-5.03H158.49z
			 M176.89,652.71v-5.17h-18.4v5.17H176.89z"/>
		<path class="st4" d="M199.95,652.28c-2.77,0.4-7.94,1.15-9.06,1.3c-0.79,0.11-1.51,0.32-2.27,0.58l-1.01-2.73
			c0.93-0.4,1.22-0.9,1.58-1.58c1.01-2.05,2.8-6.69,3.85-10.25h-5.68v-2.59h15.67v2.59h-7.22c-1.01,3.45-2.95,8.92-4.17,11.18
			c1.19-0.18,5.1-0.68,7.44-1.01c-0.86-2.34-1.87-4.78-2.66-6.29l2.41-0.94c1.22,2.48,3.31,7.48,3.99,10.17l-2.34,1.51
			C200.35,653.65,200.17,653,199.95,652.28z M201.93,630.64h-12.72v-2.55h12.72V630.64z M217.28,632.12
			c-0.07,2.52-0.54,16.93-0.68,19.95c-0.11,3.45-1.22,4.17-5.36,4.68l-2.09,0.25l-0.83-2.81l2.34-0.22c2.7-0.25,3.31-0.68,3.42-3.2
			c0.11-2.34,0.54-13.66,0.61-16.03h-5.68c-0.43,12.65-0.94,16.57-6.76,23.58l-2.3-1.62c5.61-6.29,6.08-9.7,6.43-21.96h-4.56v-2.63
			h4.6c0.07-2.77,0.14-6.83,0.14-6.83l2.63,0.14c0,0-0.04,3.63-0.11,6.69H217.28z"/>
		<path class="st4" d="M223.52,637.72l-1.58-2.09c4.06-3.38,6.15-6.47,8.2-10.42l2.23,1.01c-0.43,0.86-0.94,1.8-1.55,2.77h7.8
			c-0.29-1.08-0.61-2.27-0.97-3.17l2.41-0.58c0.25,0.68,0.83,2.48,1.19,3.74h11v2.16H241.2v2.3h10.06v1.98H241.2v2.27h10.14v1.98
			H241.2v2.38h11.72v2.16h-25.85v-10.03C226.03,635.39,224.85,636.61,223.52,637.72z M253.78,656.99
			c-6.04-1.91-10.93-3.67-14.06-6.29v7.08h-2.55v-7.08c-3.88,3.34-10.93,5.64-13.8,6.44l-1.04-2.34c3.88-1.11,10.32-2.91,13.91-5.89
			h-12.65v-2.2h13.59v-2.01l2.55,0.11v1.91h13.84v2.2h-13.08c3.88,2.62,9.27,4.46,14.38,5.64L253.78,656.99z M238.65,631.15h-8.99
			v2.3h8.99V631.15z M238.65,635.42h-8.99v2.27h8.99V635.42z M238.65,639.67h-8.99v2.38h8.99V639.67z"/>
		<path class="st4" d="M289.75,650.13c-0.4,1.87-0.76,3.27-1.37,4.82c-0.83,2.09-1.9,2.45-3.45,2.45c-1.69,0-3.27-1.12-5.03-4.1
			c-0.36-0.61-0.72-1.26-1.01-2.02c-1.65,1.76-3.59,3.52-6,5.36l-1.8-1.94c2.8-2.05,5-4.03,6.76-6.08
			c-1.26-3.88-2.16-9.02-2.77-15.46h-11.14v5.18h8.81c0,1.33-0.36,9.52-0.5,11c-0.32,3.31-1.01,4.24-4.57,4.64l-2.01,0.22
			l-0.76-2.66l2.37-0.22c2.05-0.18,2.19-0.54,2.41-2.7c0.11-1.15,0.36-6.83,0.36-7.73h-6.11c-0.07,7.76-1.29,11.93-4.17,17.11
			l-2.66-1.3c3.24-5.03,4.35-8.45,4.35-16.71v-9.31h13.41c-0.22-2.45-0.43-5.47-0.43-5.47h2.66l0.4,5.47h6
			c-1.11-1.37-2.95-3.24-3.81-4.03l1.62-1.69c1.19,0.94,3.41,3.09,4.31,4.21l-1.44,1.51h4.42v2.48H277.7
			c0.47,5.22,1.15,9.53,2.09,12.98c2.09-3.06,3.49-6.36,4.78-10.35l2.44,0.86c-1.76,5-3.49,8.84-6.25,12.44
			c0.47,1.26,1.01,2.34,1.58,3.27c1.01,1.62,1.84,2.16,2.45,2.16c0.97,0,1.33-0.54,1.76-1.76c0.43-1.26,0.65-2.45,0.86-3.96
			L289.75,650.13z"/>
		<path class="st4" d="M288.79,660.44v-2.88c0.58,0.11,1.22,0.25,2.41,0.25c2.62,0,3.67-1.83,3.67-4.57v-24.05h3.24v24.37
			c0,4.35-2.16,7.08-6.79,7.08C290.59,660.66,289.48,660.59,288.79,660.44z"/>
		<path class="st4" d="M304.58,629.21h3.23v24.95h-3.23V629.21z"/>
		<path class="st4" d="M328.85,654.15l-6.87-10.06c-0.4,0.04-0.79,0.04-1.22,0.04h-3.09v10.03h-3.24v-24.95h6.33
			c6.97,0,9.53,1.87,9.53,7.37c0,4.32-1.65,6.37-5.1,7.16l7.48,10.42H328.85z M327.01,636.57c0-3.77-1.91-4.57-6.54-4.57h-2.81v9.42
			h2.81C325.11,641.43,327.01,640.82,327.01,636.57z"/>
		<path class="st4" d="M350.68,646.71h-11.03l-2.73,7.44h-3.31l9.45-24.95h4.31l9.42,24.95h-3.42L350.68,646.71z M349.63,643.84
			l-4.2-11.61H345l-4.28,11.61H349.63z"/>
		<path class="st4" d="M362.41,650.92l1.98-1.33c2.19,1.4,4.67,4.06,6.33,6.51l-2.52,1.51C366.9,655.27,364.21,652.32,362.41,650.92
			z"/>
	</g>
	<g class="st1">
		<path class="st4" d="M15.89,683.94c0-9.63,4.53-12.83,12.04-12.83c2.3,0,5.03,0.36,6.5,0.97v2.88c-1.65-0.65-3.85-1.01-6.36-1.01
			c-5.57,0-8.81,1.91-8.81,9.99c0,8.48,3.06,10.03,8.66,10.03c1.15,0,2.91-0.14,4.06-0.47v-7.73h-5v-2.73h8.09v12.69
			c-1.8,0.58-4.35,1.04-7.51,1.04C20.31,696.77,15.89,694.36,15.89,683.94z"/>
		<path class="st4" d="M39.48,671.61c0-1.62,0.5-1.84,1.87-1.84c1.29,0,1.83,0.22,1.83,1.84c0,1.58-0.54,1.83-1.83,1.83
			C39.99,673.44,39.48,673.19,39.48,671.61z M39.77,677h3.09v19.41h-3.09V677z"/>
		<path class="st4" d="M56.13,693.82v2.63c-0.76,0.11-1.37,0.18-2.19,0.18c-4.28,0-5.82-1.04-5.82-6.15v-10.89h-2.88V677h2.88v-4.6
			h3.09v4.6h4.82v2.59h-4.82v10.71c0,3.02,0.43,3.74,2.8,3.74C54.87,694.04,55.45,693.97,56.13,693.82z"/>
		<path class="st4" d="M58.65,692.49v-23.4h3.09v22.61c0,1.94,0.54,2.34,1.8,2.34c0.43,0,0.97-0.04,1.48-0.18v2.55
			c-0.58,0.14-1.19,0.22-2.05,0.22C60.09,696.63,58.65,695.41,58.65,692.49z"/>
		<path class="st4" d="M82.92,682.64v13.77H80.3l-0.47-2.95c-1.12,2.12-4.03,3.31-6.94,3.31c-4.64,0-6.68-2.12-6.68-5.79
			c0-4.6,3.06-6.19,7.69-6.19h5.93v-1.62c0-2.34-0.83-3.96-4.78-3.96c-1.3,0-2.88,0.14-4.28,0.43v-2.74
			c1.44-0.18,3.02-0.29,4.42-0.29C81.3,676.64,82.92,679.16,82.92,682.64z M79.83,690.48v-3.2h-5.72c-3.2,0-4.71,0.65-4.71,3.67
			c0,2.12,1.04,3.23,3.77,3.23C76.41,694.18,78.82,692.78,79.83,690.48z"/>
		<path class="st4" d="M105.47,686.7c0,5.36-1.51,10.07-8.02,10.07c-3.77,0-5.5-1.48-6.29-3.74l-0.4,3.38h-2.7v-27.32h3.09v11.39
			c0.79-2.3,2.59-3.85,6.29-3.85C103.96,676.64,105.47,680.77,105.47,686.7z M102.23,686.7c0-4.06-0.68-7.48-5.18-7.48
			c-4.67,0-6.04,2.84-6.04,7.48c0,4.46,1.37,7.44,6.04,7.44C101.66,694.15,102.23,690.48,102.23,686.7z"/>
		<path class="st4" d="M111.41,693.18l1.98-1.33c2.19,1.4,4.67,4.06,6.33,6.51l-2.52,1.51C115.9,697.53,113.21,694.58,111.41,693.18
			z"/>
		<path class="st4" d="M137.42,702.7v-2.88c0.58,0.11,1.22,0.25,2.41,0.25c2.62,0,3.67-1.83,3.67-4.57v-24.05h3.24v24.37
			c0,4.35-2.16,7.08-6.79,7.08C139.21,702.92,138.1,702.85,137.42,702.7z"/>
		<path class="st4" d="M166.97,687.03l-13.16,0.83c0.04,4.25,1.51,6.19,6.22,6.19c2.12,0,4.6-0.54,6.07-1.26v2.84
			c-1.12,0.58-3.77,1.15-6.54,1.15c-5.72,0-8.99-2.34-8.99-10.07c0-7.73,3.27-10.06,8.81-10.06c6.61,0,7.76,4.35,7.76,8.12
			C167.15,685.3,167.07,686.13,166.97,687.03z M164.09,684.8c0-2.98-0.5-5.61-4.71-5.61c-4.46,0-5.46,2.41-5.57,6.36L164.09,684.8z"
			/>
		<path class="st4" d="M186.89,682.97v13.44h-3.13v-12.29c0-2.99-0.61-4.71-3.7-4.71c-2.45,0-4.82,0.47-5.9,3.89v13.12h-3.09V677
			h3.09v2.77c1.19-2.48,3.85-3.13,6.22-3.13C185.45,676.64,186.89,679.27,186.89,682.97z"/>
		<path class="st4" d="M207.07,696.41h-3.99l-7.08-9.06h-1.04v9.06h-3.09v-27.32h3.09v15.85h1.12l6.72-7.94h3.85l-8.16,9.02
			L207.07,696.41z"/>
		<path class="st4" d="M208.77,671.61c0-1.62,0.5-1.84,1.87-1.84c1.29,0,1.83,0.22,1.83,1.84c0,1.58-0.54,1.83-1.83,1.83
			C209.27,673.44,208.77,673.19,208.77,671.61z M209.05,677h3.09v19.41h-3.09V677z"/>
		<path class="st4" d="M233.07,682.97v13.44h-3.13v-12.29c0-2.99-0.61-4.71-3.7-4.71c-2.45,0-4.82,0.47-5.9,3.89v13.12h-3.09V677
			h3.09v2.77c1.19-2.48,3.85-3.13,6.22-3.13C231.63,676.64,233.07,679.27,233.07,682.97z"/>
		<path class="st4" d="M236.89,696.02v-2.66c1.37,0.4,3.85,0.76,5.61,0.76c2.95,0,4.49-0.72,4.49-2.99c0-2.3-0.65-2.77-4.35-3.63
			c-4.28-0.97-5.43-2.34-5.43-5.61c0-3.13,2.37-5.25,6.97-5.25c1.87,0,3.95,0.29,4.89,0.65l-0.22,2.63
			c-1.12-0.43-2.84-0.76-4.64-0.76c-2.73,0-4.1,0.61-4.1,2.81c0,1.98,0.68,2.41,3.7,3.09c4.46,1.01,6.07,2.23,6.07,5.97
			c0,3.85-2.62,5.61-7.37,5.61C240.66,696.63,237.97,696.34,236.89,696.02z"/>
		<path class="st4" d="M255.77,693.18l1.98-1.33c2.19,1.4,4.67,4.06,6.33,6.51l-2.52,1.51
			C260.26,697.53,257.57,694.58,255.77,693.18z"/>
		<path class="st4" d="M287.81,671.47h5.18l6.36,16.07h0.22l6.36-16.07h5.1v24.95h-3.24v-21.67h-0.22l-6.4,16.03h-3.52l-6.47-16.03
			h-0.22v21.67h-3.17V671.47z"/>
		<path class="st4" d="M331.43,687.03l-13.16,0.83c0.04,4.25,1.51,6.19,6.22,6.19c2.12,0,4.6-0.54,6.07-1.26v2.84
			c-1.11,0.58-3.77,1.15-6.54,1.15c-5.72,0-8.99-2.34-8.99-10.07c0-7.73,3.27-10.06,8.81-10.06c6.61,0,7.76,4.35,7.76,8.12
			C331.61,685.3,331.54,686.13,331.43,687.03z M328.55,684.8c0-2.98-0.5-5.61-4.71-5.61c-4.46,0-5.46,2.41-5.57,6.36L328.55,684.8z"
			/>
		<path class="st4" d="M345.17,676.64l-0.11,2.81h-0.43c-2.48,0-4.92,0.83-6,4.28v12.69h-3.09V677h3.09v3.52
			c1.22-3.24,3.85-3.88,6.18-3.88H345.17z"/>
		<path class="st4" d="M347.44,671.61c0-1.62,0.5-1.84,1.87-1.84c1.29,0,1.83,0.22,1.83,1.84c0,1.58-0.54,1.83-1.83,1.83
			C347.95,673.44,347.44,673.19,347.44,671.61z M347.73,677h3.09v19.41h-3.09V677z"/>
		<path class="st4" d="M354.78,686.7c0-7.73,3.27-10.06,8.99-10.06c2.16,0,3.99,0.36,5.07,0.72v2.84c-1.44-0.54-3.06-0.86-5.03-0.86
			c-4.28,0-5.71,1.69-5.71,7.41c0,5.64,1.44,7.3,5.75,7.3c1.83,0,3.67-0.25,5.07-0.83v2.84c-1.08,0.4-3.31,0.72-5.14,0.72
			C358.05,696.77,354.78,694.44,354.78,686.7z"/>
		<path class="st4" d="M371.22,686.7c0-7.73,3.27-10.06,8.99-10.06c5.75,0,8.95,2.34,8.95,10.06c0,7.73-3.2,10.07-8.95,10.07
			C374.49,696.77,371.22,694.44,371.22,686.7z M385.88,686.7c0-5.68-1.44-7.48-5.68-7.48c-4.35,0-5.68,1.8-5.68,7.48
			c0,5.68,1.47,7.44,5.68,7.44C384.59,694.15,385.88,692.38,385.88,686.7z"/>
	</g>
	<g class="st1">
		<path class="st4" d="M15.96,725.33l-1.69-2.44c6.72-3.56,12.4-8.49,15.49-12.94h2.52c3.31,4.71,8.66,9.35,15.35,12.91l-1.73,2.48
			c-7.01-4.28-11.75-8.27-14.88-12.65C28,716.85,21.93,721.85,15.96,725.33z M32.89,738.03h13.26v2.55H15.35v-2.55h5.11V724.9
			l2.66,0.11v13.01h7.05v-18.58l2.73,0.11v7.66h10.03v2.66H32.89V738.03z"/>
		<path class="st4" d="M80.07,737.81v2.52H48.51v-2.52h10.57v-27.65l2.8,0.11v27.54h4.85v-27.72l2.91,0.11v27.61H80.07z
			 M55.13,731.73c-1.3-4.68-3.63-10.96-5.5-14.49l2.55-1.04c1.58,3.02,4.53,10.35,5.68,14.3L55.13,731.73z M73.17,731.84l-2.66-1.04
			c2.23-4.24,4.39-10.35,5.5-14.84l2.66,0.83C77.34,721.31,75.36,727.28,73.17,731.84z"/>
		<path class="st4" d="M114.24,740.15l-1.48,2.27c-2.91-1.94-5.21-4.14-7.04-6.55c-1.91,2.3-4.42,4.39-7.87,6.47l-1.62-2.12
			c3.74-1.98,6.25-4.06,8.05-6.44c-1.98-3.16-3.31-6.65-4.31-10.53l2.23-0.58c0.79,3.49,1.91,6.43,3.45,9.02
			c1.47-2.66,2.37-5.75,3.16-9.46h-9.85v0.54c0,8.52-1.08,13.44-4.21,18.44L92.63,740v1.91h-2.52v-12.69h-3.13
			c-0.29,5.86-1.29,9.38-3.56,13.41l-2.52-0.86c2.7-4.42,3.59-8.48,3.59-17.14v-13.84l2.55,0.11v8.95h3.16v-9.67l2.48,0.11v9.56
			h2.52v2.52h-8.16v3.13v1.22h5.57v13.05c2.91-4.53,3.85-9.49,3.85-17.18v-9.53c5-0.25,9.81-0.9,14.95-2.16l0.5,2.59
			c-4.31,0.93-8.7,1.65-12.98,2.05v4.35h12.47v2.48c-1.04,4.67-2.23,8.38-4.28,11.57C108.95,736.26,111.29,738.28,114.24,740.15z"/>
		<path class="st4" d="M123.31,715.49h5.57v25.31h-12.26v-25.31h3.7c0.72-1.91,1.22-3.99,1.69-6.15l2.91,0.61
			C124.57,711.53,124.03,713.51,123.31,715.49z M126.37,718.08h-7.23v8.52h7.23V718.08z M126.37,738.28v-9.06h-7.23v9.06H126.37z
			 M144.99,715.42c0,0-0.25,15.49-0.61,21.74c-0.18,3.02-1.04,3.96-4.2,4.21l-3.09,0.25l-0.86-2.73l3.49-0.22
			c1.19-0.07,1.8-0.47,1.94-2.34c0.32-5.11,0.47-14.02,0.54-18.37l-8.19,0.04c-0.68,1.58-1.4,3.13-2.19,4.64l-2.44-1.29
			c2.08-3.53,3.88-8.16,4.92-12.33l2.62,0.54c-0.58,2.02-1.19,3.96-1.9,5.86H144.99z M137.01,732.27c-1.65-3.42-3.59-6.55-5-8.52
			l2.12-1.44c1.62,2.12,3.6,5.25,5.18,8.41L137.01,732.27z"/>
		<path class="st4" d="M179.76,727.6h-8.05v14.59h-2.88V727.6h-9.67c-0.4,7.08-2.23,10.25-7.87,15.24l-2.05-2.02
			c5.29-4.49,6.79-7.26,7.12-13.23h-8.41v-2.62h8.48v-0.83v-9.27h-6.62v-2.63h28.04v2.63h-6.15v10.1h8.05V727.6z M168.84,724.98
			v-10.1h-9.56v8.99v1.12H168.84z"/>
		<path class="st4" d="M180.97,720.59l1.44-1.94c1.8,1.11,4.71,3.38,6.33,4.89l-1.48,2.27
			C185.61,724.11,182.66,721.63,180.97,720.59z M187.83,728.82c-0.83,3.49-2.12,8.7-3.63,13.05l-2.45-0.76
			c1.55-4.14,2.84-9.13,3.67-12.98l1.22,0.36L187.83,728.82z M182.48,712.79l1.47-1.91c1.62,1.01,4.53,3.31,5.97,4.71l-1.55,2.19
			C186.97,716.31,183.95,713.76,182.48,712.79z M193.41,723.5c0,8.7-1.01,13.01-4.21,19.01l-2.41-1.15
			c3.13-5.97,4.03-9.81,4.03-17.76v-11.79h22.29v2.41h-19.7V723.5z M199.44,733.92c-1.51,2.41-3.77,5.47-5.79,7.37l-1.73-1.58
			c2.05-1.87,4.1-4.49,5.64-7.01L199.44,733.92z M204.73,731.01v6.83c0,2.91-0.79,3.42-3.7,3.81l-2.19,0.29l-0.86-2.52l2.16-0.18
			c1.87-0.14,2.08-0.5,2.08-2.41v-5.82h-6v-12.76h4.92c0.4-1.19,0.76-2.38,1.01-3.6l2.52,0.43c-0.25,0.97-0.58,2.12-0.9,3.17h6.94
			v12.76H204.73z M198.65,720.45v2.98h9.63v-2.98H198.65z M198.65,728.82h9.63v-3.2h-9.63V728.82z M214.18,739.53l-1.83,1.66
			c-1.47-2.34-3.77-5.5-5.57-7.3l1.69-1.26C210.34,734.46,212.71,737.49,214.18,739.53z"/>
		<path class="st4" d="M221.68,719.69h-6.76v-2.19h7.37v-7.37l2.41,0.14v7.23h6.47v2.19h-6.47v6.69h-2.41v-4.42
			c-1.83,2.09-4.17,4.03-7.19,5.64l-1.29-1.94C217.07,724.04,219.7,721.92,221.68,719.69z M228.65,740.22
			c-1.33-0.79-2.8-1.55-4.28-2.3c-2.05,1.51-4.89,2.88-9.06,4.28l-1.26-2.26c3.56-1.04,6.08-2.05,7.94-3.2
			c-1.8-0.86-3.63-1.66-5.36-2.3c0.68-1.12,1.37-2.27,1.98-3.42h-4.17v-2.16h5.25c0.43-0.9,0.79-1.76,1.08-2.52l2.3,0.76
			c-0.22,0.61-0.47,1.19-0.72,1.76h7.48v2.05c-0.97,2.01-1.98,3.77-3.56,5.35c1.04,0.5,2.16,1.01,3.34,1.58L228.65,740.22z
			 M218.51,716.93c-0.47-1.58-1.55-3.81-2.27-5.04l1.91-0.72c0.68,1.08,1.76,3.41,2.34,5.07L218.51,716.93z M224.01,735.29
			c1.44-1.26,2.34-2.62,3.16-4.28h-5.86c-0.43,0.9-0.94,1.73-1.4,2.55C221.21,734.1,222.54,734.64,224.01,735.29z M225.09,722.21
			l1.44-1.33c1.22,0.97,3.09,2.81,4.53,4.42l-1.44,1.66C228.25,725.26,226.64,723.54,225.09,722.21z M227.71,716.96l-1.8-1.01
			c0.9-1.19,2.16-3.35,2.8-5l2.01,0.9C230.09,713.37,228.72,715.7,227.71,716.96z M246.73,740.33l-1.87,1.94
			c-2.73-2.2-4.89-4.35-6.54-6.65c-1.76,2.34-4.13,4.5-7.37,6.83l-1.65-2.02c3.42-2.27,5.82-4.53,7.51-7.08
			c-1.87-3.24-2.95-6.72-3.56-10.71c-0.4,0.68-0.79,1.37-1.22,2.05l-2.01-1.3c2.73-3.74,4.74-9.42,5.46-13.48l2.52,0.61
			c-0.4,1.73-0.9,3.42-1.51,5.14h9.35v2.59h-2.45c-0.58,6.54-1.4,11.14-3.63,15.09C241.48,735.8,243.74,738.06,246.73,740.33z
			 M238.21,730.83c1.58-3.42,2.3-7.41,2.77-12.58h-5.57l-0.43,1.01C235.48,723.79,236.45,727.49,238.21,730.83z"/>
		<path class="st4" d="M254.87,727.56v10.42c0,2.95-0.83,3.63-4.1,3.85l-1.58,0.14l-0.68-2.45l1.76-0.14
			c1.76-0.14,2.12-0.43,2.12-2.09v-8.74c-1.83,0.72-3.63,1.4-4.82,1.76l-0.54-2.55c1.29-0.4,3.31-1.15,5.35-1.94v-6.79h-4.17v-2.48
			h4.17v-6.51l2.48,0.07v6.44h3.38v2.48h-3.38v5.82c1.22-0.5,2.3-1.01,3.09-1.4l0.25,1.44l0.22,1.08
			C257.53,726.41,256.27,726.99,254.87,727.56z M271.69,726.63v3.99h5.61v11.68h-2.41v-1.87h-8.81v1.91h-2.41v-11.72h5.57v-3.99
			h-7.01c-0.32,6.83-1.44,10.71-4.28,15.38l-2.3-1.37c3.23-5.43,4.17-9.34,4.17-18.72v-10.03h18.04v8.7h-15.56v1.65
			c0,0.76,0,1.51-0.04,2.2h6.97v-3.02l2.45,0.07v2.95h7.98v2.19H271.69z M262.31,714.19v4.14h13.05v-4.14H262.31z M274.89,732.92
			h-8.81v5.25h8.81V732.92z"/>
		<path class="st4" d="M312.62,714.55h-4.67v22.93c0,3.2-0.72,3.67-3.74,3.95l-3.41,0.32l-0.94-2.66l3.45-0.29
			c1.83-0.14,1.94-0.4,1.94-2.27v-22h-23.33v-2.52h30.7V714.55z M285.62,719.73h13.26v14.67h-13.26V719.73z M288.21,731.84h8.09
			v-9.56h-8.09V731.84z"/>
		<path class="st4" d="M321.3,727.02v15.24h-2.44v-14.56c-1.22,1.4-2.63,2.8-4.14,4.24l-1.62-2.02c3.81-3.34,7.04-7.3,8.88-11.57
			h-7.26v-2.63h4.6c-0.54-2.05-1.26-4.28-1.73-5.57l2.45-0.43c0.54,1.44,1.29,3.99,1.8,6h2.91v2.63c-0.94,2.16-2.01,4.1-3.27,5.97
			c1.62,1.26,3.7,3.24,4.85,4.64l-1.58,2.05C323.92,729.83,322.55,728.28,321.3,727.02z M346.06,734.14
			c-0.11,1.58-0.25,3.27-0.58,4.82c-0.32,1.55-1.19,2.16-3.95,2.34c-1.04,0.07-2.09,0.07-3.13,0c-2.59-0.18-3.49-0.97-3.49-3.74
			v-5.93c-1.55,4.24-4.67,7.55-10.21,11.04l-1.66-2.27c8.23-4.85,10.06-9.02,10.5-16.93c0.07-1.15,0.07-5.9,0.07-7.08l2.62,0.11
			c0,1.08-0.07,6.04-0.11,7.26c-0.04,1.94-0.18,3.71-0.5,5.32l1.8,0.07v7.44c0,1.66,0.29,2.12,1.87,2.23c0.5,0.04,1.51,0.04,2.01,0
			c1.51-0.11,1.76-0.54,1.98-1.66c0.25-1.26,0.32-2.66,0.32-3.92L346.06,734.14z M329.67,731.77h-2.52v-20.13h15.92v20.06h-2.55
			v-17.47h-10.86V731.77z"/>
		<path class="st4" d="M355.5,718.9v23.18h-2.8v-18.69c-1.33,1.91-2.77,3.71-4.31,5.47l-1.8-2.02c4.06-4.71,7.76-10.82,9.85-16.86
			l2.66,0.86C358.09,713.76,356.86,716.42,355.5,718.9z M378.93,732.2c-0.04,1.44-0.22,3.27-0.5,4.68c-0.61,2.98-1.4,3.92-5,4.06
			c-1.76,0.07-3.56,0.07-5.32,0c-3.6-0.14-4.89-1.04-4.89-4.68v-6.22c-1.8,1.22-3.67,2.41-5.64,3.52l-1.44-2.37
			c2.44-1.4,4.82-2.95,7.08-4.6v-16.61l2.84,0.18v14.27c3.56-2.88,6.87-6.11,9.96-9.74l2.05,2.01c-3.7,4.21-7.59,7.95-12.01,11.29
			v7.62c0,2.05,0.68,2.48,2.73,2.59c1.37,0.07,2.77,0.07,4.13,0c2.19-0.11,2.55-0.5,2.91-2.34c0.25-1.22,0.36-2.91,0.43-4.56
			L378.93,732.2z"/>
	</g>
	<g class="st1">
		<path class="st4" d="M44.65,753.79v30.92h-2.52v-2.02H19.77v2.02h-2.52v-30.92H44.65z M42.13,780.35v-24.19H19.77v24.19H42.13z
			 M41.99,769l-1.01,2.23c-4.17-1.15-7.4-2.3-10.06-3.74c-2.66,1.4-5.9,2.63-10.03,3.88l-0.97-2.01c3.59-1.01,6.51-2.02,8.91-3.13
			c-1.4-0.94-2.7-2.05-3.88-3.31c-0.94,1.04-2.02,1.98-3.13,2.88l-1.22-1.58c2.59-2.16,5.14-5.32,6.54-7.77l1.98,0.83
			c-0.47,0.83-0.97,1.62-1.55,2.44h11.18v1.91c-1.8,1.84-3.6,3.35-5.75,4.68C35.62,767.45,38.61,768.24,41.99,769z M23.4,774.24
			c3.6,0.32,10.82,1.84,14.24,2.95l-0.4,2.23c-3.45-1.37-10.57-2.84-14.13-3.16L23.4,774.24z M36.06,772.02l-0.32,2.19
			c-2.45-1.01-7.58-2.19-10.06-2.45l0.29-1.98C28.4,770.11,33.5,771.26,36.06,772.02z M30.88,765.22c1.98-1.08,3.56-2.27,4.82-3.6
			h-9.38C27.68,763.1,29.19,764.29,30.88,765.22z"/>
		<path class="st4" d="M63.75,768.78v15.35h-2.52v-15.35h-5.07c-0.18,7.76-1.15,10.46-4.67,15.67l-2.34-1.4
			c3.52-4.82,4.35-7.05,4.49-14.27h-4.75v-2.52h4.78v-0.43v-8.99h-3.31v-2.55h16.89v2.55h-3.52v9.42h4.75v2.52H63.75z M61.24,766.27
			v-9.42H56.2v8.92v0.5H61.24z M80.29,772.99c-3.06,3.67-7.37,7.94-13.59,11.43l-1.58-2.3c6-3.16,10.35-7.4,13.41-10.96
			L80.29,772.99z M77.23,761.98l1.83,1.87c-2.95,3.38-6.94,6.83-10.93,9.53l-1.51-2.23C70.44,768.74,74.43,765.26,77.23,761.98z
			 M66.7,760.76c3.24-2.02,7.26-5.39,9.85-8.38l1.8,1.8c-2.66,3.13-6.72,6.51-10.17,8.77L66.7,760.76z"/>
		<path class="st4" d="M100,756.2c-0.4,1.33-1.01,3.06-1.55,4.35h13.48v23.61h-2.59v-2.05H88.14v2.02h-2.59v-23.58h9.96
			c0.54-1.22,1.15-2.95,1.55-4.35H83.29v-2.45h30.91v2.45H100z M88.14,779.78h4.64v-16.79h-4.64V779.78z M102.2,762.99h-6.9v3.99
			h6.9V762.99z M102.2,769.36h-6.9v4.03h6.9V769.36z M95.29,779.78h6.9v-4.03h-6.9V779.78z M109.35,762.99h-4.6v16.79h4.6V762.99z"
			/>
		<path class="st4" d="M124.32,766.98v17.69h-2.52v-17.43c-1.04,2.95-2.37,5.82-3.99,8.23l-2.16-1.62c2.3-3.2,4.78-8.34,5.97-12.54
			h-4.35v-2.52h4.53v-6.65l2.52,0.11v6.54h4.56v2.52h-4.56v4.03l0.97-0.9c1.11,1.08,3.31,3.52,4.17,4.85l-1.76,2.12
			C126.98,770.11,125.47,768.24,124.32,766.98z M149.59,782.69l-1.73,2.34c-3.34-2.01-6.04-4.06-8.19-6.4
			c-2.12,2.23-4.82,4.24-8.48,6.33l-1.94-2.27c3.92-2.09,6.65-4.1,8.66-6.18c-2.16-2.91-3.63-6.29-4.46-10.46l2.3-0.72
			c0.86,3.56,2.09,6.47,3.92,9.06c2.01-2.81,3.02-5.86,3.92-9.6h-11.11c-0.04,9.2-1.58,14.38-5.54,20.02l-2.52-1.55
			c3.99-5.21,5.43-9.88,5.43-19.08v-8.77c5.97-0.36,11.54-1.15,17.04-2.12l0.58,2.55c-4.89,0.94-10.32,1.62-14.99,1.98v4.53h13.87
			v2.45c-1.19,4.85-2.55,8.55-4.92,11.75C143.48,778.77,146.14,780.75,149.59,782.69z"/>
		<path class="st4" d="M153.42,780.39c0-3.02,2.19-4.53,4.78-4.53c2.59,0,4.78,1.51,4.78,4.53c0,3.02-2.23,4.53-4.78,4.53
			C155.61,784.92,153.42,783.41,153.42,780.39z M160.89,780.39c0-1.73-1.15-2.62-2.7-2.62s-2.7,0.9-2.7,2.62s1.15,2.63,2.7,2.63
			S160.89,782.11,160.89,780.39z"/>
	</g>
	<g class="st1">
		<path class="st5" d="M599.55,857.75h10.6v2.59h-10.6V857.75z"/>
		<path class="st5" d="M644.13,842.94v30.92h-2.52v-2.02h-22.36v2.02h-2.52v-30.92H644.13z M641.62,869.5v-24.19h-22.36v24.19
			H641.62z M641.47,858.14l-1.01,2.23c-4.17-1.15-7.41-2.3-10.06-3.74c-2.66,1.4-5.9,2.63-10.03,3.88l-0.97-2.01
			c3.6-1.01,6.51-2.02,8.91-3.13c-1.4-0.94-2.7-2.05-3.88-3.31c-0.93,1.04-2.01,1.98-3.13,2.88l-1.22-1.58
			c2.59-2.16,5.14-5.32,6.54-7.77l1.98,0.83c-0.47,0.83-0.97,1.62-1.55,2.44h11.18v1.91c-1.8,1.84-3.59,3.35-5.75,4.68
			C635.11,856.6,638.09,857.39,641.47,858.14z M622.89,863.39c3.6,0.32,10.82,1.84,14.24,2.95l-0.4,2.23
			c-3.45-1.37-10.57-2.84-14.13-3.16L622.89,863.39z M635.54,861.16l-0.32,2.19c-2.44-1.01-7.58-2.19-10.06-2.45l0.29-1.98
			C627.88,859.26,632.99,860.41,635.54,861.16z M630.36,854.37c1.98-1.08,3.56-2.27,4.82-3.6h-9.38
			C627.16,852.25,628.67,853.43,630.36,854.37z"/>
		<path class="st5" d="M655.18,852.71c0-1.98,0.61-2.26,2.3-2.26c1.65,0,2.3,0.29,2.3,2.26c0,1.98-0.65,2.27-2.3,2.27
			C655.8,854.98,655.18,854.69,655.18,852.71z M655.18,867.99c0-1.94,0.61-2.23,2.3-2.23c1.65,0,2.3,0.29,2.3,2.23
			c0,2.02-0.65,2.3-2.3,2.3C655.8,870.29,655.18,870.01,655.18,867.99z"/>
		<path class="st5" d="M693.16,856.7v17.47h-2.66v-17.68c-1.26,3.06-2.7,5.83-4.24,8.13l-2.09-1.48c2.41-3.27,4.82-8.16,6.18-12.26
			h-4.6v-2.55h4.74v-6.65l2.66,0.11v6.55h4.17v2.55h-4.17v4.24l0.9-0.83c1.11,1.08,3.23,3.59,4.13,4.89l-1.73,1.98
			C695.79,859.87,694.31,858,693.16,856.7z M703.33,859c-1.44,3.96-3.2,8.09-5.89,12.22l-2.52-1.22c2.55-3.74,4.67-8.34,5.97-11.94
			L703.33,859z M708.22,855.34v14.45c0,2.88-1.08,3.6-4.67,3.89l-1.73,0.14l-0.93-2.77l2.08-0.14c2.09-0.14,2.41-0.54,2.41-2.27
			v-13.3h-8.27v-2.63h19.99v2.63H708.22z M715.27,846.53h-16.36v-2.62h16.36V846.53z M717.96,869.79l-2.45,1.48
			c-1.01-3.38-3.85-9.35-5.5-11.97l2.27-1.15C713.97,860.87,716.81,866.81,717.96,869.79z"/>
		<path class="st5" d="M727.26,858.68l1.11,0.54c-1.4,4.64-2.59,8.56-4.85,13.3l-2.52-1.19c2.23-4.25,3.67-8.45,4.93-13.23
			L727.26,858.68z M726.11,853.11c-0.83-2.7-3.16-7.23-4.57-9.46l2.19-1.19c1.51,2.16,3.92,6.65,4.82,9.17L726.11,853.11z
			 M752.27,870.94h-17.79v2.66h-2.66v-20.2c-0.94,1.62-1.98,3.17-3.06,4.57l-1.76-2.3c3.45-4.24,5.82-9.45,7.12-14.85l2.73,0.47
			c-0.4,1.76-1.01,3.6-1.73,5.46h6.58c-0.47-1.62-1.29-4.03-1.69-4.89l2.44-0.72c0.5,1.08,1.55,4.32,1.94,5.61h7.33v2.45h-7.84v4.75
			h7.12v2.34h-7.12v4.75h7.12v2.37h-7.12v5.14h8.38V870.94z M741.27,849.19h-6.79v4.75h6.79V849.19z M741.27,856.27h-6.79v4.75h6.79
			V856.27z M734.48,868.53h6.79v-5.14h-6.79V868.53z"/>
		<path class="st5" d="M759.55,866.84l1.98-1.33c2.19,1.4,4.67,4.06,6.33,6.51l-2.52,1.51
			C764.05,871.19,761.35,868.24,759.55,866.84z"/>
		<path class="st5" d="M823.05,868.53v2.73h-31.2v-2.73h14.09V847H794.3v-2.84h26.35V847H809v21.53H823.05z"/>
		<path class="st5" d="M858.76,863.24v2.45h-31.88v-2.45h5.32v-20.31h21.17v20.31H858.76z M838.49,866.02l1.37,2.16
			c-2.73,1.84-8.73,4.71-11.75,5.72l-1.01-2.37C829.97,870.58,835.87,867.81,838.49,866.02z M834.82,845.35v2.7h15.82v-2.7H834.82z
			 M850.64,850.38h-15.82v2.74h15.82V850.38z M834.82,855.41v2.73h15.82v-2.73H834.82z M834.82,863.24h15.82v-2.8h-15.82V863.24z
			 M846.36,866.12c2.91,0.97,8.98,3.45,11.68,4.93l-1.08,2.59c-2.66-1.84-8.73-4.28-11.61-5.25L846.36,866.12z"/>
		<path class="st5" d="M892.93,873.53c-4.49-2.16-8.16-4.35-11.14-6.76c-3.2,2.66-7.19,4.85-12.55,7.08l-1.51-2.52
			c5.07-1.91,8.95-3.92,12.01-6.33c-3.27-3.1-5.57-6.58-7.23-10.75c-0.83,7.62-3.63,12.94-8.59,19.15l-2.27-1.65
			c5.21-6.26,7.91-11.36,8.45-19.7c0.07-1.26,0.22-4.35,0.29-6.15h-6.04v-2.63h23.33v2.66c-1.15,2.27-2.52,4.39-3.99,6.33h6.79v2.55
			c-1.83,4.1-3.92,7.37-6.69,10.14c2.95,2.27,6.47,4.21,10.71,5.93L892.93,873.53z M881.75,863.24c2.44-2.34,4.31-5.07,5.82-8.41
			h-7.26v-2.26c1.51-2.02,2.88-4.32,4.1-6.65h-11.43l-0.11,2.12C874.74,854.48,877.55,859.36,881.75,863.24z"/>
		<path class="st5" d="M899.21,845.13h5.18l6.36,16.07h0.22l6.36-16.07h5.11v24.95h-3.24V848.4h-0.22l-6.4,16.03h-3.52l-6.47-16.03
			h-0.22v21.67h-3.16V845.13z"/>
		<path class="st5" d="M943.22,862.63h-11.03l-2.73,7.44h-3.31l9.45-24.95h4.31l9.42,24.95h-3.42L943.22,862.63z M942.17,859.76
			l-4.21-11.61h-0.43l-4.28,11.61H942.17z"/>
		<path class="st5" d="M967.46,870.08l-6.87-10.06c-0.4,0.04-0.79,0.04-1.22,0.04h-3.09v10.03h-3.23v-24.95h6.33
			c6.97,0,9.52,1.87,9.52,7.37c0,4.32-1.65,6.37-5.1,7.16l7.48,10.42H967.46z M965.62,852.5c0-3.77-1.91-4.57-6.54-4.57h-2.8v9.42
			h2.8C963.72,857.35,965.62,856.74,965.62,852.5z"/>
		<path class="st5" d="M975.13,845.13h3.23v24.95h-3.23V845.13z"/>
		<path class="st5" d="M991.05,847.68h4.1v2.55h-4.1v6.37c1.26-0.43,2.44-0.86,3.31-1.22l0.29,1.15l0.32,1.4
			c-1.01,0.43-2.41,0.94-3.92,1.47v10.1c0,2.77-0.97,3.17-4.13,3.49l-1.69,0.18l-0.86-2.52l1.8-0.14c1.8-0.18,2.16-0.36,2.16-1.83
			v-8.38c-1.76,0.58-3.45,1.08-4.64,1.37l-0.58-2.63c1.33-0.32,3.24-0.9,5.21-1.55v-7.26h-4.35v-2.55h4.35v-6.33l2.73,0.11V847.68z
			 M1014.74,848.62c-0.04,0.58-0.14,1.33-0.32,2.45c-0.43,2.66-1.15,3.24-4.14,3.42c-3.2,0.18-6.72,0.18-9.92,0
			c-3.02-0.18-4.13-0.94-4.13-4.14v-8.84l2.59,0.11v4.92c3.99-0.83,10.06-2.52,13.59-3.67l0.68,2.48c-3.85,1.19-9.88,2.7-14.27,3.63
			v0.9c0,1.73,0.43,2.12,2.16,2.23c2.66,0.18,5.72,0.18,8.38,0c2.05-0.14,2.41-0.43,2.66-2.16c0.11-0.72,0.18-1.51,0.22-2.16
			L1014.74,848.62z M996.3,857.28h16.25v16.28h-2.66v-1.73h-11.03v1.8h-2.55V857.28z M998.85,859.61v3.89h11.03v-3.89H998.85z
			 M1009.89,869.5v-3.7h-11.03v3.7H1009.89z"/>
		<path class="st5" d="M1035.97,847.29v3.53h11.97v18.72c-0.07,2.91-0.83,3.35-4.31,3.63l-2.09,0.18l-0.72-2.52l2.62-0.22
			c1.55-0.14,1.8-0.43,1.8-2.2v-15.2h-21.49v20.06h-2.55v-22.46h12.08v-3.53h-14.23v-2.45h14.23v-3.45l2.7,0.11v3.34h14.38v2.45
			H1035.97z M1035.86,866.23v6.33h-2.59v-6.33h-7.55V864h7.55v-3.16h-6.9v-2.27h4.39c-0.86-1.22-1.65-2.23-2.55-3.27l1.87-1.44
			c1.04,1.22,2.09,2.59,3.13,4.1l-0.76,0.61h3.02c1.01-1.22,2.34-3.06,3.34-4.75l2.12,1.33c-0.68,1.04-1.51,2.23-2.44,3.42h4.49
			v2.27h-7.12V864h7.8v2.23H1035.86z"/>
		<path class="st5" d="M1085.84,870.9l-1.44,2.77c-6.15-1.8-11.97-5.43-14.56-10.86c-2.19,4.28-6.9,7.8-14.13,10.86l-1.62-2.63
			c9.2-3.56,12.87-7.3,13.98-11.18h-12.83v-2.7h13.19v-0.14v-6.36h-11.29v-2.59h7.22c-0.93-1.87-2.66-4.49-3.7-5.72l2.16-1.37
			c1.15,1.37,3.24,4.35,4.14,5.97l-1.51,1.12h6.69c1.73-2.09,3.56-4.92,4.64-7.12l2.52,1.04c-1.04,1.98-2.37,4.17-3.81,6.07h7.08
			v2.59h-11.18l-0.07,6.22v0.29h13.26v2.7h-13.12C1073.37,865.12,1078.33,868.82,1085.84,870.9z"/>
		<path class="st5" d="M1100.81,865.66c-2.77,2.34-6.94,5.03-10.24,6.9l-1.33-2.27c3.06-1.66,7.44-4.39,9.99-6.76L1100.81,865.66z
			 M1107.36,861.95v7.3c0,3.06-0.76,3.56-4.75,3.92l-2.05,0.18l-0.9-2.66l2.52-0.22c2.23-0.18,2.48-0.47,2.48-1.98v-6.44
			c-3.13,0.11-6.18,0.22-8.84,0.4c-0.83,0.04-2.34,0.18-3.31,0.29l-0.54-2.73c0.79-0.11,1.98-0.32,2.66-0.54
			c3.27-1.15,6.72-3.02,10.03-5.21c-3.23,0.07-7.73,0.22-9.02,0.29c-0.61,0-1.51,0.07-2.59,0.18l-0.5-2.37
			c1.62-0.22,2.19-0.4,2.77-0.72c2.09-1.19,4.71-3.13,7.01-5.21c-3.92,0.22-7.62,0.43-10.32,0.54l-0.47-2.62
			c7.19-0.18,20.45-0.97,27.25-1.84l0.43,2.63c-3.74,0.4-9.45,0.83-14.99,1.19l0.76,0.9c-2.19,2.09-4.03,3.6-6.18,4.92
			c1.3,0,6.65-0.22,9.2-0.32c2.01-1.51,3.88-3.17,5.57-4.78l1.73,2.01c-4.39,4.1-10.1,8.09-14.88,10.61
			c3.7-0.11,9.49-0.36,13.91-0.54c-1.19-1.26-2.37-2.41-3.23-3.17l1.94-1.65c2.01,1.69,5.79,5.72,7.33,7.87l-1.87,2.01
			c-0.47-0.72-1.12-1.58-1.87-2.48C1113.79,861.77,1110.59,861.84,1107.36,861.95z M1121.73,869.93l-1.26,2.56
			c-2.34-1.98-7.84-5.4-10.46-6.69l1.33-2.16C1113.9,864.94,1118.93,867.85,1121.73,869.93z"/>
		<path class="st5" d="M1154.57,842.94v30.92h-2.52v-2.02h-22.36v2.02h-2.52v-30.92H1154.57z M1152.05,869.5v-24.19h-22.36v24.19
			H1152.05z M1151.91,858.14l-1.01,2.23c-4.17-1.15-7.41-2.3-10.06-3.74c-2.66,1.4-5.9,2.63-10.03,3.88l-0.97-2.01
			c3.6-1.01,6.51-2.02,8.91-3.13c-1.4-0.94-2.7-2.05-3.88-3.31c-0.93,1.04-2.01,1.98-3.13,2.88l-1.22-1.58
			c2.59-2.16,5.14-5.32,6.54-7.77l1.98,0.83c-0.47,0.83-0.97,1.62-1.55,2.44h11.18v1.91c-1.8,1.84-3.59,3.35-5.75,4.68
			C1145.55,856.6,1148.53,857.39,1151.91,858.14z M1133.33,863.39c3.6,0.32,10.82,1.84,14.24,2.95l-0.4,2.23
			c-3.45-1.37-10.57-2.84-14.13-3.16L1133.33,863.39z M1145.98,861.16l-0.32,2.19c-2.44-1.01-7.58-2.19-10.06-2.45l0.29-1.98
			C1138.32,859.26,1143.43,860.41,1145.98,861.16z M1140.8,854.37c1.98-1.08,3.56-2.27,4.82-3.6h-9.38
			C1137.6,852.25,1139.11,853.43,1140.8,854.37z"/>
		<path class="st5" d="M1161.2,857.75h10.6v2.59h-10.6V857.75z"/>
	</g>
</g>
</svg>
