<?xml version="1.0" encoding="utf-8"?>
<!-- Generator: Adobe Illustrator 25.4.1, SVG Export Plug-In . SVG Version: 6.00 Build 0)  -->
<svg version="1.1" id="图层_1" xmlns="http://www.w3.org/2000/svg" xmlns:xlink="http://www.w3.org/1999/xlink" x="0px" y="0px"
	 viewBox="0 0 1920 1080" style="enable-background:new 0 0 1920 1080;" xml:space="preserve">
<style type="text/css">
	.st0{enable-background:new    ;}
	.st1{fill:#D04922;}
	.st2{fill:#585D70;}
	.st3{fill:#585F70;}
	.st4{fill:#231815;}
	.st5{fill:#565E6E;}
	.st6{opacity:0.1;}
	.st7{fill:#FFFFFF;}
	.st8{fill:#F0EFEF;}
	.st9{fill:#E1DFDC;}
	.st10{fill:#D1CECB;}
	.st11{fill:#C3BEBB;}
	.st12{fill:#B5AEAB;}
	.st13{fill:#A7A09A;}
	.st14{fill:#99928D;}
	.st15{fill:#8C847F;}
	.st16{fill:#7E7771;}
	.st17{fill:#736A65;}
	.st18{fill:#675E59;}
	.st19{fill:#5B534E;}
	.st20{fill:#504944;}
	.st21{fill:#453F3A;}
	.st22{fill:#3B3532;}
	.st23{fill:#312C29;}
	.st24{fill:#262421;}
	.st25{fill:#1C1B19;}
	.st26{fill:#141312;}
	.st27{fill:#0B0A09;}
	.st28{fill:#070001;}
	.st29{fill:#444E5E;}
</style>
<g>
	<g id="图层_1_1_">
		<g class="st0">
			<path class="st1" d="M350.3,56.4h6.9l8.5,21.4h0.3l8.5-21.4h6.8v33.2h-4.3V60.7h-0.3l-8.5,21.4h-4.7l-8.6-21.4h-0.3v28.9h-4.2
				L350.3,56.4L350.3,56.4z"/>
		</g>
		<g class="st0">
			<path class="st2" d="M409.4,77.1l-17.5,1.1c0,5.7,2,8.2,8.3,8.2c2.8,0,6.1-0.7,8.1-1.7v3.8c-1.5,0.8-5,1.5-8.7,1.5
				c-7.6,0-12-3.1-12-13.4c0-10.3,4.4-13.4,11.7-13.4c8.8,0,10.4,5.8,10.4,10.8C409.6,74.8,409.5,75.9,409.4,77.1z M405.6,74.1
				c0-4-0.7-7.5-6.3-7.5c-5.9,0-7.3,3.2-7.4,8.5L405.6,74.1z"/>
			<path class="st2" d="M436.4,71.3v18.3h-3.5l-0.6-3.9c-1.5,2.8-5.4,4.4-9.2,4.4c-6.2,0-8.9-2.8-8.9-7.7c0-6.1,4.1-8.2,10.2-8.2
				h7.9V72c0-3.1-1.1-5.3-6.4-5.3c-1.7,0-3.8,0.2-5.7,0.6v-3.7c1.9-0.2,4-0.4,5.9-0.4C434.2,63.3,436.4,66.6,436.4,71.3z
				 M432.3,81.7v-4.3h-7.6c-4.3,0-6.3,0.9-6.3,4.9c0,2.8,1.4,4.3,5,4.3C427.7,86.6,430.9,84.8,432.3,81.7z"/>
			<path class="st2" d="M442.7,89.1v-3.6c1.8,0.5,5.1,1,7.5,1c3.9,0,6-1,6-4c0-3.1-0.9-3.7-5.8-4.8c-5.7-1.3-7.2-3.1-7.2-7.5
				c0-4.2,3.2-7,9.3-7c2.5,0,5.3,0.4,6.5,0.9l-0.3,3.5c-1.5-0.6-3.8-1-6.2-1c-3.6,0-5.5,0.8-5.5,3.7c0,2.6,0.9,3.2,4.9,4.1
				c5.9,1.3,8.1,3,8.1,7.9c0,5.1-3.5,7.5-9.8,7.5C447.7,89.9,444.1,89.5,442.7,89.1z"/>
			<path class="st2" d="M486.9,63.7v25.9h-3.5l-0.5-3.7c-1.6,3.4-5,4.2-8.1,4.2c-6.8,0-8.7-3.4-8.7-8.4V63.7h4.1v16.4
				c0,3.9,0.9,6.3,5,6.3c3.3,0,6.1-0.7,7.6-5.1V63.7H486.9z"/>
		</g>
		<g class="st0">
			<path class="st2" d="M507.5,63.3l-0.1,3.7h-0.6c-3.3,0-6.6,1.1-8,5.7v16.9h-4.1V63.7h4.1v4.7c1.6-4.3,5.1-5.2,8.2-5.2
				C507,63.3,507.5,63.3,507.5,63.3z"/>
		</g>
		<g class="st0">
			<path class="st2" d="M531.2,77.1l-17.5,1.1c0,5.7,2,8.2,8.3,8.2c2.8,0,6.1-0.7,8.1-1.7v3.8c-1.5,0.8-5,1.5-8.7,1.5
				c-7.6,0-12-3.1-12-13.4c0-10.3,4.4-13.4,11.7-13.4c8.8,0,10.3,5.8,10.3,10.8C531.5,74.8,531.4,75.9,531.2,77.1z M527.4,74.1
				c0-4-0.7-7.5-6.3-7.5c-5.9,0-7.3,3.2-7.4,8.5L527.4,74.1z"/>
			<path class="st2" d="M542.6,66.5c0-2.6,0.8-3,3.1-3c2.2,0,3.1,0.4,3.1,3c0,2.6-0.9,3-3.1,3C543.5,69.5,542.6,69.1,542.6,66.5z
				 M542.6,86.8c0-2.6,0.8-3,3.1-3c2.2,0,3.1,0.4,3.1,3c0,2.7-0.9,3.1-3.1,3.1C543.5,89.9,542.6,89.5,542.6,86.8z"/>
			<path class="st2" d="M589.9,71c0,12.3-1.9,16.8-5.6,23.8l-3.3-1.7c4.2-7.2,5.5-11.1,5.5-23.2V56h17.4c-0.5-1.6-1.1-3.5-1.5-4.5
				l3.5-0.7c0.5,1.2,1.2,3.4,1.8,5.2h15.5v3.2h-33.3L589.9,71L589.9,71z M623.1,94.1c-7-1.2-12.7-2.4-17.5-4.4
				c-4.4,1.9-9.7,3.4-16.3,4.9l-1.6-3.2c5.7-1,10.3-2.2,14.2-3.6c-2.4-1.4-4.7-3.2-6.9-5.5l2.5-2c2.5,2.6,4.9,4.5,8,5.9
				c3.4-1.6,6-3.7,8.2-6.1h-22v-3h26.6v3.1c-2.4,3-5.3,5.5-9,7.6c3.8,1.2,8.5,2.1,15,3L623.1,94.1z M597.3,74v-6.9h-6.3v-3h6.3v-3.6
				l3.4,0.1v3.5h11.1v-3.6l3.5,0.1v3.5h7.8v3h-7.8V74H597.3z M600.7,67.1V71h11.1v-3.9H600.7z"/>
			<path class="st2" d="M670.6,66v2.5H628V66H670.6z M651,90.8h18.5v2.5H629v-2.5h18.6V88h-15.3v-2.5h15.3v-2.8h-14.2V71.1h31.7
				v11.6H651v2.8h15.3V88H651L651,90.8L651,90.8z M665.1,63.8h-31.7V52.7h31.7V63.8z M637,73.4v2.3h10.6v-2.3H637z M647.6,80.3V78
				H637v2.3H647.6z M637.1,55.1v2.1h24.4v-2.1H637.1z M661.5,61.5v-2.2h-24.4v2.2H661.5z M661.5,73.4H651v2.3h10.5V73.4z
				 M661.5,80.3V78H651v2.3H661.5z"/>
		</g>
		<g class="st0">
			<path class="st1" d="M740.7,79.7H726l-3.6,9.9H718l12.6-33.2h5.8l12.5,33.2h-4.5L740.7,79.7z M739.3,75.9l-5.6-15.5h-0.6
				l-5.7,15.5H739.3z"/>
		</g>
		<g class="st0">
			<path class="st2" d="M773.8,71.7v17.9h-4.2V73.2c0-4-0.8-6.3-4.9-6.3c-3.3,0-6.4,0.6-7.9,5.2v17.5h-4.1V63.7h4.1v3.7
				c1.6-3.3,5.1-4.2,8.3-4.2C771.9,63.3,773.8,66.8,773.8,71.7z"/>
			<path class="st2" d="M802,71.3v18.3h-3.5l-0.6-3.9c-1.5,2.8-5.4,4.4-9.2,4.4c-6.2,0-8.9-2.8-8.9-7.7c0-6.1,4.1-8.2,10.2-8.2h7.9
				V72c0-3.1-1.1-5.3-6.4-5.3c-1.7,0-3.8,0.2-5.7,0.6v-3.7c1.9-0.2,4-0.4,5.9-0.4C799.8,63.3,802,66.6,802,71.3z M797.9,81.7v-4.3
				h-7.6c-4.3,0-6.3,0.9-6.3,4.9c0,2.8,1.4,4.3,5,4.3C793.3,86.6,796.5,84.8,797.9,81.7z"/>
		</g>
		<g class="st0">
			<path class="st2" d="M809.8,84.4V53.2h4.1v30.1c0,2.6,0.7,3.1,2.4,3.1c0.6,0,1.3-0.1,2-0.2v3.4c-0.8,0.2-1.6,0.3-2.7,0.3
				C811.7,89.9,809.8,88.3,809.8,84.4z"/>
		</g>
		<g class="st0">
			<path class="st2" d="M820.5,95.7c4.5,0,6.3-1.9,7.6-6.1l-10.4-25.8h4.5l7.9,21.5h0.3l7.5-21.5h4.2l-9.3,25
				c-2.4,6.5-4.7,10.4-12.3,10.4L820.5,95.7L820.5,95.7z"/>
			<path class="st2" d="M843.7,86.3l14.6-18.8v-0.3h-13.4v-3.4h18.5v3.1l-14.7,18.9v0.3h15.5v3.6h-20.4L843.7,86.3L843.7,86.3z"/>
			<path class="st2" d="M889.6,77.1l-17.5,1.1c0,5.7,2,8.2,8.3,8.2c2.8,0,6.1-0.7,8.1-1.7v3.8c-1.5,0.8-5,1.5-8.7,1.5
				c-7.6,0-12-3.1-12-13.4c0-10.3,4.4-13.4,11.7-13.4c8.8,0,10.3,5.8,10.3,10.8C889.8,74.8,889.8,75.9,889.6,77.1z M885.8,74.1
				c0-4-0.7-7.5-6.3-7.5c-5.9,0-7.3,3.2-7.4,8.5L885.8,74.1z"/>
			<path class="st2" d="M901,66.5c0-2.6,0.8-3,3.1-3c2.2,0,3.1,0.4,3.1,3c0,2.6-0.9,3-3.1,3C901.8,69.5,901,69.1,901,66.5z
				 M901,86.8c0-2.6,0.8-3,3.1-3c2.2,0,3.1,0.4,3.1,3c0,2.7-0.9,3.1-3.1,3.1C901.8,89.9,901,89.5,901,86.8z"/>
			<path class="st2" d="M942.1,72.9l-2.6-3c7.7-4.7,12.8-11,15.9-18.2l3.5,1.3C955.2,61.2,950.4,66.9,942.1,72.9z M948,69.4h26.1
				c-0.2,3.6-0.9,14.2-1.3,17.9c-0.5,4.4-1.4,5.1-5.7,5.5c-2.1,0.2-3.7,0.3-3.7,0.3l-1.4-3.6l3.7-0.2c2.6-0.2,3-0.9,3.3-3.4
				c0.3-2.7,0.9-11,1-12.8h-12.8c0,0.8-0.1,1.9-0.2,3.1c-0.9,8.3-3,12.9-13.5,18.8l-2.4-2.9c9.8-5.1,11.2-8.4,12.3-15.9
				c0.2-1.2,0.2-2.2,0.3-3H948V69.4z M983.5,70.1l-2.2,3.3c-8.7-5.4-13.1-10.3-17.6-21.1l3.2-1.3C970.2,59.5,975,64.9,983.5,70.1z"
				/>
			<path class="st2" d="M997.4,70.5v23.9H994V71.3c-1.9,4.2-4.1,8.1-6.1,11.1l-2.7-2.1c2.9-4.1,6.6-10.5,8.6-16.5h-6.2v-3.5h6.4
				v-8.9l3.4,0.1v8.8h6.4v3.5h-6.4v5.2l1.5-1.4c1.7,1.7,4.8,5.8,6,7.8l-2.4,2.5C1001.3,75.6,999,72.3,997.4,70.5z M1028.9,71.6h-7.3
				v22.6h-3.7V71.6h-8.4c-0.1,11.4-1.4,16-6.7,23.1l-3.2-1.9c5.5-7,6.5-10.8,6.5-22.9V55.6c6.5-0.5,13.4-1.5,19.7-3l0.9,3.5
				c-5.4,1.3-11.9,2.3-17.2,2.8v9.2h19.5V71.6z"/>
		</g>
		<g class="st0">
			<path class="st1" d="M1076.6,89.6l-9.2-13.4c-0.5,0.1-1.1,0.1-1.6,0.1h-4.1v13.4h-4.3V56.4h8.4c9.3,0,12.7,2.5,12.7,9.8
				c0,5.8-2.2,8.5-6.8,9.5l10,13.9L1076.6,89.6L1076.6,89.6z M1074.2,66.2c0-5-2.5-6.1-8.7-6.1h-3.7v12.6h3.7
				C1071.7,72.7,1074.2,71.8,1074.2,66.2z"/>
		</g>
		<g class="st0">
			<path class="st3" d="M1105.2,77.1l-17.5,1.1c0.1,5.7,2,8.2,8.3,8.2c2.8,0,6.1-0.7,8.1-1.7v3.8c-1.5,0.8-5,1.5-8.7,1.5
				c-7.6,0-12-3.1-12-13.4c0-10.3,4.4-13.4,11.7-13.4c8.8,0,10.3,5.8,10.3,10.8C1105.4,74.8,1105.3,75.9,1105.2,77.1z M1101.4,74.1
				c0-4-0.7-7.5-6.3-7.5c-5.9,0-7.3,3.2-7.4,8.5L1101.4,74.1z"/>
			<path class="st3" d="M1107.8,63.7h4.2l7.9,21.8h0.3l7.6-21.8h4.4l-9.7,25.9h-4.9L1107.8,63.7z"/>
			<path class="st3" d="M1135.5,56.6c0-2.2,0.7-2.5,2.5-2.5c1.7,0,2.4,0.3,2.4,2.5c0,2.1-0.7,2.4-2.4,2.4
				C1136.2,59,1135.5,58.7,1135.5,56.6z M1135.9,63.7h4.1v25.9h-4.1V63.7z"/>
			<path class="st3" d="M1168.1,77.1l-17.5,1.1c0.1,5.7,2,8.2,8.3,8.2c2.8,0,6.1-0.7,8.1-1.7v3.8c-1.5,0.8-5,1.5-8.7,1.5
				c-7.6,0-12-3.1-12-13.4c0-10.3,4.4-13.4,11.7-13.4c8.8,0,10.3,5.8,10.3,10.8C1168.3,74.8,1168.2,75.9,1168.1,77.1z M1164.3,74.1
				c0-4-0.7-7.5-6.3-7.5c-5.9,0-7.3,3.2-7.4,8.5L1164.3,74.1z"/>
			<path class="st3" d="M1171.2,63.7h4.1l5.5,21.7h0.3l6.4-21.7h4.9l6.6,21.7h0.3l5.5-21.7h4.1l-7.2,25.9h-5.1l-6.4-21.2h-0.3
				l-6.5,21.2h-5.1L1171.2,63.7z"/>
		</g>
		<g class="st0">
			<path class="st2" d="M1218.3,66.5c0-2.6,0.8-3,3.1-3c2.2,0,3.1,0.4,3.1,3c0,2.6-0.9,3-3.1,3C1219.1,69.5,1218.3,69.1,1218.3,66.5
				z M1218.3,86.8c0-2.6,0.8-3,3.1-3c2.2,0,3.1,0.4,3.1,3c0,2.7-0.9,3.1-3.1,3.1C1219.1,89.9,1218.3,89.5,1218.3,86.8z"/>
			<path class="st2" d="M1296.6,53.6v40.3h-3.7v-3.1H1264v3.1h-3.7V53.6H1296.6z M1292.9,87.3v-30H1264v30H1292.9z M1286.9,63.7
				v17.1h-17V63.7H1286.9z M1283.6,67h-10.4v10.5h10.4V67z"/>
			<path class="st2" d="M1324.6,57.2h-14.2v13.4c0,10.5-1.7,16.2-4.4,23.5l-3.1-1.3c3.1-6.9,4.4-12.7,4.4-22.7V54h17.3L1324.6,57.2
				L1324.6,57.2z M1324.2,87.2c-1.6,0.8-6.6,3.7-8.6,4.8c-0.6,0.3-1.5,0.9-1.9,1.2l-1.6-2.9c0.7-0.6,1.2-1.5,1.2-2.3V62.7h10.4
				c-0.1,1.2-0.1,12.1-0.1,12.9c0,3.3-1.6,4.3-4.2,4.6l-1.3,0.2l-0.9-3.2l1.7-0.1c1.6-0.2,2-1,2-3c0.1-2.9,0.1-7,0.1-8.5h-4.7v22.4
				c1.3-0.8,6.3-3.5,7.4-4L1324.2,87.2z M1336.3,77.2c0,9.3-2.5,12.5-12.4,17.8l-2.2-2.8c9.9-4.8,11.5-7.8,11.5-15.7v-8.2l3,0.1
				V77.2z M1333.5,57.2h-7.6v-3.2h19.8v3.2h-8.6c-0.3,1.7-0.9,3.9-1.4,5.5h7.8v22h-3.1V65.7h-10.8v19.1h-3.1v-22h5.5
				C1332.7,61.1,1333.2,59,1333.5,57.2z M1346.6,91.9l-1.9,3.1c-2.4-3.3-6.3-6.3-9.2-8.4l1.8-2.7C1340.3,85.9,1344,89.1,1346.6,91.9
				z"/>
		</g>
		<g class="st0">
			<path class="st1" d="M1397.4,56.4h4.3v33.2h-4.3V56.4z"/>
		</g>
		<g class="st0">
			<path class="st3" d="M1445.2,71.7v17.9h-4.1V73.2c0-4-1.1-6.3-5-6.3c-3,0-5.6,0.9-6.7,4.6v0.2v17.9h-4.1V73.2
				c0-4-0.9-6.3-4.7-6.3c-3.2,0-5.6,0.7-6.8,4.7v18h-4.1V63.7h4.1v3.4c1.6-3.1,4.4-3.9,7.5-3.9c4.1,0,6.4,1.6,7.5,4.2
				c1.5-3.3,4.9-4.2,8.1-4.2C1442.8,63.3,1445.2,66.8,1445.2,71.7z"/>
			<path class="st3" d="M1475.9,76.7c0,7.1-2,13.4-10.7,13.4c-5,0-7.3-2-8.4-5v14.1h-4.1V63.7h4.1v4.7c1.1-3.1,3.4-5.1,8.4-5.1
				C1473.9,63.3,1475.9,68.8,1475.9,76.7z M1471.6,76.7c0-5.5-0.9-10-6.9-10c-6.2,0-8.1,3.8-8.1,10c0,5.9,1.8,9.9,8.1,9.9
				C1470.9,86.6,1471.6,81.7,1471.6,76.7z"/>
		</g>
		<g class="st0">
			<path class="st3" d="M1495.1,63.3l-0.2,3.7h-0.6c-3.3,0-6.6,1.1-8,5.7v16.9h-4.1V63.7h4.1v4.7c1.6-4.3,5.1-5.2,8.2-5.2
				C1494.6,63.3,1495.1,63.3,1495.1,63.3z"/>
		</g>
		<g class="st0">
			<path class="st3" d="M1497,76.7c0-10.3,4.4-13.4,12-13.4c7.7,0,11.9,3.1,11.9,13.4c0,10.3-4.3,13.4-11.9,13.4
				C1501.4,90.1,1497,87,1497,76.7z M1516.6,76.7c0-7.6-1.9-10-7.6-10c-5.8,0-7.6,2.4-7.6,10s2,9.9,7.6,9.9
				C1514.8,86.6,1516.6,84.3,1516.6,76.7z"/>
			<path class="st3" d="M1522.4,63.7h4.2l7.9,21.8h0.3l7.6-21.8h4.4l-9.7,25.9h-4.9L1522.4,63.7z"/>
		</g>
		<g class="st0">
			<path class="st3" d="M1570.8,77.1l-17.5,1.1c0.1,5.7,2,8.2,8.3,8.2c2.8,0,6.1-0.7,8.1-1.7v3.8c-1.5,0.8-5,1.5-8.7,1.5
				c-7.6,0-12-3.1-12-13.4c0-10.3,4.4-13.4,11.7-13.4c8.8,0,10.3,5.8,10.3,10.8C1571.1,74.8,1570.9,75.9,1570.8,77.1z M1567,74.1
				c0-4-0.7-7.5-6.3-7.5c-5.9,0-7.3,3.2-7.4,8.5L1567,74.1z"/>
		</g>
		<g class="st0">
			<path class="st2" d="M1582.2,66.5c0-2.6,0.8-3,3.1-3c2.2,0,3.1,0.4,3.1,3c0,2.6-0.9,3-3.1,3C1583,69.5,1582.2,69.1,1582.2,66.5z
				 M1582.2,86.8c0-2.6,0.8-3,3.1-3c2.2,0,3.1,0.4,3.1,3c0,2.7-0.9,3.1-3.1,3.1C1583,89.9,1582.2,89.5,1582.2,86.8z"/>
			<path class="st2" d="M1639.8,85.5c-1,0.5-10.2,4.8-11.9,5.7c-1.2,0.6-1.9,1-3.2,1.9l-1.8-3.5c1.5-1.2,1.7-1.5,1.7-2.4V69.4h9.7
				v-11h-10.8v-3.6h14.4v18h-9.9v14.3c1.3-0.6,10-4.8,11.2-5.3L1639.8,85.5z M1664.9,91.2l-2.4,3.2c-4.9-3.3-8.9-6.7-11.9-10.3
				c-3.3,3.7-7.5,6.9-13.2,10.4l-2.2-3.2c5.9-3.3,10.2-6.5,13.2-10c-2.6-3.8-4.5-7.8-5.6-12.4c-0.7,1.2-1.5,2.3-2.2,3.4l-2.3-2.6
				c3.7-5.1,7.1-12.9,8.2-19l3.5,0.7c-0.6,2.4-1.3,4.8-2.2,7.2h15.9v3.5h-4.2c-1,8-2.9,14-6.6,19.2
				C1655.9,84.8,1659.9,88,1664.9,91.2z M1650.6,78.5c3.1-4.6,4.6-9.8,5.3-16.4h-9.6c-0.3,0.9-0.7,1.7-1.2,2.5
				C1646,70,1647.8,74.5,1650.6,78.5z"/>
			<path class="st2" d="M1710.3,89.3l-0.8,3.6c-4.1,0.2-10.8,0.3-14.8,0.2c-10-0.2-14.2-0.7-19.4-6c-1.8,2.1-3,3.6-5.7,6.3l-2.5-2.7
				c2.6-2.4,5-4.8,6.8-7V71h-5.2v-3.4h8.6v16.8c4.6,4.4,8.2,5,16.6,5.2C1699.4,89.8,1705.2,89.6,1710.3,89.3z M1676.6,64
				c-1.4-2.7-4.8-7.3-6.8-9.3l2.6-2.2c1.9,1.9,5.4,6.3,6.8,8.7L1676.6,64z M1686.7,75.8h-6.6v-3.4h6.7v-2.9v-6.6h-5.3v-3.3h5.3v-7.8
				l3.4,0.1v7.7h8.7v-7.8l3.5,0.1v7.8h6.1v3.3h-6.1v9.5h7.7v3.4h-7.7v11.9h-3.5V75.8h-8.9c-0.4,5.6-1.8,7.9-5.6,12.3l-2.8-2.2
				C1685.1,81.9,1686.3,80,1686.7,75.8z M1690.2,72.4h8.7v-9.5h-8.7v6.4C1690.2,70.4,1690.2,71.5,1690.2,72.4z"/>
		</g>
		<g class="st0">
			<path class="st4" d="M245.3,906.5c-1,0.4-2.4,0.9-3.9,1.4v11.6c0,3.4-1,4.2-4.6,4.4l-1.8,0.2l-0.8-2.8l1.9-0.2
				c2.1-0.1,2.5-0.5,2.5-2.4v-9.9c-2.1,0.7-4.1,1.2-5.4,1.6l-0.9-3c1.6-0.4,4-1,6.4-1.7v-7.9h-4.8V895h4.8v-7.1l2.8,0.1v7h4.1v2.8
				h-4.1v7c1.3-0.4,2.5-0.8,3.4-1.1l0.2,1.2L245.3,906.5z M268.9,900.3v2.6h-24.4v-2.6h6v-5.1H246v-2.6h4.4v-4.7l2.8,0.1v4.5h6v-4.7
				l2.8,0.1v4.5h5.5v2.6H262v5.1H268.9z M247.4,906.4h17.7v17.7h-2.8v-1.9h-12.2v2h-2.8L247.4,906.4L247.4,906.4z M250.1,909v3.9
				h12.2V909H250.1z M262.3,919.5v-3.9h-12.2v3.9H262.3z M253.2,900.3h6v-5.1h-6L253.2,900.3L253.2,900.3z"/>
			<path class="st4" d="M279.1,902h6.1c0,1.2-0.3,16.3-0.4,17.2c-0.1,2.6-1.1,3.2-4,3.5l-1.5,0.2l-0.9-2.6l1.9-0.2
				c1.7-0.2,2-0.6,2.1-2.2c0.1-1.3,0.4-12.1,0.4-13.3h-3.6c-0.1,9.3-1.6,13.2-4.5,19.6l-2.4-1c2.8-6.1,4.3-10.3,4.3-19.8v-6.7h-3.3
				v-2.7h6.2c-0.4-1.9-1.1-4.6-1.5-5.7l2.5-0.4c0.4,1.4,1.2,4.6,1.6,6.2h4.7v2.7h-7.7V902z M287.8,901.5l-2.1-1.7
				c2.7-3.5,5.1-8.3,6.3-12.6l2.8,0.5c-0.5,1.5-1.1,3.1-1.8,4.7h15.1v2.8h-16.4C290.5,897.4,289.2,899.6,287.8,901.5z M309.1,916.6
				c-0.2,1.5-0.4,2.9-0.8,4.2c-0.4,1.3-1.7,2-5.3,2.2c-3,0.1-6.1,0.1-9.1,0c-3.5-0.1-5-1-5-5.2v-9.9l-2.4,0.7l-0.6-2.5l3-0.9v-4.9
				l2.5,0.1v4.1l4.7-1.4v-6.6l2.6,0.1v5.8l7.8-2.3c0,0.7-0.3,10.5-0.4,11.2c-0.1,2.7-0.9,3.6-3.8,3.8l-1.5,0.2l-0.9-2.7l1.6-0.2
				c1.6-0.2,1.8-0.5,1.9-2.2c0.1-0.8,0.2-5.6,0.2-6.4l-5,1.5v12.6h-2.6v-11.8l-4.7,1.4v9.8c0,2.9,0.7,3.2,3.3,3.4
				c2.4,0.1,4.9,0.1,7.3,0c2.8-0.1,3.7-0.4,3.9-1.4c0.3-1,0.4-2.1,0.5-3.2L309.1,916.6z"/>
			<path class="st4" d="M348.6,912.4v2.7h-35.9v-2.7h6v-22.8h23.8v22.8H348.6z M325.8,915.5l1.5,2.4c-3.1,2.1-9.8,5.3-13.2,6.4
				l-1.1-2.7C316.2,920.6,322.9,917.5,325.8,915.5z M321.7,892.3v3h17.8v-3H321.7z M339.5,897.9h-17.8v3.1h17.8V897.9z M321.7,903.6
				v3.1h17.8v-3.1H321.7z M321.7,912.4h17.8v-3.2h-17.8V912.4z M334.7,915.6c3.3,1.1,10.1,3.9,13.1,5.5l-1.2,2.9
				c-3-2.1-9.8-4.8-13.1-5.9L334.7,915.6z"/>
			<path class="st4" d="M389.9,914.7l-2.1,2.6c-6-5.7-9.1-11.3-11.6-18.3v15.3h7v2.8h-7v7.1H373V917h-6.8l0.1-2.8h6.7v-14.8
				c-2.1,6.6-5.8,12.2-10.6,17.4l-2.3-2.2v9.1h-3v-20.4c-1,1.7-2.2,3.5-3.5,5.3l-2.3-2c5-6.8,7.8-13.3,9.2-18.8l2.9,0.9
				c-0.7,2.3-1.7,5.5-3.4,9v16.9c4.4-4.4,8.8-10.2,11.1-17.1h-8v-2.9h9.7v-6.9l3.1,0.1v6.8h11v2.9H378
				C381,905,384.6,910.2,389.9,914.7z"/>
			<path class="st4" d="M428,893h-5.2v25.8c0,3.6-0.8,4.1-4.2,4.5l-3.8,0.4l-1-3l3.9-0.3c2.1-0.2,2.2-0.4,2.2-2.5V893h-26.2v-2.8
				H428V893z M397.7,898.8h14.9v16.5h-14.9V898.8z M400.6,912.4h9.1v-10.8h-9.1V912.4z"/>
			<path class="st4" d="M431.9,905l1.5-2.3c1.8,1,5.4,3.5,7,4.8l-1.5,2.7C437.3,908.5,433.8,906,431.9,905z M441.8,893.6h-9.6v-2.7
				h9.6v-3.3l3,0.1v3.2h9.9v-3.3l3,0.1v3.2h10v2.7h-10v2.5h-3v-2.5h-9.9v3h-3V893.6z M439,912.2l1.2,0.4c-0.7,3-2.7,8.7-3.9,11.4
				l-2.7-0.9c1.2-2.7,3.2-8.4,4-11.5L439,912.2z M435.1,895.6c1.8,0.9,5.3,3.2,7,4.5l-1.5,2.7c-1.5-1.7-5-4-6.8-5L435.1,895.6z
				 M468.1,908.4l-0.9,2.8c-4.7-0.8-9.1-2.1-12.9-3.8c-3.5,1.7-7.8,3-13.3,4.2l-1.1-2.7c4.5-0.8,8.2-1.9,11.4-3.1
				c-1.8-1-3.4-2.3-4.6-3.6c-1.2,1.3-2.6,2.4-4,3.4l-1.8-2.1c3.2-2.3,6.8-6,8.4-9l2.6,1.1c-0.4,0.7-0.9,1.5-1.5,2.3h13.4v2.3
				c-1.9,2.2-4,4.1-6.7,5.7C460.2,907,463.9,907.8,468.1,908.4z M444.5,911.8h18.9V924h-2.9v-2h-13.2v2h-2.8V911.8z M447.3,914.3
				v5.3h13.2v-5.3H447.3z M454.1,904.6c2.5-1.2,4.5-2.7,6.1-4.4h-11.6c-0.1,0-0.1,0.1-0.2,0.2C449.9,902,451.8,903.4,454.1,904.6z"
				/>
			<path class="st4" d="M484.8,914.8l0.2,1.2c-3.1,1.4-9.5,3.9-12.6,4.9l-1.1-2.8c1.5-0.4,3.6-1.1,5.7-1.9v-14.7h-4.5v-2.8h4.5
				v-10.2l2.8,0.1v10.1h4.2v2.8h-4.2v13.6c1.9-0.7,3.6-1.5,4.8-2L484.8,914.8z M507.9,915.2c0,1.8-0.4,3.6-0.7,5.2
				c-0.4,1.6-1.6,2.4-5.3,2.6c-3.4,0.2-6.9,0.2-10.3,0c-3.8-0.2-5.3-1-5.3-5v-14.1l-3.5,1.2l-0.7-2.8l4.2-1.4v-9.6l2.9,0.2v8.5
				l4.8-1.6v-10.6l2.9,0.2v9.4l8.4-2.8l-0.5,14.2c-0.1,3-0.9,3.8-4.1,4.2L499,913l-1-2.9l1.7-0.2c1.7-0.2,2.1-0.6,2.1-2.6
				c0.1-0.9,0.3-8,0.4-8.9l-5.4,1.9v16h-2.9v-15.1l-4.8,1.7v13.8c0,2.7,0.3,3.2,2.8,3.4c2.8,0.2,5.8,0.2,8.6,0
				c2.7-0.2,3.6-0.4,3.9-1.7c0.3-1.3,0.5-2.9,0.5-4.2L507.9,915.2z"/>
		</g>
		<g class="st0">
			<path class="st4" d="M235.3,966l-3.1-1.4c3.2-4.7,7.1-14,8.7-20l3.1,0.9C242.7,951,238.9,960.7,235.3,966z M247.4,972l-2.9,0.2
				l-1.2-3.3c0,0,2.1-0.1,4-0.3c1.8-0.2,2.1-0.6,2.1-2.5v-29.4l3.3,0.1v30.6C252.7,970.7,251.6,971.6,247.4,972z M266.7,966.2
				l2.8-1.7c-3.3-8-7.3-15.6-9.9-20.2l-2.8,1.3C259.7,950.7,263.2,957.7,266.7,966.2z"/>
			<path class="st4" d="M308.4,950.2v2.9h-15v10.1h-3.1v-10.1h-17v-2.9h6.7v-10.8l3.2,0.1v10.7h6.3v-13.7l3.1,0.1v4.8h12.6v2.8
				h-12.6v6L308.4,950.2L308.4,950.2z M275.8,966l-1.9-2.7c3.8-2.4,7.8-6,10.4-9.1l2.2,2.2C284,959.3,279.6,963.2,275.8,966z
				 M302.7,955.1l2.4,2.3c-7.4,8.7-14,12.5-29.9,15.5l-1.1-3.2C290.7,966.8,296.3,963.2,302.7,955.1z"/>
			<path class="st4" d="M320.6,955.9v12.3c0,3-1,3.8-4.4,4l-1.6,0.2l-0.9-2.9l1.7-0.2c1.7-0.2,2.3-0.6,2.3-2V957
				c-2.1,0.8-4.2,1.5-5.7,2l-0.4-3.1c1.6-0.4,3.8-1.2,6-2v-7.4H313v-2.8h4.7v-7.2l2.8,0.1v7.2h4.3v2.8h-4.3v6.2
				c1-0.4,1.9-0.8,2.7-1.1l0.1,1.8l0.1,1.2C322.7,955,321.7,955.4,320.6,955.9z M349,968.6l-0.7,2.8c-3.4,0.2-6.6,0.2-10,0.1
				c-4.9-0.1-7.8-1.4-10-5.7c-1,2.5-2.5,4.6-4.9,7l-2.2-1.9c4.1-4,5.4-6.8,6.1-12.3l2.8,0.3c-0.2,1.4-0.4,2.6-0.7,3.7
				c1.5,3.3,3,4.8,5.4,5.5V957h-10.8v-2.5h23.9v2.5h-10.2v4.1h8.6v2.4h-8.6v5.1c0.2,0,0.5,0,0.7,0
				C341.8,968.8,345.4,968.8,349,968.6z M344.6,951.5H327V938h17.7V951.5z M329.8,940.5v3.1h12v-3.1H329.8z M341.8,949.2v-3.3h-12
				v3.3H341.8z"/>
			<path class="st4" d="M388.2,954.1h-8.3v18.3h-3.2v-18.3h-11.2c-0.2,9-2.5,12.8-10,18.5l-2.5-2.5c7.6-5.6,9.1-8,9.3-16H353v-3h9.2
				v-8.6c-2.5,0.4-4.9,0.8-7.2,1l-0.7-2.8c6.1-0.6,13.5-1.9,18.5-3.3l0.7,2.8c-2.3,0.6-5.1,1.2-8,1.8v9.1h11.2v-14.8l3.2,0.1v14.7
				h8.3L388.2,954.1L388.2,954.1z"/>
			<path class="st4" d="M407.2,943.5c-0.9,1.5-1.7,2.9-2.7,4.2h18.8v20c0,3.2-1.2,3.9-4.9,4.4l-2.7,0.3l-1-2.9l2.6-0.2
				c2.5-0.2,2.9-0.4,2.9-2.4v-2.3h-17.6v7.9h-3v-19.1c-1.9,1.9-3.9,3.6-6.2,5.4l-2-2.4c5-3.8,9.1-8,12.1-12.8h-10.4v-2.8h12
				c0.8-1.5,1.5-3.1,2.1-4.7l3.2,0.7c-0.5,1.4-1.1,2.8-1.7,4h19.5v2.8L407.2,943.5L407.2,943.5z M420.3,950.4h-17.6v4.5h17.6V950.4z
				 M420.3,961.9v-4.4h-17.6v4.4H420.3z"/>
			<path class="st4" d="M463.3,938.5v34.3h-3.1v-2.8h-20.1v3H437v-34.4H463.3z M440.1,941.5v6.4h20.1v-6.4H440.1z M440.1,950.8v6.5
				h20.1v-6.5H440.1z M460.2,966.9v-6.7h-20.1v6.7H460.2z"/>
			<path class="st4" d="M480.8,953.6v19.6h-3v-19.9c-1.4,3.4-3,6.5-4.8,9.1l-2.3-1.7c2.7-3.7,5.4-9.2,7-13.8h-5.2v-2.9h5.3v-7.5
				l3,0.1v7.4h4.7v2.9h-4.7v4.8l1-0.9c1.2,1.2,3.6,4,4.6,5.5l-1.9,2.2C483.7,957.1,482.1,955,480.8,953.6z M492.2,956.2
				c-1.6,4.5-3.6,9.1-6.6,13.7l-2.8-1.4c2.9-4.2,5.2-9.4,6.7-13.4L492.2,956.2z M497.7,952v16.2c0,3.2-1.2,4-5.2,4.4l-1.9,0.2
				l-1-3.1l2.3-0.2c2.3-0.2,2.7-0.6,2.7-2.5v-15h-9.3v-3h22.5v3H497.7z M505.6,942.1h-18.4v-3h18.4L505.6,942.1L505.6,942.1z
				 M508.7,968.3l-2.8,1.7c-1.1-3.8-4.3-10.5-6.2-13.5l2.5-1.3C504.2,958.3,507.4,964.9,508.7,968.3z"/>
		</g>
		<g>
			<polygon class="st5" points="779.7,321.4 371.7,321.4 226.1,204 227.9,201.7 372.7,318.4 779.7,318.4 			"/>
		</g>
		<g>
			<polygon class="st5" points="783.5,761 382.7,761 382.3,760.6 239.6,643.6 241.6,641.3 383.8,758 783.5,758 			"/>
		</g>
		<g class="st6">
			<g>
				<path class="st7" d="M1013.3,471.7c53.8-0.1,97.5-43.4,98.1-97.2c-0.2-54.9-44.9-99.2-99.8-98.9c-0.2,0-0.4,0-0.5,0
					c-153.9,1.2-287.6,106-325.6,255.1c-0.2,1,0.4,2,1.4,2.2c0.6,0.1,1.3,0,1.7-0.5c44.9-46.7,119.1-48.2,165.8-3.4
					c9.7,9.3,17.7,20.2,23.7,32.3c0.3,0.9,1.3,1.3,2.2,0.9c0.4-0.2,0.8-0.5,0.9-0.9C902.8,507.2,955.1,471.7,1013.3,471.7z"/>
			</g>
			<g>
				<path class="st7" d="M1013.3,755.6c-53.8,0.1-97.6,43.4-98.1,97.3c0.3,54.9,45,99.2,99.9,98.9c0.2,0,0.3,0,0.5,0
					c153.9-1.2,287.6-106,325.6-255.2c0.2-1-0.4-2-1.4-2.2c-0.6-0.1-1.3,0-1.7,0.5c-44.8,46.8-119,48.4-165.8,3.7
					c-9.7-9.3-17.8-20.2-23.8-32.2c-0.4-0.9-1.6-1.3-2.5-0.9c-0.4,0.2-0.7,0.5-0.9,0.9C1123.5,720.2,1071.3,755.5,1013.3,755.6z"/>
			</g>
			<g>
				<path class="st7" d="M871.4,613.7c-0.1-53.8-43.4-97.6-97.3-98.1c-54.9,0.2-99.2,44.9-98.9,99.8c0,0.2,0,0.4,0,0.5
					c1.2,154.4,106.7,288.4,256.4,325.9c0.8,0.2,1.6-0.2,1.8-1c0.2-0.6,0-1.2-0.5-1.5c-47.3-44.3-49.7-118.6-5.3-165.8
					c9.5-10.1,20.7-18.5,33-24.7c0.9-0.4,1.3-1.5,0.9-2.4c-0.2-0.4-0.5-0.8-0.9-0.9C906.8,723.9,871.5,671.7,871.4,613.7z"/>
			</g>
			<g>
				<path class="st7" d="M1155.2,613.7c0.1,53.8,43.4,97.5,97.2,98.1c54.9-0.2,99.3-44.8,99.1-99.7c0-0.2,0-0.4,0-0.7
					c-1.2-153.9-106-287.6-255.1-325.6c-1-0.3-2,0.3-2.3,1.3c-0.2,0.6,0,1.4,0.5,1.8c46.8,44.8,48.4,119,3.7,165.8
					c-9.3,9.7-20.2,17.8-32.2,23.8c-0.9,0.4-1.3,1.5-0.9,2.5c0.2,0.4,0.5,0.7,0.9,0.9C1119.9,503.5,1155.2,555.7,1155.2,613.7z"/>
			</g>
			<g>
				<path class="st8" d="M1010,468.2c53.8-0.1,97.6-43.4,98.1-97.3c-0.2-54.9-44.9-99.2-99.8-98.9c-0.2,0-0.4,0-0.5,0
					c-153.9,1.2-287.6,106-325.6,255.2c-0.2,1,0.4,2,1.4,2.2c0.6,0.1,1.3,0,1.7-0.5c44.8-46.8,119-48.4,165.8-3.7
					c9.8,9.4,17.9,20.3,23.9,32.5c0.3,0.9,1.3,1.3,2.2,0.9c0.4-0.2,0.8-0.5,0.9-0.9C899.7,503.7,951.9,468.3,1010,468.2z"/>
			</g>
			<g>
				<path class="st8" d="M1010,752c-53.8,0.1-97.5,43.4-98,97.2c0.2,54.9,44.9,99.2,99.8,98.9c0.2,0,0.4,0,0.5,0
					c153.9-1.2,287.6-106,325.6-255.1c0.3-1-0.3-2-1.3-2.3c-0.7-0.2-1.3,0-1.8,0.5c-44.7,46.9-118.9,48.6-165.8,3.9
					c-9.9-9.4-18-20.5-24.1-32.7c-0.4-0.9-1.6-1.3-2.5-0.9c-0.4,0.2-0.7,0.5-0.9,0.9C1120,716.4,1068,751.8,1010,752z"/>
			</g>
			<g>
				<path class="st8" d="M867.8,610.1c-0.1-53.9-43.6-97.7-97.5-98.1c-54.9,0.3-99.2,45-98.9,99.9c0,0.2,0,0.3,0,0.5
					c1.3,154.4,106.8,288.4,256.7,325.8c0.8,0.2,1.6-0.2,1.8-1c0.2-0.6,0-1.2-0.5-1.5c-47.2-44.3-49.6-118.6-5.3-165.8
					c9.5-10.1,20.6-18.4,33-24.6c0.9-0.4,1.3-1.5,0.9-2.5c-0.2-0.4-0.5-0.7-0.9-0.9C903.2,720.2,867.9,668.1,867.8,610.1z"/>
			</g>
			<g>
				<path class="st8" d="M1151.7,610.1c0.1,53.8,43.4,97.6,97.3,98.1c54.9-0.3,99.2-45,98.9-99.9c0-0.1,0-0.3,0-0.4
					c-1.2-153.9-106-287.6-255.2-325.6c-1-0.2-2,0.4-2.2,1.4c-0.1,0.6,0,1.3,0.5,1.7c46.8,44.8,48.4,119.1,3.5,165.9
					c-9.3,9.7-20.1,17.7-32.1,23.7c-0.9,0.4-1.3,1.5-0.9,2.4c0.2,0.4,0.5,0.8,0.9,0.9C1116.2,499.9,1151.6,552,1151.7,610.1z"/>
			</g>
			<g>
				<path class="st9" d="M1006.2,464.8c53.8-0.1,97.6-43.4,98.1-97.3c-0.2-54.9-44.9-99.3-99.8-99.1c-0.1,0-0.3,0-0.4,0
					c-153.9,1.2-287.6,106-325.6,255.2c-0.2,1,0.4,2,1.4,2.2c0.6,0.1,1.3,0,1.7-0.5c44.8-46.8,119-48.4,165.8-3.6
					c9.8,9.4,17.9,20.4,23.9,32.5c0.4,0.9,1.5,1.2,2.3,0.8c0.3-0.2,0.6-0.5,0.8-0.8C895.9,500.3,948.1,464.9,1006.2,464.8z"/>
			</g>
			<g>
				<path class="st9" d="M1006.2,748.5c-53.8,0.1-97.5,43.5-98,97.3c0.3,54.9,45,99.2,99.9,98.9c0.1,0,0.3,0,0.4,0
					c153.9-1.2,287.6-106,325.6-255.2c0.2-1-0.4-2-1.4-2.2c-0.6-0.1-1.3,0-1.7,0.5c-44.8,46.8-119.1,48.3-165.9,3.5
					c-9.7-9.3-17.7-20.2-23.7-32.1c-0.4-0.9-1.5-1.3-2.4-0.9c-0.4,0.2-0.8,0.5-0.9,0.9C1116.4,713,1064.2,748.4,1006.2,748.5z"/>
			</g>
			<g>
				<path class="st9" d="M864.2,606.5c-0.1-53.8-43.4-97.5-97.2-98c-54.9,0.2-99.2,44.9-98.9,99.8c0,0.1,0,0.2,0,0.4
					c1.2,154.4,106.6,288.4,256.4,325.9c0.8,0.2,1.6-0.2,1.9-1c0.1-0.4,0.1-0.9-0.2-1.3c-47.2-44.3-49.6-118.6-5.2-165.9
					c9.5-10.1,20.6-18.4,33-24.6c0.9-0.4,1.3-1.5,0.9-2.5c-0.2-0.4-0.5-0.7-0.9-0.9C899.8,716.9,864.3,664.7,864.2,606.5z"/>
			</g>
			<g>
				<path class="st9" d="M1147.8,606.5c0.1,53.9,43.6,97.6,97.5,98c54.9-0.2,99.2-44.9,98.9-99.8c0-0.2,0-0.4,0-0.5
					c-1.4-153.7-106.2-287.2-255.2-325.2c-1-0.2-2,0.4-2.2,1.4c-0.1,0.6,0,1.3,0.5,1.7c46.8,44.8,48.4,119,3.7,165.8
					c-9.3,9.7-20.2,17.8-32.2,23.8c-0.9,0.4-1.3,1.5-0.9,2.5c0.2,0.4,0.5,0.7,0.9,0.9C1112.4,496.7,1147.7,548.6,1147.8,606.5z"/>
			</g>
			<g>
				<path class="st10" d="M1002.5,461c53.8-0.1,97.5-43.4,98.1-97.2c-0.2-54.9-44.9-99.2-99.8-99c-0.2,0-0.4,0-0.5,0
					c-153.9,1.3-287.6,106.1-325.6,255.2c-0.2,1,0.4,2,1.4,2.2c0.6,0.1,1.3,0,1.7-0.5c44.9-46.8,119.2-48.3,166-3.5
					c9.7,9.3,17.8,20.3,23.8,32.3c0.4,0.8,1.4,1.2,2.2,0.8c0.4-0.2,0.7-0.5,0.8-0.8C892.2,496.5,944.4,461.1,1002.5,461z"/>
			</g>
			<g>
				<path class="st10" d="M1002.5,744.8c-53.9,0.1-97.7,43.5-98.1,97.4c0.3,54.9,45,99.2,99.9,98.9c0.2,0,0.3,0,0.5,0
					c153.9-1.2,287.6-106,325.6-255.2c0.2-1-0.4-2-1.4-2.2c-0.6-0.1-1.3,0-1.7,0.5c-44.8,46.8-119.1,48.4-165.9,3.6
					c-9.7-9.3-17.8-20.2-23.8-32.2c-0.4-0.9-1.5-1.3-2.4-0.9c-0.4,0.2-0.8,0.5-0.9,0.9C1112.7,709.5,1060.5,744.8,1002.5,744.8z"/>
			</g>
			<g>
				<path class="st10" d="M860.7,603c-0.1-53.8-43.4-97.6-97.3-98.1c-54.9,0.2-99.2,44.9-98.9,99.8c0,0.2,0,0.4,0,0.5
					c1.2,154.4,106.6,288.4,256.4,325.9c0.8,0.3,1.6-0.1,1.9-0.9c0.2-0.6,0-1.3-0.5-1.7c-47.2-44.3-49.6-118.5-5.3-165.8
					c9.5-10.1,20.7-18.5,33.1-24.7c0.9-0.4,1.3-1.5,0.9-2.4c-0.2-0.4-0.5-0.8-0.9-0.9C896.1,713.2,860.7,661,860.7,603z"/>
			</g>
			<g>
				<path class="st10" d="M1144.5,603c0.1,53.8,43.4,97.6,97.3,98.1c54.9-0.3,99.2-45,98.9-99.9c0-0.2,0-0.3,0-0.5
					c-1.2-153.9-106-287.6-255.1-325.6c-1-0.3-2,0.3-2.3,1.3c-0.2,0.6,0,1.4,0.5,1.8c46.8,44.8,48.4,119,3.7,165.8
					c-9.3,9.7-20.2,17.8-32.2,23.8c-0.9,0.4-1.3,1.5-0.9,2.5c0.2,0.4,0.5,0.7,0.9,0.9C1109.1,492.7,1144.4,544.9,1144.5,603z"/>
			</g>
			<g>
				<path class="st11" d="M999,457.4c53.8-0.1,97.5-43.4,98.1-97.2c-0.1-54.9-44.7-99.3-99.5-99.2c-0.3,0-0.5,0-0.8,0
					c-153.9,1.2-287.6,106-325.6,255.2c-0.2,1,0.4,2,1.4,2.2c0.6,0.1,1.3,0,1.7-0.5c44.8-46.8,119-48.4,165.8-3.7
					c9.8,9.4,17.9,20.3,23.9,32.5c0.3,0.9,1.3,1.3,2.2,0.9c0.4-0.2,0.8-0.5,0.9-0.9C888.7,492.8,940.9,457.5,999,457.4z"/>
			</g>
			<g>
				<path class="st11" d="M999,741.3c-53.8,0.1-97.6,43.4-98.1,97.3c0.3,54.9,45,99.2,99.9,98.9c0.2,0,0.3,0,0.5,0
					c153.9-1.2,287.6-106,325.6-255.2c0.2-1-0.4-2-1.4-2.2c-0.6-0.1-1.3,0-1.7,0.5c-44.8,46.8-119,48.4-165.8,3.7
					c-9.7-9.3-17.8-20.2-23.8-32.2c-0.4-0.9-1.6-1.3-2.5-0.9c-0.4,0.2-0.7,0.5-0.9,0.9C1109.2,705.8,1057,741.2,999,741.3z"/>
			</g>
			<g>
				<path class="st11" d="M857,599.3c-0.1-53.8-43.4-97.6-97.3-98.1c-54.9,0.2-99.2,44.9-98.9,99.8c0,0.2,0,0.4,0,0.5
					c1.2,154.4,106.7,288.4,256.4,325.9c0.8,0.2,1.6-0.2,1.8-1c0.2-0.6,0-1.2-0.5-1.5c-47.3-44.3-49.7-118.6-5.3-165.8
					c9.5-10.1,20.7-18.5,33-24.7c0.9-0.4,1.3-1.5,0.9-2.4c-0.2-0.4-0.5-0.8-0.9-0.9C892.5,709.5,857.1,657.4,857,599.3z"/>
			</g>
			<g>
				<path class="st11" d="M1140.9,599.3c0.1,53.8,43.4,97.5,97.2,98.1c54.9-0.3,99.2-45,98.9-99.9c0-0.2,0-0.3,0-0.5
					c-1.2-153.9-106-287.6-255.2-325.6c-1-0.3-2,0.3-2.3,1.3c-0.2,0.6,0,1.4,0.5,1.8c46.8,44.8,48.4,119,3.7,165.8
					c-9.3,9.7-20.2,17.8-32.2,23.8c-0.9,0.4-1.3,1.5-0.9,2.5c0.2,0.4,0.5,0.7,0.9,0.9C1105.4,489.1,1140.8,541.3,1140.9,599.3z"/>
			</g>
			<g>
				<path class="st12" d="M995.4,453.9c53.7-0.1,97.4-43.2,98.1-97c-0.2-54.9-44.9-99.2-99.8-98.9c-0.2,0-0.4,0-0.5,0
					c-153.8,1.2-287.5,105.8-325.6,254.7c-0.2,1,0.4,2,1.4,2.2c0.6,0.1,1.3,0,1.7-0.5c44.9-46.7,119.1-48.1,165.8-3.2
					c9.7,9.3,17.7,20.2,23.7,32.2c0.4,0.9,1.5,1.2,2.3,0.8c0.3-0.2,0.6-0.5,0.8-0.8C884.8,489.4,937.2,453.9,995.4,453.9z"/>
			</g>
			<g>
				<path class="st12" d="M995.4,737.7c-53.8,0.1-97.5,43.4-98,97.2c0.2,54.9,44.9,99.2,99.8,98.9c0.2,0,0.4,0,0.5,0
					c153.9-1.2,287.6-106,325.6-255.1c0.3-1-0.3-2-1.3-2.3c-0.7-0.2-1.3,0-1.8,0.5c-44.8,46.8-119,48.4-165.8,3.7
					c-9.7-9.3-17.8-20.2-23.8-32.2c-0.4-0.9-1.6-1.3-2.5-0.9c-0.4,0.2-0.7,0.5-0.9,0.9C1105.6,702.3,1053.4,737.6,995.4,737.7z"/>
			</g>
			<g>
				<path class="st12" d="M853.5,595.8c-0.1-53.8-43.4-97.6-97.3-98.1c-54.9,0.3-99.2,45-98.9,99.9c0,0.2,0,0.3,0,0.5
					c1.2,154.4,106.7,288.4,256.4,325.9c0.8,0.2,1.6-0.2,1.8-1c0.2-0.6,0-1.2-0.5-1.5c-47.2-44.3-49.6-118.6-5.3-165.8
					c9.5-10.1,20.6-18.4,33-24.6c0.9-0.4,1.3-1.5,0.9-2.5c-0.2-0.4-0.5-0.7-0.9-0.9C888.9,705.9,853.5,653.8,853.5,595.8z"/>
			</g>
			<g>
				<path class="st12" d="M1137.3,595.8c0.1,53.8,43.4,97.6,97.3,98.1c54.9-0.2,99.2-44.9,99-99.8c0-0.2,0-0.3,0-0.5
					c-1.2-153.9-106-287.6-255.2-325.6c-1-0.2-2,0.4-2.2,1.4c-0.1,0.6,0,1.3,0.5,1.7c46.8,44.8,48.4,119.1,3.5,165.9
					c-9.3,9.7-20.1,17.7-32.1,23.7c-0.9,0.4-1.3,1.5-0.9,2.4c0.2,0.4,0.5,0.8,0.9,0.9C1101.9,485.6,1137.2,537.8,1137.3,595.8z"/>
			</g>
			<g>
				<path class="st13" d="M992,450.3c53.8-0.1,97.6-43.4,98.1-97.3c-0.3-54.9-45-99.2-99.9-98.9c-0.2,0-0.3,0-0.5,0
					c-153.9,1.2-287.6,106-325.6,255.2c-0.2,1,0.4,2,1.4,2.2c0.6,0.1,1.3,0,1.7-0.5c44.8-46.8,119.1-48.3,165.9-3.5
					c9.8,9.3,17.8,20.3,23.8,32.4c0.4,0.9,1.5,1.2,2.3,0.8c0.3-0.2,0.6-0.5,0.8-0.8C881.6,485.8,933.9,450.4,992,450.3z"/>
			</g>
			<g>
				<path class="st13" d="M992,734.4c-53.8,0.1-97.6,43.4-98.1,97.3c0.3,54.9,45,99.2,99.9,98.9c0.1,0,0.3,0,0.4,0
					c153.9-1.2,287.6-106,325.6-255.2c0.2-1-0.4-2-1.4-2.2c-0.6-0.1-1.3,0-1.7,0.5c-44.9,46.8-119.2,48.3-165.9,3.4
					c-9.8-9.4-17.9-20.4-23.9-32.6c-0.4-0.9-1.5-1.3-2.4-0.9c-0.4,0.2-0.8,0.5-0.9,0.9C1102.2,698.6,1050.1,734.2,992,734.4z"/>
			</g>
			<g>
				<path class="st13" d="M849.9,592.2c-0.1-53.8-43.4-97.5-97.2-98c-54.9,0.2-99.2,44.9-98.9,99.8c0,0.2,0,0.4,0,0.5
					c1.2,154.3,106.7,288.3,256.4,325.8c0.8,0.2,1.6-0.2,1.8-1c0.2-0.6,0-1.2-0.5-1.5c-47.2-44.3-49.6-118.6-5.2-165.9
					c9.5-10.1,20.6-18.4,33-24.6c0.9-0.4,1.3-1.5,0.9-2.5c-0.2-0.4-0.5-0.7-0.9-0.9C885.4,702.3,850,650.2,849.9,592.2z"/>
			</g>
			<g>
				<path class="st13" d="M1133.7,592.2c0.1,53.8,43.4,97.6,97.3,98.1c54.9-0.2,99.2-44.9,98.9-99.8c0-0.2,0-0.4,0-0.5
					c-1.2-153.9-106-287.6-255.2-325.6c-1-0.2-2,0.4-2.2,1.4c-0.1,0.6,0,1.3,0.5,1.7c46.8,44.8,48.4,119,3.7,165.8
					c-9.3,9.7-20.2,17.8-32.2,23.8c-0.9,0.4-1.3,1.5-0.9,2.5c0.2,0.4,0.5,0.7,0.9,0.9C1098.3,482,1133.7,534.2,1133.7,592.2z"/>
			</g>
			<g>
				<path class="st14" d="M988.2,446.8c53.8-0.1,97.5-43.4,98.1-97.2c-0.2-54.9-44.8-99.2-99.7-99.1c-0.2,0-0.4,0-0.7,0
					c-153.9,1.2-287.6,106-325.6,255.1c-0.3,1,0.3,2,1.3,2.3c0.7,0.2,1.3,0,1.8-0.5c44.8-46.8,119.1-48.4,165.9-3.6
					c9.8,9.4,17.9,20.3,23.9,32.4c0.4,0.8,1.4,1.2,2.2,0.8c0.4-0.2,0.7-0.5,0.8-0.8C877.9,482.3,930.1,446.9,988.2,446.8z"/>
			</g>
			<g>
				<path class="st14" d="M988.2,730.5c-53.8,0.1-97.6,43.4-98.1,97.3c0.3,54.9,45,99.2,99.9,98.9c0.2,0,0.3,0,0.5,0
					c153.9-1.2,287.6-106,325.6-255.2c0.2-1-0.4-2-1.4-2.2c-0.6-0.1-1.3,0-1.7,0.5c-44.8,46.8-119,48.4-165.8,3.7
					c-9.7-9.3-17.8-20.2-23.8-32.2c-0.4-0.9-1.6-1.3-2.5-0.9c-0.4,0.2-0.7,0.5-0.9,0.9C1098.4,695.1,1046.3,730.4,988.2,730.5z"/>
			</g>
			<g>
				<path class="st14" d="M846.3,588.6c-0.1-53.8-43.4-97.6-97.3-98.1c-54.9,0.4-99,45.2-98.6,100.1c0,0,0,0,0,0
					C651.6,745,757,879,906.8,916.5c0.8,0,1.5-0.6,1.5-1.5c0-0.3-0.1-0.6-0.2-0.8c-47.3-44.3-49.7-118.5-5.4-165.8
					c9.5-10.1,20.7-18.5,33.1-24.7c0.9-0.4,1.3-1.5,0.9-2.4c-0.2-0.4-0.5-0.8-0.9-0.9C881.8,698.9,846.4,646.7,846.3,588.6z"/>
			</g>
			<g>
				<path class="st14" d="M1130.1,588.6c0.2,53.7,43.5,97.3,97.3,97.9c54.9-0.3,99.2-45,98.9-99.9c0-0.2,0-0.3,0-0.5
					c-1.4-153.7-106.2-287.1-255.1-325.1c-1-0.3-2,0.3-2.3,1.3c-0.2,0.6,0,1.4,0.5,1.8c46.8,44.8,48.4,119,3.7,165.8
					c-9.3,9.7-20.2,17.8-32.2,23.8c-0.9,0.4-1.3,1.5-0.9,2.5c0.2,0.4,0.5,0.7,0.9,0.9C1094.7,478.6,1130,530.7,1130.1,588.6z"/>
			</g>
			<g>
				<path class="st15" d="M984.6,443.1c53.8-0.1,97.6-43.4,98.1-97.3c-0.2-54.9-44.9-99.2-99.8-98.9c-0.2,0-0.4,0-0.5,0
					c-153.9,1.2-287.6,106-325.6,255.2c-0.2,1,0.4,2,1.4,2.2c0.6,0.1,1.3,0,1.7-0.5c44.8-46.8,119-48.4,165.8-3.7
					c9.8,9.4,17.9,20.4,23.9,32.5c0.3,0.9,1.3,1.3,2.2,0.9c0.4-0.2,0.8-0.5,0.9-0.9C874.3,478.7,926.5,443.2,984.6,443.1z"/>
			</g>
			<g>
				<path class="st15" d="M984.6,726.9c-53.9,0.1-97.6,43.5-98.1,97.4c0.3,54.9,45,99.2,99.9,98.9c0.2,0,0.3,0,0.5,0
					c153.9-1.2,287.6-106,325.6-255.2c0.2-1-0.4-2-1.4-2.2c-0.6-0.1-1.3,0-1.7,0.5c-44.8,46.8-119,48.4-165.8,3.7
					c-9.7-9.3-17.8-20.2-23.8-32.2c-0.4-0.9-1.6-1.3-2.5-0.9c-0.4,0.2-0.7,0.5-0.9,0.9C1094.8,691.6,1042.7,726.9,984.6,726.9z"/>
			</g>
			<g>
				<path class="st15" d="M842.7,585c-0.1-53.8-43.4-97.6-97.3-98.1c-54.9,0.2-99.2,44.9-98.9,99.8c0,0.2,0,0.4,0,0.5
					c1.2,154.4,106.7,288.4,256.4,325.9c0.8,0.2,1.6-0.2,1.8-1c0.2-0.6,0-1.2-0.5-1.5c-47.3-44.3-49.6-118.6-5.3-165.8
					c9.5-10.1,20.7-18.5,33.1-24.7c0.9-0.4,1.3-1.5,0.9-2.4c-0.2-0.4-0.5-0.8-0.9-0.9C878.2,695.2,842.8,643.1,842.7,585z"/>
			</g>
			<g>
				<path class="st15" d="M1126.6,585c0.1,53.8,43.4,97.5,97.2,98.1c54.9-0.3,99.2-45,98.9-99.9c0-0.2,0-0.3,0-0.5
					c-1.2-153.9-106-287.6-255.1-325.6c-1-0.3-2,0.3-2.3,1.3c-0.2,0.6,0,1.4,0.5,1.8c46.8,44.8,48.4,119,3.7,165.8
					c-9.3,9.7-20.2,17.8-32.2,23.8c-0.9,0.4-1.3,1.5-0.9,2.5c0.2,0.4,0.5,0.7,0.9,0.9C1091.1,474.8,1126.5,527,1126.6,585z"/>
			</g>
			<g>
				<path class="st16" d="M981.1,439.5c53.8-0.1,97.6-43.5,98-97.3c-0.2-54.9-44.9-99.2-99.8-98.9c-0.2,0-0.4,0-0.5,0
					c-153.9,1.2-287.6,106-325.6,255.2c-0.2,1,0.4,2,1.4,2.2c0.6,0.1,1.3,0,1.7-0.5c44.8-46.8,119-48.4,165.8-3.6
					c9.8,9.4,17.9,20.4,23.9,32.5c0.4,0.9,1.5,1.2,2.3,0.8c0.3-0.2,0.6-0.5,0.8-0.8C870.7,475.1,923,439.6,981.1,439.5z"/>
			</g>
			<g>
				<path class="st16" d="M981.1,723.4c-53.8,0-97.6,43.4-98.1,97.2c0.2,54.9,44.9,99.2,99.8,98.9c0.2,0,0.4,0,0.5,0
					c153.9-1.2,287.6-106,325.6-255.1c0.3-1-0.3-2-1.3-2.3c-0.7-0.2-1.3,0-1.8,0.5c-44.8,46.8-119,48.4-165.8,3.7
					c-9.7-9.3-17.8-20.2-23.8-32.2c-0.4-0.9-1.6-1.3-2.5-0.9c-0.4,0.2-0.7,0.5-0.9,0.9C1091.3,687.9,1039.1,723.3,981.1,723.4z"/>
			</g>
			<g>
				<path class="st16" d="M839.1,581.4c-0.1-53.8-43.4-97.6-97.3-98.1c-54.9,0.3-99.2,45-98.9,99.9c0,0.2,0,0.3,0,0.5
					c1.3,154.3,106.7,288.3,256.4,325.9c0.8,0.2,1.6-0.2,1.8-1c0.2-0.6,0-1.2-0.5-1.5c-47.3-44.3-49.7-118.5-5.4-165.9
					c9.5-10.1,20.7-18.5,33.1-24.7c0.9-0.4,1.3-1.5,0.9-2.5c-0.2-0.4-0.5-0.7-0.9-0.9C874.6,691.5,839.3,639.4,839.1,581.4z"/>
			</g>
			<g>
				<path class="st16" d="M1123,581.4c0.1,53.8,43.4,97.6,97.3,98.1c54.9-0.3,99.2-45,98.9-99.9c0-0.1,0-0.3,0-0.4
					c-1.2-153.9-106.1-287.7-255.3-325.6c-1-0.2-2,0.4-2.2,1.4c-0.1,0.6,0,1.3,0.5,1.7c46.8,44.8,48.6,119,3.8,165.9
					c-9.2,9.7-20.1,17.7-32,23.7c-0.9,0.4-1.3,1.5-0.9,2.4c0.2,0.4,0.5,0.8,0.9,0.9C1087.7,471.3,1122.9,523.5,1123,581.4z"/>
			</g>
			<g>
				<path class="st17" d="M977.5,435.9c53.8,0.1,97.7-43.2,98.4-97c-0.3-54.9-45-99.2-99.9-98.9c-0.2,0-0.3,0-0.5,0
					c-153.9,1.1-287.7,105.7-325.9,254.7c-0.2,1,0.4,2,1.4,2.2c0.6,0.1,1.3,0,1.7-0.5c44.8-46.8,119.1-48.3,165.9-3.5
					c9.8,9.3,17.8,20.3,23.8,32.4c0.4,0.9,1.5,1.2,2.3,0.8c0.3-0.2,0.6-0.5,0.8-0.8C867.2,471.4,919.4,436,977.5,435.9z"/>
			</g>
			<g>
				<path class="st17" d="M977.5,719.8c-53.8,0.1-97.6,43.4-98.1,97.3c0.3,54.9,45,99.2,99.9,98.9c0.2,0,0.5,0,0.7,0
					c153.9-1.2,287.6-106,325.6-255.2c0.2-1-0.4-2-1.4-2.2c-0.6-0.1-1.3,0-1.7,0.5c-44.8,46.8-119.1,48.3-165.9,3.5
					c-9.7-9.3-17.7-20.2-23.7-32.1c-0.4-0.9-1.5-1.3-2.4-0.9c-0.4,0.2-0.8,0.5-0.9,0.9C1087.9,684.4,1035.7,719.8,977.5,719.8z"/>
			</g>
			<g>
				<path class="st17" d="M835.5,577.8c-0.1-53.8-43.4-97.5-97.2-98c-54.9,0.2-99.2,44.9-98.9,99.8c0,0.2,0,0.4,0,0.5
					C640.6,734.5,746,868.5,895.8,906c0.8,0.2,1.6-0.2,1.8-1c0.2-0.6,0-1.2-0.5-1.5c-47.2-44.3-49.6-118.6-5.2-165.9
					c9.5-10.1,20.6-18.4,33-24.6c0.9-0.4,1.3-1.5,0.9-2.5c-0.2-0.4-0.5-0.7-0.9-0.9C871,688,835.6,635.9,835.5,577.8z"/>
			</g>
			<g>
				<path class="st17" d="M1119.4,577.8c0.1,53.8,43.4,97.6,97.3,98.1c54.9-0.2,99.2-44.9,98.9-99.8c0-0.2,0-0.4,0-0.5
					c-1.2-153.9-106-287.6-255.2-325.6c-1-0.2-2,0.4-2.2,1.4c-0.1,0.6,0,1.3,0.5,1.7c46.8,44.8,48.4,119,3.7,165.8
					c-9.3,9.7-20.2,17.8-32.2,23.8c-0.9,0.4-1.3,1.5-0.9,2.5c0.2,0.4,0.5,0.7,0.9,0.9C1084,467.7,1119.3,519.8,1119.4,577.8z"/>
			</g>
			<g>
				<path class="st18" d="M974,432.3c53.8-0.1,97.5-43.4,98.1-97.2c-0.2-54.9-44.9-99.2-99.8-98.9c-0.2,0-0.4,0-0.5,0
					c-153.9,1.2-287.6,106-325.6,255.1c-0.3,1,0.3,2,1.3,2.3c0.7,0.2,1.3,0,1.8-0.5c44.8-46.8,119.1-48.4,165.9-3.6
					c9.8,9.4,17.9,20.3,23.9,32.4c0.4,0.8,1.4,1.2,2.2,0.8c0.4-0.2,0.7-0.5,0.8-0.8C863.7,467.9,915.9,432.4,974,432.3z"/>
			</g>
			<g>
				<path class="st18" d="M974,716.5c-53.8,0.1-97.6,43.4-98.1,97.3c0.3,54.9,45,99.2,99.9,98.9c0.2,0,0.3,0,0.5,0
					c153.9-1.2,287.6-106,325.6-255.2c0.2-1-0.4-2-1.4-2.2c-0.6-0.1-1.3,0-1.7,0.5c-44.8,46.8-119,48.4-165.8,3.7
					c-9.7-9.3-17.8-20.2-23.8-32.2c-0.4-0.9-1.6-1.3-2.5-0.9c-0.4,0.2-0.7,0.5-0.9,0.9C1084.2,681,1032.1,716.4,974,716.5z"/>
			</g>
			<g>
				<path class="st18" d="M832,574.3c-0.1-53.8-43.4-97.6-97.3-98.1c-54.9,0.2-99.2,44.9-98.9,99.8c0,0.2,0,0.4,0,0.5
					c1.3,154.3,106.7,288.2,256.4,325.7c0.8,0.3,1.6-0.1,1.9-0.9c0.2-0.6,0-1.3-0.5-1.7c-47.3-44.3-49.7-118.5-5.4-165.8
					c9.5-10.1,20.7-18.5,33.1-24.7c0.9-0.4,1.3-1.5,0.9-2.4c-0.2-0.4-0.5-0.8-0.9-0.9C867.5,684.3,832.2,632.3,832,574.3z"/>
			</g>
			<g>
				<path class="st18" d="M1115.8,574.3c0.1,53.8,43.4,97.6,97.3,98.1c54.9-0.3,99.2-45,98.9-99.9c0-0.2,0-0.3,0-0.5
					c-1.2-153.9-106-287.6-255.1-325.6c-1-0.3-2,0.3-2.3,1.3c-0.2,0.6,0,1.4,0.5,1.8c46.8,44.8,48.4,119,3.7,165.8
					c-9.3,9.7-20.2,17.8-32.2,23.8c-0.9,0.4-1.3,1.5-0.9,2.5c0.2,0.4,0.5,0.7,0.9,0.9C1080.4,464.1,1115.8,516.3,1115.8,574.3z"/>
			</g>
			<g>
				<path class="st19" d="M970.3,428.8c53.8-0.1,97.6-43.4,98.1-97.3c-0.2-54.9-44.9-99.2-99.8-98.9c-0.2,0-0.4,0-0.6,0
					c-153.9,1.2-287.6,106-325.6,255.2c-0.2,1,0.4,2,1.4,2.2c0.6,0.1,1.3,0,1.7-0.5c44.8-46.8,119-48.4,165.8-3.7
					c9.8,9.4,17.9,20.4,23.9,32.5c0.3,0.9,1.3,1.3,2.2,0.9c0.4-0.2,0.8-0.5,0.9-0.9C859.9,464.3,912.2,428.9,970.3,428.8z"/>
			</g>
			<g>
				<path class="st19" d="M970.3,712.6c-53.8,0-97.6,43.4-98.2,97.3c0.3,54.9,45,99.2,99.9,98.9c0.2,0,0.3,0,0.5,0
					c153.9-1.2,287.6-106,325.6-255.2c0.2-1-0.4-2-1.4-2.2c-0.6-0.1-1.3,0-1.7,0.5c-44.8,46.8-119,48.4-165.8,3.7
					c-9.7-9.3-17.8-20.2-23.8-32.2c-0.4-0.9-1.6-1.3-2.5-0.9c-0.4,0.2-0.7,0.5-0.9,0.9C1080.5,677.2,1028.3,712.5,970.3,712.6z"/>
			</g>
			<g>
				<path class="st19" d="M828.4,570.7c-0.1-53.8-43.4-97.6-97.3-98.1c-54.9,0.4-99.1,45.2-98.7,100.1c0,0.1,0,0.2,0,0.2
					c1.2,154.4,106.7,288.4,256.4,325.9c0.8,0.2,1.6-0.3,1.8-1.1c0.1-0.6-0.1-1.2-0.5-1.5c-47.3-44.3-49.7-118.5-5.4-165.8
					c9.5-10.1,20.7-18.5,33.1-24.7c0.9-0.4,1.3-1.5,0.9-2.5c-0.2-0.4-0.5-0.7-0.9-0.9C863.9,680.9,828.5,628.8,828.4,570.7z"/>
			</g>
			<g>
				<path class="st19" d="M1112.3,570.7c0.1,53.8,43.4,97.5,97.2,98.1c54.9-0.2,99.2-44.9,99-99.8c0-0.2,0-0.4,0-0.5
					c-1.3-153.8-106.1-287.4-255.2-325.4c-1-0.3-2,0.3-2.3,1.3c-0.2,0.6,0,1.4,0.5,1.8c46.8,44.8,48.4,119,3.7,165.8
					c-9.3,9.7-20.2,17.8-32.2,23.8c-0.9,0.4-1.3,1.5-0.9,2.5c0.2,0.4,0.5,0.7,0.9,0.9C1076.8,460.7,1112.1,512.7,1112.3,570.7z"/>
			</g>
			<g>
				<path class="st20" d="M966.8,425.2c53.8-0.1,97.6-43.5,98-97.3c-0.2-54.9-44.9-99.2-99.8-98.9c-0.2,0-0.4,0-0.5,0
					c-153.9,1.2-287.6,106-325.6,255.2c-0.2,1,0.4,2,1.4,2.2c0.6,0.1,1.3,0,1.7-0.5c44.8-46.8,119-48.4,165.8-3.6
					c9.8,9.4,17.9,20.4,23.9,32.5c0.4,0.9,1.5,1.2,2.3,0.8c0.3-0.2,0.6-0.5,0.8-0.8C856.4,460.8,908.6,425.3,966.8,425.2z"/>
			</g>
			<g>
				<path class="st20" d="M966.8,709.1c-53.8,0-97.6,43.4-98.1,97.3c0.2,54.9,44.9,99.2,99.8,98.9c0.2,0,0.4,0,0.5,0
					c153.9-1.2,287.6-106,325.6-255.1c0.3-1-0.3-2-1.3-2.3c-0.7-0.2-1.3,0-1.8,0.5c-44.8,46.8-119,48.4-165.8,3.7
					c-9.7-9.3-17.8-20.2-23.8-32.2c-0.4-0.9-1.6-1.3-2.5-0.9c-0.4,0.2-0.7,0.5-0.9,0.9C1076.9,673.7,1024.8,709,966.8,709.1z"/>
			</g>
			<g>
				<path class="st20" d="M824.8,567.1c-0.1-53.8-43.4-97.6-97.3-98.1c-54.9,0.3-99.2,45.1-98.9,100c0,0.1,0,0.2,0,0.4
					c1.3,154.4,106.7,288.3,256.4,325.9c0.8,0.2,1.6-0.2,1.8-1c0.2-0.6,0-1.2-0.5-1.5c-47.2-44.3-49.6-118.6-5.3-165.8
					c9.5-10.1,20.6-18.4,33-24.6c0.9-0.4,1.3-1.5,0.9-2.5c-0.2-0.4-0.5-0.7-0.9-0.9C860.2,677.3,824.9,625.1,824.8,567.1z"/>
			</g>
			<g>
				<path class="st20" d="M1108.7,567.1c0.1,53.8,43.4,97.6,97.3,98.1c54.9-0.3,99.2-45,98.9-99.9c0-0.1,0-0.3,0-0.4
					c-1.2-153.9-106-287.6-255.2-325.6c-1-0.2-2,0.4-2.2,1.4c-0.1,0.6,0,1.3,0.5,1.7c46.8,44.8,48.4,119.1,3.5,165.9
					c-9.3,9.7-20.1,17.7-32.1,23.7c-0.9,0.4-1.3,1.5-0.9,2.4c0.2,0.4,0.5,0.8,0.9,0.9C1073.2,456.9,1108.6,509.1,1108.7,567.1z"/>
			</g>
			<g>
				<path class="st21" d="M963.2,421.6c53.8-0.1,97.6-43.4,98.1-97.3c-0.3-54.9-45-99.2-99.9-98.9c-0.2,0-0.3,0-0.5,0
					c-153.9,1.2-287.6,106-325.6,255.2c-0.2,1,0.4,2,1.4,2.2c0.6,0.1,1.3,0,1.7-0.5c44.9-46.8,119.2-48.3,166-3.5
					c9.7,9.3,17.8,20.3,23.8,32.3c0.4,0.8,1.4,1.2,2.2,0.8c0.4-0.2,0.7-0.5,0.8-0.8C852.8,457.2,905,421.7,963.2,421.6z"/>
			</g>
			<g>
				<path class="st21" d="M963.2,705.5c-53.8,0.1-97.6,43.4-98.1,97.3c0.3,54.9,45,99.2,99.9,98.9c0.1,0,0.3,0,0.4,0
					c153.9-1.2,287.6-106,325.6-255.2c0.2-1-0.4-2-1.4-2.2c-0.6-0.1-1.3,0-1.7,0.5c-44.8,46.8-119.1,48.3-165.9,3.5
					c-9.7-9.3-17.7-20.2-23.7-32.1c-0.4-0.9-1.5-1.3-2.4-0.9c-0.4,0.2-0.8,0.5-0.9,0.9C1073.4,670,1021.2,705.4,963.2,705.5z"/>
			</g>
			<g>
				<path class="st21" d="M821.2,563.6c0-53.8-43.4-97.6-97.2-98.1c-54.9,0.2-99.2,44.9-98.9,99.8c0,0.2,0,0.4,0,0.5
					c1.2,154.4,106.6,288.4,256.4,325.9c0.8,0.2,1.6-0.2,1.8-1c0.2-0.6,0-1.2-0.5-1.5c-47.3-44.3-49.8-118.5-5.5-165.8
					c9.5-10.2,20.8-18.6,33.2-24.8c0.9-0.4,1.3-1.5,0.9-2.5c-0.2-0.4-0.5-0.7-0.9-0.9C856.7,673.6,821.4,621.5,821.2,563.6z"/>
			</g>
			<g>
				<path class="st21" d="M1105.1,563.6c0.1,53.8,43.4,97.5,97.3,98c54.9-0.2,99.2-44.9,98.9-99.8c0-0.2,0-0.4,0-0.5
					c-1.2-153.9-106.1-287.7-255.3-325.6c-1-0.2-2,0.4-2.2,1.4c-0.1,0.6,0,1.3,0.5,1.7c46.9,44.7,48.6,118.9,3.9,165.8
					c-9.3,9.7-20.1,17.8-32.1,23.8c-0.9,0.4-1.3,1.5-0.9,2.5c0.2,0.4,0.5,0.7,0.9,0.9C1069.8,453.4,1105,505.6,1105.1,563.6z"/>
			</g>
			<g>
				<path class="st22" d="M959.6,418c53.8,0.1,97.7-43.2,98.3-97.1c-0.2-54.9-44.9-99.2-99.8-98.9c-0.2,0-0.4,0-0.5,0
					c-153.9,1-287.7,105.7-325.8,254.7c-0.2,1,0.4,2,1.4,2.2c0.6,0.1,1.2,0,1.7-0.4c44.8-46.8,119.1-48.4,165.9-3.6
					c9.8,9.4,17.9,20.3,23.9,32.4c0.4,0.8,1.4,1.2,2.2,0.8c0.4-0.2,0.7-0.5,0.8-0.8C849.3,453.4,901.5,418.1,959.6,418z"/>
			</g>
			<g>
				<path class="st22" d="M959.6,701.9c-53.8,0.1-97.6,43.4-98.1,97.3c0.3,54.9,45,99.2,99.9,98.9c0.2,0,0.4,0,0.7,0
					c153.9-1.2,287.6-106,325.6-255.2c0.2-1-0.4-2-1.4-2.2c-0.6-0.1-1.3,0-1.7,0.5c-44.8,46.8-119,48.4-165.8,3.7
					c-9.7-9.3-17.8-20.2-23.8-32.2c-0.4-0.9-1.6-1.3-2.5-0.9c-0.4,0.2-0.7,0.5-0.9,0.9C1069.9,666.5,1017.7,701.9,959.6,701.9z"/>
			</g>
			<g>
				<path class="st22" d="M817.7,560c-0.1-53.8-43.4-97.6-97.3-98.1c-54.9,0.2-99.2,44.9-98.9,99.8c0,0.2,0,0.4,0,0.5
					c1.2,154.5,106.8,288.5,256.7,325.9c0.8,0.3,1.6-0.1,1.9-0.9c0.2-0.6,0-1.3-0.5-1.7c-47.3-44.3-49.7-118.5-5.4-165.8
					c9.5-10.1,20.7-18.5,33.1-24.7c0.9-0.4,1.3-1.5,0.9-2.4c-0.2-0.4-0.5-0.8-0.9-0.9C853.3,670.3,817.8,618.1,817.7,560z"/>
			</g>
			<g>
				<path class="st22" d="M1101.6,560c0.1,53.8,43.4,97.5,97.2,98.1c54.9-0.3,99.2-45,98.9-100c0-0.1,0-0.3,0-0.4
					c-1.2-153.9-106-287.6-255.1-325.6c-1-0.3-2,0.3-2.3,1.3c-0.2,0.6,0,1.4,0.5,1.8c46.8,44.8,48.4,119,3.7,165.8
					c-9.3,9.7-20.2,17.8-32.2,23.8c-0.9,0.4-1.3,1.5-0.9,2.5c0.2,0.4,0.5,0.7,0.9,0.9C1066.1,449.8,1101.5,501.9,1101.6,560z"/>
			</g>
			<g>
				<path class="st23" d="M956,414.5c53.8-0.1,97.6-43.4,98.1-97.3c-0.2-54.9-44.9-99.2-99.8-98.9c-0.2,0-0.4,0-0.5,0
					c-153.9,1.2-287.6,106-325.6,255.2c-0.2,1,0.4,2,1.4,2.2c0.6,0.1,1.3,0,1.7-0.5c44.8-46.8,119-48.4,165.8-3.7
					c9.8,9.4,17.9,20.4,23.9,32.5c0.3,0.9,1.3,1.3,2.2,0.9c0.4-0.2,0.8-0.5,0.9-0.9C845.7,450,897.9,414.6,956,414.5z"/>
			</g>
			<g>
				<path class="st23" d="M956,698.5c-53.8,0.1-97.6,43.4-98.1,97.3c0.3,54.9,45,99.2,99.9,98.9c0.2,0,0.3,0,0.5,0
					c153.9-1.2,287.6-106,325.6-255.1c0.3-1-0.3-2-1.3-2.3c-0.7-0.2-1.3,0-1.8,0.5c-44.8,46.8-119,48.4-165.8,3.7
					c-9.7-9.3-17.8-20.2-23.8-32.2c-0.4-0.9-1.6-1.3-2.5-0.9c-0.4,0.2-0.7,0.5-0.9,0.9C1066.3,663.1,1014.1,698.4,956,698.5z"/>
			</g>
			<g>
				<path class="st23" d="M814.1,556.4c-0.1-53.8-43.4-97.6-97.3-98.1c-54.9,0.3-99.2,45-98.9,99.9c0,0.2,0,0.3,0,0.5
					C619.1,713,724.6,847,874.3,884.5c0.8,0.2,1.6-0.2,1.8-1c0.2-0.6,0-1.2-0.5-1.5c-47.3-44.3-49.7-118.5-5.4-165.8
					c9.5-10.1,20.7-18.5,33.1-24.7c0.9-0.4,1.3-1.5,0.9-2.5c-0.2-0.4-0.5-0.7-0.9-0.9C849.5,666.6,814.2,614.4,814.1,556.4z"/>
			</g>
			<g>
				<path class="st23" d="M1097.9,556.4c0.1,53.8,43.4,97.5,97.2,98.1c54.9-0.2,99.2-44.9,99-99.8c0-0.2,0-0.4,0-0.5
					c-1.3-153.9-106.1-287.6-255.2-325.6c-1-0.2-2,0.4-2.2,1.4c-0.1,0.6,0,1.3,0.5,1.7c46.8,44.9,48.3,119.2,3.5,166
					c-9.3,9.7-20.1,17.7-32.1,23.7c-0.9,0.4-1.3,1.5-0.9,2.4c0.2,0.4,0.5,0.8,0.9,0.9C1062.5,446.2,1097.9,498.3,1097.9,556.4z"/>
			</g>
			<g>
				<path class="st24" d="M952.5,410.8c53.8-0.1,97.5-43.5,98-97.3c-0.3-54.9-45-99.1-99.8-98.9c-0.2,0-0.4,0-0.6,0
					c-153.9,1.2-287.6,106-325.6,255.2c-0.2,1,0.4,2,1.4,2.2c0.6,0.1,1.3,0,1.7-0.5c44.8-46.8,119-48.4,165.8-3.6
					c9.8,9.4,18,20.5,24,32.7c0.4,0.9,1.5,1.2,2.3,0.8c0.3-0.2,0.6-0.5,0.8-0.8C842,446.6,894.2,411,952.5,410.8z"/>
			</g>
			<g>
				<path class="st24" d="M952.5,694.8c-53.9-0.1-97.8,43.3-98.3,97.2c0.2,54.9,44.9,99.2,99.8,98.9c0.2,0,0.4,0,0.5,0
					c153.9-1.2,287.6-106,325.6-255.1c0.3-1-0.3-2-1.3-2.3c-0.7-0.2-1.3,0-1.8,0.5c-44.8,46.8-119,48.4-165.8,3.7
					c-9.7-9.3-17.8-20.2-23.8-32.2c-0.4-0.9-1.6-1.3-2.5-0.9c-0.4,0.2-0.7,0.5-0.9,0.9C1062.5,659.2,1010.4,694.6,952.5,694.8z"/>
			</g>
			<g>
				<path class="st24" d="M810.5,552.8c-0.1-53.8-43.4-97.6-97.3-98.1c-54.9,0.4-99.2,45.2-98.8,100.2c0,0.1,0,0.1,0,0.2
					c1.3,154.4,106.7,288.3,256.4,325.9c0.8,0.3,1.6-0.2,1.9-1c0.2-0.7,0-1.4-0.6-1.8c-47.2-44.3-49.6-118.6-5.2-165.8
					c9.5-10.1,20.6-18.4,33-24.6c0.9-0.4,1.3-1.5,0.9-2.5c-0.2-0.4-0.5-0.7-0.9-0.9C846,662.9,810.7,610.8,810.5,552.8z"/>
			</g>
			<g>
				<path class="st24" d="M1094.4,552.8c0.1,53.8,43.4,97.6,97.3,98.1c54.9-0.3,99.2-45,98.9-99.9c0-0.1,0-0.3,0-0.4
					c-1.2-153.9-106-287.6-255.2-325.5c-1-0.2-2,0.4-2.2,1.4c-0.1,0.6,0,1.3,0.5,1.7c46.8,44.8,48.4,119.1,3.5,165.9
					c-9.3,9.7-20.1,17.7-32.1,23.7c-0.9,0.4-1.3,1.5-0.9,2.4c0.2,0.4,0.5,0.8,0.9,0.9C1058.9,442.7,1094.2,494.8,1094.4,552.8z"/>
			</g>
			<g>
				<path class="st25" d="M948.9,407.3c53.8-0.1,97.6-43.4,98.1-97.3c-0.3-54.9-45-99.2-99.9-98.9c-0.2,0-0.3,0-0.5,0
					C792.7,212.3,659,317.1,621,466.3c-0.2,1,0.4,2,1.4,2.2c0.6,0.1,1.3,0,1.7-0.5c44.9-46.8,119.2-48.3,166-3.5
					c9.7,9.3,17.8,20.3,23.8,32.3c0.4,0.8,1.4,1.2,2.2,0.8c0.4-0.2,0.7-0.5,0.8-0.8C838.5,442.9,890.7,407.4,948.9,407.3z"/>
			</g>
			<g>
				<path class="st25" d="M948.9,691.2c-53.8,0.1-97.5,43.4-98.1,97.2c0.3,54.9,45,99.2,99.9,98.9c0.1,0,0.3,0,0.4,0
					c153.9-1.2,287.6-106,325.6-255.2c0.2-1-0.4-2-1.4-2.2c-0.6-0.1-1.3,0-1.7,0.5c-44.8,46.8-119.1,48.4-165.9,3.5
					c-9.7-9.3-17.7-20.1-23.7-32.1c-0.4-0.9-1.5-1.3-2.4-0.9c-0.4,0.2-0.8,0.5-0.9,0.9C1059.1,655.7,1006.9,691.1,948.9,691.2z"/>
			</g>
			<g>
				<path class="st25" d="M806.9,549.3c0-53.8-43.4-97.6-97.2-98.1c-54.9,0.2-99.2,44.9-98.9,99.8c0,0.2,0,0.4,0,0.5
					c1.2,154.4,106.6,288.4,256.4,325.9c0.8,0.2,1.6-0.2,1.8-1c0.2-0.6,0-1.2-0.5-1.5c-47.3-44.3-49.6-118.6-5.3-165.9
					c9.5-10.1,20.6-18.4,32.9-24.6c0.9-0.4,1.3-1.5,0.9-2.5c-0.2-0.4-0.5-0.7-0.9-0.9C842.3,659.4,807,607.3,806.9,549.3z"/>
			</g>
			<g>
				<path class="st25" d="M1090.8,549.3c0.1,53.8,43.4,97.5,97.3,98c54.9-0.2,99.2-44.9,98.9-99.8c0-0.2,0-0.4,0-0.5
					c-1.2-153.9-106-287.6-255.2-325.6c-1-0.2-2,0.4-2.2,1.4c-0.1,0.6,0,1.3,0.5,1.7c46.8,44.8,48.4,119,3.7,165.8
					c-9.3,9.7-20.2,17.8-32.2,23.8c-0.9,0.4-1.3,1.5-0.9,2.5c0.2,0.4,0.5,0.7,0.9,0.9C1055.3,439.1,1090.7,491.2,1090.8,549.3z"/>
			</g>
			<g>
				<path class="st26" d="M945.3,403.7c53.8-0.1,97.5-43.4,98.1-97.2c-0.2-54.9-44.9-99.2-99.8-98.9c-0.2,0-0.4,0-0.5,0
					c-153.9,1.2-287.6,106-325.6,255.2c-0.2,1,0.4,2,1.4,2.2c0.6,0.1,1.3,0,1.7-0.5c44.8-46.8,119-48.4,165.8-3.7
					c9.8,9.4,17.9,20.4,23.9,32.5c0.4,0.8,1.4,1.2,2.2,0.8c0.4-0.2,0.7-0.5,0.8-0.8C834.9,439.3,887.1,403.8,945.3,403.7z"/>
			</g>
			<g>
				<path class="st26" d="M945.3,687.6c-53.8,0.1-97.6,43.4-98.1,97.3c0.3,54.9,45,99.2,99.9,98.9c0.2,0,0.3,0,0.5,0
					c153.9-1.2,287.6-106,325.6-255.2c0.2-1-0.4-2-1.4-2.2c-0.6-0.1-1.3,0-1.7,0.5c-44.8,46.8-119,48.4-165.8,3.7
					c-9.7-9.3-17.8-20.2-23.8-32.2c-0.4-0.9-1.6-1.3-2.5-0.9c-0.4,0.2-0.7,0.5-0.9,0.9C1055.4,652.1,1003.3,687.5,945.3,687.6z"/>
			</g>
			<g>
				<path class="st26" d="M803.4,545.7c-0.1-53.8-43.4-97.6-97.3-98.1c-54.9,0.2-99.2,44.9-98.9,99.8c0,0.2,0,0.4,0,0.5
					c1.2,154.4,106.6,288.4,256.4,325.9c0.8,0.2,1.7-0.3,1.9-1.2c0.1-0.5,0-1.1-0.4-1.5c-47.3-44.2-49.9-118.4-5.7-165.8
					c9.6-10.2,20.9-18.7,33.4-24.9c0.9-0.4,1.3-1.5,0.9-2.4c-0.2-0.4-0.5-0.8-0.9-0.9C838.9,655.7,803.5,603.6,803.4,545.7z"/>
			</g>
			<g>
				<path class="st26" d="M1087.2,545.7c0.1,53.8,43.4,97.5,97.2,98.1c54.9-0.3,99.2-45,98.9-99.9c0-0.2,0-0.3,0-0.5
					c-1.2-153.9-106-287.6-255.1-325.6c-1-0.3-2,0.3-2.3,1.3c-0.2,0.6,0,1.4,0.5,1.8c46.9,44.6,48.8,118.9,4.1,165.8
					c-9.4,9.9-20.4,18-32.6,24.1c-0.9,0.4-1.3,1.5-0.9,2.5c0.2,0.4,0.5,0.7,0.9,0.9C1051.8,435.7,1087,487.8,1087.2,545.7z"/>
			</g>
			<g>
				<path class="st27" d="M941.7,400.2c53.9,0,97.7-43.3,98.3-97.2c-0.2-54.9-44.9-99.2-99.8-98.9c-0.2,0-0.4,0-0.5,0
					C785.7,205.2,652,310,614.1,459.2c-0.2,1,0.4,2,1.4,2.2c0.6,0.1,1.3,0,1.7-0.5c44.8-46.8,119-48.4,165.8-3.7
					c9.8,9.4,17.9,20.4,23.9,32.5c0.3,0.9,1.3,1.3,2.2,0.9c0.4-0.2,0.8-0.5,0.9-0.9C831.5,435.8,883.6,400.4,941.7,400.2z"/>
			</g>
			<g>
				<path class="st27" d="M941.7,684c-53.8,0.1-97.6,43.4-98.1,97.3c0.3,54.9,45,99.2,99.9,98.9c0.2,0,0.4,0,0.6,0
					c153.9-1.2,287.6-106,325.6-255.1c0.3-1-0.3-2-1.3-2.3c-0.7-0.2-1.3,0-1.8,0.5c-44.8,46.8-119,48.4-165.8,3.7
					c-9.7-9.3-17.8-20.2-23.8-32.2c-0.4-0.9-1.6-1.3-2.5-0.9c-0.4,0.2-0.7,0.5-0.9,0.9C1052,648.6,999.8,684,941.7,684z"/>
			</g>
			<g>
				<path class="st27" d="M799.8,542.1c-0.1-53.8-43.4-97.6-97.3-98.1c-54.9,0.3-99.2,45-98.9,99.9c0,0.2,0,0.3,0,0.5
					c1.3,154.4,106.8,288.4,256.6,325.9c0.8,0.2,1.6-0.2,1.8-1c0.2-0.6,0-1.2-0.5-1.5c-47.3-44.3-49.7-118.5-5.4-165.8
					c9.5-10.1,20.7-18.5,33.1-24.7c0.9-0.4,1.3-1.5,0.9-2.5c-0.2-0.4-0.5-0.7-0.9-0.9C835.3,652.3,799.9,600.1,799.8,542.1z"/>
			</g>
			<g>
				<path class="st27" d="M1083.6,542.1c0.1,53.8,43.4,97.5,97.2,98.1c54.9-0.3,99.2-45.1,98.8-100c0-0.1,0-0.2,0-0.4
					c-1.3-153.9-106.1-287.6-255.2-325.6c-1-0.2-2,0.4-2.2,1.4c-0.1,0.6,0,1.3,0.5,1.7c46.8,44.9,48.3,119.2,3.5,166
					c-9.3,9.7-20.1,17.7-32.1,23.7c-0.9,0.4-1.3,1.5-0.9,2.4c0.2,0.4,0.5,0.8,0.9,0.9C1048.1,431.8,1083.5,484,1083.6,542.1z"/>
			</g>
			<g>
				<path class="st28" d="M938.1,396.6c53.8-0.1,97.5-43.5,98-97.3c-0.2-54.9-44.9-99.2-99.8-98.9c-0.2,0-0.4,0-0.5,0
					c-153.9,1.2-287.6,106-325.6,255.2c-0.2,1,0.4,2,1.4,2.2c0.6,0.1,1.3,0,1.7-0.5c44.8-46.8,119-48.4,165.8-3.6
					c9.8,9.4,17.9,20.4,23.9,32.5c0.4,0.9,1.5,1.2,2.3,0.8c0.3-0.2,0.6-0.5,0.8-0.8C827.7,432.1,879.9,396.6,938.1,396.6z"/>
			</g>
			<g>
				<path class="st28" d="M938.1,680.5c-53.8,0-97.6,43.4-98.1,97.2c0.2,54.9,44.9,99.2,99.8,98.9c0.2,0,0.4,0,0.5,0
					c153.9-1.2,287.6-106,325.6-255.1c0.3-1-0.3-2-1.3-2.3c-0.7-0.2-1.3,0-1.8,0.5c-44.8,46.8-119,48.4-165.8,3.7
					c-9.7-9.3-17.8-20.2-23.8-32.2c-0.4-0.9-1.6-1.3-2.5-0.9c-0.4,0.2-0.7,0.5-0.9,0.9C1048.2,645,996.1,680.4,938.1,680.5z"/>
			</g>
			<g>
				<path class="st28" d="M796.2,538.5c-0.1-53.8-43.4-97.6-97.3-98.1c-54.9,0.3-99.2,45.1-98.9,100c0,0.1,0,0.2,0,0.4
					c1.3,154.4,106.7,288.3,256.4,325.9c0.8,0.2,1.6-0.2,1.8-1c0.2-0.6,0-1.2-0.5-1.5c-47.2-44.3-49.6-118.6-5.2-165.8
					c9.5-10.1,20.6-18.4,33-24.6c0.9-0.4,1.3-1.5,0.9-2.5c-0.2-0.4-0.5-0.7-0.9-0.9C831.6,648.7,796.3,596.5,796.2,538.5z"/>
			</g>
			<g>
				<path class="st28" d="M1080,538.5c0.1,53.8,43.4,97.6,97.3,98.1c54.9-0.3,99.2-45,98.9-99.9c0-0.1,0-0.3,0-0.4
					c-1.2-153.9-106-287.6-255.2-325.6c-1-0.2-2,0.4-2.2,1.4c-0.1,0.6,0,1.3,0.5,1.7c46.8,44.8,48.4,119.1,3.5,165.9
					c-9.3,9.7-20.1,17.7-32.1,23.7c-0.9,0.4-1.3,1.5-0.9,2.4c0.2,0.4,0.5,0.8,0.9,0.9C1044.6,428.3,1079.9,480.5,1080,538.5z"/>
			</g>
		</g>
		<g>
			<path class="st3" d="M796.2,538.5c-0.1-53.8-43.4-97.6-97.3-98.1c-54.9,0.3-99.2,45.1-98.9,100c0,0.1,0,0.2,0,0.4
				c1.3,154.4,106.7,288.3,256.4,325.9c0.8,0.2,1.6-0.2,1.8-1c0.2-0.6,0-1.2-0.5-1.5c-47.2-44.3-49.6-118.6-5.2-165.8
				c9.5-10.1,20.6-18.4,33-24.6c0.9-0.4,1.3-1.5,0.9-2.5c-0.2-0.4-0.5-0.7-0.9-0.9C831.6,648.7,796.3,596.5,796.2,538.5z"/>
		</g>
		<g>
			<path class="st3" d="M1080,538.5c0.1,53.8,43.4,97.6,97.3,98.1c54.9-0.3,99.2-45,98.9-99.9c0-0.1,0-0.3,0-0.4
				c-1.2-153.9-106-287.6-255.2-325.6c-1-0.2-2,0.4-2.2,1.4c-0.1,0.6,0,1.3,0.5,1.7c46.8,44.8,48.4,119.1,3.5,165.9
				c-9.3,9.7-20.1,17.7-32.1,23.7c-0.9,0.4-1.3,1.5-0.9,2.4c0.2,0.4,0.5,0.8,0.9,0.9C1044.6,428.3,1079.9,480.5,1080,538.5z"/>
		</g>
		<g class="st0">
			<path class="st7" d="M1159.2,453.8h-27.9l-6.9,18.8h-8.4l23.9-63.1h10.9l23.8,63.1h-8.6L1159.2,453.8z M1156.6,446.5l-10.6-29.4
				h-1.1l-10.8,29.4H1156.6z"/>
		</g>
		<g class="st0">
			<path class="st7" d="M698.7,610.6h8.2v63.1h-8.2V610.6z"/>
		</g>
		<g>
			<polygon class="st5" points="1568.1,321.4 1112.3,321.4 1112.3,318.4 1567.2,318.4 1729.1,201.7 1730.8,204.1 			"/>
		</g>
		<g class="st0">
			<path class="st1" d="M1705.4,375.8H1691l-2.7,8.1h-11.6l14.2-38.6h14.9l14.1,38.6h-11.8L1705.4,375.8z M1702.5,366.9l-3.9-12.1
				h-0.7l-4,12.1H1702.5z"/>
			<path class="st1" d="M1725.5,359.6c0-5.2,0.3-6.1,5.9-6.1c5.4,0,5.9,0.9,5.9,6.1c0,5.1-0.5,6-5.9,6
				C1725.8,365.6,1725.5,364.7,1725.5,359.6z M1725.5,378.2c0-5.2,0.3-6.1,5.9-6.1c5.4,0,5.9,0.9,5.9,6.1c0,5.1-0.5,6-5.9,6
				C1725.8,384.3,1725.5,383.4,1725.5,378.2z"/>
		</g>
		<g class="st0">
			<path class="st3" d="M1792,366c-1.4-1.3-2.7-2.4-3.9-3.7c-0.4,7.8-0.8,13.8-1.3,18.7c-0.4,6-3.4,7.6-10.3,8.3l-4.5,0.5l-2.7-9.2
				l3.7-0.2c3.8-0.3,4.7-0.8,5.1-4.2c0.3-3.7,0.5-8.8,0.7-11.3H1768c-0.6,12.1-3.4,17.6-14.4,25.7l-7.4-7
				c9.6-5.7,12.2-9.7,12.8-18.8h-3.9v-4.1c-1.7,1.6-3.5,3.2-5.6,5l-5.1-7.7c7.3-6,12.2-11.8,15.3-19.9l8.6,2.3
				c-2.4,6.5-5,11.2-8.8,15.7h23.1c-3.6-4.5-6.4-9.3-8.8-15.6l8.3-2.4c2.8,7.8,7.2,12.8,15,19.1L1792,366z"/>
			<path class="st3" d="M1851,365.8h-6.5v24h-8.4v-24h-4.5c-0.3,11.2-1.6,16.9-5.7,24.4l-8.4-4.5c3.7-5.7,5.2-9.7,5.6-17.4l-3.9,4.5
				c-0.7-1.1-2.1-3-3.4-4.7v22h-8.3V372c-1.9,3.6-4.2,7.1-6,9.1l-1.8-11.8c3.8-4.5,6.5-9.7,7.8-13.9v-0.2h-5.8v-8.5h5.8v-8.1
				l8.3,0.2v7.8h5.3v8.5h-5.3v6.1l2.4-2c1.3,1.3,3.6,3.9,5.1,6c0-1.6,0.1-3.3,0.1-5.1v-17.6c7.8-0.5,15.8-1.4,23.7-2.9l2.4,9
				c-5.3,0.9-12.6,1.9-17.7,2.2v5.8h19.4L1851,365.8L1851,365.8z"/>
		</g>
		<g class="st0">
			<path class="st29" d="M1548.5,436.5l2.1,0.1v23.3h-3.1v-22c-3.8,4.9-8.4,9.3-14.2,13.5l-2.3-2.5c8.5-5.8,14.4-12.5,18.4-19.8
				h-16.3V426h31.9v3.1h-11.9C1551.7,431.7,1550.2,434.1,1548.5,436.5z M1566.6,448.5l-2.3,2.8c-3.2-3.8-8.7-9.1-12.2-11.8l2-2.3
				C1557.9,440.1,1563.6,445,1566.6,448.5z"/>
			<path class="st29" d="M1606.6,456.1l-0.7,2.7c-4.8,0.2-9.9,0.2-14.7,0c-6-0.2-9.7-1.5-12.6-5.5c-1.2,2.6-3,4.8-5.5,7l-2.5-1.9
				c4.2-3.6,6.2-7.1,7.3-12.3l3,0.4c-0.3,1.5-0.7,2.8-1.1,4c1.9,3,4.2,4.6,7.5,5.3v-11.1h-15.7v-2.5h33.8v2.5h-15.1v4.2h12.2v2.5
				h-12.2v4.9c0.2,0,0.5,0,0.8,0C1596.1,456.5,1601.4,456.4,1606.6,456.1z M1600.4,439.1h-24.2v-13.9h24.2V439.1z M1579.2,427.7v3.2
				h18.2v-3.2H1579.2z M1597.3,436.6v-3.2h-18.2v3.2H1597.3z"/>
			<path class="st29" d="M1617.2,429.2c-1.3,2.1-2.8,4-4.2,5.6l-2.3-1.8c2.8-2.9,5.6-7.3,7-10.4l3.1,0.4c-0.6,1.1-1.2,2.3-1.9,3.5
				h10v2.6h-6.7l1.9,3.6l-2.3,1.3c-0.6-1.5-1.6-3.5-2.3-4.9L1617.2,429.2L1617.2,429.2z M1613.6,438.5l2.9,0.1v20.8h-2.9V438.5z
				 M1621.6,437.2l-1.9,2.3c-1.1-1.6-3.4-4.1-4.7-5.1l1.9-2C1618,433.4,1620.5,435.9,1621.6,437.2z M1635.7,455h-14.3v-14.4h14.3
				V455z M1623,434.5h20.6v20.1c0,3.9-0.9,4.5-5.7,4.9l-1.9,0.2l-1-2.8l2.6-0.2c2.9-0.2,2.9-0.6,2.9-2.7v-16.8H1623L1623,434.5
				L1623,434.5z M1624,443.1v3.5h9.1v-3.5H1624z M1633,452.5v-3.4h-9.1v3.4H1633z M1646.1,426.6v2.6h-7.4c0.6,1.2,1.3,2.5,1.8,3.4
				l-2.3,1.2c-0.6-1.4-1.5-3.4-2.3-4.7h-3.3c-0.9,1.7-1.9,3.2-2.9,4.6l-2.5-1.5c2.3-3,4.2-6.4,5.5-9.7l2.9,0.4
				c-0.5,1.1-1,2.3-1.6,3.4H1646.1z"/>
			<path class="st29" d="M1685.7,453h-15.9v7.2h-3V453H1651v-2.9h15.9v-4.4h-11.7v-17h6.6c-0.8-1.6-1.9-3.4-2.8-4.6l2.4-1.4
				c1.1,1.3,2.6,3.6,3.4,5.1l-1.2,0.8h7.8c1.5-1.9,3.1-4.4,3.9-6l2.7,1.2c-0.7,1.2-1.9,3.2-3,4.8h6.7v17h-11.7v4.4h15.9L1685.7,453
				L1685.7,453z M1658.1,431.4v4.4h8.7v-4.4H1658.1z M1666.8,442.9v-4.5h-8.7v4.5H1666.8z M1678.5,431.4h-8.7v4.4h8.7V431.4z
				 M1678.5,442.9v-4.5h-8.7v4.5H1678.5z"/>
			<path class="st29" d="M1703.6,440.8h18.1v2.8c-5.3,7.2-12.7,12.3-29.2,16.7l-1.5-2.9c15.7-3.8,22-8.2,26.8-14h-16.4
				c-0.5,0.5-0.9,1-1.5,1.5c2.4,1,5.7,2.7,7.4,3.9l-1.3,3c-1.9-1.6-5.9-3.9-8.2-4.9c-1.7,1.5-3.4,2.8-5.3,4.1l-1.7-2.4
				c4.8-3.1,9.5-7.7,12.3-12.1l2.9,1C1705.3,438.5,1704.5,439.7,1703.6,440.8z M1723,425.1v11.2h-29.7v-11.2H1723z M1696.2,433.7
				h6.3v-6h-6.3V433.7z M1705.2,427.7v6h6.1v-6H1705.2z M1720.2,427.7h-6.3v6h6.3V427.7z"/>
			<path class="st29" d="M1731.5,425.7h19.4v2.9h-9.7c-0.5,1.9-1.1,3.9-1.7,5.7h9.5v2.8c-2.3,10.4-6.8,16.7-16.2,23.5l-2-2.5
				c9.2-6.3,12.9-11.6,15.2-20.9h-7.6c-0.5,1.2-1.1,2.4-1.7,3.6c1.5,1,3.9,3.2,5,4.3l-1.7,2.8c-1.1-1.4-3.2-3.3-4.7-4.5
				c-1.1,1.7-2.2,3.4-3.4,4.9l-2.1-2c3.8-4.6,7.2-11.7,8.4-17.6h-6.6L1731.5,425.7L1731.5,425.7z M1755.8,450.8h-3v-23.3l3,0.1
				V450.8z M1763.7,423.9v30.5c0,3.3-1.3,4.6-6.3,4.9l-2.5,0.2l-1-3.1l3-0.2c3.1-0.2,3.6-0.9,3.6-3v-29.4L1763.7,423.9z"/>
			<path class="st29" d="M1778,434.5h-7.6V432h8.3v-8.3l2.7,0.2v8.1h7.3v2.5h-7.3v7.5h-2.7v-5c-2.1,2.3-4.7,4.5-8.1,6.3l-1.4-2.2
				C1772.8,439.4,1775.8,437,1778,434.5z M1785.8,457.6c-1.5-0.9-3.2-1.7-4.8-2.6c-2.3,1.7-5.5,3.2-10.2,4.8l-1.4-2.5
				c4-1.2,6.8-2.3,8.9-3.6c-2-1-4.1-1.9-6-2.6c0.8-1.2,1.5-2.5,2.2-3.8h-4.7v-2.4h5.9c0.5-1,0.9-2,1.2-2.8l2.6,0.9
				c-0.2,0.7-0.5,1.3-0.8,2h8.4v2.3c-1.1,2.3-2.2,4.2-4,6c1.2,0.6,2.4,1.1,3.8,1.8L1785.8,457.6z M1774.4,431.4
				c-0.5-1.8-1.7-4.3-2.6-5.7l2.2-0.8c0.8,1.2,2,3.8,2.6,5.7L1774.4,431.4z M1780.6,452c1.6-1.4,2.6-3,3.6-4.8h-6.6
				c-0.5,1-1.1,1.9-1.6,2.9C1777.4,450.7,1778.9,451.3,1780.6,452z M1781.8,437.3l1.6-1.5c1.4,1.1,3.5,3.1,5.1,5l-1.6,1.9
				C1785.4,440.8,1783.6,438.8,1781.8,437.3z M1784.8,431.4l-2-1.1c1-1.3,2.4-3.8,3.2-5.6l2.3,1
				C1787.4,427.4,1785.9,430,1784.8,431.4z M1806.1,457.7l-2.1,2.2c-3.1-2.5-5.5-4.9-7.4-7.5c-2,2.6-4.7,5-8.3,7.7l-1.9-2.3
				c3.8-2.5,6.6-5.1,8.4-8c-2.1-3.6-3.3-7.6-4-12c-0.4,0.8-0.9,1.5-1.4,2.3l-2.3-1.5c3.1-4.2,5.3-10.6,6.1-15.2l2.8,0.7
				c-0.4,1.9-1,3.8-1.7,5.8h10.5v2.9h-2.7c-0.7,7.4-1.6,12.5-4.1,17C1800.2,452.6,1802.8,455.1,1806.1,457.7z M1796.6,447
				c1.8-3.8,2.6-8.3,3.1-14.1h-6.3l-0.5,1.1C1793.5,439.1,1794.6,443.3,1796.6,447z"/>
			<path class="st29" d="M1817.7,443.3v11.7c0,3.3-0.9,4.1-4.6,4.3l-1.8,0.2l-0.8-2.7l2-0.2c2-0.2,2.4-0.5,2.4-2.3v-9.8
				c-2.1,0.8-4.1,1.6-5.4,2l-0.6-2.9c1.5-0.4,3.7-1.3,6-2.2v-7.6h-4.7V431h4.7v-7.3l2.8,0.1v7.2h3.8v2.8h-3.8v6.5
				c1.4-0.6,2.6-1.1,3.5-1.6l0.3,1.6l0.2,1.2C1820.7,442,1819.3,442.7,1817.7,443.3z M1836.7,442.3v4.5h6.3v13.1h-2.7v-2.1h-9.9v2.1
				h-2.7v-13.2h6.3v-4.5h-7.9c-0.4,7.7-1.6,12-4.8,17.3l-2.6-1.5c3.6-6.1,4.7-10.5,4.7-21.1v-11.3h20.3v9.8h-17.5v1.9
				c0,0.9,0,1.7,0,2.5h7.8v-3.4l2.8,0.1v3.3h9v2.5L1836.7,442.3L1836.7,442.3z M1826.1,428.3v4.6h14.7v-4.6H1826.1z M1840.2,449.4
				h-9.9v5.9h9.9V449.4z"/>
		</g>
		<g class="st0">
			<path class="st29" d="M1590,488.8c-0.6,8.1-2.3,12.5-6.8,19.4l-2.6-2.1c1.1-1.4,1.9-2.6,2.7-3.9c-3.4,0.8-8.3,1.6-12.5,2.4
				l-0.4-2.9c3.9-0.6,8.9-1.5,12.8-2.4l0.1,1.7l0.1,1c3.4-5.8,4-11.5,4.3-24.2c0-0.8,0.1-4.6,0.1-5.5l2.7,0.1c0,0.9-0.1,4.6-0.1,5.4
				c0,2.4-0.1,4.5-0.2,6.5c1.6,2.1,3.7,5.1,5.1,7.4l-2,2.4C1592.5,492.5,1591.2,490.5,1590,488.8z M1572,486.5l-0.7-3.1
				c0.8-0.3,1.1-0.5,1.4-1c1.5-1.7,4.1-6.6,5.7-10.7l2.8,1.2c-1.5,3.6-4,8.1-5.5,10.1c0.5,0,3.1-0.2,4.5-0.2
				c1.1-1.9,2.1-3.6,2.9-5.2l2.6,1.5c-2.1,4.3-5.9,10.6-8.3,13.7c1-0.1,5.5-0.9,6.5-1l0.2,3.1c-0.9,0.1-8.1,1.2-9.1,1.4
				c-0.8,0.1-1.5,0.2-2.2,0.4l-0.7-3.3c1.1-0.4,1.4-0.6,2.1-1.4c1.2-1.6,2.7-3.8,4.1-6.1c-1.7,0.1-4,0.2-4.7,0.3
				C1573.2,486.3,1572.8,486.4,1572,486.5z M1605.3,508c-3.2-4.7-5.4-9.6-6.7-16c-1.2,6.3-3.3,11.2-7.2,16.7l-2.6-2
				c6.5-8.6,8.2-15.6,8.2-29.8v-4.7l2.8,0.1l0,4.5c0,0.6,0,1.2,0,1.8c0.4,12,2.9,19.9,7.9,27.2L1605.3,508z"/>
			<path class="st29" d="M1618.8,488.6v19.6h-2.7v-19.9c-1.4,3.5-3.1,6.7-4.6,9.2l-2.2-1.7c2.2-3.4,5-8.6,6.6-13.7h-4.7v-2.8h4.8
				V472l2.7,0.1v7.1h2.8v2.8h-2.8v5l1-1c1.1,1.1,3.2,3.4,4,4.8l-1.9,2C1621.3,491.7,1619.9,489.9,1618.8,488.6z M1630.8,501.3
				l1.2,2.2c-2.5,1.6-6.6,3.8-10.1,5.1l-1.3-2.4C1624.2,505,1628.4,502.9,1630.8,501.3z M1632.6,484.3H1622v-2.5h5.9v-3.7h-4.8v-2.5
				h4.8V472l2.8,0.1v3.6h6.4V472l2.7,0.1v3.6h5.6v2.5h-5.6v3.7h7v2.5h-11.6v3h8.5v13.2h-19.6v-13.2h8.4L1632.6,484.3L1632.6,484.3z
				 M1627,489.6v3.3h5.6v-3.3H1627z M1627,498.3h5.6V495h-5.6V498.3z M1630.7,481.8h6.4v-3.7h-6.4V481.8z M1635.2,489.6v3.3h5.7
				v-3.3H1635.2z M1640.9,498.3V495h-5.7v3.3H1640.9z M1646.9,506l-1.1,2.5c-3.4-2.3-7.8-4.1-10.3-5l1.1-2.2
				C1639.2,502.2,1643.5,504,1646.9,506z"/>
			<path class="st29" d="M1667,498.8l0.3,3.3c-1.9,0.8-8,3.5-9.7,4.1c-0.8,0.4-2.2,1-3,1.5l-1.3-3.1c1.1-0.7,1.3-1,1.3-2v-29.8
				l3.1,0.1v11h9.4v3h-9.4v15.9C1659.2,502.1,1665.7,499.2,1667,498.8z M1685.4,497.5c-0.1,2-0.3,4.1-0.6,6.1
				c-0.4,1.9-1.8,3.1-5.7,3.3c-1.7,0.1-3.3,0.1-5,0c-3.4-0.2-4.9-1.2-4.9-5.3v-29.3l3.2,0.2v14.8c3.6-2.4,7.7-5.8,10.7-9.1l2.1,2.4
				c-3.5,3.9-8.8,7.9-12.8,10.5v9.5c0,2.5,0.5,3,2.9,3.1c1.1,0.1,2.2,0.1,3.2,0c2.3-0.2,3.1-0.5,3.4-2.2c0.3-1.7,0.5-3.5,0.5-5.2
				L1685.4,497.5z"/>
			<path class="st29" d="M1726.6,505.6l-1.8,2.9c-4.1-2.2-7.6-4.5-10.3-7.4c-2.7,3-6,5.4-10.3,7.7l-1.9-2.6
				c4.5-2.1,7.9-4.5,10.4-7.2c-1.9-2.4-3.4-5.2-4.6-8.5c-0.8,1-1.5,1.9-2.2,2.7l-1.6-1.5v0.6h-3.2v5.3c1.7-0.3,3.3-0.6,4.4-0.8
				l0.1,2.9c-1.1,0.2-2.8,0.5-4.6,0.8v8.2h-2.8v-7.8c-2.9,0.5-5.9,0.9-8,1.2l-0.4-3c2.1-0.2,5.3-0.6,8.4-1.1v-5.7h-6.6v-2.9
				c1.1-2.8,2-5.9,3-9.1h-3.8v-2.9h4.6c0.4-1.8,0.8-3.6,1.2-5.3l2.9,0.4c-0.4,1.7-0.8,3.3-1.2,4.9h6.8v2.9h-7.6
				c-0.9,3.3-1.9,6.3-2.9,9.2h3.7v-6.8l2.8,0.1v6.7h3.2v1.4c2.2-2.5,4.6-6.1,6.1-9.1l2.8,1c-1.4,2.6-3,5.1-4.7,7.3l2-0.9
				c1.1,3,2.3,5.5,4,7.7c1.5-2.2,2.7-4.7,3.6-7.6l2.8,0.6c-1.2,3.5-2.7,6.5-4.6,9C1718.9,501.5,1722.2,503.7,1726.6,505.6z
				 M1725,480.3h-19v-3.1h7.4c-0.4-1.5-1.1-3.5-1.5-4.6l3-0.6c0.5,1.1,1.3,3.6,1.8,5.1h8.4L1725,480.3L1725,480.3z M1718,481.4
				c2.1,2.1,6.1,7,7.6,9.5l-2.2,2c-1.6-2.9-5.4-7.6-7.5-9.7L1718,481.4z"/>
			<path class="st29" d="M1743.5,487.5c-0.6,1-1.2,1.9-1.9,2.8h18.4v18.1h-2.9v-1.8h-16.5v1.9h-2.9v-13.8c-1.9,1.8-4.2,3.6-6.8,5.4
				l-1.9-2.3c5-3.2,8.5-6.5,11-10.3h-9.3v-2.5h10.8c0.5-0.9,0.9-1.9,1.3-2.9h-8.5v-2.5h9.4c0.3-1,0.6-1.9,0.8-3
				c-3.8,0.2-7.6,0.3-11.3,0.4l-0.2-2.6c9.7-0.2,20.2-0.9,28.4-1.8l0.3,2.7c-4.2,0.4-9.1,0.8-14.1,1.1c-0.2,1.1-0.5,2.1-0.8,3.1
				h14.5v2.5h-15.3c-0.4,1-0.8,1.9-1.2,2.9h20v2.5L1743.5,487.5L1743.5,487.5z M1757.2,492.7h-16.5v2.5h16.5V492.7z M1740.7,499.8
				h16.5v-2.3h-16.5V499.8z M1757.2,504.2V502h-16.5v2.1H1757.2z"/>
			<path class="st29" d="M1804.6,508.7c-7.7-1.7-12.9-3.2-16.9-5.1c-4.1,2-9.5,3.6-16.9,5.2l-1.2-2.8c6.3-1.1,11.2-2.5,15-4.2
				c-2.6-1.7-4.6-3.8-6.6-6.7l2.4-1.4h-5.9V491h24.8v2.7c-2.3,3.4-4.8,6-8.4,8.2c3.6,1.5,8.4,2.6,15.2,3.9L1804.6,508.7z
				 M1771.8,491.1l-1.9-2.2c3.3-2.3,6.8-5.4,8.9-7.8l2,1.7C1778.7,485.2,1775,488.6,1771.8,491.1z M1782.4,479.1h-11.3v-2.7h15.5
				c-0.4-1.5-1.1-3.2-1.4-4.2l3-0.6c0.4,1,1.2,3.3,1.7,4.8h14.6v2.7h-11.3v10.3h-2.8v-10.3h-5.1v10.3h-2.8L1782.4,479.1
				L1782.4,479.1z M1787.6,500.4c3.3-1.9,5.7-4,7.6-6.6h-14.6C1782.7,496.6,1784.7,498.7,1787.6,500.4z M1796.7,480.9
				c2.3,1.6,6.6,5.3,8.5,7.4l-1.8,2.5c-1.9-2.4-6.2-6.3-8.5-7.9L1796.7,480.9z"/>
			<path class="st29" d="M1818.8,482.1v26.1h-3.2v-21c-1.5,2.1-3.1,4.2-4.8,6.1l-2-2.3c4.6-5.3,8.7-12.2,11.1-19l3,1
				C1821.7,476.4,1820.3,479.4,1818.8,482.1z M1845.1,497.1c0,1.6-0.2,3.7-0.6,5.3c-0.7,3.4-1.6,4.4-5.6,4.6c-2,0.1-4,0.1-6,0
				c-4-0.2-5.5-1.2-5.5-5.3v-7c-2,1.4-4.1,2.7-6.3,4l-1.6-2.7c2.7-1.6,5.4-3.3,8-5.2v-18.7l3.2,0.2v16c4-3.2,7.7-6.9,11.2-11
				l2.3,2.3c-4.2,4.7-8.5,8.9-13.5,12.7v8.6c0,2.3,0.8,2.8,3.1,2.9c1.5,0.1,3.1,0.1,4.7,0c2.5-0.1,2.9-0.6,3.3-2.6
				c0.3-1.4,0.4-3.3,0.5-5.1L1845.1,497.1z"/>
		</g>
		<g class="st0">
			<path class="st1" d="M222.9,350.9h18.1l3.8,19.4h0.3l4.3-19.4h17.4v38.6h-10.8v-28h-0.3l-5.5,21.8h-10.8l-5.3-21.8h-0.3v28h-10.7
				L222.9,350.9L222.9,350.9z"/>
			<path class="st1" d="M276.3,365.1c0-5.2,0.3-6.1,5.9-6.1c5.5,0,6,0.9,6,6.1c0,5.1-0.5,6-6,6C276.6,371.1,276.3,370.3,276.3,365.1
				z M276.3,383.8c0-5.2,0.3-6.1,5.9-6.1c5.5,0,6,0.9,6,6.1c0,5.1-0.5,6-6,6C276.6,389.8,276.3,388.9,276.3,383.8z"/>
		</g>
		<g class="st0">
			<path class="st3" d="M343.9,395.8c-7.7-1.4-13.3-2.7-18.2-4.6c-4.3,1.6-9.6,3.1-15.8,4.6l-3.8-6.5c-0.7,2.2-1.5,4.3-2.6,6.7
				l-8.3-4.1c3.3-7.9,5-13.2,5-24.2v-20.9h19.4l-0.8-2.7h10.1c0.3,0.8,0.6,1.8,0.8,2.7H346v7.6h-6.2v3h6.4v7.2h-6.4v7.3h-25.7v-7.3
				h-5.3v1.9c0,10.4-0.8,16.2-2.3,21.5c3.6-0.5,6.8-1.1,9.7-1.7c-1.7-1.2-3.5-2.5-5.2-3.9l2.9-2.5H310v-6.1h33.2v6.7
				c-2,2.1-4.3,3.9-7,5.7c3.2,0.5,6.9,1,11.3,1.5L343.9,395.8z M308.7,354.5v3h5.3v-3H308.7z M319.1,379.9c2,1.4,3.9,2.5,6.4,3.6
				c2.7-1,5.1-2.2,7.1-3.6H319.1z M331.3,354.5h-8.8v3h8.8V354.5z M331.3,366.7v-3h-8.8v3H331.3z"/>
			<path class="st3" d="M401.8,360.6v5.1h-50.5v-5.1H401.8z M380.8,389.3h20.1v5.7h-48.9v-5.7h20.2v-1.6H355v-4.5h17.2v-1.6h-16.7
				v-14.6h41.9v14.6h-16.6v1.6H398v4.5h-17.2L380.8,389.3L380.8,389.3z M397.8,359.1h-42.6v-13.8h42.6V359.1z M364.1,349.4v1.5h24.7
				v-1.5H364.1z M388.9,355.4V354h-24.7v1.4H388.9z M364.4,371.1v1.8h7.8v-1.8H364.4z M372.2,378.3v-1.7h-7.8v1.7H372.2z
				 M388.6,371.1h-7.8v1.8h7.8V371.1z M388.6,378.3v-1.7h-7.8v1.7H388.6z"/>
		</g>
		<g class="st0">
			<path class="st29" d="M240.1,449.8c-0.3,1-0.8,2.3-1.2,3.3H253v8.2c0,2.3-0.6,3.3-3.6,3.6l-2.5,0.2l-0.9-2.6l1.9-0.2
				c1.7-0.2,2.1-0.4,2.1-1.9v-5.1h-5.7v8.6h-2.7v-8.6h-5.4v8.6h-2.6v-8.6H228v9.6h-2.9v-11.9H236c0.4-1,0.8-2.3,1.1-3.3h-14.9v-2.3
				h33.8v2.3H240.1z M226,443.1h-2.8v-7.7h14.4V433h-13.2v-2.4h29.2v2.4h-13.2v2.5h14.4v7.7h-2.8v-5.3h-11.7v7.9h-2.8v-7.9H226
				L226,443.1L226,443.1z M235.4,441.6h-7.6v-1.9h7.6V441.6z M227.8,443.5h7.6v1.9h-7.6V443.5z M250.2,441.6h-7.6v-1.9h7.6V441.6z
				 M242.6,443.5h7.6v1.9h-7.6V443.5z"/>
			<path class="st29" d="M297.6,458.7l-2,2.9c-6.5-3.9-11.7-8.8-15.2-15.8V460c0,3.5-1.1,4.6-5.6,4.8l-2.2,0.1l-1-3.1l2.8-0.2
				c2.8-0.2,3-0.6,3-2.6v-8.2c-4.1,3.1-9.9,7.1-14.5,9.8l-2-2.7c5.6-3,12.4-7.6,16.5-10.8v-8.9h-14.7v-2.9h14.7v-6.6l3.1,0.2v6.4h8
				c-1.2-1.7-3.4-3.8-4.5-4.9l2-1.9c1.4,1.2,4,3.9,5.1,5.3l-1.3,1.5h5.8v2.9h-15v1.5c1.2,3,2.5,5.5,4,7.8c2.5-2.1,5.7-5.5,7.2-7.8
				l2.3,2.1c-1.9,2.5-5.2,5.9-7.8,8C289.1,453.5,292.8,456.3,297.6,458.7z M271.2,449.5c-1.4-2.4-4.8-6.1-6.6-7.7l1.9-1.9
				c1.8,1.5,5.3,5.2,6.7,7.2L271.2,449.5z"/>
			<path class="st29" d="M310.6,455.4c-2.5,0.6-7.6,1.4-9.9,1.7l-0.3-2.7c2.4-0.2,7.6-1,10-1.7l0.1,1.4L310.6,455.4z M312.1,446.7
				h2.2c0,0.7-0.6,12.3-0.7,13c-0.2,3.8-1.5,4.6-6.1,4.9l-2.3,0.1l-1-2.7l2.9-0.2c3-0.1,3.6-0.6,3.7-3.1l0.6-9.4h-8.9l1-14.1
				l2.6,0.1l-0.9,11.4h4l1-12.8h-9v-2.7h11.8L312.1,446.7z M336.6,460.8v2.9H317v-32.3h19.3v2.9h-16.5v26.6L336.6,460.8L336.6,460.8
				z M320.1,457c2.3-3,4.6-6.5,6.7-10.1c-2-3.5-4.2-6.8-5.8-8.9l2.2-1.5c1.5,1.9,3.3,4.6,5.1,7.6c1.5-2.7,2.8-5.4,3.9-8l2.6,0.8
				c-1.4,3.3-3.1,6.7-4.9,9.9c2.2,3.8,4.3,7.7,5.5,10.4l-2.3,1.8c-1-2.5-2.8-6-4.7-9.4c-1.9,3.3-4,6.4-6.1,9.2L320.1,457z"/>
			<path class="st29" d="M355,459.3c-3.1,0.4-8.9,1.3-10.2,1.5c-0.9,0.1-1.7,0.4-2.5,0.6l-1.1-3.1c1-0.4,1.4-1,1.8-1.8
				c1.1-2.3,3.1-7.5,4.3-11.5h-6.4v-2.9h17.6v2.9h-8.1c-1.1,3.9-3.3,10-4.7,12.6c1.3-0.2,5.7-0.8,8.4-1.1c-1-2.6-2.1-5.4-3-7.1
				l2.7-1c1.4,2.8,3.7,8.4,4.5,11.4l-2.6,1.7C355.5,460.8,355.3,460.1,355,459.3z M357.2,435h-14.3v-2.9h14.3V435z M374.5,436.6
				c-0.1,2.8-0.6,19-0.8,22.4c-0.1,3.9-1.4,4.7-6,5.3l-2.3,0.3l-0.9-3.1l2.6-0.2c3-0.3,3.7-0.8,3.8-3.6c0.1-2.6,0.6-15.4,0.7-18
				h-6.4c-0.5,14.2-1,18.6-7.6,26.5l-2.6-1.8c6.3-7.1,6.8-10.9,7.2-24.7h-5.1v-3h5.2c0.1-3.1,0.2-7.7,0.2-7.7l3,0.2
				c0,0,0,4.1-0.1,7.5L374.5,436.6L374.5,436.6z"/>
			<path class="st29" d="M416.2,441.5v2.1h-35.9v-2.1H416.2z M399.8,462.4h15.6v2.1h-34.2v-2.1h15.7V460h-12.9v-2.1h12.9v-2.3h-12
				v-9.8h26.8v9.8h-11.9v2.3h12.9v2.1h-12.9L399.8,462.4L399.8,462.4z M411.6,439.6h-26.7v-9.3h26.7V439.6z M387.9,447.7v2h8.9v-2
				H387.9z M396.9,453.6v-2h-8.9v2H396.9z M388,432.3v1.8h20.6v-1.8H388z M408.6,437.7v-1.8H388v1.8H408.6z M408.6,447.7h-8.9v2h8.9
				V447.7z M408.6,453.6v-2h-8.9v2H408.6z"/>
		</g>
		<g class="st0">
			<path class="st29" d="M257.1,550.3h-7.7v6.4c0,4-0.9,4.7-5.3,5l-3.4,0.3l-0.8-2.8l3.4-0.2c2.8-0.2,3-0.6,3-3.2v-5.5h-25.5v-2.8
				h25.5v-3.3l3.1,0.1v3.2h7.7L257.1,550.3L257.1,550.3z M252.1,543.2h-27.4v-2.7h24.4v-3.6h-22.8v-2.7h22.8v-3.5h-23.8v-2.8h26.8
				V543.2z M228.9,550.5c2.5,1.4,6.5,4.4,8.1,5.8l-1.8,2.7c-1.8-1.8-5.5-4.7-7.8-6.1L228.9,550.5z"/>
			<path class="st29" d="M297.6,555.8l-2,2.9c-6.5-3.9-11.7-8.8-15.2-15.8v14.1c0,3.5-1.1,4.6-5.6,4.8l-2.2,0.1l-1-3.1l2.8-0.2
				c2.8-0.2,3-0.6,3-2.6V548c-4.1,3.1-9.9,7.1-14.5,9.8l-2-2.7c5.6-3,12.4-7.6,16.5-10.8v-8.9h-14.7v-2.9h14.7v-6.6l3.1,0.2v6.4h8
				c-1.2-1.7-3.4-3.8-4.5-4.8l2-1.9c1.4,1.2,4,3.9,5.1,5.3l-1.3,1.5h5.8v2.9h-15v1.5c1.2,3,2.5,5.5,4,7.8c2.5-2.1,5.7-5.5,7.2-7.8
				l2.3,2.1c-1.9,2.5-5.2,5.9-7.8,8C289.1,550.6,292.8,553.4,297.6,555.8z M271.2,546.6c-1.4-2.3-4.8-6.1-6.6-7.7l1.9-1.9
				c1.8,1.5,5.3,5.2,6.7,7.2L271.2,546.6z"/>
			<path class="st29" d="M312.1,526.3l3.1,0.1l0,35.9H312V554c-2.4,1.4-6.6,3.3-10.4,4.7l-1.4-3.1c4-1.2,9.4-3.7,11.7-5.1l0-11.2
				h-9.9v-3h9.9L312.1,526.3L312.1,526.3z M336.5,552.1c0,1.8-0.1,3.5-0.5,5.7c-0.4,2.8-1.6,3-3.6,3.3c-1.1,0.2-5.5,0.2-7.8,0
				c-2.6-0.3-3.5-1.3-3.5-3.8l-0.1-31.2l3.3,0.1V539c3.6-1.8,6.6-3.8,9.6-6.4l1.9,2.8c-2.8,2.3-6.4,4.6-11.4,7.1l0-0.1v14
				c0,0.9,0.4,1.7,1.6,1.9c1.5,0.2,4.5,0.2,5.9-0.1c1.2-0.2,1.4-0.6,1.5-1.7c0.3-1.9,0.3-3.3,0.4-5.2L336.5,552.1z"/>
			<path class="st29" d="M349.2,542.8v19.6h-2.8v-19.5c-1.1,3.3-2.7,6.6-4.7,9.9l-2.3-2c2.5-3.8,5.5-8.8,6.8-14.1h-4.9v-2.9h5.1
				v-7.5l2.8,0.2v7.4h4.6v2.9h-4.6v4.4l1.2-0.8c1.2,1.4,3.2,4.3,4.1,6l-2.3,1.7C351.4,546.6,350.2,544.5,349.2,542.8z M377.4,559.7
				l-1.9,2.7c-3.6-2.4-6.5-4.8-8.8-7.4c-2.5,2.8-5.7,5.3-10,7.7l-1.8-2.3c4.3-2.3,7.6-4.7,10.1-7.5c-2.4-3.2-4-6.8-5.3-10.9
				c-0.6,8.1-1.9,13.1-7.6,19.9l-2.5-2c6.2-7.3,7.2-12,7.6-21.6c0.1-1.6,0.2-5.2,0.2-7.3h-4.6v-2.8H372v2.8l-3,7.3h5.2v2.8
				c-1.5,4.6-3.3,8.4-5.7,11.7C370.9,555.3,373.9,557.6,377.4,559.7z M366.7,550.5c2-2.8,3.4-5.9,4.6-9.5h-5.5v-2.4l3.1-7.6h-9
				c0,0.8-0.1,1.7-0.1,2.8C361.3,540.7,363.5,546,366.7,550.5z"/>
			<path class="st29" d="M415.1,558.2v2.6h-34.2v-2.6h16v-4h-11v-2.6h11V548h-9.7c-1.3,1.9-2.8,3.6-4.4,5.3l-2.1-2
				c2.8-2.8,5.4-6.3,7-9.9l2.5,1.4c-0.4,0.8-0.9,1.7-1.4,2.5h8v-3l3.1,0.1v2.9h13.4v2.6h-13.4v3.6h12v2.6h-12v4L415.1,558.2
				L415.1,558.2z M411,541.4h-25.8v-13.8H411V541.4z M388.2,530.1v3.2H408v-3.2H388.2z M408,539v-3.2h-19.8v3.2H408z"/>
			<path class="st29" d="M428.8,533.3h4.6v2.9h-4.6v7.2c1.4-0.5,2.8-1,3.7-1.4l0.3,1.3l0.4,1.6c-1.1,0.5-2.7,1-4.4,1.7v11.4
				c0,3.1-1.1,3.5-4.6,3.9l-1.9,0.2l-1-2.8l2-0.2c2-0.2,2.4-0.4,2.4-2.1v-9.4c-2,0.6-3.9,1.2-5.2,1.5l-0.6-3c1.5-0.4,3.6-1,5.9-1.7
				v-8.2h-4.9v-2.9h4.9v-7.1l3.1,0.1L428.8,533.3L428.8,533.3z M455.4,534.4c0,0.6-0.2,1.5-0.4,2.8c-0.5,3-1.3,3.6-4.6,3.8
				c-3.6,0.2-7.6,0.2-11.2,0c-3.4-0.2-4.6-1-4.6-4.7v-9.9l2.9,0.1v5.5c4.5-0.9,11.3-2.8,15.3-4.1l0.8,2.8c-4.3,1.3-11.1,3-16,4.1v1
				c0,1.9,0.5,2.4,2.4,2.5c3,0.2,6.4,0.2,9.4,0c2.3-0.2,2.7-0.5,3-2.4c0.1-0.8,0.2-1.7,0.2-2.4L455.4,534.4z M434.7,544.1h18.3v18.3
				h-3v-1.9h-12.4v2h-2.9V544.1z M437.5,546.7v4.4H450v-4.4H437.5z M450,557.8v-4.2h-12.4v4.2H450z"/>
			<path class="st29" d="M468.8,543.5v19.6h-3v-19.9c-1.4,3.4-3,6.5-4.8,9.1l-2.3-1.7c2.7-3.7,5.4-9.2,7-13.8h-5.2V534h5.3v-7.5
				l3,0.1v7.4h4.7v2.9h-4.7v4.8l1-0.9c1.2,1.2,3.6,4,4.6,5.5l-1.9,2.2C471.8,547,470.1,544.9,468.8,543.5z M480.2,546
				c-1.6,4.5-3.6,9.1-6.6,13.7l-2.8-1.4c2.9-4.2,5.2-9.4,6.7-13.4L480.2,546z M485.7,541.9v16.2c0,3.2-1.2,4-5.2,4.4l-1.9,0.2
				l-1-3.1l2.3-0.2c2.3-0.2,2.7-0.6,2.7-2.5v-15h-9.3v-3h22.5v3H485.7z M493.7,532h-18.4v-3h18.4L493.7,532L493.7,532z M496.7,558.2
				l-2.8,1.7c-1.1-3.8-4.3-10.5-6.2-13.5l2.5-1.3C492.2,548.1,495.4,554.8,496.7,558.2z"/>
		</g>
		<g class="st0">
			<path class="st1" d="M222.9,797.2h11.1v38.6h-11.1V797.2z"/>
			<path class="st1" d="M243.5,811.5c0-5.2,0.3-6.1,5.9-6.1c5.4,0,5.9,0.9,5.9,6.1c0,5.1-0.5,6-5.9,6
				C243.8,817.5,243.5,816.6,243.5,811.5z M243.5,830.2c0-5.2,0.3-6.1,5.9-6.1c5.4,0,5.9,0.9,5.9,6.1c0,5.1-0.5,6-5.9,6
				C243.8,836.2,243.5,835.3,243.5,830.2z"/>
		</g>
		<g class="st0">
			<path class="st3" d="M315.1,833.3l-5.7,8.5c-3.6-2.7-6.9-5.7-9.8-8.9c-3.1,3.2-6.9,6.1-11.6,9.2l-5.6-6.6c-3,1.2-6.6,2.6-8.7,3.7
				c-2.5,1.3-4.4,2.2-5.9,3l-4.4-8.7c2.1-1.8,2.6-2.9,2.6-5.5v-18.6h10.3v-7.7h-11.5v-9.1h20.1v14.5c3.8-5.3,6.3-10.9,7.7-16.6
				l9.4,0.8c-0.5,2-1.1,3.8-1.7,5.6h13.3v9.2h-1.8c-1,7.6-2.8,14-6.3,19.7C308.1,828.4,311.4,830.9,315.1,833.3z M285.5,832.2
				c3.4-2,6.2-4.1,8.6-6.5c-2.2-3.3-3.8-6.6-4.9-9.7l-1.7,1.8l-2.7-5.1v5.7h-10.1v10.6c2.4-1,8.7-3.8,10.3-4.7L285.5,832.2z
				 M296.2,805.9c-0.2,0.4-0.4,0.9-0.7,1.3c0.6,3.9,2,7.6,4,11c1.8-3.6,2.8-7.6,3.5-12.3H296.2z"/>
			<path class="st3" d="M370.2,832.3l-2,8.5c-8.5,0.4-18.1,0.6-26.6,0.2c-6.3-0.2-9.5-1.8-13.6-5.9c-2.2,2.5-5.2,5.8-6.7,7.3
				l-4.5-8.8c2.2-2.1,4.2-3.9,6.7-6.6v-10.7h-4.9v-8.5h13.1v19c2.5,3.8,5.8,5.5,10.8,5.9l-6.3-3.5c2-2.7,3-4.7,3.6-7.1h-4.7v-8.6
				h5.6c0.1-0.9,0.1-1.8,0.1-2.9v-3.5h-4.6v-8.6h4.6v-7.7l8.6,0.2v7.5h5.2V791l8.7,0.2v7.4h4v8.6h-4v6.3h5v8.6h-5v8.9h-8.7V822h-5.8
				c-0.6,4.6-1.8,7.5-3.9,10.7C353,833,361.9,832.7,370.2,832.3z M328.8,805.6c-2.1-2.4-7.2-7.5-9.3-9.2l6-6.3
				c2.2,1.6,6.8,5.7,9,8.3L328.8,805.6z M349.4,809.6c0,1.4,0,2.6-0.1,3.9h5.3v-6.3h-5.2L349.4,809.6L349.4,809.6z"/>
		</g>
		<g>
			<polygon class="st5" points="1556.7,771 1068.7,771 1068.7,768 1555.8,768 1729.1,651.3 1730.8,653.8 			"/>
		</g>
		<g class="st0">
			<path class="st1" d="M1705.4,788.1l-7.9-13h-2.2v13h-11.1v-38.6h15.7c9.8,0,14.9,3.7,14.9,12.9c0,6.2-2.1,9.8-6.7,11.6l10.3,14.1
				H1705.4z M1695.3,767.2h2.7c4.5,0,6-1.2,6-4.8c0-3.6-1.5-4.5-6-4.5h-2.7V767.2z"/>
			<path class="st1" d="M1724.1,763.7c0-5.2,0.3-6.1,5.9-6.1c5.4,0,5.9,0.9,5.9,6.1c0,5.1-0.5,6-5.9,6
				C1724.4,769.7,1724.1,768.8,1724.1,763.7z M1724.1,782.4c0-5.2,0.3-6.1,5.9-6.1c5.4,0,5.9,0.9,5.9,6.1c0,5.1-0.5,6-5.9,6
				C1724.4,788.4,1724.1,787.5,1724.1,782.4z"/>
		</g>
		<g class="st0">
			<path class="st3" d="M1792.7,792.7h-46.9v-48h46.9V792.7z M1783.4,754.1h-28.5v29.1h28.5V754.1z M1758.4,779.7v-22.5h21.6v22.5
				L1758.4,779.7L1758.4,779.7z M1765.9,765.1v6.9h6.7v-6.9H1765.9z"/>
			<path class="st3" d="M1824.3,752.7h-16.1v13.8c0,13-1.5,19.2-3.3,27.5l-7.1-2.7c1.9-7.7,3.6-14.8,3.6-26.3v-21h22.9L1824.3,752.7
				L1824.3,752.7z M1842.4,781.4c2.8,2,5.9,4.3,7.8,6.1l-4.6,7.6c-2.2-2.2-5.4-5.3-8.7-8c-1.8,2.9-4.7,5.2-9.3,8.1l-4.9-6
				c-3.1,1-6.3,2.4-8.1,3.2c-1.7,0.8-2.4,1.1-3.4,1.7l-2.8-7.6c1.3-0.9,1.9-2.2,1.9-4.3v-26.6h13.8V772c0,4.6-0.9,5.7-3.8,6.2
				l-1.6,0.2l-1.9-7.8v12.6c2.2-0.8,5.1-2.1,7.1-3l0.7,6.7c3.1-1.6,5.3-3.3,6.8-5.3h-5.4v-26.3h6.2c0.2-0.7,0.4-1.8,0.6-2.9h-6.3
				v-7.9h22.5v7.9h-8.5l-0.7,2.9h8.2v26.2L1842.4,781.4L1842.4,781.4z M1816.6,763.5v6.8l1-0.1c1.4-0.2,1.9-1,1.9-2.7v-4H1816.6z
				 M1839.5,764.2v9.9c0,1.9-0.1,3.6-0.2,5.2c0.6,0.4,1.2,0.8,1.9,1.3v-18h-9.2v17.6c1.2-2.2,1.7-4.8,1.7-8.4v-7.6H1839.5z"/>
		</g>
		<g class="st0">
			<path class="st4" d="M1576.4,835.9v27.8h-3.1v-28L1576.4,835.9z M1581.9,833.8l-2.2,2.6c-1.4-2-4.5-5.2-6.2-6.5l1.9-2.2
				C1577.2,829,1580.5,832.1,1581.9,833.8z M1595.8,839.5V855h-14.2v-15.6H1595.8z M1597.7,863.6l-2.1,0.2l-1.1-3.1l2.8-0.2
				c3.2-0.2,3.8-0.9,3.8-3.4v-23.6h-17.7v-3.1h20.7V858C1604.1,862.2,1602.8,863.2,1597.7,863.6z M1584.5,852.2h8.4v-9.9h-8.4V852.2
				z"/>
			<path class="st4" d="M1646.8,859.9l-0.7,2.9c-7.2,0.3-14.1,0.4-21.3,0c-4.9-0.2-7.7-1.2-9.9-5.5c-0.8,2.3-1.8,4.2-3.1,6.4
				l-2.3-1.3c2.4-3.9,3.9-7,4.3-12.7l2.6,0.2c-0.1,1.5-0.3,2.9-0.6,4.1c1.2,2.8,2.3,4.2,3.9,5v-10.9h-8.6v-2.5h17.4v2.5h-6.1v4.2
				h5.5v2.5h-5.5v5c0.7,0.1,1.5,0.2,2.4,0.2C1632.1,860.3,1639.4,860.2,1646.8,859.9z M1626.2,842.7h-12.9v-13.2h12.9V842.7z
				 M1615.9,831.7v3.2h7.6v-3.2H1615.9z M1623.5,840.4v-3.2h-7.6v3.2H1623.5z M1637.9,841.6v5.2c0,6.3-2.4,9.3-9.6,12.4l-1.3-2.3
				c7.4-3.2,8.4-5.6,8.4-10.6v-4.7L1637.9,841.6z M1635.7,832.5h-7.3V830h17.3v2.5h-7.4c-0.2,1.3-0.7,3.1-1.1,4.4h6.3v14.6h-2.6
				v-12.1h-8.6v12.2h-2.6V837h4.8C1635,835.7,1635.4,833.9,1635.7,832.5z M1637.4,853.6l1.4-2c2.6,1.7,5.5,4,6.8,5.3l-1.6,2.4
				C1642.9,858,1639.6,855.2,1637.4,853.6z"/>
			<path class="st4" d="M1652,846l-2.2-2.5c6.5-4,10.8-9.3,13.4-15.4l2.9,1.1C1663,836.1,1659,840.8,1652,846z M1657,843h22
				c-0.2,3-0.7,12-1.1,15.1c-0.4,3.8-1.2,4.3-4.8,4.7c-1.7,0.2-3.1,0.2-3.1,0.2l-1.2-3l3.2-0.2c2.2-0.2,2.5-0.7,2.8-2.9
				c0.3-2.3,0.7-9.3,0.8-10.8h-10.8c0,0.7-0.1,1.6-0.2,2.6c-0.7,7-2.6,10.9-11.4,15.8l-2-2.5c8.3-4.3,9.4-7.1,10.3-13.4
				c0.2-1,0.2-1.9,0.2-2.5h-4.8L1657,843L1657,843z M1687,843.5l-1.9,2.8c-7.4-4.5-11-8.7-14.8-17.8l2.7-1.1
				C1675.7,834.6,1679.8,839.2,1687,843.5z"/>
			<path class="st4" d="M1699.4,843.9v20.2h-2.9v-19.5c-1.6,3.6-3.4,6.8-5.1,9.3l-2.3-1.7c2.4-3.4,5.5-8.8,7.3-13.9h-5.3v-3h5.4
				v-7.5l2.9,0.1v7.4h5.4v3h-5.4v4.4l1.2-1.2c1.4,1.5,4,4.8,5.1,6.6l-2,2.1C1702.8,848.2,1700.8,845.4,1699.4,843.9z M1726,844.8
				h-6.2v19h-3.1v-19h-7.1c-0.1,9.7-1.2,13.5-5.7,19.4l-2.7-1.6c4.7-5.9,5.5-9.1,5.5-19.3v-12c5.5-0.4,11.3-1.3,16.6-2.5l0.8,3
				c-4.6,1.1-10.1,2-14.5,2.4v7.8h16.4L1726,844.8L1726,844.8z"/>
			<path class="st4" d="M1741.5,846c-0.9,0.4-2.1,0.9-3.4,1.4v11.9c0,3.1-1,4-4.5,4.3l-1.7,0.2l-0.8-2.9l1.9-0.2
				c1.9-0.2,2.4-0.6,2.4-2.4v-9.9c-2.1,0.7-4.1,1.4-5.4,1.8l-0.7-2.8c1.5-0.4,3.8-1.1,6.1-1.9v-7.7h-4.6v-2.8h4.6v-7.4l2.8,0.1v7.4
				h3.9v2.8h-3.9v6.7c1.2-0.4,2.2-0.9,3-1.2l0.2,1.7L1741.5,846z M1743.1,845.6l-1.4-2.3c2.4-1.2,7-4.4,9.1-6.3l1.4,2.1
				C1750.4,840.8,1745.8,844.2,1743.1,845.6z M1762.7,853.8l2.8,1c0,1.6-0.3,3.8-0.7,5.3c-0.4,1.5-1.6,2.4-5.4,2.6
				c-4.1,0.2-7.7,0.2-12.2,0c-2.7-0.1-4.2-1.2-4.2-3.2c0-2.4,1.9-4.7,12.3-12.4h-10v-2.8h15.2v2.5c-12.9,9.3-14.1,10.8-14.1,12
				c0,0.8,0.5,1,1.9,1.1c3.9,0.2,7,0.2,10.5,0c2.3-0.1,3.1-0.6,3.4-1.7C1762.4,856.9,1762.6,855.1,1762.7,853.8z M1745.8,839.2h-2.7
				v-7.3h9.5c-0.4-1.4-1-3.2-1.4-4.1l2.8-0.5c0.4,1,1.1,3.2,1.5,4.7h8.8v7.3h-2.8v-4.7h-15.7V839.2z M1756.2,836.9
				c2.9,1.6,7.6,4.7,9.5,6.2l-1.2,2.7c-2.1-2.1-7-5.5-9.6-6.7L1756.2,836.9z"/>
			<path class="st4" d="M1781.7,849.7c-0.8-1.4-2.4-3.4-3.6-4.8v19h-2.8v-19.2c-1.2,3.2-2.8,6.2-4.7,9l-2.1-1.9
				c2.6-3.6,5.3-8.8,6.8-13.8h-5v-2.8h5.1v-7.6l2.8,0.2v7.4h5v2.8h-5v5.1l1-1c1.2,1.2,3.6,4,4.7,5.4L1781.7,849.7z M1806.1,860.3
				l-1.9,2.5c-7.2-3.8-11.5-8.2-13.8-16.1h-3.2v13.4c1.4-0.6,5.5-2.5,6.7-3l0.5,2.9c-1.1,0.5-6.8,2.9-8,3.3
				c-0.6,0.3-1.3,0.6-2.1,1.1l-1.3-2.8c1.1-0.6,1.3-0.9,1.3-1.9v-30.1h17.7v17h-8.8c0.8,2.3,1.7,4.2,2.9,6c2.2-1.2,4.8-3.3,6.1-4.8
				l1.6,2.1c-1.4,1.4-4,3.6-6.1,4.8C1799.8,857,1802.5,858.8,1806.1,860.3z M1787.1,832.3v4.6h12v-4.6H1787.1z M1787.1,844.1h12
				v-4.5h-12V844.1z"/>
			<path class="st4" d="M1842.8,829.5V864h-3.1v-2.3h-24.3v2.3h-3.1v-34.5H1842.8z M1839.7,858.8v-26.2h-24.3v26.2H1839.7z
				 M1837.7,854.4l-1.9,2.4c-1.9-2.8-5.7-6.5-8.5-8.8c-1.5,3.2-4.2,5.8-8.7,8.6l-2-2.3c5.7-3.4,8.6-6.3,9.1-11.4c0-0.1,0-0.2,0-0.3
				h-8.4v-2.9h8.5c0.1-2.3,0.2-4.8,0.2-5.7l3,0.1c0,1.4-0.1,3.5-0.2,5.6h8.8v2.9h-9.1c0,0.5-0.1,0.9-0.2,1.3s-0.1,0.8-0.2,1.2
				C1831.1,847.3,1835.7,851.8,1837.7,854.4z"/>
		</g>
		<g class="st0">
			<path class="st4" d="M1607.1,908.4l-0.6,3c-5.9,0.2-11.8,0.2-17.7,0c-5.5-0.2-8.1-1-11-5c-1.8,2-3.4,3.4-5.6,5.1l-1.9-2.8
				c2-1.5,4.2-3.3,6-5.1V893h-5.3v-3h8.2v13.6c2.4,3.9,4.6,4.7,10,4.8C1595.2,908.6,1601.2,908.6,1607.1,908.4z M1579.2,887
				c-1.2-2.3-4.1-6.2-5.7-7.9l2.2-1.8c1.6,1.7,4.7,5.5,5.9,7.6L1579.2,887z M1597.4,886.1h-14.4v-3h14.4v-7l2.9,0.1v6.8h5.6v3h-5.6
				v13.5c0,4.5-0.9,5.7-6.6,5.9l-2.8,0.1l-1.1-3.1l3.6-0.2c3.6-0.2,4-0.8,4-3.5V886.1z M1592.6,896.4l-2.3,2.1
				c-1.2-2.5-4.3-6.9-6-8.8l2.1-1.7C1588.1,889.9,1591.3,894.2,1592.6,896.4z"/>
			<path class="st4" d="M1619.4,896.2v16.7h-2.6V896c-1.3,3.3-2.9,6.5-4.6,9.2l-2.4-1.7c2.9-4,5.4-9.1,6.8-13.4h-5.1v-2.9h5.4V882
				c-1.9,0.4-3.7,0.6-5,0.7l-0.6-2.8c3.4-0.2,9.7-1.5,12.8-2.5l0.6,2.8c-1.3,0.4-3.2,1-5.2,1.4v5.9h5v2.9h-5v4.3l1.1-1
				c1.2,1.2,3.6,4.2,4.6,5.8l-2,2.2C1622.3,900,1620.7,897.7,1619.4,896.2z M1646.2,907.9v2.9h-23.6v-2.9h10.5v-4.7h-7.4v-2.8h7.4
				v-4.8h-8.4v-2.8h20.2v2.8h-9v4.8h7.7v2.8h-7.7v4.7H1646.2z M1643.2,889.1H1626v-10.8h17.2V889.1z M1640.3,881h-11.6v5.5h11.6V881
				z"/>
			<path class="st4" d="M1685.5,912.4c-6.3-1-11.6-2.1-16.1-3.6c-4.7,1.6-10.4,2.8-17.5,4l-1.1-2.5c5.8-0.8,10.8-1.8,14.8-3
				c-2.6-1.2-5-2.5-7.1-4.2c-1.8,1.5-3.9,2.9-6.4,4.3l-1.7-2c4.7-2.5,8-5.4,10.3-8.4h-4.8v-11.4c-1.2,1.3-2.4,2.5-3.8,3.8l-2.4-1.9
				c3.8-3.2,7.5-7.9,9.4-11.6l3,0.8c-0.5,1-1.1,1.9-1.6,2.7h24.1v2.5h-25.8c-0.8,1-1.5,1.9-2.3,2.9h24.6V897h-19.4l1.8,1
				c-0.5,0.6-1,1.2-1.5,1.7h19.8v2.4c-2.6,2.1-5.5,3.8-8.8,5.3c4,1.1,8.4,1.8,13.3,2.3L1685.5,912.4z M1659,887.2v2.7h19.1v-2.7
				H1659z M1659,894.7h19.1v-2.8H1659V894.7z M1669.2,906.2c3.6-1.3,6.3-2.7,8.4-4.2h-16.7C1663.2,903.6,1666,905,1669.2,906.2z"/>
			<path class="st4" d="M1726.5,908.8v2.6h-36.4v-2.6h4.6v-9c-0.4,0.4-0.8,0.7-1.2,1l-2.3-2.1c3.8-3,5.4-4.8,5.9-7.7h-6.1v-2.6h6.3
				v-1v-8.1h7.9c0.5-1.2,1-2.5,1.2-3.3l3,0.4c-0.2,0.8-0.6,1.9-1.1,2.9h12v9.1h5.2v2.6h-5.2v3c0,3-0.8,3.9-4,4.2l-2.6,0.3l-1-2.6
				l2.1-0.2c2-0.2,2.5-0.5,2.5-2.2V891h-17.3c-0.5,3.5-2,5.7-5.2,8.4h26.9v9.3L1726.5,908.8L1726.5,908.8z M1697.6,908.8h5.3v-6.6
				h-5.3V908.8z M1700.3,888.4h10.2c-0.6-0.8-4.9-4.2-5.4-4.4l1.5-1.8c0.7,0.1,5.2,3.7,5.5,4.2l-1.5,1.9h6.8v-6.5h-17.2
				L1700.3,888.4L1700.3,888.4z M1704.4,893l1.6-1.9c1.5,0.9,3.9,2.5,5.5,4.2l-1.5,2.2C1708.1,895.8,1706.4,894.2,1704.4,893z
				 M1710.9,902.1h-5.2v6.6h5.2V902.1z M1718.9,902.1h-5.3v6.6h5.3V902.1z"/>
			<path class="st4" d="M1749.5,885.9v2.8h11.9V901h-11.9v2.7h13.3v2.3h-13.3v2.9h15.8v2.4h-34.6V909h15.8v-2.9h-13.2v-2.3h13.2V901
				h-11.8v-12.3h11.8v-2.8h-16.7v-2.3h16.7v-3.1c-4.8,0.2-9.6,0.3-13.1,0.4l-0.2-2.6c7.9-0.2,21.2-0.7,28.8-1.2l0.4,2.6
				c-3.3,0.2-8.1,0.5-13,0.7v3.2h16.7v2.3L1749.5,885.9L1749.5,885.9z M1737.6,891v2.7h8.9V891H1737.6z M1746.5,898.7V896h-8.9v2.7
				H1746.5z M1749.5,891v2.7h8.9V891H1749.5z M1758.4,898.7V896h-8.9v2.7H1758.4z"/>
			<path class="st4" d="M1785.3,905.1c-0.8,0.4-8.7,4.1-10.1,4.8c-1,0.5-1.6,0.8-2.7,1.6l-1.5-3c1.2-1,1.4-1.3,1.4-2.1v-15h8.2v-9.3
				h-9.1v-3h12.2v15.2h-8.3v12c1.1-0.5,8.4-4,9.5-4.5L1785.3,905.1z M1806.5,909.9l-2,2.7c-4.1-2.8-7.5-5.6-10.1-8.7
				c-2.8,3.1-6.3,5.9-11.1,8.8l-1.9-2.7c5-2.8,8.6-5.5,11.2-8.5c-2.2-3.2-3.8-6.6-4.7-10.4c-0.6,1-1.2,1.9-1.9,2.9l-2-2.2
				c3.1-4.3,5.9-10.9,6.9-16l2.9,0.6c-0.5,2.1-1.1,4.1-1.9,6.1h13.4v2.9h-3.5c-0.8,6.8-2.5,11.8-5.5,16.2
				C1798.9,904.5,1802.3,907.2,1806.5,909.9z M1794.5,899.2c2.6-3.8,3.8-8.2,4.5-13.8h-8.1c-0.3,0.7-0.6,1.4-1,2.1
				C1790.6,892,1792.1,895.8,1794.5,899.2z"/>
			<path class="st4" d="M1845.7,908.3l-0.7,3c-3.5,0.1-9.1,0.2-12.5,0.2c-8.4-0.2-12-0.6-16.4-5.1c-1.5,1.7-2.6,3-4.8,5.3l-2.1-2.3
				c2.2-2.1,4.2-4,5.7-5.9v-10.7h-4.4V890h7.3v14.2c3.9,3.7,6.9,4.2,14,4.4C1836.5,908.7,1841.4,908.6,1845.7,908.3z M1817.2,887
				c-1.2-2.3-4.1-6.1-5.7-7.8l2.2-1.9c1.6,1.6,4.6,5.3,5.8,7.3L1817.2,887z M1825.7,896.9h-5.5v-2.9h5.7v-2.5V886h-4.4v-2.8h4.4
				v-6.6l2.9,0.1v6.5h7.3v-6.6l2.9,0.1v6.5h5.2v2.8h-5.2v8h6.5v2.9h-6.5v10h-2.9v-10h-7.5c-0.4,4.7-1.5,6.6-4.7,10.3l-2.4-1.8
				C1824.4,902,1825.4,900.5,1825.7,896.9z M1828.6,894.1h7.4v-8h-7.3v5.4C1828.7,892.4,1828.7,893.2,1828.6,894.1z"/>
		</g>
		<g>
			<path class="st1" d="M938.1,396.6c53.8-0.1,97.5-43.5,98-97.3c-0.2-54.9-44.9-99.2-99.8-98.9c-0.2,0-0.4,0-0.5,0
				c-153.9,1.2-287.6,106-325.6,255.2c-0.2,1,0.4,2,1.4,2.2c0.6,0.1,1.3,0,1.7-0.5c44.8-46.8,119-48.4,165.8-3.6
				c9.8,9.4,17.9,20.4,23.9,32.5c0.4,0.9,1.5,1.2,2.3,0.8c0.3-0.2,0.6-0.5,0.8-0.8C827.7,432.1,879.9,396.6,938.1,396.6z"/>
		</g>
		<g class="st0">
			<path class="st7" d="M832,290.9h13.1l16.1,40.7h0.5l16.1-40.7h12.9V354h-8.2v-54.9H882l-16.2,40.6h-8.9l-16.4-40.6H840V354h-8
				L832,290.9L832,290.9z"/>
		</g>
		<g>
			<circle class="st1" cx="227" cy="202.8" r="28.3"/>
		</g>
		<g>
			<circle class="st3" cx="227" cy="647.3" r="28.3"/>
		</g>
		<g>
			<circle class="st3" cx="1729.9" cy="202.8" r="28.3"/>
		</g>
		<g>
			<circle class="st1" cx="1729.9" cy="647.3" r="28.3"/>
		</g>
		<g>
			<path class="st1" d="M938.1,680.5c-53.8,0-97.6,43.4-98.1,97.2c0.2,54.9,44.9,99.2,99.8,98.9c0.2,0,0.4,0,0.5,0
				c153.9-1.2,287.6-106,325.6-255.1c0.3-1-0.3-2-1.3-2.3c-0.7-0.2-1.3,0-1.8,0.5c-44.8,46.8-119,48.4-165.8,3.7
				c-9.7-9.3-17.8-20.2-23.8-32.2c-0.4-0.9-1.6-1.3-2.5-0.9c-0.4,0.2-0.7,0.5-0.9,0.9C1048.2,645,996.1,680.4,938.1,680.5z"/>
		</g>
		<g class="st0">
			<path class="st7" d="M1042.6,780.3l-17.4-25.5c-1,0.1-2,0.1-3.1,0.1h-7.8v25.4h-8.2v-63.1h16c17.6,0,24.1,4.7,24.1,18.7
				c0,10.9-4.2,16.1-12.9,18.1l18.9,26.4L1042.6,780.3L1042.6,780.3z M1038,735.8c0-9.5-4.8-11.5-16.6-11.5h-7.1v23.8h7.1
				C1033.2,748.1,1038,746.6,1038,735.8z"/>
		</g>
		<g>
			<path class="st1" d="M888.2,543.8h-24.5c-2.7,0-4.9,2.2-4.9,4.8v48.9c0,2.7,2.2,4.8,4.9,4.8h24.5c2.7,0,4.8-2.2,4.8-4.8v-48.9
				C893.1,546,890.9,543.8,888.2,543.8L888.2,543.8z M883.3,592.6h-14.6v-39.1h14.6V592.6z"/>
		</g>
		<g>
			<path class="st1" d="M937,519.3h-24.4c-2.7,0-4.9,2.2-4.9,4.8v73.3c0,2.7,2.2,4.8,4.9,4.8H937c2.7,0,4.9-2.1,4.9-4.8
				c0,0,0,0,0-0.1v-73.3C942,521.5,939.8,519.3,937,519.3C937.1,519.3,937.1,519.3,937,519.3z M932.1,592.6h-14.7v-63.5h14.7V592.6z
				"/>
		</g>
		<g>
			<path class="st1" d="M986,494.7h-24.5c-2.7,0-4.8,2.2-4.8,4.9c0,0,0,0,0,0.1v97.7c0,2.7,2.2,4.8,4.8,4.8H986
				c2.7,0,4.9-2.2,4.9-4.8v-97.6c0.1-2.7-2-5-4.7-5.1C986.1,494.7,986.1,494.7,986,494.7z M981.2,592.5h-14.7v-87.8h14.7V592.5z"/>
		</g>
		<g>
			<path class="st1" d="M951.2,474.5c-0.2-0.5-0.4-1-0.7-1.5l0,0l0,0c-0.3-0.4-0.7-0.8-1.2-1.1c-0.6-0.3-1.2-0.5-1.8-0.7l-24-3.7
				c-2.7-0.4-5.1,1.4-5.6,4.1c-0.4,2.7,1.4,5.2,4.1,5.6l0,0l12.5,1.9l-62.9,46.1c-2.1,1.6-2.6,4.6-1.1,6.8c0.9,1.3,2.4,2,4,2
				c1,0,2.1-0.3,2.9-0.9l62.9-46.2l-1.9,12.5c-0.4,2.7,1.4,5.1,4.1,5.6h0.8c2.4,0,4.5-1.8,4.8-4.2l3.7-24
				C951.8,476.1,951.6,475.3,951.2,474.5z"/>
		</g>
		<g class="st0">
			<path class="st29" d="M761.3,1033.5h14.1v3.4h-14.1V1033.5z"/>
			<path class="st29" d="M820.7,1013.8v41.2h-3.3v-2.7h-29.8v2.7h-3.3v-41.2L820.7,1013.8L820.7,1013.8z M817.3,1049.2v-32.2h-29.8
				v32.2H817.3z M817.1,1034l-1.3,3c-5.6-1.5-9.9-3.1-13.4-5c-3.5,1.9-7.9,3.5-13.4,5.2l-1.3-2.7c4.8-1.3,8.7-2.7,11.9-4.2
				c-1.9-1.2-3.6-2.7-5.2-4.4c-1.2,1.4-2.7,2.6-4.2,3.8l-1.6-2.1c3.5-2.9,6.8-7.1,8.7-10.3l2.6,1.1c-0.6,1.1-1.3,2.2-2.1,3.2h14.9
				v2.5c-2.4,2.4-4.8,4.5-7.7,6.2C808.7,1032,812.6,1033,817.1,1034z M792.4,1041c4.8,0.4,14.4,2.4,19,3.9l-0.5,3
				c-4.6-1.8-14.1-3.8-18.8-4.2L792.4,1041z M809.2,1038.1l-0.4,2.9c-3.3-1.3-10.1-2.9-13.4-3.3l0.4-2.6
				C799,1035.5,805.8,1037.1,809.2,1038.1z M802.3,1029c2.6-1.4,4.8-3,6.4-4.8h-12.5C798.1,1026.2,800.1,1027.8,802.3,1029z"/>
			<path class="st29" d="M835.4,1026.8c0-2.6,0.8-3,3.1-3c2.2,0,3.1,0.4,3.1,3c0,2.6-0.9,3-3.1,3
				C836.2,1029.8,835.4,1029.4,835.4,1026.8z M835.4,1047.2c0-2.6,0.8-3,3.1-3c2.2,0,3.1,0.4,3.1,3c0,2.7-0.9,3.1-3.1,3.1
				C836.2,1050.2,835.4,1049.8,835.4,1047.2z"/>
			<path class="st29" d="M877.7,1016.7h6.9l8.5,21.4h0.3l8.5-21.4h6.8v33.2h-4.3V1021H904l-8.5,21.4h-4.7l-8.6-21.4h-0.3v28.9h-4.2
				L877.7,1016.7L877.7,1016.7z"/>
			<path class="st29" d="M936.3,1040h-14.7l-3.6,9.9h-4.4l12.6-33.2h5.8l12.5,33.2h-4.5L936.3,1040z M934.9,1036.2l-5.6-15.5h-0.6
				l-5.7,15.5H934.9z"/>
			<path class="st29" d="M968.6,1049.9l-9.2-13.4c-0.5,0.1-1,0.1-1.6,0.1h-4.1v13.4h-4.3v-33.2h8.4c9.3,0,12.7,2.5,12.7,9.8
				c0,5.8-2.2,8.5-6.8,9.5l10,13.9L968.6,1049.9L968.6,1049.9z M966.2,1026.5c0-5-2.5-6.1-8.7-6.1h-3.7v12.6h3.7
				C963.7,1033,966.2,1032.2,966.2,1026.5z"/>
			<path class="st29" d="M978.9,1016.7h4.3v33.2h-4.3V1016.7z"/>
			<path class="st29" d="M1006,1027.8c0,0.4,0,0.8,0,1.2h19.7c-0.1,1.6-0.9,15.3-1.1,17.1c-0.5,5.7-2.3,7.2-9.4,7.5l-3.6,0.2
				l-1.4-3.8l4.7-0.2c4.7-0.2,5.8-1.2,6.1-5.1c0.1-1.2,0.7-11,0.8-12.1h-16.2c-1.2,9.3-4.6,15.1-13,22.4l-2.8-2.8
				c9.3-7.5,11.9-13,12.7-24.9l0.3-5.7H991v-3.5h19.5c-0.5-2.1-1.3-4.8-1.9-6.2l3.5-1c0.7,1.7,1.7,5,2.2,7.1h17.4v3.5h-25.3
				C1006.3,1023.3,1006.1,1025.7,1006,1027.8z"/>
			<path class="st29" d="M1038.8,1023.2c2.3,1.5,7.2,5,9.3,6.9l-2.1,3.4c-2-2.3-6.8-6-9.2-7.5L1038.8,1023.2z M1045.9,1037.6
				l1.7,0.7c-1.1,4.3-4.5,12.5-6.4,16.4l-3.7-1.3c2.3-3.8,5.7-12.1,6.9-16.4L1045.9,1037.6z M1048.8,1022.5c-2-2.2-6.5-5.5-8.7-6.8
				l1.9-2.8c2.2,1.2,6.8,4.5,8.8,6.3L1048.8,1022.5z M1055.7,1048.7c1.3-0.1,10.9-0.7,15.3-1c-1.7-2.9-3.5-5.7-4.8-7.5l2.9-2
				c2.5,3.3,7.1,10.6,9,14.4l-3,2.7c-0.5-1.2-1.2-2.7-2.1-4.3c-3.8,0.2-13.8,0.9-18.3,1.3c-1.4,0.1-2.3,0.3-3.9,0.6l-1.1-3.7
				c1.4-0.5,2-0.9,2.6-1.6c1.8-2.2,5.2-7.8,7.5-12.3h-11v-3.5h12.8v-9.1h-9.5v-3.5h9.5v-7.7l3.7,0.1v7.5h11.5v3.5h-11.5v9.1h14.1
				v3.5h-15.7C1061.7,1039.7,1058,1045.8,1055.7,1048.7z"/>
			<path class="st29" d="M1085.4,1033.5h14.1v3.4h-14.1V1033.5z"/>
		</g>
	</g>
	<g>
		<path class="st29" d="M243.9,499.4c3,5.3,8.2,9.1,15.3,10.8c-0.9,0.9-2,2.5-2.6,3.7c-6.8-2-11.7-5.9-15.1-11.5
			c-2,4.3-6.5,8.5-16.2,11.7c-0.5-0.9-1.7-2.4-2.8-3.3c10.2-3.2,14.1-7.3,15.5-11.3h-14.5v-3.7h15.2c0-0.5,0-1,0-1.4v-4.9h-12.7
			v-3.7h7.2c-0.8-1.9-2.3-4.5-3.8-6.4l3.1-1.6c1.7,2,3.4,4.7,4.2,6.6l-2.6,1.4h10.3c1.5-2.4,3.3-5.7,4.3-8.2l4,1.4
			c-1.2,2.3-2.8,4.8-4.2,6.8h7.3v3.7h-12.9v5c0,0.4,0,0.9,0,1.4h15v3.7H243.9z"/>
		<path class="st29" d="M269.8,495.9c-1.6-1.2-4.9-3.1-7.3-4.3l2-2.7c2.4,1,5.7,2.8,7.4,4L269.8,495.9z M273.8,501.1
			c-2.1,4.2-4.8,8.9-7.1,12.7l-3.1-2.5c2.1-3,5.2-8.1,7.5-12.6L273.8,501.1z M272,485.1c-1.6-1.3-4.9-3.2-7.4-4.4l2.1-2.7
			c2.4,1.1,5.8,2.8,7.5,4L272,485.1z M299,509.4v3.6h-25.9v-3.6h11.3v-9.3h-8.5v-3.6h8.5v-8.1h-10V485h11.3
			c-0.5-1.7-1.8-4.4-3.1-6.5l3.4-1.2c1.3,2,2.7,4.6,3.3,6.3l-3.5,1.3H298v3.5h-9.8v8.1h8.4v3.6h-8.4v9.3H299z"/>
		<path class="st29" d="M309.3,491.8c0,6.5-0.5,15.9-3.8,22.2c-0.8-0.6-2.4-1.4-3.4-1.7c3.2-6,3.5-14.6,3.5-20.6v-10.6h15.1
			c-0.4-1-0.8-2.2-1.3-3.1l3.7-0.9c0.7,1.2,1.4,2.7,1.8,4h13.5v3.4h-29.2V491.8z M335.6,501.3c-1.8,3.3-4.4,5.8-7.7,7.6
			c3.3,1,7.1,1.6,11.1,2c-0.8,0.8-1.7,2.3-2.2,3.2c-4.9-0.5-9.4-1.6-13.2-3.2c-4,1.5-8.6,2.4-13.4,3c-0.2-0.9-0.9-2.3-1.5-3.2
			c3.8-0.3,7.6-0.9,10.9-1.9c-2.3-1.4-4.2-3.1-5.8-5.1l1.6-0.6h-4.8v-3h22l0.6-0.1L335.6,501.3z M316.1,498.1v-6.4h-5.9v-3h5.9v-3.1
			h3.5v3.1h8.6v-3.1h3.6v3.1h6.1v3h-6.1v6.4H316.1z M317.6,503.2c1.5,1.7,3.6,3.1,6.1,4.2c2.5-1.1,4.7-2.5,6.3-4.2H317.6z
			 M319.6,491.7v3.5h8.6v-3.5H319.6z"/>
		<path class="st29" d="M378.5,510.3v2.8h-36v-2.8h16.1v-1.9h-12.7v-2.5h12.7v-1.8H347v-10h27.4v10h-12.1v1.8h12.8v2.5h-12.8v1.9
			H378.5z M378.3,492.6h-35.6v-2.7h35.6V492.6z M373.2,488.4h-25.5v-9.7h25.5V488.4z M350.5,498.2h8.1v-2h-8.1V498.2z M358.6,502v-2
			h-8.1v2H358.6z M369.5,480.7h-18.2v1.9h18.2V480.7z M369.5,484.5h-18.2v1.9h18.2V484.5z M370.7,496.2h-8.4v2h8.4V496.2z
			 M370.7,500h-8.4v2h8.4V500z"/>
		<path class="st29" d="M393.3,478.1h3.7v36.1h-3.7v-10.6c-6.8,2.4-8.1,3.1-8.9,3.7c-0.2-0.9-0.9-2.6-1.4-3.4
			c0.6-0.4,1.4-1.1,1.4-2.7v-19.3h3.6v19.8l5.3-1.7V478.1z M416,488.5c-1.1,6.1-2.7,11.2-5.2,15.4c2.3,3,5,5.4,8.2,7.1
			c-0.9,0.6-2,2-2.6,3c-3-1.7-5.6-4.1-7.7-6.9c-2.2,2.9-5,5.3-8.5,7.2c-0.4-0.8-1.7-2.4-2.4-3.1c3.8-1.8,6.7-4.2,8.9-7.3
			c-1.8-3-3.2-6.4-4.4-10.1c-0.8,1.5-1.7,2.9-2.6,4c-0.5-0.8-1.8-2.4-2.6-3.2c3.4-4,5.4-10.3,6.5-17.1l3.8,0.6
			c-0.4,2.4-0.9,4.7-1.6,6.9h12.9v3.5H416z M404.3,489.4c1,4,2.5,7.8,4.4,11.1c1.7-3.4,2.9-7.3,3.6-12h-7.7L404.3,489.4z"/>
		<path class="st29" d="M458.4,509.6v3.3h-36.1v-3.3h4.9v-12h26.4v12H458.4z M457.7,488.4H423v-3.3h9.9c-0.9-1.8-2.4-4.3-3.8-6.2
			l3.2-1.4c1.6,2,3.4,4.7,4.2,6.5l-2.2,1.1h12.3l-2.2-0.8c1.3-1.8,3-4.8,3.9-6.8l3.8,1.1c-1.4,2.3-3,4.8-4.4,6.5h10V488.4z
			 M436.8,491.4c-2.8,2.3-7.9,5.3-11.5,6.9c-0.5-0.9-1.4-2.2-2.2-3c3.6-1.2,8.7-3.8,11.2-5.8L436.8,491.4z M430.6,509.6h4.2v-8.9
			h-4.2V509.6z M438.2,500.8v8.9h4.3v-8.9H438.2z M445.7,489.6c3.9,1.4,9.3,3.6,12.2,5.1l-2,3c-2.7-1.5-8.1-3.9-12.1-5.4
			L445.7,489.6z M445.9,500.8v8.9h4.3v-8.9H445.9z"/>
	</g>
</g>
</svg>
