<?xml version="1.0" encoding="utf-8"?>
<!-- Generator: Adobe Illustrator 25.2.1, SVG Export Plug-In . SVG Version: 6.00 Build 0)  -->
<svg version="1.1" id="图层_1" xmlns="http://www.w3.org/2000/svg" xmlns:xlink="http://www.w3.org/1999/xlink" x="0px" y="0px"
	 viewBox="0 0 1920 1080" style="enable-background:new 0 0 1920 1080;" xml:space="preserve">
<style type="text/css">
	.st0{fill:#444E5E;}
	.st1{fill:#D04922;}
	.st2{fill:#585F70;}
	.st3{enable-background:new    ;}
	.st4{fill:#D24823;}
	.st5{fill:#FFFFFF;}
</style>
<g>
	<polygon class="st0" points="720.69,850.02 85.27,850.02 198.78,760.68 670.48,760.68 	"/>
</g>
<g>
	<path class="st1" d="M393.6,590.13v-205.3c-112.54,2-203.3,92.76-205.3,205.3H393.6z"/>
</g>
<g>
	<path class="st2" d="M401.28,590.13h205.3c-2-112.54-92.76-203.3-205.3-205.3V590.13z"/>
</g>
<g>
	<path class="st1" d="M401.28,597.81v205.12c112.54-2,203.3-92.76,205.3-205.3L401.28,597.81z"/>
</g>
<g>
	<path class="st2" d="M393.6,597.81H188.3c2.1,112.47,92.82,203.12,205.3,205.12V597.81z"/>
</g>
<g>
	<polygon class="st0" points="1277.03,702.02 751.33,699.45 755.12,612.68 1226.78,612.68 	"/>
</g>
<g>
	<path class="st1" d="M949.94,442.13V236.79c-112.62,1.95-203.47,92.73-205.53,205.35H949.94z"/>
</g>
<g>
	<path class="st2" d="M957.58,442.13h205.35c-2.05-112.55-92.8-203.3-205.35-205.35V442.13z"/>
</g>
<g>
	<path class="st1" d="M957.58,449.77v205.35c112.55-2.05,203.3-92.8,205.35-205.35H957.58z"/>
</g>
<g>
	<path class="st2" d="M949.94,449.77H744.41c2.05,112.55,92.8,203.3,205.35,205.35L949.94,449.77z"/>
</g>
<g>
	<polyline class="st0" points="670.48,760.68 755.12,612.68 751.33,699.45 720.69,850.02 	"/>
</g>
<g>
	<polygon class="st0" points="1832.73,554.56 1307.03,552.03 1310.88,465.27 1782.53,465.27 	"/>
</g>
<g>
	<polyline class="st0" points="1226.19,613.27 1310.88,465.27 1307.03,552.03 1276.44,702.56 	"/>
</g>
<g class="st3">
	<path class="st0" d="M317.28,930.33v7.48c0,2.96-1.01,3.5-4.26,3.83l-2.17,0.22l-0.9-2.57l2.02-0.22c2.17-0.22,2.49-0.5,2.49-2.28
		v-6.47h-8.31v-12.86h6.54c0.43-1.16,0.87-2.42,1.19-3.54h-11.31v9.25c0,9.65-1.19,13.66-4.59,19.26l-2.53-1.55
		c3.14-5.02,4.41-8.71,4.41-17.6v-11.92h27.93v2.57h-13.73l2.53,0.5c-0.25,0.9-0.61,2.03-0.94,3.04h9.43v12.86H317.28z
		 M311.25,933.36c-1.63,2.56-4.62,5.67-7.12,7.98l-1.81-1.84c2.67-2.24,5.49-5.27,6.9-7.66L311.25,933.36z M308.71,919.7v3.07h13.87
		v-3.07H308.71z M308.71,928.08h13.87v-3.07h-13.87V928.08z M328.55,938.96l-1.84,1.92c-2.24-2.93-5.09-5.75-7.01-7.41l1.63-1.59
		C323.17,933.25,326.6,936.65,328.55,938.96z"/>
	<path class="st0" d="M344.11,916.2c-0.76,1.3-1.55,2.56-2.42,3.76h16.8v17.85c0,2.85-1.08,3.5-4.34,3.9l-2.42,0.29l-0.87-2.6
		l2.35-0.18c2.2-0.18,2.57-0.4,2.57-2.13v-2.1h-15.72v7.05h-2.67v-17.06c-1.66,1.66-3.5,3.25-5.56,4.84l-1.77-2.13
		c4.52-3.39,8.13-7.15,10.84-11.49h-9.29v-2.53h10.7c0.69-1.33,1.3-2.74,1.84-4.23l2.86,0.62c-0.47,1.26-1.01,2.45-1.55,3.61h17.42
		v2.53H344.11z M355.78,922.34h-15.72v4.05h15.72V922.34z M355.78,932.64v-3.94h-15.72v3.94H355.78z"/>
	<path class="st0" d="M377.91,920.43c-1.26,6.65-4.91,12.68-10.66,18.61l-2.27-1.84c5.46-5.31,9.03-10.58,10.41-16.69h-8.53v-2.67
		h11.06V920.43z M398.36,936.5l-2.09,2.28c-6.9-5.68-10.62-10.91-13.12-18v16.4c0,3.29-1.09,3.98-5.24,4.3l-2.24,0.18l-0.9-2.67
		l2.75-0.22c2.6-0.22,2.89-0.58,2.89-2.67v-26.45l2.75,0.11v4.77c0.83,2.86,1.8,5.45,2.96,7.84c2.57-1.95,5.89-5.24,7.48-7.44
		l2.02,2.1c-1.73,2.13-5.56,5.67-8.2,7.7C390.12,929.39,393.7,933.15,398.36,936.5z"/>
	<path class="st0" d="M432.42,930.58h-14.45v11.67h-2.82v-11.67h-14.49v-2.71h14.49v-13.66h-12.29v-2.67h27.39v2.67h-12.29v13.66
		h14.45V930.58z M412.07,924.83l-2.31,1.41c-1.34-2.53-4.12-6.72-5.64-8.6l2.17-1.41C407.85,918.22,410.66,922.41,412.07,924.83z
		 M426.49,916.24l2.27,1.37c-1.16,2.13-4.05,6.69-5.74,8.71l-2.24-1.44C422.66,923.06,425.44,918.58,426.49,916.24z"/>
</g>
<g class="st3">
	<path class="st0" d="M1495.09,631.09c-1.09,2.6-2.96,6.11-4.59,8.13l-2.17-1.12c1.66-2.02,3.68-5.49,4.7-7.8L1495.09,631.09z
		 M1499.43,629.07v8.13c0,2.09-0.25,3.03-2.53,3.36l-1.99,0.29l-0.94-2.53l1.63-0.18c1.23-0.14,1.26-0.29,1.26-2.09v-6.98h-6.79
		v-2.38h6.79v-3.98h-7.41v-2.31h4.44c-0.29-2.02-0.72-4.37-1.01-5.82h-2.57v-2.35h6.87c-0.29-1.09-0.83-3-1.01-3.47l2.35-0.43
		c0.11,0.25,0.86,2.86,1.12,3.9h6.03v2.35h-2.56c-0.29,1.59-0.72,4.12-1.12,5.82h4.59v2.31h-7.16v3.98h6.11v2.38H1499.43z
		 M1496.18,620.4h3.5c0.43-1.69,0.83-4.08,1.08-5.82h-5.49C1495.56,616.17,1496,618.81,1496.18,620.4z M1503.8,637.16
		c-1.01-2.24-2.31-4.48-3.32-5.89l1.88-1.12c0.79,1.12,2.49,3.83,3.32,5.64L1503.8,637.16z M1521.51,623.29h-4.05v17.74h-2.56
		v-17.74h-4.48v3.43c0,4.52-0.29,8.31-4.08,14.78l-2.53-1.19c3.47-5.31,4.12-8.35,4.12-13.59V612.3h0.25
		c1.55-0.07,8.16-0.98,11.38-2.45l0.79,2.38c-3.14,1.27-8.06,2.1-9.94,2.31v6.25h11.09V623.29z"/>
	<path class="st0" d="M1532.65,614.36h5.6v25.44h-12.32v-25.44h3.72c0.72-1.92,1.23-4.01,1.7-6.18l2.93,0.61
		C1533.92,610.39,1533.38,612.38,1532.65,614.36z M1535.73,616.97h-7.26v8.56h7.26V616.97z M1535.73,637.27v-9.1h-7.26v9.1H1535.73z
		 M1554.44,614.29c0,0-0.25,15.57-0.61,21.86c-0.18,3.04-1.05,3.98-4.23,4.23l-3.11,0.25l-0.87-2.74l3.51-0.22
		c1.19-0.07,1.81-0.47,1.95-2.35c0.32-5.13,0.47-14.09,0.54-18.46l-8.23,0.04c-0.69,1.59-1.41,3.14-2.21,4.66l-2.45-1.3
		c2.09-3.54,3.9-8.2,4.95-12.4l2.64,0.54c-0.58,2.03-1.19,3.98-1.92,5.89H1554.44z M1546.42,631.24c-1.66-3.43-3.61-6.58-5.02-8.57
		l2.13-1.44c1.63,2.13,3.61,5.27,5.2,8.46L1546.42,631.24z"/>
	<path class="st0" d="M1571.12,619.46c-1.27,6.65-4.92,12.68-10.66,18.61l-2.27-1.84c5.45-5.31,9.03-10.58,10.41-16.69h-8.53v-2.67
		h11.06V619.46z M1591.57,635.54l-2.1,2.28c-6.9-5.68-10.62-10.91-13.12-18v16.4c0,3.29-1.09,3.98-5.24,4.3l-2.24,0.18l-0.9-2.67
		l2.75-0.22c2.6-0.22,2.89-0.58,2.89-2.67v-26.45l2.74,0.11v4.77c0.83,2.86,1.81,5.45,2.96,7.84c2.57-1.95,5.89-5.24,7.48-7.44
		l2.03,2.1c-1.73,2.13-5.57,5.67-8.2,7.7C1583.33,628.42,1586.91,632.18,1591.57,635.54z"/>
	<path class="st0" d="M1625.63,629.61h-14.45v11.67h-2.82v-11.67h-14.49v-2.71h14.49v-13.66h-12.29v-2.67h27.39v2.67h-12.29v13.66
		h14.45V629.61z M1605.28,623.87l-2.31,1.41c-1.34-2.53-4.12-6.72-5.64-8.6l2.17-1.41C1601.05,617.25,1603.87,621.45,1605.28,623.87
		z M1619.7,615.27l2.28,1.37c-1.16,2.13-4.05,6.69-5.75,8.71l-2.24-1.44C1615.87,622.1,1618.65,617.62,1619.7,615.27z"/>
</g>
<g class="st3">
	<path class="st2" d="M785.81,33.11c-0.16,15.5-0.32,31.6-0.49,37.67c-0.16,5.04-2.82,7.1-8.24,7.48l-4.93,0.32l-2.98-8.99
		l3.96-0.33c2.98-0.27,4.01-0.43,4.28-3.68l-2.6,1.35l-0.49-1.41c-2.76,0.16-8.24,0.65-10.95,0.92c-1.68,0.22-4.12,0.6-5.15,0.87
		l-2.93-8.13c2.17-0.87,2.82-1.35,4.12-4.12c1.03-2.11,1.95-4.77,2.82-7.32l-5.69-2.98v0.11h-4.34v3.53l1.35-1.2
		c1.47,1.63,4.34,4.99,5.8,7.16l-5.2,5.85l-1.95-3.36V78.8h-7.86V61.02c-1.9,3.42-4.01,6.61-5.8,8.13l-1.47-11.32
		c3.69-3.63,5.96-8.62,7.21-12.96h-5.26v-8.46h5.31v-8.02l7.86,0.22v7.8h4.34v6.24c2.66-4.12,4.93-9.54,6.29-14.47l8.02,0.98
		c-0.38,1.24-0.76,2.49-1.35,3.95H785.81z M771.23,57.71c-1.03-2.22-1.95-4.17-2.76-5.64l5.47-2.6c0.87,1.47,2.22,3.96,3.52,6.61
		l0.11-14.03h-11.98c-0.38,0.7-0.7,1.46-1.08,2.11l6.29,1.95c-1.14,2.6-3.85,8.35-5.58,11.92
		C766.95,57.98,769.44,57.88,771.23,57.71z"/>
	<path class="st2" d="M825.56,70.78c4.88,0.05,9.76-0.06,14.63-0.33l-1.95,7.37c-8.02,0.33-16.04,0.33-24.06,0
		c-5.15-0.22-9.87-1.57-14.15-5.47c-1.35,2.11-2.93,4.44-4.77,6.88l-5.8-6.07c1.9-2.33,3.85-4.77,5.53-7.32
		c-1.47-2.55-2.66-5.42-3.9-8.94l5.47-3.2c0.81,2.06,1.63,3.9,2.33,5.48c0.81-2.11,1.3-4.34,1.68-6.78h-8.62v-6.99l6.88-7.48h-6.88
		v-7.64h15.12v8.13l-6.45,7.1h6.39v7.1c-0.7,4.99-1.68,9.11-3.63,13.44c3.09,3.25,6.56,4.12,11.17,4.39l3.14,0.16v-2.6h-10.89v-5.96
		h10.89v-2.27h-9.16v-5.31h9.16v-2.11h-8.67v-5.09h8.67v-2.17l-10.3-0.05v-5.85h10.3v-2.22h-8.56v-6.02h8.56v-2.6l7.86,0.22v2.38
		h11.22v7.53H839v7.32h-2.22v6.56h-11.22v2.11h11.65v5.31h-11.65v2.27h13.17v5.96h-13.17V70.78z M825.56,36.95v2.55h4.17v-2.55
		H825.56z M825.56,47.26h4.17V44.7l-4.17,0.06V47.26z"/>
	<path class="st2" d="M890.85,30.34l-0.11,39.89c0,6.77-2.17,7.91-8.18,8.51l-3.79,0.33l-1.95-6.18c-1.03,2.33-2.93,2.87-6.61,3.14
		l-4.88,0.33l-2.33-8.35l2.98-0.22c2.55-0.16,3.25-0.76,3.25-3.14v-6.77c-3.25,5.2-7.26,9.54-12.68,13.39l-3.2-4.17v11.54h-8.46
		l0.06-37.51l6.99,0.22c-2.28-2.28-5.69-5.58-7.64-7.21l6.13-6.13c2.17,1.62,6.18,4.82,8.72,7.37l-5.8,7.05v19.62
		c4.77-3.25,8.4-6.83,10.95-10.51h-8.56v-7.97h13.5v-3.53h8.29v3.53h2.82v7.97h-2.82v16.32c0,0.81,0,1.41-0.06,2.06l1.3-0.11
		c2.6-0.22,3.47-0.92,3.47-3.25V38.8h-22.22v-8.46H890.85z"/>
	<path class="st2" d="M910.06,65.9c1.95-0.27,3.68-0.49,5.37-0.76l0.16,8.57c-4.61,0.6-15.34,1.73-19.95,2.33l-0.76-8.56
		c2.11-0.16,4.45-0.44,6.99-0.65v-10.3h-4.28v-8.35h4.28v-9.21h-4.82v-8.29h17.34v8.29h-4.34v9.21h4.28v8.35h-4.28V65.9z
		 M939.98,66.28c-1.68-2.65-4.17-5.9-6.56-8.78v20.98h-8.62V59.83c-1.95,2.6-4.17,5.2-6.72,7.86l-5.47-7.37
		c6.56-6.23,10.79-13.22,13.44-20.65h-8.94v-8.89h27.05v8.89h-9c-0.6,1.68-1.08,3.31-1.73,4.88v4.66l1.68-1.41
		c3.03,2.87,7.7,8.08,10.57,11.98L939.98,66.28z"/>
	<path class="st2" d="M952.26,79.93c2.17-4.23,4.72-12.46,4.72-17.4h9.86c0,4.44-3.41,13.5-6.29,17.4H952.26z"/>
	<path class="st2" d="M1014.51,36.41h3.74v8.51h-3.74v6.5l3.36-0.54l0.05,8.89c-0.92,0.16-2.11,0.32-3.41,0.49v11.66
		c0,5.58-1.47,6.12-7.64,6.72l-2.76,0.27l-2.44-8.67l2.01-0.27c1.89-0.27,2.76-0.43,2.76-2.49v-6.02c-2.22,0.38-4.23,0.65-5.69,0.92
		l-0.7-9c1.79-0.22,4.01-0.43,6.39-0.81v-7.64h-4.5v-8.51h4.5v-7.97l8.08,0.22V36.41z M1050.55,43.84v8.13h-32.25v-8.13h11.71V40.1
		h-9.65v-7.26h9.65v-4.44l8.08,0.22v4.23h9.65v7.26h-9.65v3.74H1050.55z M1044.64,55.6h4.17v7.91h-4.17v7.75
		c0,5.8-1.68,6.88-8.89,7.32l-3.96,0.27l-2.44-8.19l-3.96,3.68c-1.3-1.84-4.55-5.53-6.12-7.1l4.17-3.74h-4.23V55.6h17.02v-2.44
		l8.4,0.22V55.6z M1036.24,63.51h-9.16c1.68,1.68,3.68,3.74,4.71,4.88l-2,1.84l3.2-0.22c2.55-0.16,3.25-0.98,3.25-3.15V63.51z"/>
	<path class="st2" d="M1091.72,66.6c-0.05,0.22-0.16,0.38-0.22,0.49c3.42,1.3,7.97,3.63,10.57,5.04l-2.77,6.94
		c-2.49-1.73-8.02-4.77-11.7-6.56c-3.04,2.66-7.43,4.66-13.99,6.83l-2.55-4.5c-4.12,0.6-13.28,2-16.75,2.44l-0.87-8.78
		c4.12-0.43,13.66-1.79,18-2.38l0.16,5.85c5.9-1.68,9.32-3.04,11.32-5.37h-11V59.4h7.21c-2.17-1.03-4.77-2.11-6.24-2.6l2.01-4.28
		c3.41,0.92,6.45,2.33,8.84,3.47l-1.3,3.42h3.2c0.16-1.68,0.22-3.53,0.38-5.69l0.22-5.53l7.59,0.22c-0.05,1.24-0.11,3.14-0.11,4.17
		c-0.05,2.55-0.16,4.82-0.43,6.83h9.76v7.21H1091.72z M1058.33,50.13c-1.14,0.16-2.28,0.32-3.15,0.54l-1.62-8.02
		c1.03-0.6,1.68-1.09,2.93-3.04c0.92-1.52,3.63-7.1,5.2-11.6l6.88,2.6c-1.3,2.93-4.5,9.21-6.23,11.92l3.03-0.22
		c1.03-2,1.84-3.85,2.44-5.15l5.91,2.71h9.27v-2.76h-9.05v-6.07h9.05v-2.71l7.86,0.22v2.49h9.7v6.07h-9.7v2.76h10.9v7.26
		c-0.27,2.11-0.76,5.47-1.19,7.1l-5.42-0.71l1.03-6.72h-17.78c2.38,0.82,4.88,1.68,6.99,2.77l-1.68,4.55
		c-2.06-1.03-6.88-3.03-9.05-3.63l1.68-3.69h-3.36v-5.04c-2.17,4.5-5.8,10.84-7.97,13.99c1.9-0.16,4.61-0.49,5.58-0.76v7.8
		c-2.87,0.27-6.88,0.98-9.48,1.41c-1.73,0.27-3.95,0.7-4.88,0.92l-1.68-8.29c1.73-0.6,2.82-1.3,3.96-2.98
		c0.81-1.03,1.95-2.71,2.65-4.01L1058.33,50.13z"/>
	<path class="st2" d="M1156.62,70.12l-5.53,8.24c-3.52-2.66-6.72-5.58-9.54-8.67c-3.04,3.09-6.72,5.96-11.33,8.95l-5.48-6.4
		c-2.87,1.14-6.39,2.55-8.51,3.58c-2.38,1.24-4.28,2.11-5.75,2.93l-4.28-8.51c2.01-1.73,2.49-2.82,2.49-5.37V46.71h10.08v-7.53
		h-11.22v-8.89h19.57v14.09c3.69-5.2,6.18-10.62,7.48-16.21l9.16,0.76c-0.49,1.89-1.08,3.68-1.68,5.42h12.96v8.99h-1.79
		c-0.92,7.43-2.71,13.61-6.18,19.24C1149.85,65.36,1152.99,67.79,1156.62,70.12z M1127.78,68.99c3.31-1.89,6.07-4.01,8.35-6.28
		c-2.17-3.2-3.74-6.39-4.77-9.48l-1.63,1.73l-2.6-4.99v5.53h-9.81v10.3c2.33-1.03,8.51-3.68,10.08-4.55L1127.78,68.99z
		 M1138.19,43.35c-0.22,0.44-0.43,0.87-0.7,1.3c0.6,3.85,1.95,7.37,3.9,10.68c1.73-3.53,2.76-7.43,3.36-11.98H1138.19z"/>
	<path class="st2" d="M1209.33,69.1l-1.9,8.29c-8.29,0.38-17.67,0.6-25.96,0.22c-6.18-0.16-9.21-1.73-13.22-5.75
		c-2.17,2.44-5.04,5.64-6.51,7.1l-4.39-8.56c2.17-2.01,4.12-3.8,6.51-6.39V53.54h-4.77v-8.29h12.74v18.48
		c2.39,3.68,5.69,5.37,10.52,5.75l-6.13-3.42c1.9-2.6,2.87-4.55,3.52-6.94h-4.61v-8.35h5.42c0.05-0.87,0.05-1.79,0.05-2.82V44.6
		h-4.44v-8.35h4.44v-7.48l8.4,0.22v7.26h5.1v-7.43l8.46,0.22v7.21h3.85v8.35h-3.85v6.18h4.82v8.35h-4.82v8.67h-8.46v-8.67h-5.64
		c-0.6,4.5-1.79,7.26-3.8,10.46C1192.53,69.8,1201.14,69.53,1209.33,69.1z M1168.95,43.08c-2.06-2.33-6.99-7.32-9.05-8.94l5.8-6.18
		c2.11,1.57,6.62,5.58,8.78,8.07L1168.95,43.08z M1189,46.98c0,1.35,0,2.55-0.05,3.8h5.15V44.6h-5.1V46.98z"/>
</g>
<g>
	<path class="st4" d="M244.76,318.54l-2.56-3.72c3.89-2.67,95.96-65.29,160.36-56l-0.64,4.47
		C339.27,254.24,245.7,317.9,244.76,318.54z"/>
</g>
<g>
	<polygon class="st4" points="387.95,281.16 432.33,273.3 403.32,238.77 	"/>
</g>
<g>
	<path class="st4" d="M821.48,208.78l-2.56-3.72c3.89-2.67,95.98-65.26,160.4-55.96l-0.64,4.47
		C916.03,144.51,822.41,208.14,821.48,208.78z"/>
</g>
<g>
	<polygon class="st4" points="964.67,171.44 1009.05,163.53 980.04,129.05 	"/>
</g>
<g class="st3">
	<path class="st5" d="M305.85,503.67h17.61l3.68,18.86h0.33l4.17-18.86h16.96v37.61h-10.57v-27.26h-0.32l-5.37,21.24h-10.51
		l-5.2-21.24h-0.32v27.26h-10.46V503.67z"/>
	<path class="st5" d="M494.65,533.37h-14.09l-2.66,7.91h-11.27l13.82-37.61h14.58l13.71,37.61h-11.49L494.65,533.37z M491.83,524.69
		l-3.85-11.76h-0.65l-3.9,11.76H491.83z"/>
</g>
<g class="st3">
	<path class="st5" d="M324.33,645.57h10.79v37.61h-10.79V645.57z"/>
	<path class="st5" d="M477.51,683.18l-7.75-12.63h-2.11v12.63h-10.79v-37.61h15.28c9.59,0,14.58,3.63,14.58,12.57
		c0,6.07-2.01,9.59-6.56,11.28l10.08,13.76H477.51z M467.64,662.86h2.6c4.39,0,5.85-1.2,5.85-4.72c0-3.47-1.46-4.33-5.85-4.33h-2.6
		V662.86z"/>
</g>
<g class="st3">
	<path class="st5" d="M848.63,358.78h17.61l3.68,18.86h0.33l4.17-18.86h16.96v37.61h-10.57v-27.26h-0.32l-5.37,21.24h-10.51
		l-5.2-21.24h-0.32v27.26h-10.46V358.78z"/>
	<path class="st5" d="M1037.43,388.48h-14.09l-2.66,7.91h-11.28l13.82-37.61h14.58l13.71,37.61h-11.49L1037.43,388.48z
		 M1034.61,379.81l-3.85-11.76h-0.65l-3.9,11.76H1034.61z"/>
</g>
<g class="st3">
	<path class="st5" d="M867.11,500.68h10.79v37.61h-10.79V500.68z"/>
	<path class="st5" d="M1020.29,538.3l-7.75-12.63h-2.11v12.63h-10.79v-37.61h15.28c9.59,0,14.58,3.63,14.58,12.57
		c0,6.07-2,9.59-6.56,11.28l10.08,13.76H1020.29z M1010.43,517.97h2.6c4.4,0,5.86-1.2,5.86-4.72c0-3.47-1.46-4.33-5.86-4.33h-2.6
		V517.97z"/>
</g>
<g>
	<path class="st5" d="M354.19,573c8.78-23.55,34.99-35.52,58.54-26.74c0.07,0.03,0.14,0.05,0.21,0.08
		c16.57,5.45,28.75,19.63,31.63,36.83h2.76c-2.2-19.14-15.32-35.27-33.62-41.3c-25.67-8.81-53.23,3.75-61.59,28.06
		c-1.46,4.27-2.25,8.73-2.35,13.24h2.53C352.51,579.72,353.15,576.3,354.19,573z"/>
</g>
<g>
	<path class="st5" d="M354.19,613.9c7.91,23.09,34.12,35.02,58.75,26.66c16.55-5.47,28.73-19.64,31.63-36.83h2.76
		c-2.19,19.14-15.32,35.25-33.62,41.26c-25.67,8.81-53.23-3.71-61.59-28.02c-1.46-4.27-2.25-8.73-2.35-13.24h2.53
		C352.51,607.19,353.15,610.6,354.19,613.9z"/>
</g>
<g>
	<path class="st5" d="M912.21,425c8.78-23.55,34.99-35.52,58.54-26.74c0.07,0.03,0.14,0.05,0.21,0.08
		c16.57,5.44,28.76,19.63,31.63,36.83h2.76c-2.17-19.16-15.3-35.29-33.62-41.3c-25.67-8.81-53.23,3.75-61.59,28.02
		c-1.44,4.29-2.23,8.77-2.35,13.29h2.58C910.53,431.72,911.15,428.3,912.21,425z"/>
</g>
<g>
	<path class="st5" d="M912.21,465.9c7.91,23.09,34.16,35.02,58.75,26.66c16.57-5.47,28.75-19.66,31.63-36.88h2.76
		c-2.16,19.16-15.3,35.3-33.62,41.3c-25.67,8.81-53.23-3.75-61.59-28.02c-1.44-4.29-2.23-8.77-2.35-13.29h2.58
		C910.53,459.16,911.15,462.59,912.21,465.9z"/>
</g>
<g class="st3">
	<path class="st0" d="M756.13,1032.49h10.66v2.6h-10.66V1032.49z"/>
	<path class="st0" d="M800.94,1017.6v31.08h-2.53v-2.03h-22.48v2.03h-2.53v-31.08H800.94z M798.41,1044.3v-24.32h-22.48v24.32
		H798.41z M798.27,1032.89l-1.01,2.24c-4.19-1.16-7.44-2.31-10.12-3.76c-2.67,1.41-5.93,2.64-10.08,3.9l-0.98-2.02
		c3.61-1.02,6.54-2.03,8.96-3.15c-1.41-0.94-2.71-2.06-3.9-3.32c-0.94,1.05-2.02,1.99-3.14,2.89l-1.23-1.59
		c2.6-2.17,5.17-5.35,6.58-7.81l1.99,0.83c-0.47,0.83-0.98,1.62-1.55,2.45h11.24v1.92c-1.8,1.84-3.61,3.36-5.78,4.7
		C791.87,1031.33,794.87,1032.13,798.27,1032.89z M779.58,1038.16c3.61,0.33,10.88,1.84,14.31,2.96l-0.4,2.24
		c-3.47-1.37-10.62-2.86-14.2-3.18L779.58,1038.16z M792.3,1035.92l-0.32,2.2c-2.46-1.01-7.62-2.2-10.12-2.46l0.29-1.99
		C784.61,1034.01,789.74,1035.16,792.3,1035.92z M787.1,1029.09c1.99-1.09,3.58-2.28,4.84-3.61h-9.43
		C783.88,1026.96,785.4,1028.15,787.1,1029.09z"/>
	<path class="st0" d="M812.05,1027.43c0-1.99,0.62-2.27,2.31-2.27c1.66,0,2.31,0.29,2.31,2.27c0,1.99-0.65,2.28-2.31,2.28
		C812.67,1029.71,812.05,1029.42,812.05,1027.43z M812.05,1042.79c0-1.95,0.62-2.24,2.31-2.24c1.66,0,2.31,0.29,2.31,2.24
		c0,2.03-0.65,2.31-2.31,2.31C812.67,1045.1,812.05,1044.81,812.05,1042.79z"/>
	<path class="st0" d="M843.9,1019.81h5.2l6.4,16.15h0.22l6.4-16.15h5.13v25.08h-3.25v-21.79h-0.22l-6.43,16.12h-3.54l-6.5-16.12
		h-0.22v21.79h-3.18V1019.81z"/>
	<path class="st0" d="M888.15,1037.4h-11.09l-2.74,7.48h-3.33l9.5-25.08h4.34l9.47,25.08h-3.43L888.15,1037.4z M887.1,1034.51
		l-4.23-11.67h-0.43l-4.3,11.67H887.1z"/>
	<path class="st0" d="M912.51,1044.88l-6.9-10.11c-0.4,0.04-0.79,0.04-1.23,0.04h-3.11v10.08h-3.25v-25.08h6.36
		c7.01,0,9.57,1.88,9.57,7.41c0,4.34-1.66,6.4-5.13,7.19l7.52,10.48H912.51z M910.67,1027.21c0-3.79-1.92-4.59-6.58-4.59h-2.82v9.47
		h2.82C908.75,1032.09,910.67,1031.48,910.67,1027.21z"/>
	<path class="st0" d="M920.22,1019.81h3.25v25.08h-3.25V1019.81z"/>
	<path class="st0" d="M940.71,1028.19c0,0.29-0.04,0.62-0.04,0.9h14.81c-0.07,1.19-0.69,11.56-0.79,12.86
		c-0.36,4.3-1.77,5.45-7.08,5.67l-2.71,0.15l-1.05-2.86l3.58-0.15c3.58-0.14,4.41-0.86,4.62-3.87c0.07-0.86,0.51-8.27,0.58-9.14
		h-12.21c-0.87,7.04-3.47,11.42-9.79,16.91l-2.1-2.1c7.05-5.68,9-9.83,9.54-18.75l0.22-4.3h-8.89v-2.63h14.67
		c-0.36-1.59-0.98-3.65-1.45-4.66l2.64-0.72c0.51,1.3,1.3,3.79,1.66,5.38h13.12v2.63h-19.08
		C940.89,1024.79,940.78,1026.6,940.71,1028.19z"/>
	<path class="st0" d="M965.41,1024.68c1.77,1.12,5.46,3.76,7.05,5.2l-1.55,2.6c-1.52-1.77-5.17-4.52-6.97-5.64L965.41,1024.68z
		 M970.76,1035.56l1.3,0.5c-0.83,3.22-3.4,9.43-4.84,12.36l-2.82-0.98c1.73-2.86,4.3-9.14,5.2-12.36L970.76,1035.56z
		 M972.96,1024.22c-1.52-1.7-4.88-4.16-6.58-5.17l1.45-2.1c1.7,0.94,5.09,3.43,6.61,4.77L972.96,1024.22z M978.13,1043.94
		c1.02-0.07,8.24-0.54,11.56-0.72c-1.26-2.2-2.63-4.3-3.61-5.64l2.17-1.48c1.92,2.49,5.35,7.95,6.76,10.88l-2.28,2.02
		c-0.4-0.94-0.94-2.06-1.59-3.25c-2.86,0.18-10.41,0.69-13.76,1.02c-1.05,0.11-1.73,0.22-2.97,0.43l-0.79-2.78
		c1.05-0.4,1.48-0.65,1.95-1.23c1.34-1.66,3.94-5.89,5.68-9.29h-8.27v-2.64h9.68v-6.86h-7.19v-2.67h7.19v-5.78l2.82,0.11v5.68h8.67
		v2.67h-8.67v6.86h10.66v2.64h-11.85C982.65,1037.15,979.9,1041.74,978.13,1043.94z"/>
	<path class="st0" d="M1008.32,1021.58h5.6v25.44h-12.32v-25.44h3.72c0.72-1.92,1.23-4.01,1.7-6.18l2.93,0.61
		C1009.58,1017.6,1009.04,1019.59,1008.32,1021.58z M1011.39,1024.18h-7.26v8.56h7.26V1024.18z M1011.39,1044.49v-9.1h-7.26v9.1
		H1011.39z M1030.11,1021.51c0,0-0.26,15.57-0.62,21.86c-0.18,3.04-1.05,3.98-4.23,4.23l-3.11,0.25l-0.86-2.74l3.5-0.22
		c1.19-0.07,1.81-0.47,1.95-2.35c0.33-5.13,0.47-14.09,0.54-18.46l-8.24,0.04c-0.68,1.59-1.41,3.14-2.2,4.66l-2.46-1.3
		c2.1-3.54,3.9-8.2,4.95-12.4l2.63,0.54c-0.58,2.03-1.19,3.98-1.92,5.89H1030.11z M1022.09,1038.45c-1.66-3.43-3.61-6.58-5.02-8.57
		l2.13-1.44c1.62,2.13,3.61,5.27,5.2,8.46L1022.09,1038.45z"/>
	<path class="st0" d="M1045.95,1033.21c-0.68,0.29-1.92,0.69-3.32,1.12v10.12c0,2.78-0.9,3.29-4.01,3.5l-1.92,0.15l-0.79-2.49
		l1.95-0.11c1.7-0.11,2.17-0.36,2.17-1.88v-8.49c-1.95,0.62-3.9,1.16-5.13,1.48l-0.65-2.56c1.59-0.33,3.72-0.87,5.78-1.52v-7.55
		h-4.51v-2.35h4.51v-6.94l2.6,0.11v6.83h3.83v2.35h-3.83v6.76c1.16-0.4,2.17-0.76,2.96-1.09l0.26,1.63L1045.95,1033.21z
		 M1067.31,1027.43v2.39h-21.72v-2.39h9.11v-4.44h-6.87v-2.45h6.87v-4.66l2.67,0.11v4.55h7.63v2.45h-7.63v4.44H1067.31z
		 M1061.96,1033.93h4.37v2.42h-4.37v7.48c0,2.85-0.86,3.97-4.81,4.26l-1.95,0.14l-0.98-2.6l2.24-0.15c2.46-0.15,2.78-0.5,2.78-2.46
		v-6.68h-12.79v-2.42h12.79v-2.96l2.71,0.11V1033.93z M1054.34,1042.24l-1.88,2.06c-1.12-1.8-3-4.01-4.44-5.27l1.88-1.59
		C1051.41,1038.77,1053.47,1040.98,1054.34,1042.24z"/>
	<path class="st0" d="M1082.47,1043.66c-3.22,0.79-7.84,1.69-11.49,2.27l-0.33-2.6c3.43-0.47,8.13-1.37,11.67-2.28l0.07,1.52
		L1082.47,1043.66z M1071.44,1029.38l-0.54-2.42c0.58-0.22,0.83-0.51,1.23-1.05c1.19-1.63,3.58-6.43,4.95-9.9l2.1,0.87
		c-1.23,3.07-3.58,7.84-4.77,9.75c0.68-0.07,2.93-0.22,4.15-0.25c0.79-1.52,1.48-2.93,2.06-4.16l1.95,0.94
		c-1.73,3.8-4.88,9.47-6.83,12.18c1.3-0.22,4.12-0.65,5.89-0.9v2.46l-7.41,1.16c-0.65,0.11-1.12,0.18-1.99,0.43l-0.65-2.42
		c0.76-0.29,1.37-0.68,1.84-1.34c1.3-1.8,2.56-3.87,3.76-5.89c-1.48,0.07-3.72,0.25-4.26,0.29
		C1072.49,1029.16,1072.1,1029.24,1071.44,1029.38z M1093.77,1040.11c-0.11,0.33-0.25,0.61-0.4,0.9c2.67,1.3,6.94,3.8,8.89,5.13
		l-1.08,2.45c-1.99-1.48-6.39-4.3-9-5.6c-1.95,2.49-5.31,4.19-10.77,5.75l-1.01-2.38c6.32-1.63,9.4-3.4,10.8-6.25h-9.4v-2.31H1092
		c0.25-1.19,0.4-2.53,0.43-4.05c0.04-1.12,0.11-4.66,0.11-5.75l2.35,0.11l-0.15,5.38c-0.04,1.59-0.14,3.04-0.4,4.3h8.57v2.31
		H1093.77z M1090.7,1021.4h-7.26v-2.2h7.26v-3.51l2.42,0.11v3.4h7.91v2.2h-7.91v3.4h8.46v2.2l-2.13,5.13l-2.1-0.65l1.88-4.37h-16.73
		v-2.31h8.2V1021.4z M1083.69,1031.87c1.99,0.8,4.81,2.39,6.14,3.43l-0.94,1.77c-1.45-1.12-4.51-2.86-6.11-3.43L1083.69,1031.87z
		 M1090.27,1033.03c-1.44-1.19-4.51-2.85-5.93-3.36l0.87-1.81c1.84,0.76,4.51,2.2,6,3.21L1090.27,1033.03z"/>
	<path class="st0" d="M1120.28,1041.81c-0.72,0.36-7.73,3.65-8.99,4.3c-0.87,0.47-1.41,0.76-2.39,1.45l-1.37-2.64
		c1.12-0.86,1.27-1.16,1.27-1.84v-13.44h7.29v-8.27h-8.13v-2.71h10.88v13.55h-7.44v10.77c0.98-0.47,7.55-3.61,8.46-4.01
		L1120.28,1041.81z M1139.25,1046.04l-1.81,2.42c-3.68-2.49-6.68-5.03-8.99-7.74c-2.46,2.75-5.68,5.24-9.94,7.84l-1.7-2.38
		c4.44-2.49,7.66-4.92,9.97-7.55c-1.99-2.86-3.4-5.89-4.23-9.32c-0.54,0.87-1.12,1.73-1.7,2.56l-1.77-1.95
		c2.78-3.87,5.31-9.75,6.21-14.34l2.64,0.54c-0.47,1.84-1.01,3.65-1.7,5.42h11.96v2.6h-3.14c-0.76,6.04-2.21,10.55-4.95,14.45
		C1132.45,1041.27,1135.45,1043.69,1139.25,1046.04z M1128.45,1036.5c2.31-3.43,3.43-7.37,4.01-12.36h-7.26
		c-0.26,0.65-0.54,1.27-0.87,1.92C1124.98,1030.07,1126.31,1033.47,1128.45,1036.5z"/>
	<path class="st0" d="M1174.21,1044.67l-0.61,2.71c-3.11,0.11-8.13,0.22-11.17,0.15c-7.52-0.18-10.69-0.51-14.67-4.55
		c-1.34,1.55-2.28,2.71-4.3,4.77l-1.92-2.03c1.95-1.84,3.76-3.61,5.09-5.27v-9.58h-3.9v-2.56h6.5v12.68
		c3.47,3.32,6.18,3.79,12.5,3.94C1166.01,1045.03,1170.38,1044.88,1174.21,1044.67z M1148.77,1025.59
		c-1.08-2.06-3.65-5.49-5.09-7.01l1.99-1.66c1.41,1.41,4.09,4.77,5.17,6.54L1148.77,1025.59z M1156.36,1034.48h-4.95v-2.56h5.06
		v-2.21v-4.99h-3.97v-2.53h3.97v-5.89l2.57,0.07v5.82h6.54v-5.92l2.63,0.07v5.85h4.62v2.53h-4.62v7.19h5.78v2.56h-5.78v8.96h-2.63
		v-8.96h-6.69c-0.33,4.19-1.34,5.93-4.19,9.25l-2.13-1.62C1155.2,1039.03,1156.07,1037.65,1156.36,1034.48z M1159,1031.91h6.58
		v-7.19h-6.54v4.81C1159.03,1030.39,1159.03,1031.19,1159,1031.91z"/>
	<path class="st0" d="M1178.42,1032.49h10.66v2.6h-10.66V1032.49z"/>
</g>
</svg>
